<svg xmlns="http://www.w3.org/2000/svg" width="24" height="24" viewBox="0 0 24 24" fill="none">
  <path fill-rule="evenodd" clip-rule="evenodd"
    d="M12 17.4142L12.7064 16.7078L12.7078 16.7064L17.7071 11.7071C18.0976 11.3166 18.0976 10.6834 17.7071 10.2929C17.3166 9.90237 16.6834 9.90237 16.2929 10.2929L13 13.5858L13 4C13 3.44771 12.5523 3 12 3C11.4477 3 11 3.44771 11 4L11 13.5858L7.70711 10.2929C7.31658 9.90237 6.68342 9.90237 6.29289 10.2929C5.90237 10.6834 5.90237 11.3166 6.29289 11.7071L11.2922 16.7064L11.2936 16.7078L12 17.4142ZM4 19C3.44772 19 3 19.4477 3 20C3 20.5523 3.44772 21 4 21H20C20.5523 21 21 20.5523 21 20C21 19.4477 20.5523 19 20 19H4Z"
    fill="white" />
</svg>