<svg xmlns="http://www.w3.org/2000/svg" width="24" height="24" viewBox="0 0 24 24" fill="none">
  <path fill-rule="evenodd" clip-rule="evenodd"
    d="M16.2929 9.70714C16.6834 10.0977 17.3166 10.0977 17.7071 9.70714C18.0976 9.31661 18.0976 8.68345 17.7071 8.29292L12.7071 3.29292L12 2.58582L11.2929 3.29292L6.29289 8.29292C5.90237 8.68345 5.90237 9.31661 6.29289 9.70714C6.68342 10.0977 7.31658 10.0977 7.70711 9.70714L11 6.41424L11 16C11 16.5523 11.4477 17 12 17C12.5523 17 13 16.5523 13 16L13 6.41424L16.2929 9.70714ZM4 19C3.44772 19 3 19.4477 3 20C3 20.5523 3.44772 21 4 21H20C20.5523 21 21 20.5523 21 20C21 19.4477 20.5523 19 20 19H4Z"
    fill="currentColor" />
</svg>