<svg xmlns="http://www.w3.org/2000/svg" width="20" height="20" viewBox="0 0 20 20" fill="none">
  <circle cx="7.5" cy="7.5" r="7.5" fill="#2862FF" />
  <path
    d="M6.07144 17.8572L1.07144 12.8572V16.7857L1.42858 16.0715L4.64287 19.2857L6.07144 17.8572Z"
    fill="#00E700" />
  <path
    d="M14.2857 1.42859L19.2857 6.42859V2.50002L18.9286 3.2143L15.7143 1.7643e-05L14.2857 1.42859Z"
    fill="#2862FF" />
  <path fill-rule="evenodd" clip-rule="evenodd"
    d="M7.5 17.1429C12.8256 17.1429 17.1429 12.8256 17.1429 7.50003C17.1429 7.18807 17.128 6.87957 17.0991 6.5752C18.8643 7.94739 20 10.0911 20 12.5C20 16.6422 16.6421 20 12.5 20C10.091 20 7.94736 18.8643 6.57516 17.0991C6.87954 17.1281 7.18804 17.1429 7.5 17.1429Z"
    fill="#00E700" />
</svg>