<svg width="24" height="24" viewBox="0 0 24 24" fill="none" xmlns="http://www.w3.org/2000/svg">
  <path fill-rule="evenodd" clip-rule="evenodd"
    d="M9 2.1C7.95066 2.1 7.1 2.95066 7.1 4V4.1H6C4.39837 4.1 3.1 5.39837 3.1 7V19C3.1 20.6016 4.39837 21.9 6 21.9H18C19.6016 21.9 20.9 20.6016 20.9 19V7C20.9 5.39837 19.6016 4.1 18 4.1H16.9V4C16.9 2.95066 16.0493 2.1 15 2.1H9ZM16.9 5.9V6C16.9 7.04934 16.0493 7.9 15 7.9H9C7.95066 7.9 7.1 7.04934 7.1 6V5.9H6C5.39249 5.9 4.9 6.39249 4.9 7V19C4.9 19.6075 5.39249 20.1 6 20.1H18C18.6075 20.1 19.1 19.6075 19.1 19V7C19.1 6.39249 18.6075 5.9 18 5.9H16.9ZM8.9 4C8.9 3.94477 8.94477 3.9 9 3.9H15C15.0552 3.9 15.1 3.94477 15.1 4V6C15.1 6.05523 15.0552 6.1 15 6.1H9C8.94477 6.1 8.9 6.05523 8.9 6V4Z"
    fill="currentColor" />
  <line x1="8" y1="11" x2="16" y2="11" stroke="currentColor" stroke-width="2" />
  <line x1="8" y1="15" x2="16" y2="15" stroke="currentColor" stroke-width="2" />
</svg>
  