<svg width="20" height="20" viewBox="0 0 20 20" fill="none" xmlns="http://www.w3.org/2000/svg">
  <path fill-rule="evenodd" clip-rule="evenodd"
    d="M3.33323 9.99935C3.33323 6.31745 6.318 3.33268 9.9999 3.33268C13.6818 3.33268 16.6666 6.31745 16.6666 9.99935C16.6666 13.6812 13.6818 16.666 9.9999 16.666C6.318 16.666 3.33323 13.6812 3.33323 9.99935ZM9.9999 1.66602C5.39753 1.66602 1.66656 5.39698 1.66656 9.99935C1.66656 14.6017 5.39753 18.3327 9.9999 18.3327C14.6023 18.3327 18.3332 14.6017 18.3332 9.99935C18.3332 5.39698 14.6023 1.66602 9.9999 1.66602ZM9.9999 8.33268C9.53966 8.33268 9.16656 7.95959 9.16656 7.49935V6.66602C9.16656 6.20578 9.53966 5.83268 9.9999 5.83268C10.4601 5.83268 10.8332 6.20578 10.8332 6.66602V7.49935C10.8332 7.95959 10.4601 8.33268 9.9999 8.33268ZM9.9999 14.166C9.53966 14.166 9.16656 13.7929 9.16656 13.3327L9.16657 9.99935C9.16657 9.53911 9.53966 9.16602 9.9999 9.16602C10.4601 9.16602 10.8332 9.53911 10.8332 9.99935L10.8332 13.3327C10.8332 13.7929 10.4601 14.166 9.9999 14.166Z"
    fill="#F1606D" />
</svg>
  