<svg width="20" height="20" viewBox="0 0 20 20" fill="none" xmlns="http://www.w3.org/2000/svg">
  <g id="Outline/check-square">
    <path id="Subtract"
      d="M5 1.66675C3.61929 1.66675 2.5 2.78604 2.5 4.16675V15.8334C2.5 17.2141 3.61929 18.3334 5 18.3334H10V16.6667H5C4.53976 16.6667 4.16667 16.2937 4.16667 15.8334V4.16675C4.16667 3.70651 4.53976 3.33341 5 3.33341H15C15.4602 3.33341 15.8333 3.70651 15.8333 4.16675V14.1667H17.5V4.16675C17.5 2.78604 16.3807 1.66675 15 1.66675H5Z"
      fill="currentColor" />
    <rect id="Rectangle 34627826" x="10.8333" y="10.0001" width="7.5" height="7.5" rx="3.75"
      fill="currentColor" stroke="currentColor" stroke-width="1.66667" />
    <rect id="Rectangle 34627828" x="13.832" y="11.9678" width="1.5" height="2.18817" fill="currentColor" />
    <rect id="Rectangle 34627829" x="13.832" y="14.1558" width="1.5" height="2.18817"
      transform="rotate(-45 13.832 14.1558)" fill="currentColor" />
  </g>
</svg>
  