<svg width="24" height="25" viewBox="0 0 24 25" fill="none" xmlns="http://www.w3.org/2000/svg">
<path fill-rule="evenodd" clip-rule="evenodd" d="M16.8395 10.4286C17.253 10.0151 17.9234 10.0151 18.3369 10.4286C18.7504 10.8421 18.7504 11.5125 18.3369 11.926L12.7487 17.5142L12 18.2629L11.2513 17.5142L5.66306 11.926C5.24957 11.5125 5.24957 10.8421 5.66306 10.4286C6.07656 10.0151 6.74697 10.0151 7.16047 10.4286L10.9412 14.2093V3.35375C10.9412 2.76897 11.4152 2.29492 12 2.29492C12.5848 2.29492 13.0588 2.76897 13.0588 3.35375L13.0588 14.2093L16.8395 10.4286ZM4.11765 14.5302C4.11765 13.9454 3.6436 13.4714 3.05882 13.4714C2.47405 13.4714 2 13.9454 2 14.5302V19.0008C2 20.8201 3.47483 22.2949 5.29412 22.2949H18.7059C20.5252 22.2949 22 20.8201 22 19.0008V14.5302C22 13.9454 21.5259 13.4714 20.9412 13.4714C20.3564 13.4714 19.8824 13.9454 19.8824 14.5302V19.0008C19.8824 19.6505 19.3556 20.1773 18.7059 20.1773H5.29412C4.64437 20.1773 4.11765 19.6505 4.11765 19.0008V14.5302Z" fill="currentColor"/>
</svg>
