<svg width="20" height="23" viewBox="0 0 20 23" fill="none" xmlns="http://www.w3.org/2000/svg">
<path fill-rule="evenodd" clip-rule="evenodd" d="M2.71127 7.74667C2.71233 7.76915 2.71341 7.78837 2.71438 7.80416V11.5464L0.912034 13.3487L0.619141 13.6416V14.0558V17.1987V18.1987H1.61914H5.85736V18.2463C5.85736 20.5343 7.71218 22.3891 10.0002 22.3891C12.2883 22.3891 14.1431 20.5343 14.1431 18.2463V18.1987H18.381H19.381V17.1987V14.0558V13.6416L19.0882 13.3487L17.2858 11.5464V7.80416C17.2868 7.78837 17.2879 7.76915 17.2889 7.74667C17.2917 7.68788 17.2944 7.60658 17.295 7.50595C17.2962 7.3051 17.289 7.02487 17.2566 6.69118C17.1922 6.02924 17.0257 5.12709 16.6056 4.21058C16.1821 3.28671 15.4959 2.33895 14.3992 1.62756C13.3015 0.915523 11.8604 0.484375 10.0001 0.484375C8.13976 0.484375 6.69871 0.915523 5.60099 1.62756C4.50426 2.33895 3.81804 3.28671 3.3946 4.21058C2.97453 5.12709 2.80798 6.02924 2.74363 6.69118C2.71118 7.02487 2.70399 7.3051 2.70519 7.50595C2.70579 7.60658 2.7085 7.68788 2.71127 7.74667ZM12.1431 18.1986H7.85736V18.2463C7.85736 19.4297 8.81675 20.3891 10.0002 20.3891C11.1837 20.3891 12.1431 19.4297 12.1431 18.2463V18.1986ZM14.1431 16.1987H17.381V14.47L15.5787 12.6677L15.2858 12.3748V11.9606V7.77009V7.7285L15.2889 7.69101L15.289 7.69027L15.289 7.69012L15.2893 7.68634C15.2894 7.68383 15.2896 7.68034 15.2899 7.67587C15.2903 7.66979 15.2907 7.66192 15.2911 7.65233C15.2927 7.61904 15.2946 7.56529 15.295 7.49405C15.2959 7.35115 15.2908 7.14031 15.2659 6.88471C15.2157 6.36808 15.0876 5.6988 14.7875 5.04389C14.4907 4.39632 14.031 3.77266 13.3108 3.30548C12.5916 2.83894 11.5445 2.48438 10.0001 2.48438C8.45566 2.48438 7.40862 2.83894 6.68937 3.30548C5.96914 3.77266 5.50953 4.39632 5.21273 5.04389C4.91256 5.6988 4.78447 6.36808 4.73424 6.88471C4.70939 7.14031 4.7043 7.35115 4.70515 7.49405C4.70558 7.56529 4.70747 7.61904 4.70905 7.65233C4.70983 7.66895 4.71053 7.68042 4.71092 7.68634L4.71119 7.69026L4.71438 7.7285V7.77009V11.9606V12.3748L4.42149 12.6677L2.61914 14.47V16.1987H5.85736V16.1986H6.85736H13.1431H14.1431V16.1987Z" fill="currentColor"/>
</svg>
