<svg xmlns="http://www.w3.org/2000/svg" width="24" height="25" viewBox="0 0 24 25" fill="none">
  <path fill-rule="evenodd" clip-rule="evenodd"
    d="M12 1.29492C12.5523 1.29492 13 1.74264 13 2.29492V4.29492C13 4.84721 12.5523 5.29492 12 5.29492C11.4477 5.29492 11 4.84721 11 4.29492V2.29492C11 1.74264 11.4477 1.29492 12 1.29492ZM12 19.2949C12.5523 19.2949 13 19.7426 13 20.2949V22.2949C13 22.8472 12.5523 23.2949 12 23.2949C11.4477 23.2949 11 22.8472 11 22.2949V20.2949C11 19.7426 11.4477 19.2949 12 19.2949ZM22 13.2949C22.5523 13.2949 23 12.8472 23 12.2949C23 11.7426 22.5523 11.2949 22 11.2949H20C19.4477 11.2949 19 11.7426 19 12.2949C19 12.8472 19.4477 13.2949 20 13.2949H22ZM5 12.2949C5 12.8472 4.55228 13.2949 4 13.2949H2C1.44772 13.2949 1 12.8472 1 12.2949C1 11.7426 1.44772 11.2949 2 11.2949H4C4.55228 11.2949 5 11.7426 5 12.2949ZM19.7782 5.93098C20.1687 5.54046 20.1687 4.90729 19.7782 4.51677C19.3876 4.12625 18.7545 4.12625 18.3639 4.51677L16.9497 5.93098C16.5592 6.32151 16.5592 6.95467 16.9497 7.3452C17.3402 7.73572 17.9734 7.73572 18.3639 7.3452L19.7782 5.93098ZM7.05025 17.2447C7.44077 17.6352 7.44077 18.2684 7.05025 18.6589L5.63603 20.0731C5.24551 20.4636 4.61234 20.4636 4.22182 20.0731C3.8313 19.6826 3.8313 19.0494 4.22182 18.6589L5.63603 17.2447C6.02656 16.8542 6.65972 16.8542 7.05025 17.2447ZM18.3639 20.0731C18.7545 20.4636 19.3876 20.4636 19.7782 20.0731C20.1687 19.6825 20.1687 19.0494 19.7782 18.6589L18.3639 17.2446C17.9734 16.8541 17.3403 16.8541 16.9497 17.2446C16.5592 17.6352 16.5592 18.2683 16.9497 18.6589L18.3639 20.0731ZM7.05025 7.34517C6.65972 7.73569 6.02656 7.73569 5.63603 7.34517L4.22182 5.93095C3.8313 5.54043 3.8313 4.90727 4.22182 4.51674C4.61234 4.12622 5.24551 4.12622 5.63603 4.51674L7.05025 5.93095C7.44077 6.32148 7.44077 6.95464 7.05025 7.34517ZM8 12.2949C8 10.0858 9.79086 8.29492 12 8.29492C14.2091 8.29492 16 10.0858 16 12.2949C16 14.5041 14.2091 16.2949 12 16.2949C9.79086 16.2949 8 14.5041 8 12.2949ZM12 6.29492C8.68629 6.29492 6 8.98121 6 12.2949C6 15.6086 8.68629 18.2949 12 18.2949C15.3137 18.2949 18 15.6086 18 12.2949C18 8.98121 15.3137 6.29492 12 6.29492Z"
    fill="currentColor" />
</svg>