<svg width="24" height="25" viewBox="0 0 24 25" fill="none" xmlns="http://www.w3.org/2000/svg">
<path fill-rule="evenodd" clip-rule="evenodd" d="M9.66649 6.88216C9.66649 5.5935 10.7112 4.54883 11.9998 4.54883C13.2885 4.54883 14.3332 5.5935 14.3332 6.88216C14.3332 8.17083 13.2885 9.2155 11.9998 9.2155C10.7112 9.2155 9.66649 8.17083 9.66649 6.88216ZM11.9998 2.54883C9.60659 2.54883 7.66649 4.48893 7.66649 6.88216C7.66649 9.2754 9.60659 11.2155 11.9998 11.2155C14.3931 11.2155 16.3332 9.2754 16.3332 6.88216C16.3332 4.48893 14.3931 2.54883 11.9998 2.54883ZM12.299 14.5488C15.6402 14.5488 18.3907 17.0782 18.7401 20.3266H5.25952C5.60894 17.0782 8.35943 14.5488 11.7007 14.5488H12.299ZM11.7007 12.5488C7.01806 12.5488 3.22205 16.3448 3.22205 21.0275C3.22205 21.745 3.80369 22.3266 4.52119 22.3266H19.4785C20.196 22.3266 20.7776 21.745 20.7776 21.0275C20.7776 16.3448 16.9816 12.5488 12.299 12.5488H11.7007Z" fill="currentColor"/>
</svg>
