<svg width="46" height="46" viewBox="0 0 46 46" fill="none" xmlns="http://www.w3.org/2000/svg">
<circle cx="23" cy="23" r="23" fill="#222222"/>
<path d="M15.4277 11H33.7631C34.1748 11 34.5085 11.3337 34.5085 11.7453V24.7143C34.5085 25.1259 34.1748 25.4596 33.7631 25.4596H15.4277V11Z" fill="#00E700"/>
<rect x="15.4277" y="13.5342" width="19.0807" height="3.13043" fill="#008800"/>
<path d="M20.1992 21.2113C20.1992 20.0175 21.167 19.0498 22.3607 19.0498C23.5545 19.0498 24.5222 20.0175 24.5222 21.2113V25.4597H20.1992V21.2113Z" fill="white"/>
<path d="M15.4286 25.4597H24.5217V35.0001H16.323V32.3168L12.7568 28.3203C12.2694 27.774 12 27.0675 12 26.3353V21.533C12 20.7534 12.3054 20.0048 12.8507 19.4477L15.4286 16.8137V25.4597Z" fill="#2862FF"/>
</svg>
