<svg width="46" height="46" viewBox="0 0 46 46" fill="none" xmlns="http://www.w3.org/2000/svg">
<circle cx="23" cy="23" r="23" fill="#F7F8FC"/>
<path d="M15.4286 11H33.764C34.1756 11 34.5093 11.3337 34.5093 11.7453V24.7143C34.5093 25.1259 34.1756 25.4596 33.764 25.4596H15.4286V11Z" fill="#00E700"/>
<rect x="15.4286" y="13.5342" width="19.0807" height="3.13043" fill="#008800"/>
<path d="M20.1988 21.2113C20.1988 20.0175 21.1665 19.0498 22.3603 19.0498C23.554 19.0498 24.5217 20.0175 24.5217 21.2113V25.4597H20.1988V21.2113Z" fill="white"/>
<path d="M15.4286 25.4597H24.5217V35.0001H16.323V32.3168L12.7568 28.3203C12.2694 27.774 12 27.0675 12 26.3353V21.533C12 20.7534 12.3054 20.0048 12.8507 19.4477L15.4286 16.8137V25.4597Z" fill="#2862FF"/>
</svg>
