<svg width="46" height="46" viewBox="0 0 46 46" fill="none" xmlns="http://www.w3.org/2000/svg">
<circle cx="23" cy="23" r="23" fill="#222222"/>
<path d="M23.0001 29.284C22.53 28.695 21.9384 28.1433 21.2011 27.7442C18.5435 26.3057 15 27.3953 15 27.3953C15 27.3953 15.7653 30.8171 18.4229 32.2556C19.9334 33.0732 21.7301 33.0741 22.9997 32.9226C24.2693 33.0742 26.0664 33.0734 27.5772 32.2557C30.2347 30.8172 31 27.3954 31 27.3954C31 27.3954 27.4565 26.3058 24.799 27.7443C24.0617 28.1434 23.4701 28.6951 23.0001 29.284Z" fill="#00E700"/>
<path d="M23 26.5557V31.889M23 31.889L19 29.6668M23 31.889L26.5556 29.6668" stroke="#008800" stroke-linecap="round" stroke-linejoin="round"/>
<circle cx="23" cy="19" r="8" fill="#2862FF"/>
<path d="M27 19C27 16.7909 25.2091 15 23 15M23 23C20.7909 23 19 21.2091 19 19" stroke="white" stroke-width="1.4"/>
<path d="M17 32.8889C17 32.398 17.398 32 17.8889 32H28.1111C28.602 32 29 32.398 29 32.8889V34H17V32.8889Z" fill="#2862FF"/>
</svg>
