<svg width="46" height="46" viewBox="0 0 46 46" fill="none" xmlns="http://www.w3.org/2000/svg">
<circle cx="23" cy="23" r="23" fill="#222222"/>
<path d="M13 12H30V23H24.5C23.3954 23 22.5 23.8954 22.5 25V32H13V12Z" fill="#2862FF"/>
<path d="M24 25C24 24.4477 24.4477 24 25 24H32C32.5523 24 33 24.4477 33 25V34L28.5 31.1429L24 34V25Z" fill="#00E700"/>
<rect x="16" y="16" width="11" height="2" fill="white"/>
<rect x="16" y="20" width="6" height="2" fill="white"/>
<rect x="22" width="24" height="12" rx="6" fill="#FD3D49"/>
<path d="M27.9363 5.148H31.2933V2.412H32.2563V9H31.2933V6.012H27.9363V9H26.9733V2.412H27.9363V5.148ZM33.3982 6.66C33.3982 6.186 33.5032 5.763 33.7132 5.391C33.9232 5.019 34.2022 4.731 34.5502 4.527C34.9042 4.323 35.2852 4.221 35.6932 4.221C36.0952 4.221 36.4702 4.323 36.8182 4.527C37.1662 4.731 37.4452 5.019 37.6552 5.391C37.8652 5.763 37.9702 6.186 37.9702 6.66C37.9702 7.134 37.8652 7.557 37.6552 7.929C37.4452 8.301 37.1662 8.589 36.8182 8.793C36.4702 8.997 36.0952 9.099 35.6932 9.099C35.2852 9.099 34.9042 8.997 34.5502 8.793C34.2022 8.589 33.9232 8.301 33.7132 7.929C33.5032 7.557 33.3982 7.134 33.3982 6.66ZM34.3702 6.66C34.3702 7.152 34.4932 7.542 34.7392 7.83C34.9912 8.118 35.3062 8.262 35.6842 8.262C36.0682 8.262 36.3832 8.118 36.6292 7.83C36.8752 7.542 36.9982 7.152 36.9982 6.66C36.9982 6.168 36.8722 5.778 36.6202 5.49C36.3742 5.202 36.0622 5.058 35.6842 5.058C35.3062 5.058 34.9912 5.202 34.7392 5.49C34.4932 5.778 34.3702 6.168 34.3702 6.66ZM41.74 8.811C41.476 9.003 41.125 9.099 40.687 9.099C40.243 9.099 39.88 8.976 39.598 8.73C39.322 8.484 39.184 8.046 39.184 7.416V5.121H38.392V4.329H39.184V2.979H40.102V4.329H41.479V5.121H40.102V7.29C40.102 7.938 40.342 8.262 40.822 8.262C41.038 8.262 41.239 8.205 41.425 8.091L41.74 8.811Z" fill="white"/>
</svg>
