<svg xmlns="http://www.w3.org/2000/svg" width="20" height="20" viewBox="0 0 20 20" fill="none">
  <g clip-path="url(#clip0_12287_18893)">
    <path fill-rule="evenodd" clip-rule="evenodd"
      d="M10.0025 0.832031H9.16919V10.832H19.1692V9.9987C19.1692 4.93609 15.0651 0.832031 10.0025 0.832031ZM10.8358 9.16537V2.54447C14.3122 2.92876 17.0724 5.68902 17.4567 9.16537H10.8358Z"
      fill="currentColor" />
    <path
      d="M0.835938 9.99935C0.835938 5.80342 3.6551 2.26595 7.5026 1.17773V2.92611C4.58962 3.9557 2.5026 6.7338 2.5026 9.99935C2.5026 14.1415 5.86047 17.4994 10.0026 17.4994C13.2682 17.4994 16.0462 15.4124 17.0758 12.4994H18.8242C17.736 16.3469 14.1985 19.1661 10.0026 19.1661C4.93999 19.1661 0.835938 15.062 0.835938 9.99935Z"
      fill="currentColor" />
  </g>
  <defs>
    <clipPath id="clip0_12287_18893">
      <rect width="20" height="20" fill="currentColor" />
    </clipPath>
  </defs>
</svg>