<svg xmlns="http://www.w3.org/2000/svg" width="20" height="20" viewBox="0 0 20 20" fill="none">
  <path d="M7.50269 5.83398H14.1694V7.50064H7.50269V5.83398Z" fill="currentColor" />
  <path d="M7.50269 9.16797H10.836V10.8346H7.50269V9.16797Z" fill="currentColor" />
  <path fill-rule="evenodd" clip-rule="evenodd"
    d="M3.33594 1.66797C1.95523 1.66797 0.835938 2.78726 0.835938 4.16797V7.5013H4.16943V15.8346C4.16943 17.2153 5.28872 18.3346 6.66943 18.3346H15.8359C17.6769 18.3346 19.1693 16.8423 19.1693 15.0013V13.3346H17.5028V3.33464C17.5028 2.41416 16.7566 1.66797 15.8361 1.66797H3.33594ZM15.8361 13.3346V3.33464H5.8361V15.8346C5.8361 16.2949 6.20919 16.668 6.66943 16.668C7.12967 16.668 7.5026 16.2949 7.5026 15.8346V13.3346H15.8361ZM9.02702 16.668H15.8359C16.7564 16.668 17.5026 15.9218 17.5026 15.0013H9.16927V15.8346C9.16927 16.1268 9.11914 16.4073 9.02702 16.668ZM4.16927 5.83464V4.16797C4.16927 3.70773 3.79618 3.33464 3.33594 3.33464C2.8757 3.33464 2.5026 3.70773 2.5026 4.16797V5.83464H4.16927Z"
    fill="currentColor" />
</svg>