<svg xmlns="http://www.w3.org/2000/svg" width="20" height="20" viewBox="0 0 20 20" fill="none">
  <path
    d="M18.3315 7.5013C18.3315 9.83031 16.9666 11.8405 14.993 12.7757C14.9963 12.6846 14.9979 12.5932 14.9979 12.5013C14.9979 11.9694 14.9426 11.4505 14.8373 10.9499C15.9403 10.2003 16.6648 8.93542 16.6648 7.5013C16.6648 5.20012 14.7993 3.33464 12.4981 3.33464C11.0641 3.33464 9.79929 4.0591 9.04968 5.16201C8.54902 5.05669 8.02998 5.0013 7.498 5.0013C7.40623 5.0013 7.31485 5.00295 7.22388 5.00622C8.1591 3.03278 10.1692 1.66797 12.4981 1.66797C15.7198 1.66797 18.3315 4.27964 18.3315 7.5013Z"
    fill="currentColor" />
  <path d="M5.41479 12.5013L7.49814 10.418L9.58146 12.5013L7.49814 14.5846L5.41479 12.5013Z"
    fill="currentColor" />
  <path fill-rule="evenodd" clip-rule="evenodd"
    d="M7.32661 6.67045L7.32499 6.6705C7.11943 6.67649 6.91656 6.69311 6.71689 6.71983C3.86462 7.1016 1.66479 9.54455 1.66479 12.5013C1.66479 15.723 4.27648 18.3346 7.49814 18.3346C10.7198 18.3346 13.3315 15.723 13.3315 12.5013C13.3315 9.27967 10.7198 6.66802 7.49814 6.66797L7.44861 6.66818L7.32661 6.67045ZM11.6648 12.5013C11.6648 14.8025 9.79931 16.668 7.49814 16.668C5.19695 16.668 3.33146 14.8025 3.33146 12.5013C3.33146 10.2001 5.19695 8.33464 7.49814 8.33464C9.79931 8.33464 11.6648 10.2001 11.6648 12.5013Z"
    fill="currentColor" />
  <path
    d="M13.3314 18.3336H17.4981V16.667H15.4738L18.8945 13.5313L17.7683 12.3027L12.7683 16.886L13.3314 18.3336Z"
    fill="currentColor" />
  <path
    d="M6.66467 1.66797H2.498V3.33464H4.52233L1.10156 6.47034L2.22777 7.69893L7.22777 3.1156L6.66467 1.66797Z"
    fill="currentColor" />
</svg>