<svg width="16" height="16" viewBox="0 0 16 16" fill="none" xmlns="http://www.w3.org/2000/svg">
<path fill-rule="evenodd" clip-rule="evenodd" d="M6 1.33325C5.26362 1.33325 4.66667 1.93021 4.66667 2.66659L4 2.66659C2.89543 2.66659 2 3.56202 2 4.66659V12.6666C2 13.7712 2.89543 14.6666 4 14.6666H12C13.1046 14.6666 14 13.7712 14 12.6666V4.66659C14 3.56202 13.1046 2.66659 12 2.66659H11.3333C11.3333 1.9302 10.7364 1.33325 10 1.33325H6ZM11.3333 3.99992C11.3333 4.7363 10.7364 5.33325 10 5.33325H6C5.26362 5.33325 4.66667 4.7363 4.66667 3.99992L4 3.99992C3.63181 3.99992 3.33333 4.2984 3.33333 4.66659V12.6666C3.33333 13.0348 3.63181 13.3333 4 13.3333H12C12.3682 13.3333 12.6667 13.0348 12.6667 12.6666V4.66659C12.6667 4.2984 12.3682 3.99992 12 3.99992L11.3333 3.99992ZM6 3.99992V2.66659H10L10 3.99992L6 3.99992Z" fill="#757E97"/>
<line x1="5.33331" y1="7.33333" x2="10.6666" y2="7.33333" stroke="#757E97" stroke-width="1.33333"/>
<line x1="5.33331" y1="10.0001" x2="10.6666" y2="10.0001" stroke="#757E97" stroke-width="1.33333"/>
</svg>
