<svg width="46" height="46" viewBox="0 0 46 46" fill="none" xmlns="http://www.w3.org/2000/svg">
<circle cx="23" cy="23" r="23" fill="#F7F8FC"/>
<circle cx="20.5" cy="20.5" r="7.5" fill="#2862FF"/>
<path d="M26.9534 13.5459C28.1904 13.8903 30.6254 15.7944 31.2784 18.698L32.6862 15.8663" stroke="#2862FF" stroke-width="1.6" stroke-linecap="round" stroke-linejoin="round"/>
<path d="M18.1151 31.3923C16.5842 30.9183 14.1108 29.3749 13.1151 26.8923L12.1151 29.8923" stroke="#00E700" stroke-width="1.6" stroke-linecap="round" stroke-linejoin="round"/>
<path fill-rule="evenodd" clip-rule="evenodd" d="M20.5 30.1429C25.8256 30.1429 30.1429 25.8256 30.1429 20.5C30.1429 20.1881 30.128 19.8796 30.0991 19.5752C31.8643 20.9474 33 23.0911 33 25.5C33 29.6422 29.6421 33 25.5 33C23.091 33 20.9474 31.8643 19.5752 30.0991C19.8795 30.1281 20.188 30.1429 20.5 30.1429Z" fill="#00E700"/>
</svg>
