<svg width="56" height="56" viewBox="0 0 56 56" fill="none" xmlns="http://www.w3.org/2000/svg">
  <rect x="0.5" y="0.5" width="55" height="55" rx="11.5" fill="#F7F8FC" stroke="#F0F0F0" />
  <path
    d="M33.1508 25.5018H27.5686C27.134 25.5018 26.7985 25.5238 26.5619 25.5678C26.3309 25.6063 26.1273 25.7741 25.9513 26.0711C26.0063 26.4452 26.1548 26.657 26.3969 26.7065C26.6389 26.7506 27.013 26.7726 27.5191 26.7726H30.6466C31.9009 26.8441 32.7784 27.2072 33.279 27.8618C33.7796 28.5165 33.9722 29.4297 33.8566 30.6015C33.6696 31.7732 33.257 32.6397 32.6188 33.2008C31.9807 33.7565 30.9272 34.0453 29.4583 34.0673H23.4008V31.1048H29.4088C29.981 31.1048 30.4156 31.0856 30.7126 31.0471C31.0152 31.0031 31.2215 30.7803 31.3315 30.3787C31.293 30.0596 31.139 29.8698 30.8694 29.8093C30.6054 29.7433 30.1598 29.7103 29.5326 29.7103H26.5124C25.1811 29.7103 24.2376 29.3857 23.682 28.7365C23.1318 28.0874 22.9145 27.1879 23.0301 26.0381C23.2446 24.8333 23.6792 23.9586 24.3339 23.414C24.9885 22.8694 26.0255 22.5641 27.4449 22.498H33.1508V25.5018Z"
    fill="black" />
  <rect x="27.1597" y="20.3496" width="2.99681" height="2.24961" fill="black" />
  <rect x="27.1597" y="34.0352" width="2.99681" height="2.23184" fill="black" />
  <path
    d="M28.0503 43.0795C27.1614 43.0795 26.2716 42.9983 25.3876 42.8359C24.9281 42.7515 24.6239 42.3105 24.7084 41.851C24.7928 41.3915 25.2337 41.0874 25.6933 41.1717C27.201 41.4487 28.7271 41.459 30.2295 41.2023C31.7784 40.9377 33.2588 40.3955 34.6296 39.5909L34.6359 39.5873C36.2162 38.6779 37.5694 37.4874 38.6578 36.0489C39.7084 34.6605 40.4699 33.1006 40.9211 31.4123C41.3707 29.73 41.4894 28.0059 41.2738 26.2881C41.0507 24.5112 40.4777 22.8186 39.5707 21.2574C38.7138 19.7882 37.6775 18.572 36.4032 17.5405C36.0401 17.2465 35.984 16.7138 36.278 16.3507C36.572 15.9876 37.1047 15.9314 37.4678 16.2255C38.904 17.3881 40.0702 18.7557 41.033 20.4061C42.0554 22.1661 42.701 24.0737 42.9525 26.0773C43.1955 28.0129 43.062 29.9548 42.5557 31.8491C42.0477 33.7497 41.1902 35.5062 40.0071 37.0698C38.7817 38.6891 37.2598 40.0288 35.4833 41.0517C33.9362 41.9593 32.2646 42.571 30.5145 42.8701C29.7005 43.0093 28.8762 43.0794 28.0503 43.0795ZM18.1594 39.0946C17.9451 39.0948 17.7388 39.0135 17.5823 38.867C16.4709 37.8298 15.6126 36.7236 14.9589 35.4858C13.9423 33.7313 13.2997 31.829 13.049 29.8312C12.8059 27.8956 12.9395 25.9537 13.4457 24.0594C13.9536 22.1588 14.8112 20.4023 15.9944 18.8387C17.2204 17.2183 18.7436 15.8779 20.5216 14.8547C23.016 13.4107 25.8861 12.7222 28.8188 12.8655C29.2855 12.8882 29.6454 13.285 29.6226 13.7516C29.5998 14.2183 29.2028 14.5781 28.7364 14.5554C26.1296 14.4283 23.5813 15.0385 21.3674 16.3202C19.7853 17.2307 18.4321 18.4212 17.3436 19.8596C16.293 21.248 15.5316 22.808 15.0804 24.4963C14.6307 26.1786 14.5121 27.9026 14.7278 29.6205C14.9508 31.3974 15.5238 33.0899 16.4308 34.6511C16.4367 34.6613 16.4424 34.6716 16.4479 34.6821C17.0129 35.7556 17.7616 36.72 18.7368 37.6301C19.0784 37.9489 19.0968 38.4842 18.778 38.8258C18.6114 39.0043 18.3856 39.0946 18.1594 39.0946ZM28.0503 43.2487C27.1532 43.2487 26.247 43.1658 25.3571 43.0023C25.0904 42.9534 24.8587 42.8034 24.7047 42.5802C24.5508 42.357 24.493 42.0871 24.542 41.8204C24.591 41.5537 24.7409 41.3221 24.9641 41.1681C25.1873 41.0141 25.4571 40.9563 25.7239 41.0053C27.2119 41.2787 28.7183 41.2888 30.201 41.0355C31.7296 40.7744 33.1908 40.2393 34.5439 39.445L34.553 39.4398C36.1121 38.5425 37.4483 37.3671 38.5229 35.9469C39.5603 34.576 40.3121 33.0356 40.7576 31.3686C41.2016 29.7075 41.3187 28.0053 41.1058 26.3091C40.8856 24.5548 40.3199 22.8838 39.4244 21.3424C38.5779 19.8912 37.5548 18.6905 36.2967 17.672C35.8616 17.3198 35.7943 16.6793 36.1465 16.2443C36.4987 15.8092 37.1392 15.7418 37.5742 16.094C39.0267 17.2698 40.2058 18.6524 41.1791 20.3209C42.2129 22.1004 42.866 24.03 43.1203 26.0563C43.366 28.0137 43.2311 29.9774 42.7191 31.8928C42.2055 33.8147 41.3384 35.5908 40.142 37.172C38.9029 38.8094 37.3639 40.1641 35.5677 41.1983C34.0041 42.1156 32.3131 42.7344 30.5429 43.0368C29.7195 43.1775 28.8857 43.2483 28.0503 43.2487ZM25.5391 41.3269C25.4031 41.3269 25.2705 41.3679 25.1563 41.4467C25.0829 41.497 25.0203 41.5613 24.972 41.6359C24.9237 41.7106 24.8907 41.7941 24.8749 41.8816C24.8585 41.969 24.8597 42.0587 24.8784 42.1457C24.897 42.2326 24.9327 42.315 24.9833 42.388C25.0336 42.4614 25.0979 42.524 25.1726 42.5723C25.2472 42.6206 25.3307 42.6536 25.4182 42.6695C26.2881 42.8293 27.1737 42.9103 28.0504 42.9103C28.8626 42.9103 29.6821 42.8406 30.486 42.7033C32.2158 42.4077 33.8683 41.803 35.3976 40.9058C37.1556 39.8936 38.6606 38.5689 39.8721 36.9678C41.0421 35.4217 41.8899 33.6848 42.3923 31.8054C42.8928 29.9324 43.0248 28.0122 42.7847 26.0984C42.536 24.1174 41.8974 22.2309 40.8867 20.4911C39.9346 18.8589 38.7814 17.5065 37.3614 16.3569C37.0714 16.1222 36.6444 16.1671 36.4095 16.4572C36.1747 16.7472 36.2196 17.1742 36.5097 17.4091C37.8001 18.4537 38.8492 19.6846 39.7169 21.1721C40.6355 22.7533 41.2157 24.4674 41.4416 26.267C41.66 28.0066 41.5399 29.7524 41.0846 31.456C40.6277 33.1655 39.8567 34.7452 38.7928 36.1511C37.6907 37.6077 36.3205 38.8131 34.7204 39.734L34.7163 39.7363C33.3268 40.5519 31.8271 41.1011 30.2581 41.3691C28.7361 41.6291 27.1899 41.6187 25.6628 41.3382C25.622 41.3307 25.5806 41.3269 25.5391 41.3269ZM18.1593 39.2639C17.9022 39.2641 17.6546 39.1665 17.4668 38.9908C16.3422 37.9411 15.4734 36.8214 14.8108 35.5678C13.7838 33.7945 13.1345 31.8715 12.881 29.8524C12.6353 27.895 12.7703 25.9313 13.2822 24.0158C13.7958 22.0941 14.6629 20.3179 15.8594 18.7366C17.0993 17.0981 18.6394 15.7427 20.4371 14.7082C22.9604 13.2474 25.8614 12.5517 28.8271 12.6965C29.3862 12.7237 29.8188 13.2008 29.7916 13.7599C29.7651 14.3022 29.3154 14.7256 28.7782 14.7257C28.7616 14.7257 28.7449 14.7252 28.7281 14.7244C26.1538 14.5988 23.6376 15.2013 21.4522 16.4666C19.89 17.3656 18.5532 18.5415 17.4785 19.9617C16.4412 21.3325 15.6893 22.8729 15.2438 24.54C14.7998 26.201 14.6827 27.9033 14.8956 29.5994C15.1158 31.3536 15.6815 33.0246 16.5771 34.5661C16.5843 34.5785 16.5911 34.5909 16.5977 34.6034C17.1536 35.6598 17.8911 36.6094 18.8522 37.5064C19.0505 37.6914 19.1648 37.9426 19.1741 38.2136C19.1835 38.4846 19.0867 38.743 18.9017 38.9412C18.8066 39.0429 18.6916 39.124 18.564 39.1795C18.4363 39.235 18.2986 39.2637 18.1593 39.2639ZM28.0595 13.0162C25.4222 13.0162 22.8602 13.6965 20.6063 15.0013C18.8477 16.0133 17.3416 17.3387 16.1293 18.9408C14.9593 20.4871 14.1114 22.2239 13.6092 24.1032C13.1086 25.9763 12.9766 27.8965 13.2168 29.8102C13.4648 31.7853 14.1001 33.6664 15.1053 35.4011L15.1085 35.4069C15.7533 36.6278 16.6003 37.7191 17.6977 38.7434C17.8229 38.8606 17.988 38.9257 18.1594 38.9255C18.3491 38.9255 18.5249 38.8491 18.6543 38.7105C18.7151 38.6457 18.7625 38.5694 18.7937 38.4861C18.8249 38.4028 18.8392 38.3142 18.8359 38.2254C18.8331 38.1365 18.8127 38.0491 18.7758 37.9681C18.739 37.8872 18.6865 37.8144 18.6213 37.7539C17.632 36.8306 16.8722 35.8516 16.2981 34.761C16.2937 34.7525 16.2891 34.7443 16.2843 34.736C15.366 33.1552 14.7857 31.4412 14.5598 29.6416C14.3414 27.902 14.4616 26.1561 14.9168 24.4527C15.3738 22.7431 16.1448 21.1634 17.2087 19.7576C18.3109 18.3009 19.6817 17.0951 21.283 16.1736C23.5245 14.8758 26.1051 14.2577 28.7446 14.3865C29.1168 14.4047 29.4354 14.1162 29.4536 13.7434C29.4717 13.3707 29.1833 13.0527 28.8105 13.0345C28.5603 13.0223 28.31 13.0162 28.0595 13.0162ZM36.6764 15.4586L41.079 16.3003C41.597 16.4298 41.9854 16.9477 41.8559 17.4657V17.5304C41.7264 18.0484 41.2085 18.4369 40.6905 18.3073L36.2879 17.4657C35.77 17.3362 35.3815 16.8182 35.511 16.3003V16.2355C35.6405 15.7176 36.1585 15.3291 36.6764 15.4586ZM40.895 18.4341C40.8193 18.4341 40.7435 18.425 40.6687 18.4066L36.2633 17.5641C35.9871 17.4951 35.7356 17.3209 35.5732 17.0864C35.4037 16.8415 35.3457 16.5585 35.4095 16.2881V16.223L35.4126 16.2109C35.5619 15.6135 36.1504 15.2242 36.6982 15.3594L41.1036 16.2018C41.3798 16.2709 41.6313 16.445 41.7937 16.6796C41.9633 16.9245 42.0212 17.2075 41.9574 17.4778V17.5429L41.9544 17.555C41.8853 17.8312 41.7112 18.0828 41.4766 18.2452C41.2967 18.3698 41.0961 18.4341 40.895 18.4341ZM36.3099 17.3665L40.7152 18.2089C40.9319 18.2631 41.1612 18.2166 41.3612 18.0782C41.5524 17.9458 41.6952 17.742 41.7544 17.5176V17.4532L41.7575 17.4411C41.8116 17.2245 41.7652 16.995 41.6268 16.7951C41.4926 16.6013 41.2851 16.4572 41.0571 16.3995L36.6518 15.5571C36.2132 15.4475 35.7401 15.7634 35.6125 16.2484V16.3128L35.6094 16.3249C35.5553 16.5415 35.6017 16.771 35.7401 16.9709C35.8744 17.1647 36.0819 17.3088 36.3099 17.3665ZM14.5986 36.8243L19.0012 37.666C19.5192 37.7955 19.9077 38.3134 19.7781 38.8314V38.8961C19.6486 39.4141 19.1307 39.8025 18.6128 39.673L14.2102 38.8314C13.6922 38.7019 13.3037 38.184 13.4333 37.666V37.6013C13.4979 37.0833 14.0807 36.6948 14.5986 36.8243ZM18.8128 39.7991C18.7388 39.7991 18.6646 39.7904 18.591 39.7723L14.1855 38.9299C13.5917 38.7814 13.2034 38.1991 13.3317 37.6538L13.3325 37.5886C13.3663 37.3176 13.5285 37.0643 13.7775 36.8937C14.0344 36.7177 14.3414 36.6562 14.6203 36.725L19.0258 37.5675C19.302 37.6365 19.5535 37.8106 19.7159 38.0452C19.8854 38.2902 19.9434 38.5731 19.8796 38.8435V38.9086L19.8766 38.9207C19.7473 39.4378 19.289 39.799 18.8128 39.7991ZM14.2321 38.7322L18.6373 39.5745C19.076 39.6842 19.549 39.3683 19.6766 38.8833V38.8189L19.6796 38.8067C19.7338 38.5902 19.6874 38.3607 19.549 38.1608C19.4148 37.967 19.2072 37.8228 18.9792 37.7651L14.5739 36.9227C14.3506 36.8668 14.1021 36.9173 13.8922 37.0611C13.6931 37.1976 13.5631 37.3965 13.5347 37.6077V37.6784L13.5317 37.6905C13.4214 38.1318 13.742 38.6082 14.2321 38.7322Z"
    fill="black" />
</svg>
  