<svg width="56" height="56" viewBox="0 0 56 56" fill="none" xmlns="http://www.w3.org/2000/svg">
  <rect x="0.5" y="0.5" width="55" height="55" rx="11.5" fill="#F7F8FC" stroke="#F0F0F0" />
  <rect x="15.9995" y="20.8965" width="24" height="4.8" rx="1.2" stroke="black" stroke-width="2.4" />
  <path
    d="M18.3994 29.3027V38.9027C18.3994 40.2282 19.4739 41.3027 20.7994 41.3027H35.1994C36.5249 41.3027 37.5994 40.2282 37.5994 38.9027V29.3027"
    stroke="black" stroke-width="2.4" stroke-linecap="square" />
  <path
    d="M27.9996 16.1C27.9996 14.7745 29.0741 13.7 30.3996 13.7C31.725 13.7 32.7996 14.7745 32.7996 16.1C32.7996 17.4255 31.725 18.5 30.3996 18.5H27.9996V16.1Z"
    stroke="black" stroke-width="2.4" />
  <path
    d="M27.9997 16.1C27.9997 14.7745 26.9252 13.7 25.5997 13.7C24.2742 13.7 23.1997 14.7745 23.1997 16.1C23.1997 17.4255 24.2742 18.5 25.5997 18.5H27.9997V16.1Z"
    stroke="black" stroke-width="2.4" />
  <rect x="30" y="31" width="14" height="14" fill="#F7F8FC" />
  <path
    d="M37 44C35.8135 44 34.6537 43.6482 33.6671 42.9891C32.6805 42.3301 31.9114 41.3933 31.4572 40.2972C31.0029 39.2011 30.8838 37.995 31.1149 36.8312C31.3461 35.6675 31.917 34.5984 32.7557 33.759C33.5943 32.9197 34.663 32.3479 35.8265 32.1159C36.9901 31.8838 38.1964 32.002 39.2928 32.4554C40.3892 32.9088 41.3266 33.677 41.9865 34.6631C42.6464 35.6492 42.9991 36.8088 43 37.9952C43.0006 38.7836 42.8459 39.5643 42.5446 40.2928C42.2434 41.0213 41.8015 41.6833 41.2443 42.241C40.6871 42.7986 40.0255 43.241 39.2972 43.5428C38.5689 43.8446 37.7883 44 37 44ZM38.1612 41.1565C39.9452 41.1565 40.5441 40.2796 40.5997 39.1692C40.5997 38 39.4114 37.7077 39.4114 37.7077C39.6631 37.5489 39.864 37.3213 39.9904 37.0519C40.1167 36.7825 40.1634 36.4825 40.1247 36.1875C40.0056 35.2518 38.8761 34.9023 37.9833 34.8435V33.4361H37.0921V34.8388H36.4964V33.4361H35.6052V34.7863H33.8801V35.7808H34.5346C34.8316 35.7808 34.9508 35.838 34.9508 36.0731V39.8697C34.9581 39.9208 34.9543 39.9728 34.9397 40.0222C34.925 40.0716 34.8998 40.1173 34.8659 40.156C34.8319 40.1948 34.79 40.2258 34.743 40.2468C34.6959 40.2679 34.6449 40.2785 34.5933 40.278H33.9452V41.1549H35.61V42.5576H36.5012V41.1549H37.0969V42.5576H37.9881V41.1549L38.1612 41.1565ZM37.6259 38.3511C37.8642 38.3511 38.8157 38.4098 38.8157 39.1104C38.8157 39.811 38.3995 40.1636 37.448 40.1636H36.4948V38.3463L37.6259 38.3511ZM38.3932 36.5338C38.4016 36.7575 38.3274 36.9765 38.1847 37.1491C38.042 37.3216 37.8409 37.4356 37.6195 37.4694H36.4313V35.7744H37.0858C37.5671 35.7744 38.3932 35.8316 38.3932 36.5338Z"
    fill="black" />
</svg>
  