<svg xmlns="http://www.w3.org/2000/svg" width="32" height="32" viewBox="0 0 32 32" fill="none">
  <path fill-rule="evenodd" clip-rule="evenodd"
    d="M16 23.219L16.9428 22.2761L23.6095 15.6095C24.1302 15.0888 24.1302 14.2446 23.6095 13.7239C23.0888 13.2032 22.2446 13.2032 21.7239 13.7239L17.3333 18.1144V5.33333C17.3333 4.59695 16.7364 4 16 4C15.2636 4 14.6667 4.59695 14.6667 5.33333L14.6667 18.1144L10.2761 13.7239C9.75544 13.2032 8.91122 13.2032 8.39052 13.7239C7.86983 14.2446 7.86983 15.0888 8.39052 15.6095L15.0558 22.2748L15.0585 22.2775L16 23.219ZM5.33333 25.3333C4.59695 25.3333 4 25.9303 4 26.6667C4 27.403 4.59695 28 5.33333 28H26.6667C27.403 28 28 27.403 28 26.6667C28 25.9303 27.403 25.3333 26.6667 25.3333H5.33333Z"
    fill="currentColor" />
</svg>