<svg width="56" height="56" viewBox="0 0 56 56" fill="none" xmlns="http://www.w3.org/2000/svg">
  <rect x="0.5" y="0.5" width="55" height="55" rx="11.5" fill="white" stroke="#F0F0F0" />
  <rect x="15.9995" y="20.8965" width="24" height="4.8" rx="1.2" stroke="black" stroke-width="2.4" />
  <rect x="21.9993" y="28.0977" width="12" height="8.4" fill="#1754F8" fill-opacity="0.2" />
  <rect x="26.7998" y="19.7012" width="2.4" height="22.8" fill="#1754F8" />
  <path
    d="M18.3994 29.3027V38.9027C18.3994 40.2282 19.4739 41.3027 20.7994 41.3027H35.1994C36.5249 41.3027 37.5994 40.2282 37.5994 38.9027V29.3027"
    stroke="black" stroke-width="2.4" stroke-linecap="square" />
  <path
    d="M27.9996 16.1C27.9996 14.7745 29.0741 13.7 30.3996 13.7C31.725 13.7 32.7996 14.7745 32.7996 16.1C32.7996 17.4255 31.725 18.5 30.3996 18.5H27.9996V16.1Z"
    stroke="#1754F8" stroke-width="2.4" />
  <path
    d="M27.9997 16.1C27.9997 14.7745 26.9252 13.7 25.5997 13.7C24.2742 13.7 23.1997 14.7745 23.1997 16.1C23.1997 17.4255 24.2742 18.5 25.5997 18.5H27.9997V16.1Z"
    stroke="#1754F8" stroke-width="2.4" />
</svg>
  