<svg width="56" height="56" viewBox="0 0 56 56" fill="none" xmlns="http://www.w3.org/2000/svg">
  <rect x="0.5" y="0.5" width="55" height="55" rx="11.5" fill="#222222" stroke="#303030" />
  <path
    d="M33.1508 25.5018H27.5686C27.134 25.5018 26.7985 25.5238 26.5619 25.5678C26.3309 25.6063 26.1273 25.7741 25.9513 26.0711C26.0063 26.4452 26.1548 26.657 26.3969 26.7065C26.6389 26.7506 27.013 26.7726 27.5191 26.7726H30.6466C31.9009 26.8441 32.7784 27.2072 33.279 27.8618C33.7796 28.5165 33.9722 29.4297 33.8566 30.6015C33.6696 31.7732 33.257 32.6397 32.6188 33.2008C31.9807 33.7565 30.9272 34.0453 29.4583 34.0673H23.4008V31.1048H29.4088C29.981 31.1048 30.4156 31.0856 30.7126 31.0471C31.0152 31.0031 31.2215 30.7803 31.3315 30.3787C31.293 30.0596 31.139 29.8698 30.8694 29.8093C30.6054 29.7433 30.1598 29.7103 29.5326 29.7103H26.5124C25.1811 29.7103 24.2376 29.3857 23.682 28.7365C23.1318 28.0874 22.9145 27.1879 23.0301 26.0381C23.2446 24.8333 23.6792 23.9586 24.3339 23.414C24.9885 22.8694 26.0255 22.5641 27.4449 22.498H33.1508V25.5018Z"
    fill="white" />
  <rect x="27.1602" y="20.3496" width="2.99681" height="2.24961" fill="white" />
  <rect x="27.1602" y="34.0352" width="2.99681" height="2.23184" fill="white" />
  <path
    d="M28.0501 43.0795C27.1612 43.0795 26.2714 42.9983 25.3874 42.8359C24.9278 42.7515 24.6237 42.3105 24.7082 41.851C24.7926 41.3915 25.2335 41.0874 25.6931 41.1717C27.2007 41.4487 28.7269 41.459 30.2293 41.2023C31.7782 40.9377 33.2586 40.3955 34.6294 39.5909L34.6357 39.5873C36.2159 38.6779 37.5691 37.4874 38.6576 36.0489C39.7082 34.6605 40.4697 33.1006 40.9209 31.4123C41.3705 29.73 41.4891 28.0059 41.2735 26.2881C41.0504 24.5112 40.4775 22.8186 39.5705 21.2574C38.7136 19.7882 37.6772 18.572 36.403 17.5405C36.0398 17.2465 35.9838 16.7138 36.2778 16.3507C36.5718 15.9876 37.1044 15.9314 37.4676 16.2255C38.9038 17.3881 40.07 18.7557 41.0327 20.4061C42.0552 22.1661 42.7008 24.0737 42.9522 26.0773C43.1953 28.0129 43.0617 29.9548 42.5555 31.8491C42.0475 33.7497 41.19 35.5062 40.0068 37.0698C38.7815 38.6891 37.2595 40.0288 35.483 41.0517C33.936 41.9593 32.2643 42.571 30.5143 42.8701C29.7003 43.0093 28.8759 43.0794 28.0501 43.0795ZM18.1591 39.0946C17.9448 39.0948 17.7385 39.0135 17.5821 38.867C16.4707 37.8298 15.6124 36.7236 14.9587 35.4858C13.942 33.7313 13.2995 31.829 13.0487 29.8312C12.8057 27.8956 12.9392 25.9537 13.4455 24.0594C13.9534 22.1588 14.8109 20.4023 15.9941 18.8387C17.2201 17.2183 18.7434 15.8779 20.5213 14.8547C23.0157 13.4107 25.8859 12.7222 28.8186 12.8655C29.2853 12.8882 29.6451 13.285 29.6224 13.7516C29.5996 14.2183 29.2025 14.5781 28.7362 14.5554C26.1293 14.4283 23.581 15.0385 21.3672 16.3202C19.785 17.2307 18.4318 18.4212 17.3434 19.8596C16.2928 21.248 15.5313 22.808 15.0801 24.4963C14.6305 26.1786 14.5119 27.9026 14.7275 29.6205C14.9506 31.3974 15.5236 33.0899 16.4305 34.6511C16.4364 34.6613 16.4421 34.6716 16.4476 34.6821C17.0127 35.7556 17.7614 36.72 18.7366 37.6301C19.0781 37.9489 19.0966 38.4842 18.7778 38.8258C18.6112 39.0043 18.3854 39.0946 18.1591 39.0946ZM28.0501 43.2487C27.153 43.2487 26.2468 43.1658 25.3568 43.0023C25.0901 42.9534 24.8585 42.8034 24.7045 42.5802C24.5506 42.357 24.4927 42.0871 24.5417 41.8204C24.5907 41.5537 24.7406 41.3221 24.9639 41.1681C25.1871 41.0141 25.4569 40.9563 25.7236 41.0053C27.2116 41.2787 28.718 41.2888 30.2008 41.0355C31.7293 40.7744 33.1905 40.2393 34.5437 39.445L34.5527 39.4398C36.1119 38.5425 37.448 37.3671 38.5227 35.9469C39.56 34.576 40.3119 33.0356 40.7574 31.3686C41.2013 29.7075 41.3185 28.0053 41.1056 26.3091C40.8854 24.5548 40.3196 22.8838 39.4241 21.3424C38.5777 19.8912 37.5545 18.6905 36.2965 17.672C35.8614 17.3198 35.794 16.6793 36.1462 16.2443C36.4985 15.8092 37.139 15.7418 37.574 16.094C39.0265 17.2698 40.2056 18.6524 41.1789 20.3209C42.2127 22.1004 42.8658 24.03 43.1201 26.0563C43.3658 28.0137 43.2308 29.9774 42.7189 31.8928C42.2052 33.8147 41.3381 35.5908 40.1418 37.172C38.9027 38.8094 37.3637 40.1641 35.5674 41.1983C34.0039 42.1156 32.3129 42.7344 30.5427 43.0368C29.7193 43.1775 28.8854 43.2483 28.0501 43.2487ZM25.5388 41.3269C25.4029 41.3269 25.2703 41.3679 25.156 41.4467C25.0827 41.497 25.02 41.5613 24.9717 41.6359C24.9234 41.7106 24.8904 41.7941 24.8746 41.8816C24.8583 41.969 24.8595 42.0587 24.8781 42.1457C24.8967 42.2326 24.9324 42.315 24.9831 42.388C25.0334 42.4614 25.0977 42.524 25.1724 42.5723C25.247 42.6206 25.3305 42.6536 25.418 42.6695C26.2879 42.8293 27.1735 42.9103 28.0501 42.9103C28.8624 42.9103 29.6818 42.8406 30.4858 42.7033C32.2155 42.4077 33.868 41.803 35.3974 40.9058C37.1554 39.8936 38.6604 38.5689 39.8719 36.9678C41.0418 35.4217 41.8897 33.6848 42.392 31.8054C42.8926 29.9324 43.0246 28.0122 42.7844 26.0984C42.5357 24.1174 41.8971 22.2309 40.8864 20.4911C39.9343 18.8589 38.7812 17.5065 37.3611 16.3569C37.0712 16.1222 36.6441 16.1671 36.4092 16.4572C36.1745 16.7472 36.2194 17.1742 36.5094 17.4091C37.7999 18.4537 38.849 19.6846 39.7167 21.1721C40.6353 22.7533 41.2155 24.4674 41.4414 26.267C41.6598 28.0066 41.5396 29.7524 41.0844 31.456C40.6275 33.1655 39.8564 34.7452 38.7926 36.1511C37.6904 37.6077 36.3202 38.8131 34.7201 39.734L34.7161 39.7363C33.3265 40.5519 31.8269 41.1011 30.2578 41.3691C28.7358 41.6291 27.1897 41.6187 25.6626 41.3382C25.6218 41.3307 25.5803 41.3269 25.5388 41.3269ZM18.1591 39.2639C17.9019 39.2641 17.6543 39.1665 17.4666 38.9908C16.342 37.9411 15.4731 36.8214 14.8106 35.5678C13.7835 33.7945 13.1343 31.8715 12.8808 29.8524C12.6351 27.895 12.7701 25.9313 13.282 24.0158C13.7956 22.0941 14.6626 20.3179 15.8591 18.7366C17.099 17.0981 18.6392 15.7427 20.4369 14.7082C22.9602 13.2474 25.8612 12.5517 28.8268 12.6965C29.3859 12.7237 29.8186 13.2008 29.7914 13.7599C29.7649 14.3022 29.3151 14.7256 28.778 14.7257C28.7614 14.7257 28.7447 14.7252 28.7279 14.7244C26.1536 14.5988 23.6374 15.2013 21.452 16.4666C19.8898 17.3656 18.553 18.5415 17.4783 19.9617C16.4409 21.3325 15.6891 22.8729 15.2436 24.54C14.7996 26.201 14.6825 27.9033 14.8954 29.5994C15.1156 31.3536 15.6813 33.0246 16.5768 34.5661C16.584 34.5785 16.5909 34.5909 16.5974 34.6034C17.1534 35.6598 17.8909 36.6094 18.852 37.5064C19.0502 37.6914 19.1645 37.9426 19.1739 38.2136C19.1832 38.4846 19.0864 38.743 18.9015 38.9412C18.8064 39.0429 18.6914 39.124 18.5637 39.1795C18.436 39.235 18.2983 39.2637 18.1591 39.2639ZM28.0592 13.0162C25.422 13.0162 22.8599 13.6965 20.606 15.0013C18.8475 16.0133 17.3413 17.3387 16.129 18.9408C14.959 20.4871 14.1112 22.2239 13.6089 24.1032C13.1084 25.9763 12.9763 27.8965 13.2166 29.8102C13.4645 31.7853 14.0999 33.6664 15.1051 35.4011L15.1083 35.4069C15.7531 36.6278 16.6 37.7191 17.6975 38.7434C17.8227 38.8606 17.9877 38.9257 18.1592 38.9255C18.3489 38.9255 18.5247 38.8491 18.654 38.7105C18.7149 38.6457 18.7623 38.5694 18.7935 38.4861C18.8246 38.4028 18.839 38.3142 18.8357 38.2254C18.8329 38.1365 18.8124 38.0491 18.7756 37.9681C18.7388 37.8872 18.6863 37.8144 18.6211 37.7539C17.6318 36.8306 16.8719 35.8516 16.2979 34.761C16.2934 34.7525 16.2888 34.7443 16.2841 34.736C15.3657 33.1552 14.7854 31.4412 14.5596 29.6416C14.3412 27.902 14.4613 26.1561 14.9166 24.4527C15.3735 22.7431 16.1446 21.1634 17.2084 19.7576C18.3106 18.3009 19.6814 17.0951 21.2827 16.1736C23.5243 14.8758 26.1049 14.2577 28.7444 14.3865C29.1166 14.4047 29.4351 14.1162 29.4533 13.7434C29.4715 13.3707 29.183 13.0527 28.8103 13.0345C28.5601 13.0223 28.3097 13.0162 28.0592 13.0162ZM36.6761 15.4586L41.0788 16.3003C41.5967 16.4298 41.9852 16.9477 41.8557 17.4657V17.5304C41.7262 18.0484 41.2083 18.4369 40.6903 18.3073L36.2877 17.4657C35.7697 17.3362 35.3812 16.8182 35.5108 16.3003V16.2355C35.6403 15.7176 36.1582 15.3291 36.6761 15.4586ZM40.8948 18.4341C40.819 18.4341 40.7433 18.425 40.6685 18.4066L36.2631 17.5641C35.9869 17.4951 35.7353 17.3209 35.573 17.0864C35.4034 16.8415 35.3455 16.5585 35.4092 16.2881V16.223L35.4123 16.2109C35.5617 15.6135 36.1501 15.2242 36.6979 15.3594L41.1034 16.2018C41.3796 16.2709 41.6311 16.445 41.7935 16.6796C41.963 16.9245 42.021 17.2075 41.9572 17.4778V17.5429L41.9541 17.555C41.8851 17.8312 41.7109 18.0828 41.4764 18.2452C41.2964 18.3698 41.0958 18.4341 40.8948 18.4341ZM36.3096 17.3665L40.7149 18.2089C40.9316 18.2631 41.161 18.2166 41.3609 18.0782C41.5521 17.9458 41.695 17.742 41.7542 17.5176V17.4532L41.7573 17.4411C41.8114 17.2245 41.765 16.995 41.6266 16.7951C41.4924 16.6013 41.2849 16.4572 41.0568 16.3995L36.6515 15.5571C36.213 15.4475 35.7398 15.7634 35.6123 16.2484V16.3128L35.6092 16.3249C35.555 16.5415 35.6015 16.771 35.7399 16.9709C35.8741 17.1647 36.0816 17.3088 36.3096 17.3665ZM14.5984 36.8243L19.001 37.666C19.5189 37.7955 19.9074 38.3134 19.7779 38.8314V38.8961C19.6484 39.4141 19.1304 39.8025 18.6125 39.673L14.2099 38.8314C13.692 38.7019 13.3035 38.184 13.433 37.666V37.6013C13.4977 37.0833 14.0804 36.6948 14.5984 36.8243ZM18.8125 39.7991C18.7386 39.7991 18.6644 39.7904 18.5907 39.7723L14.1853 38.9299C13.5914 38.7814 13.2032 38.1991 13.3315 37.6538L13.3322 37.5886C13.3661 37.3176 13.5283 37.0643 13.7772 36.8937C14.0341 36.7177 14.3412 36.6562 14.6201 36.725L19.0255 37.5675C19.3017 37.6365 19.5533 37.8106 19.7157 38.0452C19.8852 38.2902 19.9432 38.5731 19.8794 38.8435V38.9086L19.8764 38.9207C19.7471 39.4378 19.2888 39.799 18.8125 39.7991ZM14.2318 38.7322L18.6371 39.5745C19.0757 39.6842 19.5488 39.3683 19.6764 38.8833V38.8189L19.6794 38.8067C19.7336 38.5902 19.6872 38.3607 19.5487 38.1608C19.4145 37.967 19.207 37.8228 18.979 37.7651L14.5737 36.9227C14.3503 36.8668 14.1018 36.9173 13.892 37.0611C13.6928 37.1976 13.5628 37.3965 13.5344 37.6077V37.6784L13.5315 37.6905C13.4212 38.1318 13.7417 38.6082 14.2318 38.7322Z"
    fill="white" />
</svg>
  