<svg xmlns="http://www.w3.org/2000/svg" width="17" height="16" viewBox="0 0 17 16" fill="none">
  <path fill-rule="evenodd" clip-rule="evenodd"
    d="M8.5 2.66536C7.39543 2.66536 6.5 3.5608 6.5 4.66536V5.33203H10.5V4.66536C10.5 3.5608 9.60457 2.66536 8.5 2.66536ZM5.16667 4.66536V5.33203H4.5C3.39543 5.33203 2.5 6.22746 2.5 7.33203V12.6654C2.5 13.7699 3.39543 14.6654 4.5 14.6654H12.5C13.6046 14.6654 14.5 13.7699 14.5 12.6654V7.33203C14.5 6.22746 13.6046 5.33203 12.5 5.33203H11.8333V4.66536C11.8333 2.82442 10.3409 1.33203 8.5 1.33203C6.65905 1.33203 5.16667 2.82442 5.16667 4.66536ZM4.5 6.66536C4.13181 6.66536 3.83333 6.96384 3.83333 7.33203V12.6654C3.83333 13.0336 4.13181 13.332 4.5 13.332H12.5C12.8682 13.332 13.1667 13.0336 13.1667 12.6654V7.33203C13.1667 6.96384 12.8682 6.66536 12.5 6.66536H4.5ZM9.16667 9.33203C9.16667 8.96384 8.86819 8.66536 8.5 8.66536C8.13181 8.66536 7.83333 8.96384 7.83333 9.33203V10.6654C7.83333 11.0336 8.13181 11.332 8.5 11.332C8.86819 11.332 9.16667 11.0336 9.16667 10.6654V9.33203Z"
    fill="currentColor" />
</svg>