<svg width="18" height="18" viewBox="0 0 18 18" fill="none" xmlns="http://www.w3.org/2000/svg">
<g clip-path="url(#clip0_5628_34942)">
<path d="M17.5266 10.2478H0.000244141V9.77407C0.000244141 7.00728 1.39562 4.5664 3.52104 3.11676L2.13183 0.710605C2.00103 0.484046 2.07865 0.194345 2.30521 0.0635408C2.53178 -0.0672635 2.82148 0.0103614 2.95228 0.236921L4.33384 2.62983C5.44633 2.04952 6.71131 1.72144 8.05292 1.72144H9.47398C10.8495 1.72144 12.1446 2.06634 13.2773 2.67439L14.6845 0.236921C14.8153 0.0103614 15.105 -0.0672635 15.3316 0.0635408C15.5582 0.194345 15.6358 0.484046 15.505 0.710605L14.0844 3.17104C16.1656 4.62687 17.5266 7.04152 17.5266 9.77407V10.2478ZM17.5266 10.7214V16.4056C17.5266 17.1905 16.8904 17.8267 16.1056 17.8267H1.4213C0.636474 17.8267 0.000244141 17.1905 0.000244141 16.4056V10.7214H17.5266ZM4.97395 7.87933C5.62798 7.87933 6.15817 7.34914 6.15817 6.69512C6.15817 6.0411 5.62798 5.51091 4.97395 5.51091C4.31993 5.51091 3.78974 6.0411 3.78974 6.69512C3.78974 7.34914 4.31993 7.87933 4.97395 7.87933ZM12.5529 7.87933C13.207 7.87933 13.7372 7.34914 13.7372 6.69512C13.7372 6.0411 13.207 5.51091 12.5529 5.51091C11.8989 5.51091 11.3687 6.0411 11.3687 6.69512C11.3687 7.34914 11.8989 7.87933 12.5529 7.87933Z" fill="#F7F7FA"/>
</g>
<defs>
<clipPath id="clip0_5628_34942">
<rect width="17.5264" height="18" fill="white"/>
</clipPath>
</defs>
</svg>
