<svg width="16" height="19" viewBox="0 0 16 19" fill="none" xmlns="http://www.w3.org/2000/svg">
<path d="M8.7407 2.28577C8.25857 2.96849 7.99732 3.78521 7.96316 4.71502C8.1192 4.69765 8.27482 4.6769 8.42995 4.65273C8.60436 4.62485 8.74874 4.5939 8.85411 4.56244C9.17315 4.45285 9.53411 4.21044 9.92436 3.84427C10.3416 3.42872 10.6557 2.96827 10.8567 2.47905C11.0485 1.97378 11.1457 1.51442 11.1457 1.11382V0.93715C11.1378 0.903492 11.1302 0.869704 11.1229 0.835938C10.0263 1.11214 9.22528 1.59958 8.7407 2.28577Z" fill="#F7F7FA"/>
<path d="M1.91528 5.44993C2.85388 4.53126 3.99818 4.16602 4.82573 4.16602C5.64286 4.16602 6.32232 4.52305 6.81001 4.77932L6.86644 4.80895C7.41663 5.09729 7.76355 5.26143 8.14611 5.26143C8.54087 5.26143 8.91764 5.08972 9.53407 4.79516L9.5458 4.78955C10.1032 4.52316 10.8506 4.16602 11.75 4.16602C12.9943 4.16602 14.0295 4.79637 14.8442 5.85612C15.109 6.20047 15.0648 6.6904 14.7428 6.98187C13.854 7.78622 13.4177 8.77224 13.4177 9.99935C13.4177 11.6989 14.6153 12.4493 15.1918 12.7925C15.5329 12.9955 15.6834 13.4109 15.5516 13.7853C15.3438 14.3756 14.962 15.1165 14.5773 15.7645C14.1985 16.4024 13.762 17.0431 13.4184 17.3982L13.4007 17.4164C13.1491 17.6764 12.8614 17.9738 12.5107 18.1865C12.1119 18.4284 11.6755 18.5408 11.1457 18.5408C10.8344 18.5408 10.5232 18.4734 10.2553 18.3997C10.0118 18.3327 9.75641 18.2463 9.52329 18.1676L9.44478 18.141C8.8886 17.9535 8.47174 17.8286 8.14611 17.8286C7.83459 17.8286 7.48749 17.9446 6.98219 18.1325L6.90712 18.1605C6.4771 18.3212 5.88946 18.5408 5.29594 18.5408C4.03824 18.5408 3.23351 17.5646 2.98434 17.2624C2.96647 17.2407 2.95146 17.2225 2.93935 17.2083L2.91707 17.1825C2.55788 16.7665 0.253601 14.0978 0.253601 9.99935C0.253601 7.86697 0.952746 6.39202 1.91528 5.44993Z" fill="#F7F7FA"/>
</svg>
