<svg width="23" height="22" viewBox="0 0 23 22" fill="none" xmlns="http://www.w3.org/2000/svg">
<g clip-path="url(#clip0_5628_34862)">
<path d="M18.7381 14.5208C19.3394 15.3715 20.0288 15.9215 20.8061 16.1708C20.4688 17.2121 19.9334 18.2975 19.2001 19.4268C18.0708 21.1281 16.9561 21.9788 15.8561 21.9788C15.4454 21.9788 14.8368 21.8395 14.0301 21.5608C13.2821 21.2821 12.6294 21.1428 12.0721 21.1428C11.5148 21.1428 10.8988 21.2895 10.2241 21.5828C9.5201 21.8615 8.94077 22.0008 8.4861 22.0008C7.1661 22.0008 5.8681 20.8788 4.5921 18.6348C3.3161 16.4201 2.6781 14.2421 2.6781 12.1008C2.6781 10.1208 3.1621 8.50015 4.1301 7.23881C5.12743 5.97748 6.35943 5.34681 7.8261 5.34681C8.14877 5.34681 8.5081 5.38715 8.9041 5.46781C9.3001 5.54848 9.71077 5.69881 10.1361 5.91881C10.5908 6.16815 10.9648 6.34048 11.2581 6.43581C11.5514 6.53115 11.7788 6.57881 11.9401 6.57881C12.1308 6.57881 12.4241 6.53481 12.8201 6.44681C13.2161 6.35881 13.6121 6.19748 14.0081 5.96281C14.4334 5.72815 14.8001 5.55215 15.1081 5.43481C15.4161 5.31748 15.7314 5.25881 16.0541 5.25881C17.0808 5.25881 18.0048 5.53748 18.8261 6.09481C19.2661 6.38815 19.7134 6.82081 20.1681 7.39281C19.4934 7.97948 19.0021 8.49281 18.6941 8.93281C18.1221 9.75415 17.8361 10.6488 17.8361 11.6168C17.8361 12.6875 18.1368 13.6555 18.7381 14.5208ZM14.3161 4.24681C13.8028 4.73081 13.3334 5.04615 12.9081 5.19281C12.7614 5.23681 12.5744 5.27715 12.3471 5.31381C12.1198 5.35048 11.8594 5.38348 11.5661 5.41281C11.5808 4.12215 11.9181 3.00748 12.5781 2.06881C13.2381 1.13015 14.3234 0.484813 15.8341 0.132812C15.8634 0.279479 15.8854 0.382146 15.9001 0.440812V0.682812C15.9001 1.21081 15.7754 1.80481 15.5261 2.46481C15.2621 3.11015 14.8588 3.70415 14.3161 4.24681Z" fill="#272636"/>
</g>
<defs>
<clipPath id="clip0_5628_34862">
<rect width="22" height="22" fill="white" transform="translate(0.767029)"/>
</clipPath>
</defs>
</svg>
