<svg xmlns="http://www.w3.org/2000/svg" width="44" height="44" viewBox="0 0 44 44" fill="none">
  <path d="M26.6602 25.6665H30.3268V21.9998H33.9935V27.4998H30.3268V29.3332H26.6602V27.4998H22.9935V21.9998H26.6602V25.6665ZM10.1602 21.9998H21.1602V32.9998H10.1602V21.9998ZM13.8268 25.6665V29.3332H17.4935V25.6665H13.8268ZM10.1602 9.1665H21.1602V20.1665H10.1602V9.1665ZM13.8268 12.8332V16.4998H17.4935V12.8332H13.8268ZM22.9935 9.1665H33.9935V20.1665H22.9935V9.1665ZM26.6602 12.8332V16.4998H30.3268V12.8332H26.6602ZM30.3268 29.3332H33.9935V32.9998H30.3268V29.3332ZM22.9935 29.3332H26.6602V32.9998H22.9935V29.3332Z" fill="#444444"/>
</svg>