<svg xmlns="http://www.w3.org/2000/svg" width="210" height="241" viewBox="0 0 210 241" fill="none">
  <path
    d="M162.242 113.187C150.247 124.694 129.858 128.687 116.714 122.223C112.228 120.017 109.152 116.875 107.519 113.234C106.825 111.687 105.984 109.385 105.315 107.464C104.981 106.504 104.69 105.642 104.483 105.02C104.38 104.709 104.297 104.458 104.241 104.285L104.176 104.085L104.172 104.075C104.631 101.847 106.072 99.3466 107.973 96.8536C109.889 94.3418 112.255 91.8601 114.5 89.7065C120.457 83.9908 130.121 80.4266 139.991 79.1131C149.807 77.8069 159.736 78.739 166.314 81.9278L166.369 82.0573C166.432 82.2055 166.523 82.4224 166.638 82.6964C166.866 83.2446 167.185 84.0217 167.548 84.9368C168.273 86.7679 169.172 89.1484 169.867 91.3533C171.993 98.093 169.519 106.206 162.242 113.187Z"
    fill="#28AD76" stroke="white" stroke-width="0.824152" />
  <path
    d="M159.377 105.256C147.382 116.763 126.993 120.757 113.849 114.293C100.705 107.828 99.6397 93.2833 111.635 81.7758C123.63 70.2683 144.019 66.275 157.163 72.7392C170.307 79.2033 171.372 93.7485 159.377 105.256Z"
    fill="#1B1B1B" stroke="white" stroke-width="0.824152" />
  <path
    d="M153.938 78.3159C147.756 73.6002 136.844 73.2738 126.494 78.1545C113.396 84.3315 106.16 96.5095 110.331 105.355C111.155 107.101 112.362 108.588 113.869 109.8"
    stroke="white" stroke-width="0.824152" />
  <mask id="path-4-inside-1_6468_46586" fill="white">
    <path
      d="M130.001 85.5183L133.562 81.3655L152.964 89.0528L149.403 93.2056L142.25 90.3715L139.924 93.0846C145.542 95.6176 149.058 98.3568 148.025 99.5619C146.992 100.767 141.752 100.037 135.741 97.9621L128.274 106.669L123.178 104.65L130.647 95.9409C125.054 93.4134 121.558 90.6848 122.588 89.4833C123.619 88.2816 128.835 89.0047 134.826 91.0673L137.154 88.3523L130.001 85.5182L130.001 85.5183ZM124.989 90.1059C124.309 90.8985 127.125 92.9048 131.538 94.9009L131.824 95.0289L131.857 95.0419L132.126 95.1606L132.156 95.1725C132.357 95.2603 132.561 95.3482 132.769 95.4361L132.782 95.4413L133.061 95.5587L133.141 95.5904L133.362 95.6816L134.778 96.2426L135.002 96.3276L135.078 96.3581L135.347 96.4579L135.376 96.4694C135.694 96.5874 136.01 96.7012 136.323 96.8114L136.327 96.813L136.64 96.9214C141.39 98.5602 145.37 99.2431 146.053 98.4467C146.736 97.6501 143.898 95.6347 139.462 93.6305L137.302 96.1493C136.473 95.8697 135.607 95.5535 134.727 95.2049C133.834 94.8507 132.985 94.4874 132.207 94.128L134.359 91.6187C129.625 89.9897 125.669 89.3134 124.989 90.1059Z" />
  </mask>
  <path
    d="M130.001 85.5183L133.562 81.3655L152.964 89.0528L149.403 93.2056L142.25 90.3715L139.924 93.0846C145.542 95.6176 149.058 98.3568 148.025 99.5619C146.992 100.767 141.752 100.037 135.741 97.9621L128.274 106.669L123.178 104.65L130.647 95.9409C125.054 93.4134 121.558 90.6848 122.588 89.4833C123.619 88.2816 128.835 89.0047 134.826 91.0673L137.154 88.3523L130.001 85.5182L130.001 85.5183ZM124.989 90.1059C124.309 90.8985 127.125 92.9048 131.538 94.9009L131.824 95.0289L131.857 95.0419L132.126 95.1606L132.156 95.1725C132.357 95.2603 132.561 95.3482 132.769 95.4361L132.782 95.4413L133.061 95.5587L133.141 95.5904L133.362 95.6816L134.778 96.2426L135.002 96.3276L135.078 96.3581L135.347 96.4579L135.376 96.4694C135.694 96.5874 136.01 96.7012 136.323 96.8114L136.327 96.813L136.64 96.9214C141.39 98.5602 145.37 99.2431 146.053 98.4467C146.736 97.6501 143.898 95.6347 139.462 93.6305L137.302 96.1493C136.473 95.8697 135.607 95.5535 134.727 95.2049C133.834 94.8507 132.985 94.4874 132.207 94.128L134.359 91.6187C129.625 89.9897 125.669 89.3134 124.989 90.1059Z"
    fill="white" />
  <path
    d="M133.562 81.3655L133.018 81.1497L133.399 80.7048L133.944 80.9207L133.562 81.3655ZM152.964 89.0528L153.346 88.608L153.89 88.8239L153.509 89.2687L152.964 89.0528ZM149.403 93.2056L149.948 93.4214L149.566 93.8663L149.022 93.6504L149.403 93.2056ZM142.25 90.3715L141.705 90.1557L142.087 89.7109L142.632 89.9267L142.25 90.3715ZM139.924 93.0846L139.516 93.5185L139.015 93.2927L139.379 92.8688L139.924 93.0846ZM135.741 97.9621L135.196 97.7463L135.56 97.3224L136.096 97.5074L135.741 97.9621ZM128.274 106.669L128.819 106.885L128.438 107.33L127.893 107.114L128.274 106.669ZM123.178 104.65L122.797 105.095L122.252 104.879L122.633 104.434L123.178 104.65ZM130.647 95.9409L131.054 95.5072L131.554 95.7333L131.191 96.1567L130.647 95.9409ZM134.826 91.0673L135.371 91.2831L135.008 91.7066L134.472 91.5221L134.826 91.0673ZM137.154 88.3523L137.536 87.9075L138.08 88.1233L137.699 88.5681L137.154 88.3523ZM130.001 85.5182L129.457 85.3024L129.838 84.8576L130.383 85.0734L130.001 85.5182ZM131.538 94.9009L131.133 95.3354L131.131 95.3345L131.538 94.9009ZM131.824 95.0289L131.443 95.4737L131.431 95.4688L131.419 95.4635L131.824 95.0289ZM131.857 95.0419L132.239 94.5971L132.249 94.6013L132.26 94.6059L131.857 95.0419ZM132.126 95.1606L131.745 95.6054L131.734 95.6011L131.724 95.5965L132.126 95.1606ZM132.156 95.1725L132.538 94.7277L132.548 94.7316L132.558 94.7359L132.156 95.1725ZM132.769 95.4361L132.387 95.8809L132.381 95.8783L132.374 95.8756L132.769 95.4361ZM132.782 95.4413L133.164 94.9964L133.175 95.0014L132.782 95.4413ZM133.061 95.5587L132.679 96.0036L132.667 95.9986L133.061 95.5587ZM133.141 95.5904L133.522 95.1455L133.53 95.1488L133.141 95.5904ZM133.362 95.6816L132.981 96.1265L132.973 96.1233L133.362 95.6816ZM134.778 96.2426L134.404 96.6905L134.397 96.6874L134.778 96.2426ZM135.002 96.3276L135.375 95.8796L135.383 95.8828L135.002 96.3276ZM135.078 96.3581L134.709 96.8077L134.697 96.8029L135.078 96.3581ZM135.347 96.4579L135.716 96.0083L135.728 96.0131L135.347 96.4579ZM135.376 96.4694L135.008 96.9194L134.994 96.9143L135.376 96.4694ZM136.323 96.8114L136.682 96.358L136.693 96.3621L136.705 96.3666L136.323 96.8114ZM136.327 96.813L135.971 97.2673L135.958 97.2628L135.946 97.2578L136.327 96.813ZM136.64 96.9214L136.285 97.3761L136.284 97.3758L136.64 96.9214ZM139.462 93.6305L138.917 93.4147L139.317 92.9475L139.869 93.1968L139.462 93.6305ZM137.302 96.1493L137.846 96.3651L137.486 96.7857L136.951 96.6054L137.302 96.1493ZM132.207 94.128L131.795 94.5597L131.302 94.3321L131.662 93.9121L132.207 94.128ZM134.359 91.6187L134.713 91.1639L135.304 91.3673L134.904 91.8346L134.359 91.6187ZM129.457 85.3024L133.018 81.1497L134.107 81.5813L130.546 85.7341L129.457 85.3024ZM133.944 80.9207L153.346 88.608L152.583 89.4977L133.181 81.8103L133.944 80.9207ZM153.509 89.2687L149.948 93.4214L148.858 92.9898L152.419 88.837L153.509 89.2687ZM149.022 93.6504L141.869 90.8163L142.632 89.9267L149.784 92.7608L149.022 93.6504ZM142.795 90.5874L140.468 93.3005L139.379 92.8688L141.705 90.1557L142.795 90.5874ZM140.331 92.6508C143.165 93.9284 145.491 95.2675 146.986 96.4539C147.731 97.0447 148.295 97.6172 148.602 98.1432C148.896 98.6465 149.03 99.2417 148.57 99.7778L147.48 99.3461C147.537 99.2797 147.618 99.0805 147.368 98.6521C147.131 98.2464 146.658 97.7498 145.951 97.1885C144.542 96.0708 142.301 94.7739 139.516 93.5185L140.331 92.6508ZM148.57 99.7778C148.11 100.314 147.283 100.528 146.493 100.603C145.669 100.68 144.658 100.629 143.535 100.479C141.279 100.179 138.418 99.4633 135.386 98.4168L136.096 97.5074C139.075 98.5356 141.839 99.2221 143.965 99.5047C145.032 99.6466 145.9 99.6814 146.537 99.6217C147.208 99.5586 147.423 99.4126 147.48 99.3461L148.57 99.7778ZM136.286 98.178L128.819 106.885L127.729 106.453L135.196 97.7463L136.286 98.178ZM127.893 107.114L122.797 105.095L123.559 104.205L128.656 106.224L127.893 107.114ZM122.633 104.434L130.102 95.725L131.191 96.1567L123.723 104.866L122.633 104.434ZM130.239 96.3746C127.418 95.0997 125.103 93.7645 123.615 92.5818C122.875 91.9929 122.314 91.4222 122.009 90.8977C121.716 90.3957 121.585 89.8022 122.043 89.2674L123.133 89.6991C123.076 89.7651 122.995 89.9633 123.244 90.3897C123.479 90.7938 123.948 91.2885 124.652 91.8479C126.053 92.9617 128.283 94.2546 131.054 95.5072L130.239 96.3746ZM122.043 89.2674C122.502 88.7327 123.326 88.518 124.113 88.4434C124.935 88.3655 125.942 88.4159 127.061 88.5638C129.308 88.8608 132.158 89.572 135.18 90.6124L134.472 91.5221C131.502 90.4999 128.749 89.8183 126.632 89.5385C125.569 89.3981 124.705 89.3641 124.072 89.4242C123.403 89.4875 123.189 89.6331 123.133 89.6991L122.043 89.2674ZM134.281 90.8514L136.609 88.1365L137.699 88.5681L135.371 91.2831L134.281 90.8514ZM136.773 88.7971L129.62 85.963L130.383 85.0734L137.536 87.9075L136.773 88.7971ZM130.546 85.7341L130.546 85.7341L129.457 85.3024L129.457 85.3024L130.546 85.7341ZM125.534 90.3218C125.567 90.2825 125.547 90.2702 125.555 90.3264C125.564 90.3866 125.603 90.4855 125.703 90.6251C125.903 90.9039 126.286 91.2589 126.855 91.6726C127.988 92.4949 129.759 93.478 131.946 94.4673L131.131 95.3345C128.904 94.3277 127.061 93.3096 125.852 92.4315C125.251 91.9951 124.781 91.5752 124.507 91.1925C124.369 91.0014 124.265 90.7979 124.233 90.5889C124.201 90.3759 124.241 90.1275 124.444 89.8901L125.534 90.3218ZM131.944 94.4664L132.23 94.5944L131.419 95.4635L131.133 95.3354L131.944 94.4664ZM132.206 94.5841L132.239 94.5971L131.476 95.4867L131.443 95.4737L132.206 94.5841ZM132.26 94.6059L132.529 94.7246L131.724 95.5965L131.454 95.4778L132.26 94.6059ZM132.508 94.7158L132.538 94.7277L131.775 95.6173L131.745 95.6054L132.508 94.7158ZM132.558 94.7359C132.756 94.8228 132.958 94.9098 133.163 94.9966L132.374 95.8756C132.164 95.7867 131.958 95.6978 131.755 95.6091L132.558 94.7359ZM133.15 94.9913L133.163 94.9965L132.401 95.8861L132.387 95.8809L133.15 94.9913ZM133.175 95.0014L133.454 95.1188L132.667 95.9986L132.389 95.8812L133.175 95.0014ZM133.442 95.1139L133.522 95.1456L132.759 96.0352L132.679 96.0035L133.442 95.1139ZM133.53 95.1488L133.751 95.24L132.973 96.1233L132.752 96.0321L133.53 95.1488ZM133.744 95.2368L135.159 95.7978L134.397 96.6874L132.981 96.1264L133.744 95.2368ZM135.151 95.7947L135.375 95.8797L134.628 96.7755L134.405 96.6905L135.151 95.7947ZM135.383 95.8828L135.46 95.9132L134.697 96.8029L134.62 96.7724L135.383 95.8828ZM135.447 95.9085L135.716 96.0084L134.978 96.9075L134.709 96.8076L135.447 95.9085ZM135.728 96.0131L135.757 96.0246L134.994 96.9143L134.965 96.9027L135.728 96.0131ZM135.744 96.0196C136.059 96.1363 136.372 96.2489 136.682 96.358L135.965 97.2648C135.649 97.1536 135.33 97.0386 135.008 96.9193L135.744 96.0196ZM136.705 96.3666L136.709 96.3682L135.946 97.2578L135.942 97.2562L136.705 96.3666ZM136.683 96.3586L136.995 96.4671L136.284 97.3758L135.971 97.2673L136.683 96.3586ZM136.994 96.4667C139.349 97.2789 141.491 97.8465 143.111 98.1135C143.925 98.2479 144.572 98.3 145.031 98.2811C145.26 98.2717 145.407 98.2456 145.49 98.2212C145.567 98.1983 145.541 98.1918 145.508 98.2308L146.597 98.6625C146.393 98.9007 146.094 99.047 145.804 99.1329C145.52 99.2171 145.207 99.2555 144.893 99.2685C144.265 99.2943 143.492 99.2226 142.633 99.081C140.904 98.7959 138.681 98.2027 136.285 97.3761L136.994 96.4667ZM145.508 98.2308C145.474 98.2699 145.495 98.2819 145.487 98.2251C145.477 98.1642 145.438 98.0646 145.337 97.9242C145.135 97.6438 144.749 97.2869 144.176 96.8712C143.035 96.0451 141.253 95.0576 139.054 94.0643L139.869 93.1968C142.107 94.2076 143.962 95.2299 145.178 96.1117C145.783 96.5499 146.256 96.9715 146.533 97.3557C146.671 97.5476 146.776 97.7517 146.809 97.9614C146.842 98.1751 146.802 98.4243 146.597 98.6625L145.508 98.2308ZM140.006 93.8464L137.846 96.3651L136.757 95.9334L138.917 93.4147L140.006 93.8464ZM136.951 96.6054C136.112 96.3223 135.236 96.0023 134.346 95.6497L135.109 94.7601C135.979 95.1047 136.834 95.4171 137.652 95.6931L136.951 96.6054ZM134.346 95.6497C133.442 95.2916 132.584 94.9239 131.795 94.5597L132.619 93.6963C133.387 94.0509 134.225 94.4098 135.109 94.7601L134.346 95.6497ZM131.662 93.9121L133.814 91.4029L134.904 91.8346L132.752 94.3438L131.662 93.9121ZM134.005 92.0736C131.659 91.2663 129.526 90.7027 127.915 90.438C127.104 90.3049 126.461 90.2535 126.006 90.2725C125.778 90.282 125.632 90.308 125.55 90.3322C125.474 90.3549 125.5 90.3611 125.534 90.3218L124.444 89.8901C124.648 89.6526 124.946 89.5066 125.235 89.4209C125.518 89.3368 125.83 89.2983 126.142 89.2852C126.768 89.2591 127.537 89.33 128.392 89.4705C130.113 89.7531 132.325 90.3422 134.713 91.1639L134.005 92.0736Z"
    fill="white" mask="url(#path-4-inside-1_6468_46586)" />
  <path
    d="M75.8523 175.575C87.8473 187.083 108.237 191.076 121.381 184.612C125.867 182.406 128.942 179.264 130.575 175.623C131.269 174.075 132.11 171.773 132.779 169.852C133.114 168.893 133.404 168.031 133.611 167.408C133.715 167.097 133.797 166.846 133.854 166.673L133.919 166.474L133.922 166.463C133.464 164.236 132.022 161.735 130.121 159.242C128.205 156.73 125.84 154.249 123.595 152.095C117.637 146.379 107.974 142.815 98.103 141.502C88.2872 140.195 78.3581 141.127 71.7807 144.316L71.7255 144.446C71.6626 144.594 71.5711 144.811 71.4569 145.085C71.2285 145.633 70.9094 146.41 70.5468 147.325C69.8212 149.156 68.9226 151.537 68.2271 153.742C66.1014 160.481 68.5757 168.594 75.8523 175.575Z"
    fill="#FFCE1F" stroke="white" stroke-width="0.824153" />
  <path
    d="M78.7435 167.65C90.7386 179.158 111.128 183.151 124.272 176.687C137.415 170.223 138.481 155.678 126.486 144.17C114.491 132.663 94.1016 128.669 80.9579 135.133C67.8142 141.598 66.7485 156.143 78.7435 167.65Z"
    fill="#1B1B1B" stroke="white" stroke-width="0.824153" />
  <path
    d="M103.744 145.855L103.023 153.102C102.969 153.597 103.925 153.931 104.147 153.468L106.482 148.789C106.55 148.67 106.768 148.689 106.868 148.84L114.068 159.7C114.168 159.852 113.985 159.975 113.813 159.893L90.1822 149.069C89.416 148.711 88.5924 148.621 87.8652 148.81L87.3637 148.94C86.0599 149.278 85.5971 150.486 86.3557 151.631L96.489 166.917C97.2476 168.061 98.9412 168.71 100.27 168.365C101.098 168.15 101.632 167.582 101.668 166.839L102.389 159.592C102.443 159.097 101.487 158.763 101.264 159.226L98.9155 163.884C98.8474 164.002 98.629 163.983 98.5288 163.832L91.3438 152.994C91.2436 152.842 91.4264 152.719 91.5982 152.801L115.229 163.625C115.995 163.983 116.844 164.066 117.546 163.884L118.048 163.754C119.377 163.409 119.839 162.201 119.081 161.057L108.947 145.771C108.189 144.626 106.495 143.978 105.166 144.322C104.314 144.544 103.78 145.112 103.744 145.855Z"
    fill="white" />
  <path
    d="M97.5077 136.663C93.1043 136.597 88.877 137.396 85.3046 139.153C78.1025 142.695 75.4119 149.223 77.4271 155.935M127.492 165.429C126.164 168.313 123.701 170.805 120.129 172.561C117.776 173.719 115.138 174.46 112.354 174.813"
    stroke="white" stroke-width="1.13133" />
  <path
    d="M22.5184 160.497L1.37024 91.4336L4.5689 90.1078L15.1812 101.051C26.3931 13.8509 105.55 -18.0661 150.535 12.4824C98.2859 6.08691 50.5699 65.9393 42.836 121.002L25.9067 160.497L22.5184 160.497Z"
    fill="black" stroke="black" stroke-width="0.892296" />
  <path
    d="M25.4675 160.118L4.65615 90.4036L18.0409 100.018C28.9283 12.8154 115.388 -17.6875 151.266 12.8124C100.623 6.4287 52.3511 64.8982 44.8422 119.962L54.8498 127.181L25.4675 160.118Z"
    fill="white" stroke="black" stroke-width="0.892296" />
  <path
    d="M151.003 111.623L179.674 78.0645L184.222 78.0645L201.973 147.318L188.385 137.992C179.367 225.408 93.5799 257.754 57.0573 228.029C107.826 233.328 154.835 173.838 161.163 118.626L151.003 111.623Z"
    fill="white" stroke="#111111" stroke-width="0.892296" />
  <path
    d="M157.821 110.322L184.403 78.7691L205.761 145.101L193.739 136.85L192.84 136.233L192.728 137.318C188.241 180.81 164.667 210.568 137.705 225.766C111.551 240.509 82.3408 241.502 64.1933 228.26C89.0317 230.011 112.578 217.561 130.827 197.421C149.621 176.68 162.86 147.725 166.189 117.483L166.227 117.131L165.952 116.909L157.821 110.322Z"
    fill="#1754F8" stroke="black" stroke-width="1.29597" />
  <path
    d="M45.9918 224.911C21.0037 211.119 13.4045 199.97 14.6249 172.178L17.8347 170.208L38.8699 189.907C38.4827 203.659 45.5648 218.243 49.3531 223.396L45.9918 224.911Z"
    stroke="white" stroke-width="0.824152" />
  <path
    d="M42.8082 208.247C43.8111 212.944 45.415 216.981 47.7207 221.454C36.3385 214.995 28.8943 209.066 24.3634 201.638C19.7308 194.043 18.0913 184.793 18.5544 171.6L41.5429 188.411C41.3187 196.866 41.6791 202.959 42.8082 208.247Z"
    fill="#1754F8" stroke="black" stroke-width="1.29597" />
  <path
    d="M87.5229 88.9464L87.5501 88.8611C87.2109 87.2236 86.1942 85.4952 84.8163 83.753C83.4141 81.98 81.6638 80.2245 79.941 78.5717C75.448 74.2613 68.9365 71.0802 62.3112 69.5909C55.6832 68.101 49.0207 68.3189 44.1502 70.7142C42.4008 71.5746 41.3213 72.8968 40.5362 74.4372C39.9709 75.5463 39.5772 76.7233 39.1852 77.8956C39.0274 78.3676 38.8698 78.8388 38.7014 79.3044C36.8477 84.4297 38.6376 90.7199 44.2641 96.1178C53.273 104.761 68.5284 107.715 78.3172 102.9C82.2456 100.968 84.728 98.0722 85.7179 94.7336C86.0053 93.7642 86.471 92.2722 86.8641 91.0247C87.0608 90.4005 87.2396 89.8367 87.3692 89.429L87.5229 88.9464Z"
    fill="#1754F8" stroke="black" stroke-width="1.29597" />
  <path
    d="M46.2364 90.197C55.3198 98.9112 70.7427 101.922 80.6714 97.0388C90.6002 92.1558 91.42 81.1568 82.3367 72.4427C73.2533 63.7285 57.8303 60.7179 47.9016 65.6009C37.9729 70.4839 37.1531 81.4829 46.2364 90.197Z"
    fill="#1B1B1B" stroke="white" stroke-width="0.824153" />
  <path
    d="M77.8392 94.8579C86.16 90.7657 86.7963 81.5875 79.2604 74.3579C71.7245 67.1283 58.8701 64.585 50.5493 68.6772"
    stroke="white" stroke-width="0.824153" />
  <path
    d="M53.9128 71.3769L54.5498 71.7403L68.0802 84.7208L68.0465 84.9361L56.524 85.2156L53.9128 71.3769Z"
    fill="white" />
  <path d="M53.9159 71.3748L72.1473 77.5313L68.0496 84.934L61.4823 78.6336L53.9159 71.3748Z"
    fill="white" />
  <path
    d="M69.2403 86.0751L69.4309 86.1183L74.2506 90.7421L74.3803 91.0061L57.715 86.3587L69.2403 86.0751Z"
    fill="white" />
  <path d="M74.3765 91.005L69.2366 86.0739L73.3362 78.6731L74.3765 91.005Z" fill="white" />
  <path d="M68.0534 84.9341L56.5309 85.2136L61.4861 78.6338L68.0534 84.9341Z" fill="white" />
  <path d="M72.1446 77.5334L68.0469 84.9361L61.4796 78.6358L72.1446 77.5334Z" fill="white" />
</svg>