<svg width="20" height="20" viewBox="0 0 20 20" fill="none" xmlns="http://www.w3.org/2000/svg">
<path fill-rule="evenodd" clip-rule="evenodd" d="M12.5 2.49935C12.5 2.03911 12.8731 1.66602 13.3334 1.66602H17.5C17.9603 1.66602 18.3334 2.03911 18.3334 2.49935V6.66602C18.3334 7.12625 17.9603 7.49935 17.5 7.49935H13.3334C12.8731 7.49935 12.5 7.12625 12.5 6.66602V2.49935ZM14.1667 3.33268V5.83268H16.6667V3.33268H14.1667Z" fill="#F7F7FA"/>
<path fill-rule="evenodd" clip-rule="evenodd" d="M12.5 13.3327C12.5 12.8724 12.8731 12.4993 13.3334 12.4993H17.5C17.9603 12.4993 18.3334 12.8724 18.3334 13.3327V17.4993C18.3334 17.9596 17.9603 18.3327 17.5 18.3327H13.3334C12.8731 18.3327 12.5 17.9596 12.5 17.4993V13.3327ZM16.6667 14.166H14.1667V16.666H16.6667V14.166Z" fill="#F7F7FA"/>
<path fill-rule="evenodd" clip-rule="evenodd" d="M2.50002 12.4993C2.03978 12.4993 1.66669 12.8724 1.66669 13.3327V17.4993C1.66669 17.9596 2.03978 18.3327 2.50002 18.3327H6.66669C7.12692 18.3327 7.50002 17.9596 7.50002 17.4993V13.3327C7.50002 12.8724 7.12692 12.4993 6.66669 12.4993H2.50002ZM3.33335 16.666V14.166H5.83335V16.666H3.33335Z" fill="#F7F7FA"/>
<path fill-rule="evenodd" clip-rule="evenodd" d="M1.66669 2.49935C1.66669 2.03911 2.03978 1.66602 2.50002 1.66602H6.66669C7.12692 1.66602 7.50002 2.03911 7.50002 2.49935V6.66602C7.50002 7.12625 7.12692 7.49935 6.66669 7.49935H2.50002C2.03978 7.49935 1.66669 7.12625 1.66669 6.66602V2.49935ZM3.33335 3.33268V5.83268H5.83335V3.33268H3.33335Z" fill="#F7F7FA"/>
<path d="M3.33335 9.16602C2.87312 9.16602 2.50002 9.53911 2.50002 9.99935C2.50002 10.4596 2.87312 10.8327 3.33335 10.8327H9.16669V12.916C9.16669 13.3763 9.53978 13.7493 10 13.7493C10.4603 13.7493 10.8334 13.3763 10.8334 12.916V10.8327H12.5C12.9603 10.8327 13.3334 10.4596 13.3334 9.99935C13.3334 9.53911 12.9603 9.16602 12.5 9.16602H10.8334V7.08268C10.8334 6.62245 10.4603 6.24935 10 6.24935C9.53978 6.24935 9.16669 6.62245 9.16669 7.08268V9.16602H3.33335Z" fill="#F7F7FA"/>
<path d="M15 9.99935C15 9.53911 15.3731 9.16602 15.8334 9.16602H16.6667C17.1269 9.16602 17.5 9.53911 17.5 9.99935C17.5 10.4596 17.1269 10.8327 16.6667 10.8327H15.8334C15.3731 10.8327 15 10.4596 15 9.99935Z" fill="#F7F7FA"/>
<path d="M10.8334 15.416C10.8334 14.9558 10.4603 14.5827 10 14.5827C9.53978 14.5827 9.16669 14.9558 9.16669 15.416V16.2493C9.16669 16.7096 9.53978 17.0827 10 17.0827C10.4603 17.0827 10.8334 16.7096 10.8334 16.2493V15.416Z" fill="#F7F7FA"/>
<path d="M10.8334 3.33268C10.8334 2.87245 10.4603 2.49935 10 2.49935C9.53978 2.49935 9.16669 2.87245 9.16669 3.33268V4.16602C9.16669 4.62625 9.53978 4.99935 10 4.99935C10.4603 4.99935 10.8334 4.62625 10.8334 4.16602V3.33268Z" fill="#F7F7FA"/>
</svg>
