<svg xmlns="http://www.w3.org/2000/svg" width="16" height="16" viewBox="0 0 16 16" fill="none">
  <path fill-rule="evenodd" clip-rule="evenodd"
    d="M3.33139 5.31982L3.33333 5.3559V7.72382L2.19526 8.86189L2 9.05715V9.33329V11.3333V12H2.66667L5.33333 12C5.33333 13.4727 6.52724 14.6666 8 14.6666C9.47276 14.6666 10.6667 13.4727 10.6667 12H13.3333H14V11.3333V9.33329V9.05715L13.8047 8.86189L12.6667 7.72382V5.35591L12.6686 5.31982C12.6704 5.28202 12.6721 5.22987 12.6725 5.16539C12.6733 5.03669 12.6687 4.85732 12.6479 4.64378C12.6067 4.22035 12.5002 3.64272 12.231 3.05552C11.9597 2.46342 11.5195 1.85539 10.8159 1.39899C10.1116 0.942153 9.18863 0.666626 8 0.666626C6.81137 0.666626 5.88836 0.942153 5.18408 1.39899C4.48045 1.85539 4.04034 2.46342 3.76896 3.05552C3.49982 3.64272 3.39325 4.22035 3.35209 4.64378C3.33133 4.85732 3.32672 5.03669 3.32749 5.16539C3.32787 5.22987 3.32961 5.28202 3.33139 5.31982ZM9.33333 12L6.66667 12C6.66667 12.7363 7.26362 13.3333 8 13.3333C8.73638 13.3333 9.33333 12.7363 9.33333 12ZM10.6667 10.6666H12.6667V9.60943L11.5286 8.47136L11.3333 8.2761V7.99996V5.33329V5.30556L11.3354 5.28071L11.3355 5.28006L11.3356 5.27801L11.3368 5.25692C11.3377 5.23613 11.3389 5.20234 11.3392 5.15745C11.3397 5.06739 11.3365 4.93427 11.3208 4.7728C11.2891 4.44624 11.2082 4.02386 11.019 3.61106C10.832 3.20316 10.543 2.81119 10.0903 2.5176C9.63836 2.22443 8.97803 1.99996 8 1.99996C7.02197 1.99996 6.36164 2.22443 5.90967 2.5176C5.45705 2.81119 5.168 3.20316 4.98104 3.61106C4.79184 4.02386 4.71091 4.44624 4.67916 4.7728C4.66347 4.93427 4.66026 5.06739 4.6608 5.15745C4.66106 5.20234 4.66226 5.23613 4.66324 5.25692L4.6644 5.27801L4.66454 5.28003L4.66667 5.30556V5.33329V7.99996V8.2761L4.4714 8.47136L3.33333 9.60944V10.6666H5.33333H6H10H10.6667Z"
    fill="#1754F8" />
</svg>