<svg width="31" height="32" viewBox="0 0 31 32" fill="none" xmlns="http://www.w3.org/2000/svg">
<path d="M2.64453 15.0523C2.64453 8.00659 8.35625 2.29492 15.402 2.29492C22.4478 2.29492 28.1595 8.00659 28.1595 15.0523C28.1595 22.098 22.4478 27.8097 15.402 27.8097C13.2181 27.8097 11.1624 27.2609 9.36526 26.2938" stroke="#1754F8" stroke-width="3"/>
<path d="M20.9694 15.052C20.9694 18.1264 18.4771 20.6187 15.4027 20.6187C12.3282 20.6187 9.83594 18.1264 9.83594 15.052C9.83594 11.9776 12.3282 9.48535 15.4027 9.48535C18.4771 9.48535 20.9694 11.9776 20.9694 15.052Z" stroke="#1754F8" stroke-width="3"/>
<path d="M2.64062 15.0343V30.295V30.295C6.60586 30.295 9.82031 27.0806 9.82031 23.1154V15.1187" stroke="#1754F8" stroke-width="3"/>
</svg>
