<svg xmlns="http://www.w3.org/2000/svg" width="56" height="56" viewBox="0 0 56 56" fill="none">
  <g clip-path="url(#clip0_6468_46749)">
    <path
      d="M0.84375 33.7236H14.7431V54.5361H8.475C4.26038 54.5361 0.84375 51.1195 0.84375 46.9049V33.7236Z"
      fill="#1754F8" />
    <path
      d="M12.5031 2.77019C12.5031 2.38704 12.8137 2.08203 13.1969 2.08203H41.5829C41.7721 2.08203 41.9531 2.15931 42.084 2.29596L54.7424 15.5148C54.8661 15.644 54.9351 15.8159 54.9351 15.9947V53.8431C54.9351 54.2263 54.6245 54.5369 54.2414 54.5369H6.71484C6.71484 54.5369 12.5031 53.8452 12.5031 42.4714C12.5031 32.1345 12.5031 7.22604 12.5031 2.77019Z"
      fill="white" />
    <rect x="47.2461" y="42.7568" width="19.0321" height="4.995"
      transform="rotate(-180 47.2461 42.7568)" fill="black" />
    <path d="M37.9648 17.035V5.25977L50.0296 17.035H37.9648Z" fill="black" />
  </g>
  <defs>
    <clipPath id="clip0_6468_46749">
      <rect width="55.5" height="55.5" fill="white" transform="translate(0.128906)" />
    </clipPath>
  </defs>
</svg>