<svg xmlns="http://www.w3.org/2000/svg" width="67" height="14" viewBox="0 0 67 14" fill="none">
  <ellipse cx="33.2246" cy="7.47073" rx="33.0242" ry="6.53226" fill="black" fill-opacity="0.6" />
  <path
    d="M65.8859 7.47073C65.8859 7.78821 65.7249 8.14043 65.3257 8.52629C64.9261 8.91255 64.3171 9.30249 63.4999 9.68465C61.8675 10.4481 59.4822 11.145 56.5059 11.7337C50.5591 12.91 42.3278 13.6401 33.2246 13.6401C24.1215 13.6401 15.8902 12.91 9.94342 11.7337C6.96706 11.145 4.58181 10.4481 2.94938 9.68465C2.13218 9.30249 1.52319 8.91255 1.1236 8.52629C0.724421 8.14043 0.563343 7.78821 0.563343 7.47073C0.563343 7.15326 0.724421 6.80104 1.1236 6.41518C1.52319 6.02892 2.13218 5.63898 2.94938 5.25682C4.58181 4.4934 6.96706 3.79647 9.94342 3.20774C15.8902 2.03146 24.1215 1.30138 33.2246 1.30138C42.3278 1.30138 50.5591 2.03146 56.5059 3.20774C59.4822 3.79647 61.8675 4.4934 63.4999 5.25682C64.3171 5.63898 64.9261 6.02892 65.3257 6.41518C65.7249 6.80104 65.8859 7.15326 65.8859 7.47073Z"
    stroke="white" stroke-opacity="0.2" stroke-width="0.725807" />
</svg>