<svg width="24" height="25" viewBox="0 0 24 25" fill="none" xmlns="http://www.w3.org/2000/svg">
<path fill-rule="evenodd" clip-rule="evenodd" d="M11.1696 3.76788C11.5303 3.38642 11.8113 3.29492 12 3.29492C12.1887 3.29492 12.4697 3.38642 12.8304 3.76788C13.1932 4.15145 13.5659 4.76015 13.9 5.59524C14.4813 7.04864 14.8861 9.03841 14.9794 11.2949H9.02056C9.11393 9.03841 9.51869 7.04864 10.1 5.59524C10.4341 4.76015 10.8068 4.15145 11.1696 3.76788ZM7.019 11.2949C7.11321 8.82775 7.55341 6.57668 8.2431 4.85246C8.371 4.53272 8.50959 4.22575 8.65909 3.93541C5.6385 5.14369 3.42561 7.94169 3.05493 11.2949L7.019 11.2949ZM3.05493 13.2949L7.019 13.2949C7.11321 15.7621 7.55341 18.0132 8.2431 19.7374C8.371 20.0571 8.50959 20.3641 8.65909 20.6544C5.6385 19.4462 3.42561 16.6482 3.05493 13.2949ZM9.02056 13.2949H14.9794C14.8861 15.5514 14.4813 17.5412 13.9 18.9946C13.5659 19.8297 13.1932 20.4384 12.8304 20.822C12.4697 21.2034 12.1887 21.2949 12 21.2949C11.8113 21.2949 11.5303 21.2034 11.1696 20.822C10.8068 20.4384 10.4341 19.8297 10.1 18.9946C9.51869 17.5412 9.11393 15.5514 9.02056 13.2949ZM16.981 13.2949C16.8868 15.7621 16.4466 18.0132 15.7569 19.7374C15.629 20.0571 15.4904 20.3641 15.3409 20.6544C18.3615 19.4462 20.5744 16.6482 20.9451 13.2949L16.981 13.2949ZM20.9451 11.2949C20.5744 7.94169 18.3615 5.14369 15.3409 3.93541C15.4904 4.22575 15.629 4.53272 15.7569 4.85246C16.4466 6.57668 16.8868 8.82775 16.981 11.2949L20.9451 11.2949ZM23 12.2949C23 18.3701 18.0751 23.2949 12 23.2949C5.92487 23.2949 1 18.3701 1 12.2949C1 6.21979 5.92487 1.29492 12 1.29492C18.0751 1.29492 23 6.21979 23 12.2949Z" fill="black"/>
</svg>
