<svg width="16" height="16" viewBox="0 0 16 16" fill="none" xmlns="http://www.w3.org/2000/svg">
<g clip-path="url(#clip0_5628_34954)">
<path d="M13.1143 3.34631C13.1102 3.33839 13.1035 3.33218 13.0952 3.32881C12.1422 2.89152 11.1364 2.5797 10.1031 2.40116C10.0937 2.39941 10.084 2.40067 10.0754 2.40475C10.0667 2.40884 10.0596 2.41554 10.055 2.42391C9.91805 2.67248 9.79373 2.9278 9.68251 3.18891C8.56867 3.01983 7.4357 3.01983 6.32186 3.18891C6.2099 2.92714 6.08359 2.67175 5.94348 2.42391C5.93868 2.41572 5.93152 2.40917 5.92294 2.40512C5.91436 2.40106 5.90476 2.39968 5.89538 2.40116C4.86198 2.57933 3.85614 2.89117 2.90318 3.32883C2.89503 3.33229 2.88814 3.33819 2.88348 3.34573C0.977759 6.19168 0.455709 8.96765 0.711809 11.7093C0.712529 11.716 0.714593 11.7225 0.717879 11.7284C0.721164 11.7343 0.725604 11.7395 0.730934 11.7436C1.84062 12.5653 3.08182 13.1924 4.40156 13.5984C4.41085 13.6011 4.42078 13.601 4.43 13.598C4.43922 13.595 4.44729 13.5892 4.45313 13.5815C4.73659 13.1958 4.98775 12.7874 5.20406 12.3604C5.20703 12.3545 5.20873 12.3481 5.20904 12.3416C5.20935 12.335 5.20826 12.3284 5.20586 12.3223C5.20345 12.3162 5.19977 12.3107 5.19507 12.3061C5.19037 12.3015 5.18475 12.298 5.17858 12.2957C4.78252 12.1442 4.39909 11.9615 4.03188 11.7494C4.02521 11.7455 4.01961 11.74 4.01557 11.7334C4.01153 11.7268 4.00918 11.7193 4.00872 11.7115C4.00827 11.7038 4.00972 11.6961 4.01295 11.6891C4.01618 11.682 4.0211 11.6759 4.02726 11.6712C4.10453 11.6135 4.18046 11.554 4.25498 11.4928C4.26152 11.4874 4.26943 11.484 4.27782 11.4828C4.28621 11.4817 4.29476 11.4829 4.30248 11.4864C6.70821 12.5843 9.31273 12.5843 11.69 11.4864C11.6977 11.4827 11.7064 11.4813 11.7149 11.4823C11.7234 11.4834 11.7314 11.4868 11.7381 11.4922C11.8127 11.5538 11.8888 11.6135 11.9664 11.6712C11.9726 11.6759 11.9775 11.6819 11.9808 11.689C11.9841 11.696 11.9856 11.7037 11.9852 11.7114C11.9848 11.7191 11.9825 11.7266 11.9785 11.7332C11.9745 11.7399 11.969 11.7454 11.9623 11.7494C11.596 11.9633 11.2122 12.1458 10.8151 12.2951C10.8089 12.2975 10.8033 12.3011 10.7986 12.3058C10.794 12.3104 10.7903 12.316 10.788 12.3222C10.7856 12.3283 10.7846 12.3349 10.785 12.3415C10.7853 12.3481 10.7871 12.3545 10.7901 12.3604C11.01 12.785 11.2608 13.1929 11.5404 13.5808C11.5461 13.5887 11.5541 13.5947 11.5634 13.5978C11.5727 13.601 11.5827 13.6011 11.592 13.5983C12.9141 13.1937 14.1575 12.5665 15.2686 11.7436C15.274 11.7397 15.2785 11.7346 15.2818 11.7288C15.2851 11.723 15.2871 11.7165 15.2877 11.7098C15.5943 8.54026 14.7744 5.78703 13.1143 3.34631ZM5.56333 10.0399C4.83903 10.0399 4.24223 9.37523 4.24223 8.55893C4.24223 7.74263 4.82746 7.07791 5.56333 7.07791C6.30496 7.07791 6.89598 7.7484 6.88441 8.55888C6.88441 9.37523 6.29916 10.0399 5.56333 10.0399ZM10.4478 10.0399C9.72356 10.0399 9.12676 9.37523 9.12676 8.55893C9.12676 7.74263 9.71198 7.07791 10.4478 7.07791C11.1895 7.07791 11.7805 7.7484 11.7689 8.55888C11.7689 9.37523 11.1895 10.0399 10.4478 10.0399Z" fill="#0C0D0F"/>
</g>
<defs>
<clipPath id="clip0_5628_34954">
<rect width="16" height="16" fill="white"/>
</clipPath>
</defs>
</svg>
