<svg width="16" height="16" viewBox="0 0 16 16" fill="none" xmlns="http://www.w3.org/2000/svg">
<g clip-path="url(#clip0_5628_34956)">
<path d="M15.5 6.49882C15.4999 6.11556 15.3897 5.74039 15.1825 5.41798C14.9753 5.09556 14.6798 4.83947 14.3312 4.68019C13.9826 4.52091 13.5956 4.46514 13.2162 4.51952C12.8368 4.5739 12.481 4.73615 12.1912 4.98694C11.1443 4.43069 9.89372 4.09444 8.58747 4.01632L8.91185 2.06819L10.0193 2.23819C10.0755 2.58755 10.2534 2.90579 10.5216 3.13668C10.7897 3.36756 11.1308 3.49622 11.4846 3.49992C11.8385 3.50361 12.1822 3.38211 12.4551 3.15687C12.728 2.93164 12.9125 2.61718 12.976 2.26907C13.0395 1.92097 12.9778 1.56163 12.802 1.25457C12.6261 0.947511 12.3474 0.712502 12.015 0.59108C11.6827 0.469657 11.3181 0.46964 10.9857 0.591029C10.6534 0.712419 10.3746 0.947401 10.1987 1.25444L8.57372 1.00444C8.44372 0.984397 8.31105 1.01639 8.20448 1.09349C8.0979 1.17058 8.026 1.28657 8.00435 1.41632L7.57497 4.00882C6.20997 4.06757 4.89872 4.40757 3.80872 4.98694C3.41066 4.65067 2.89708 4.48304 2.37729 4.51972C1.85749 4.5564 1.37254 4.79449 1.02565 5.18333C0.678758 5.57217 0.49732 6.08104 0.519956 6.60164C0.542592 7.12223 0.767514 7.61343 1.14685 7.97069C1.04963 8.30476 1.00018 8.6509 0.999972 8.99882C0.999972 10.3694 1.74997 11.6457 3.11935 12.5919C4.42997 13.4988 6.1631 13.9988 7.99997 13.9988C9.83685 13.9988 11.57 13.4988 12.8806 12.5919C14.25 11.6457 15 10.3694 15 8.99882C14.9998 8.6509 14.9503 8.30476 14.8531 7.97069C15.0564 7.78308 15.2188 7.55552 15.3301 7.30225C15.4414 7.04898 15.4992 6.77546 15.5 6.49882ZM11.5 1.49882C11.5989 1.49882 11.6955 1.52814 11.7778 1.58308C11.86 1.63802 11.9241 1.71611 11.9619 1.80748C11.9998 1.89884 12.0097 1.99937 11.9904 2.09636C11.9711 2.19335 11.9235 2.28244 11.8535 2.35237C11.7836 2.4223 11.6945 2.46992 11.5975 2.48921C11.5005 2.5085 11.4 2.4986 11.3086 2.46076C11.2173 2.42291 11.1392 2.35883 11.0842 2.2766C11.0293 2.19438 11 2.09771 11 1.99882C11 1.86621 11.0527 1.73903 11.1464 1.64526C11.2402 1.5515 11.3674 1.49882 11.5 1.49882ZM4.49997 7.99882C4.49997 7.80104 4.55862 7.6077 4.6685 7.44325C4.77838 7.2788 4.93456 7.15062 5.11729 7.07494C5.30002 6.99925 5.50108 6.97945 5.69506 7.01803C5.88904 7.05662 6.06723 7.15186 6.20708 7.29171C6.34693 7.43156 6.44217 7.60975 6.48076 7.80373C6.51934 7.99771 6.49954 8.19877 6.42385 8.3815C6.34816 8.56423 6.21999 8.7204 6.05554 8.83029C5.89109 8.94017 5.69775 8.99882 5.49997 8.99882C5.23476 8.99882 4.9804 8.89346 4.79287 8.70592C4.60533 8.51839 4.49997 8.26403 4.49997 7.99882ZM10.2343 11.4407C9.54634 11.8063 8.77911 11.9975 7.99997 11.9975C7.22084 11.9975 6.45361 11.8063 5.7656 11.4407C5.70757 11.4099 5.65617 11.368 5.61434 11.3174C5.57251 11.2667 5.54106 11.2083 5.52179 11.1455C5.50252 11.0827 5.49581 11.0168 5.50204 10.9514C5.50827 10.886 5.52732 10.8225 5.5581 10.7644C5.58888 10.7064 5.63078 10.655 5.68142 10.6132C5.73207 10.5714 5.79045 10.5399 5.85325 10.5206C5.91604 10.5014 5.98202 10.4947 6.04741 10.5009C6.1128 10.5071 6.17632 10.5262 6.23435 10.5569C6.77799 10.846 7.38427 10.9971 7.99997 10.9971C8.61567 10.9971 9.22195 10.846 9.7656 10.5569C9.82363 10.5262 9.88715 10.5071 9.95254 10.5009C10.0179 10.4947 10.0839 10.5014 10.1467 10.5206C10.2095 10.5399 10.2679 10.5714 10.3185 10.6132C10.3692 10.655 10.4111 10.7064 10.4418 10.7644C10.4726 10.8225 10.4917 10.886 10.4979 10.9514C10.5041 11.0168 10.4974 11.0827 10.4782 11.1455C10.4589 11.2083 10.4274 11.2667 10.3856 11.3174C10.3438 11.368 10.2924 11.4099 10.2343 11.4407ZM10.5 8.99882C10.3022 8.99882 10.1089 8.94017 9.9444 8.83029C9.77995 8.7204 9.65178 8.56423 9.57609 8.3815C9.50041 8.19877 9.4806 7.99771 9.51919 7.80373C9.55777 7.60975 9.65301 7.43156 9.79287 7.29171C9.93272 7.15186 10.1109 7.05662 10.3049 7.01803C10.4989 6.97945 10.6999 6.99925 10.8827 7.07494C11.0654 7.15062 11.2216 7.2788 11.3314 7.44325C11.4413 7.6077 11.5 7.80104 11.5 7.99882C11.5 8.26403 11.3946 8.51839 11.2071 8.70592C11.0195 8.89346 10.7652 8.99882 10.5 8.99882Z" fill="#0C0D0F"/>
</g>
<defs>
<clipPath id="clip0_5628_34956">
<rect width="16" height="16" fill="white"/>
</clipPath>
</defs>
</svg>
