<svg xmlns="http://www.w3.org/2000/svg" width="24" height="24" viewBox="0 0 24 24" fill="none">
  <path
    d="M18.7359 16.1202C18.7128 16.1895 18.3513 17.4403 17.4631 18.7269C16.6939 19.8367 15.8982 20.9559 14.6428 20.9755C13.407 20.9974 13.012 20.2444 11.6019 20.2444C10.194 20.2444 9.75167 20.9559 8.58404 20.9974C7.37714 21.0459 6.44742 19.7848 5.67708 18.6807C4.0983 16.4182 2.88447 12.2697 4.51292 9.48974C5.31559 8.09805 6.75579 7.21453 8.32418 7.18913C9.50682 7.16718 10.6317 7.98372 11.3501 7.98372C12.0881 7.98372 13.4486 6.99625 14.8842 7.14408C15.4847 7.16949 17.1663 7.39239 18.2496 8.95039C18.1653 9.00814 16.2377 10.1353 16.2597 12.4313C16.2886 15.202 18.7104 16.1109 18.7359 16.1202ZM13.9452 5.65885C14.592 4.87581 15.0181 3.79941 14.9061 2.72995C13.9822 2.76575 12.855 3.3386 12.1863 4.11817C11.5938 4.79727 11.0729 5.89099 11.2184 6.94775C12.2452 7.00896 13.3008 6.41417 13.9441 5.65885"
    fill="currentColor" />
</svg>