<svg xmlns="http://www.w3.org/2000/svg" width="20" height="20" viewBox="0 0 20 20" fill="none">
  <path fill-rule="evenodd" clip-rule="evenodd"
    d="M4.16667 2.5C3.24619 2.5 2.5 3.24619 2.5 4.16667V12.5C2.5 13.4205 3.24619 14.1667 4.16667 14.1667H12.5C13.4205 14.1667 14.1667 13.4205 14.1667 12.5V4.16667C14.1667 3.24619 13.4205 2.5 12.5 2.5H4.16667ZM4.16667 4.16667L12.5 4.16667V12.5H4.16667V4.16667ZM17.5 6.66667C17.5 6.20643 17.1269 5.83333 16.6667 5.83333C16.2064 5.83333 15.8333 6.20643 15.8333 6.66667V15C15.8333 15.4602 15.4602 15.8333 15 15.8333H6.66667C6.20643 15.8333 5.83333 16.2064 5.83333 16.6667C5.83333 17.1269 6.20643 17.5 6.66667 17.5H15C16.3807 17.5 17.5 16.3807 17.5 15V6.66667Z"
    fill="currentColor" />
</svg>