<svg xmlns="http://www.w3.org/2000/svg" width="18" height="18" viewBox="0 0 18 18" fill="none">
  <path fill-rule="evenodd" clip-rule="evenodd"
    d="M2.99999 3.5C3.55228 3.5 3.99999 3.94772 3.99999 4.5C3.99999 7.26142 6.23857 9.5 8.99999 9.5C11.7614 9.5 14 7.26142 14 4.5C14 3.94772 14.4477 3.5 15 3.5C15.5523 3.5 16 3.94772 16 4.5C16 5.89335 15.5929 7.19162 14.8912 8.28235L16.5182 10.2348C16.8718 10.6591 16.8145 11.2897 16.3902 11.6432C15.9659 11.9968 15.3353 11.9395 14.9818 11.5152L13.561 9.81026C13.0419 10.2565 12.4567 10.628 11.822 10.9079L12.8944 13.0528C13.1414 13.5468 12.9412 14.1474 12.4472 14.3944C11.9532 14.6414 11.3526 14.4412 11.1056 13.9472L9.85605 11.4482C9.57549 11.4824 9.2898 11.5 8.99999 11.5C8.71019 11.5 8.4245 11.4824 8.14394 11.4482L6.89442 13.9472C6.64743 14.4412 6.04676 14.6414 5.55278 14.3944C5.0588 14.1474 4.85858 13.5468 5.10557 13.0528L6.17801 10.9079C5.54332 10.628 4.95807 10.2565 4.43898 9.81026L3.01822 11.5152C2.66465 11.9395 2.03409 11.9968 1.60981 11.6432C1.18553 11.2897 1.12821 10.6591 1.48177 10.2348L3.10883 8.28235C2.40709 7.19162 1.99999 5.89335 1.99999 4.5C1.99999 3.94772 2.44771 3.5 2.99999 3.5Z"
    fill="currentColor" />
</svg>