<svg xmlns="http://www.w3.org/2000/svg" width="20" height="20" viewBox="0 0 20 20" fill="none">
  <path fill-rule="evenodd" clip-rule="evenodd"
    d="M3.33332 9.16699C3.33332 5.94533 5.94499 3.33366 9.16666 3.33366C12.3883 3.33366 15 5.94533 15 9.16699C15 12.3887 12.3883 15.0003 9.16666 15.0003C5.94499 15.0003 3.33332 12.3887 3.33332 9.16699ZM9.16666 1.66699C5.02452 1.66699 1.66666 5.02486 1.66666 9.16699C1.66666 13.3091 5.02452 16.667 9.16666 16.667C10.9375 16.667 12.565 16.0533 13.8481 15.0269L16.9107 18.0896C17.2362 18.415 17.7638 18.415 18.0892 18.0896C18.4147 17.7641 18.4147 17.2365 18.0892 16.9111L15.0266 13.8484C16.0529 12.5653 16.6667 10.9378 16.6667 9.16699C16.6667 5.02486 13.3088 1.66699 9.16666 1.66699Z"
    fill="currentColor" />
</svg>