<svg xmlns="http://www.w3.org/2000/svg" width="18" height="18" viewBox="0 0 18 18" fill="none">
  <path fill-rule="evenodd" clip-rule="evenodd"
    d="M14 10.5C14 11.0523 14.4477 11.5 15 11.5C15.5523 11.5 16 11.0523 16 10.5C16 6.63401 12.866 3.5 9 3.5C5.13401 3.5 2 6.63401 2 10.5C2 11.0523 2.44771 11.5 3 11.5C3.55229 11.5 4 11.0523 4 10.5C4 7.73858 6.23858 5.5 9 5.5C11.7614 5.5 14 7.73858 14 10.5ZM7.75 9.75C7.75 9.05964 8.30964 8.5 9 8.5C9.69036 8.5 10.25 9.05964 10.25 9.75C10.25 10.4404 9.69036 11 9 11C8.30964 11 7.75 10.4404 7.75 9.75ZM9 6.5C7.20507 6.5 5.75 7.95507 5.75 9.75C5.75 11.5449 7.20507 13 9 13C10.7949 13 12.25 11.5449 12.25 9.75C12.25 7.95507 10.7949 6.5 9 6.5Z"
    fill="currentColor" />
</svg>