<svg xmlns="http://www.w3.org/2000/svg" width="16" height="16" viewBox="0 0 16 16" fill="none">
  <path fill-rule="evenodd" clip-rule="evenodd"
    d="M2.66665 8.00004C2.66665 5.05452 5.05446 2.66671 7.99998 2.66671C10.9455 2.66671 13.3333 5.05452 13.3333 8.00004C13.3333 10.9456 10.9455 13.3334 7.99998 13.3334C5.05446 13.3334 2.66665 10.9456 2.66665 8.00004ZM7.99998 1.33337C4.31808 1.33337 1.33331 4.31814 1.33331 8.00004C1.33331 11.6819 4.31808 14.6667 7.99998 14.6667C11.6819 14.6667 14.6666 11.6819 14.6666 8.00004C14.6666 4.31814 11.6819 1.33337 7.99998 1.33337ZM7.99998 6.66671C7.63179 6.66671 7.33331 6.36823 7.33331 6.00004V5.33337C7.33331 4.96518 7.63179 4.66671 7.99998 4.66671C8.36817 4.66671 8.66665 4.96518 8.66665 5.33337V6.00004C8.66665 6.36823 8.36817 6.66671 7.99998 6.66671ZM7.99998 11.3334C7.63179 11.3334 7.33331 11.0349 7.33331 10.6667V8.00004C7.33331 7.63185 7.63179 7.33337 7.99998 7.33337C8.36817 7.33337 8.66665 7.63185 8.66665 8.00004L8.66665 10.6667C8.66665 11.0349 8.36817 11.3334 7.99998 11.3334Z"
    fill="#FF9142" />
</svg>