<svg xmlns="http://www.w3.org/2000/svg" width="16" height="16" viewBox="0 0 16 16" fill="none">
  <path fill-rule="evenodd" clip-rule="evenodd"
    d="M2.66659 8C2.66659 5.05448 5.0544 2.66667 7.99992 2.66667C10.9454 2.66667 13.3333 5.05448 13.3333 8C13.3333 10.9455 10.9454 13.3333 7.99992 13.3333C5.0544 13.3333 2.66659 10.9455 2.66659 8ZM7.99992 1.33334C4.31802 1.33334 1.33325 4.3181 1.33325 8C1.33325 11.6819 4.31802 14.6667 7.99992 14.6667C11.6818 14.6667 14.6666 11.6819 14.6666 8C14.6666 4.3181 11.6818 1.33334 7.99992 1.33334ZM7.99992 6.66667C7.63173 6.66667 7.33325 6.36819 7.33325 6V5.33334C7.33325 4.96515 7.63173 4.66667 7.99992 4.66667C8.36811 4.66667 8.66658 4.96515 8.66658 5.33334V6C8.66658 6.36819 8.36811 6.66667 7.99992 6.66667ZM7.99992 11.3333C7.63173 11.3333 7.33325 11.0349 7.33325 10.6667V8C7.33325 7.63181 7.63173 7.33334 7.99992 7.33334C8.36811 7.33334 8.66659 7.63181 8.66659 8L8.66658 10.6667C8.66658 11.0349 8.36811 11.3333 7.99992 11.3333Z"
    fill="#7A8091" />
</svg>