<svg width="64" height="64" viewBox="0 0 64 64" fill="none" xmlns="http://www.w3.org/2000/svg">
<circle cx="32" cy="32" r="32" fill="#F7F8FC"/>
<path d="M21.6856 23.6992L31.9151 21.1387V47.2184L24.5055 42.2676L21.2143 35.248L20.3953 24.9576L21.6856 23.6992Z" fill="#B4C7FB"/>
<path d="M35.4094 32.5624H28.4217C28.247 32.5624 28.0795 32.493 27.956 32.3695C27.8325 32.246 27.7631 32.0785 27.7631 31.9038C27.7631 31.7292 27.8325 31.5617 27.956 31.4382C28.0795 31.3147 28.247 31.2453 28.4217 31.2453H35.4094C35.4958 31.2453 35.5815 31.2623 35.6614 31.2954C35.7413 31.3285 35.8139 31.377 35.875 31.4382C35.9362 31.4993 35.9847 31.5719 36.0178 31.6518C36.0509 31.7317 36.0679 31.8174 36.0679 31.9038C36.0679 31.9903 36.0509 32.076 36.0178 32.1559C35.9847 32.2358 35.9362 32.3083 35.875 32.3695C35.8139 32.4307 35.7413 32.4792 35.6614 32.5123C35.5815 32.5453 35.4958 32.5624 35.4094 32.5624Z" fill="#1754F8" stroke="#1754F8" stroke-width="0.6"/>
<path d="M31.9532 39.0484H31.9531C31.7785 39.0484 31.6109 38.979 31.4875 38.8555L31.2753 39.0677L31.4875 38.8555C31.364 38.732 31.2946 38.5645 31.2946 38.3899V26.9602H31.2946L31.2945 26.9543C31.2928 26.8667 31.3086 26.7796 31.3409 26.6982C31.3732 26.6167 31.4215 26.5426 31.4828 26.48C31.5442 26.4175 31.6174 26.3678 31.6981 26.3338C31.7789 26.2999 31.8657 26.2824 31.9533 26.2824C32.0409 26.2824 32.1277 26.2999 32.2084 26.3338C32.2892 26.3678 32.3624 26.4175 32.4238 26.48C32.4851 26.5426 32.5334 26.6167 32.5657 26.6982C32.598 26.7796 32.6138 26.8667 32.6121 26.9543L32.612 26.9543V26.9602V38.3899C32.612 38.4764 32.595 38.562 32.5619 38.642C32.5287 38.7219 32.4802 38.7945 32.419 38.8556C32.3579 38.9168 32.2852 38.9653 32.2053 38.9984C32.1254 39.0314 32.0397 39.0484 31.9532 39.0484Z" fill="#1754F8" stroke="#1754F8" stroke-width="0.6"/>
<path d="M31.9165 47.2074C15.6069 44.9887 18.6736 24.4312 18.6736 24.4312C19.5168 24.4313 20.3593 24.3838 21.1971 24.2891C21.1971 24.2891 20.1951 43.2438 31.9143 44.6744L31.9165 47.2074Z" fill="#B4C7FB"/>
<path d="M31.9166 45.7891C31.8731 45.7892 31.8296 45.7864 31.7864 45.7806C25.8029 44.966 21.8693 40.8153 20.409 33.7764C19.3421 28.6275 19.9733 23.794 20.0008 23.5888L20.1121 22.7583H20.9501C24.6369 22.7583 28.238 21.5979 31.3644 19.4025C31.5727 19.2619 31.8279 19.2086 32.075 19.2542C32.3221 19.2998 32.5415 19.4405 32.6859 19.6462C32.8303 19.8519 32.8882 20.106 32.8471 20.3539C32.806 20.6019 32.6692 20.8237 32.4662 20.9719C29.2607 23.2229 25.5965 24.4876 21.8192 24.6561C21.6919 26.2124 21.5319 29.785 22.2945 33.4298C23.5982 39.6616 26.879 43.1777 32.0447 43.8806C32.2857 43.913 32.5054 44.0357 32.6593 44.224C32.8131 44.4123 32.8897 44.6521 32.8734 44.8947C32.8571 45.1374 32.7492 45.3648 32.5716 45.5308C32.3939 45.6969 32.1598 45.7892 31.9166 45.7891Z" fill="#1754F8" stroke="#1754F8" stroke-width="0.6"/>
<path d="M31.9145 45.7892C31.6713 45.7893 31.4372 45.697 31.2595 45.5309C31.0819 45.3648 30.974 45.1374 30.9577 44.8948C30.9414 44.6522 31.018 44.4124 31.1719 44.2241C31.3258 44.0358 31.5455 43.913 31.7865 43.8807C42.7304 42.3922 42.2966 28.2238 42.0101 24.658C38.2331 24.4895 34.5697 23.2245 31.3645 20.9738C31.2615 20.9015 31.1737 20.8096 31.1062 20.7033C31.0386 20.5971 30.9927 20.4786 30.971 20.3546C30.9493 20.2306 30.9522 20.1035 30.9795 19.9806C31.0069 19.8577 31.0582 19.7415 31.1306 19.6384C31.2029 19.5354 31.2948 19.4476 31.401 19.38C31.5073 19.3125 31.6258 19.2666 31.7498 19.2449C31.8738 19.2231 32.0009 19.226 32.1237 19.2534C32.2466 19.2808 32.3629 19.3321 32.4659 19.4044C35.5928 21.598 39.1939 22.7599 42.8803 22.7599H43.7186L43.8299 23.5904C43.8574 23.7937 44.489 28.6291 43.4217 33.778C41.9641 40.8154 38.0298 44.9661 32.0451 45.7807C32.0018 45.7864 31.9582 45.7893 31.9145 45.7892Z" fill="#1754F8" stroke="#1754F8" stroke-width="0.6"/>
</svg>
