<svg width="162" height="121" viewBox="0 0 162 121" fill="none" xmlns="http://www.w3.org/2000/svg">
<path d="M25.2718 68.6482C19.8154 64.0077 19.8398 56.1087 25.3134 51.4823C36.4435 42.0747 56.7603 28.8432 82.9506 28.8432C109.858 28.8432 128.897 42.8114 138.673 52.2277C143.229 56.6158 143.253 63.4989 138.716 67.9012C129.016 77.3137 110.077 91.2426 82.9506 91.2426C56.5498 91.2426 36.3274 78.0504 25.2718 68.6482Z" stroke="black" stroke-width="1.68647"/>
<path d="M104.833 60.0477C104.833 73.1779 94.1891 83.822 81.059 83.822C67.9288 83.822 57.2847 73.1779 57.2847 60.0477C57.2847 46.9176 67.9288 36.2734 81.059 36.2734C94.1891 36.2734 104.833 46.9176 104.833 60.0477Z" fill="black"/>
<circle cx="100.698" cy="39.3742" r="11.3703" fill="#1754F8"/>
<rect x="78.9912" y="6.08984" width="2.06733" height="18.606" fill="black"/>
<rect width="1.94637" height="20.1421" transform="matrix(0.919845 0.392283 -0.615824 0.787884 138.944 16.4277)" fill="black"/>
<rect width="1.94637" height="20.1421" transform="matrix(0.919845 -0.392283 -0.615824 -0.787884 31.4429 33.0645)" fill="black"/>
<rect width="2.06733" height="18.606" transform="matrix(1 0 0 -1 78.9912 114.09)" fill="black"/>
<rect width="1.94637" height="20.1421" transform="matrix(0.919845 -0.392283 -0.615824 -0.787884 138.944 103.756)" fill="black"/>
<rect width="1.94637" height="20.1421" transform="matrix(0.919845 0.392283 -0.615824 0.787884 31.4429 87.1211)" fill="black"/>
</svg>
