<svg width="131" height="130" viewBox="0 0 131 130" fill="none" xmlns="http://www.w3.org/2000/svg">
<g clip-path="url(#clip0_8877_28925)">
<path d="M63.1141 82.4496C62.6761 82.8852 62.3385 83.4111 62.125 83.9907C61.9114 84.5702 61.8271 85.1895 61.8778 85.805C61.9284 86.4206 62.113 87.0177 62.4184 87.5545C62.7239 88.0914 63.1429 88.555 63.6463 88.9131L64.5847 89.5834L40.9856 107.8C40.4925 108.18 39.9032 108.416 39.2836 108.48C38.6641 108.544 38.0389 108.435 37.4782 108.163C36.9175 107.892 36.4435 107.47 36.1094 106.944C35.7752 106.419 35.5942 105.81 35.5866 105.187L35.1681 73.3009L126.054 19.8262L63.1141 82.4496Z" fill="#1754F8"/>
<path d="M60.23 85.475L126.53 19.5L95.98 112.45L60.23 85.475Z" fill="black" stroke="black" stroke-width="1.3"/>
<path d="M2.70507 52.3239L126.205 19.4995L35.5299 73.1237L2.70507 52.3239Z" stroke="black" stroke-width="1.3"/>
</g>
<defs>
<clipPath id="clip0_8877_28925">
<rect width="130" height="130" fill="white" transform="translate(0.754883)"/>
</clipPath>
</defs>
</svg>
