<svg width="13" height="12" viewBox="0 0 13 12" fill="none" xmlns="http://www.w3.org/2000/svg">
<path fill-rule="evenodd" clip-rule="evenodd" d="M7.2998 2C7.2998 1.72386 7.07595 1.5 6.7998 1.5C6.52366 1.5 6.2998 1.72386 6.2998 2V5.5H2.7998C2.52366 5.5 2.2998 5.72386 2.2998 6C2.2998 6.27614 2.52366 6.5 2.7998 6.5H6.2998V10C6.2998 10.2761 6.52366 10.5 6.7998 10.5C7.07595 10.5 7.2998 10.2761 7.2998 10V6.5H10.7998C11.0759 6.5 11.2998 6.27614 11.2998 6C11.2998 5.72386 11.0759 5.5 10.7998 5.5H7.2998V2Z" fill="black"/>
</svg>
