<svg width="19" height="18" viewBox="0 0 19 18" fill="none" xmlns="http://www.w3.org/2000/svg">
<path d="M9.34158 1.46251C9.40457 1.32832 9.59543 1.32832 9.65842 1.46251L11.8938 6.22505C11.9186 6.27788 11.9681 6.31487 12.0258 6.32368L17.0383 7.08953C17.1791 7.11104 17.2366 7.28278 17.1372 7.38473L13.4992 11.1134C13.4604 11.1531 13.4428 11.2089 13.4517 11.2638L14.309 16.5193C14.3325 16.6635 14.1795 16.7713 14.0516 16.7007L9.58466 14.2314C9.53198 14.2023 9.46802 14.2023 9.41534 14.2314L4.94838 16.7007C4.82053 16.7713 4.66748 16.6635 4.691 16.5193L5.54828 11.2638C5.55722 11.2089 5.53961 11.1531 5.50082 11.1134L1.86284 7.38473C1.76337 7.28278 1.82086 7.11104 1.96166 7.08953L6.97418 6.32368C7.03187 6.31487 7.08137 6.27788 7.10617 6.22505L9.34158 1.46251Z" stroke="#494D5A" stroke-width="1.75" stroke-linejoin="round"/>
</svg>
