<svg width="24" height="24" viewBox="0 0 24 24" fill="none" xmlns="http://www.w3.org/2000/svg">
<path fill-rule="evenodd" clip-rule="evenodd" d="M5.58369 5.58333C5.58369 4.06455 6.8149 2.83333 8.33369 2.83333H15.667C17.1858 2.83333 18.417 4.06455 18.417 5.58333V8.33332C18.4169 8.33332 18.4168 8.33332 18.4167 8.33332H14.75H13.8334V9.24999V16.5833V17.5H14.75H18.4167V19.3333C18.4167 19.8396 18.0063 20.25 17.5 20.25H14.7042C14.4919 19.204 13.5671 18.4167 12.4584 18.4167H11.5417C10.2761 18.4167 9.25004 19.4427 9.25004 20.7083C9.25004 21.974 10.2761 23 11.5417 23H12.4584C13.2081 23 13.8738 22.6399 14.2919 22.0833H17.5C19.0188 22.0833 20.25 20.8521 20.25 19.3333V16.7998C20.8126 16.2962 21.1667 15.5644 21.1667 14.75V11.0833C21.1667 10.269 20.8128 9.53737 20.2504 9.03384V5.58333C20.2504 3.05203 18.1983 1 15.667 1H8.33369C5.80238 1 3.75035 3.05203 3.75035 5.58333V9.03328C3.18757 9.53683 2.83337 10.2687 2.83337 11.0833V14.75C2.83337 16.2688 4.06459 17.5 5.58337 17.5H9.25004H10.1667V16.5833V9.24999V8.33332H9.25004H5.58369V5.58333ZM5.57915 10.1667H5.58369V10.1667H8.33337V15.6667H5.58337C5.07711 15.6667 4.66671 15.2563 4.66671 14.75V11.0833C4.66671 10.5785 5.07483 10.1689 5.57915 10.1667ZM18.417 10.1667V10.1667H18.4209C18.9253 10.1689 19.3334 10.5785 19.3334 11.0833V14.75C19.3334 15.2563 18.923 15.6667 18.4167 15.6667H15.6667V10.1667H18.4167C18.4168 10.1667 18.4169 10.1667 18.417 10.1667ZM12.9167 20.7083C12.9167 20.9615 12.7115 21.1667 12.4584 21.1667H11.5417C11.2886 21.1667 11.0834 20.9615 11.0834 20.7083C11.0834 20.4552 11.2886 20.25 11.5417 20.25H12.4584C12.7115 20.25 12.9167 20.4552 12.9167 20.7083Z" fill="white"/>
</svg>
