<svg width="24" height="25" viewBox="0 0 24 25" fill="none" xmlns="http://www.w3.org/2000/svg">
<g clip-path="url(#clip0_14052_138062)">
<path d="M16.4339 4.6249L16.4339 4.62491L20.1753 8.36632C20.1753 8.36632 20.1753 8.36633 20.1753 8.36633C20.3544 8.54544 20.455 8.78835 20.455 9.04162V12.8002V20.3002C20.455 20.8276 20.0275 21.2552 19.5 21.2552H8.31777C7.92695 21.2552 7.57558 21.0171 7.43076 20.6541M16.4339 4.6249L7.43076 20.6541M16.4339 4.6249C16.2548 4.44582 16.0119 4.3452 15.7586 4.3452H7.35C6.82257 4.3452 6.395 4.77276 6.395 5.3002V17.8745C6.395 17.9958 6.41807 18.1159 6.46299 18.2284L7.43076 20.6541M16.4339 4.6249L7.43076 20.6541" fill="#6C6D6F" stroke="#6C6D6F" stroke-width="1.71"/>
<rect x="18.627" y="17.9375" width="4.75" height="1.71" transform="rotate(-180 18.627 17.9375)" fill="black"/>
<path d="M14.5859 5.32524C14.5859 4.47888 15.6092 4.05502 16.2077 4.65349L20.2934 8.73917C20.5926 9.03841 20.3807 9.55005 19.9575 9.55005H14.5859V5.32524Z" fill="black" stroke="#6C6D6F" stroke-width="1.71"/>
<path d="M3.35547 15.0435H8.35547V21.2544H6.35547C4.69861 21.2544 3.35547 19.9112 3.35547 18.2544V15.0435Z" fill="#6C6D6F" stroke="#6C6D6F" stroke-width="1.71"/>
</g>
<defs>
<clipPath id="clip0_14052_138062">
<rect width="19" height="19" fill="white" transform="translate(2.5 3.30029)"/>
</clipPath>
</defs>
</svg>
