<svg width="24" height="24" viewBox="0 0 24 24" fill="none" xmlns="http://www.w3.org/2000/svg">
<g clip-path="url(#clip0_14052_138095)">
<path d="M16.4339 3.82461L16.4339 3.82461L20.1753 7.56603C20.1753 7.56603 20.1753 7.56603 20.1753 7.56604C20.3544 7.74514 20.455 7.98805 20.455 8.24132V11.9999V19.4999C20.455 20.0273 20.0275 20.4549 19.5 20.4549H8.31777C7.92695 20.4549 7.57558 20.2168 7.43076 19.8538M16.4339 3.82461L7.43076 19.8538M16.4339 3.82461C16.2548 3.64552 16.0119 3.5449 15.7586 3.5449H7.35C6.82257 3.5449 6.395 3.97247 6.395 4.4999V17.0743C6.395 17.1955 6.41807 17.3156 6.46299 17.4282L7.43076 19.8538M16.4339 3.82461L7.43076 19.8538" fill="white" stroke="white" stroke-width="1.71"/>
<rect x="18.627" y="17.1372" width="4.75" height="1.71" transform="rotate(-180 18.627 17.1372)" fill="black"/>
<path d="M14.5859 4.52495C14.5859 3.67859 15.6092 3.25473 16.2077 3.8532L20.2934 7.93888C20.5926 8.23811 20.3807 8.74976 19.9575 8.74976H14.5859V4.52495Z" fill="black" stroke="white" stroke-width="1.71"/>
<path d="M3.35547 14.2432H8.35547V20.4541H6.35547C4.69861 20.4541 3.35547 19.111 3.35547 17.4541V14.2432Z" fill="white" stroke="white" stroke-width="1.71"/>
</g>
<defs>
<clipPath id="clip0_14052_138095">
<rect width="19" height="19" fill="white" transform="translate(2.5 2.5)"/>
</clipPath>
</defs>
</svg>
