<svg width="16" height="16" viewBox="0 0 16 16" fill="none" xmlns="http://www.w3.org/2000/svg">
<path fill-rule="evenodd" clip-rule="evenodd" d="M3.33333 2C2.59695 2 2 2.59695 2 3.33333V10C2 10.7364 2.59695 11.3333 3.33333 11.3333H10C10.7364 11.3333 11.3333 10.7364 11.3333 10V3.33333C11.3333 2.59695 10.7364 2 10 2H3.33333ZM3.33333 3.33333L10 3.33333V10H3.33333V3.33333ZM14 5.33333C14 4.96514 13.7015 4.66667 13.3333 4.66667C12.9651 4.66667 12.6667 4.96514 12.6667 5.33333V12C12.6667 12.3682 12.3682 12.6667 12 12.6667H5.33333C4.96514 12.6667 4.66667 12.9651 4.66667 13.3333C4.66667 13.7015 4.96514 14 5.33333 14H12C13.1046 14 14 13.1046 14 12V5.33333Z" fill="black"/>
</svg>
