<svg width="57" height="54" viewBox="0 0 57 54" fill="none" xmlns="http://www.w3.org/2000/svg">
  <circle cx="22.5859" cy="32.3998" r="21.6" fill="#D1D1D1" />
  <path
    d="M18.4994 20.8713H52.3512C54.0789 20.8713 55.3899 22.4277 55.0964 24.1303L51.0176 47.7875C50.7872 49.1236 49.6282 50.0999 48.2724 50.0999H14.4206C12.6928 50.0999 11.3818 48.5434 11.6753 46.8408L15.7542 23.1837C15.9845 21.8475 17.1435 20.8713 18.4994 20.8713Z"
    fill="#F7F7F7" stroke="#F0F0F0" stroke-width="0.6" />
  <path
    d="M16.4144 17.2717H47.7859C49.3244 17.2717 50.5716 18.5189 50.5716 20.0574V47.3145C50.5716 48.853 49.3244 50.1003 47.7859 50.1003H16.4144C14.8759 50.1003 13.6287 48.853 13.6287 47.3145V20.0574C13.6287 18.5189 14.8759 17.2717 16.4144 17.2717Z"
    fill="#F6F6F6" stroke="#F0F0F0" stroke-width="0.6" />
  <path
    d="M48.8893 49.9576H14.4321C12.8936 49.9576 11.3871 48.7377 11.0672 47.2328L6.04172 23.5896C5.72184 22.0847 6.70974 20.8647 8.24825 20.8647H14.0415C14.7803 20.8647 15.5499 21.1518 16.181 21.6628L20.2097 24.9252C20.9767 25.5463 21.912 25.8952 22.8099 25.8952H43.7746C45.3132 25.8952 46.8197 27.1152 47.1395 28.62L51.0958 47.2328C51.4157 48.7377 50.4278 49.9576 48.8893 49.9576Z"
    fill="#F7F7F7" stroke="#F0F0F0" stroke-width="0.6" />
  <rect x="27.2144" y="20.5713" width="10.2857" height="1.54286" rx="0.771429" fill="#D1D1D1" />
  <path
    d="M43.6653 0.645225L41.4614 13.87C41.4328 14.0358 41.3393 14.1654 41.1855 14.2573C41.1039 14.3026 41.0122 14.3264 40.9188 14.3267C40.8554 14.3267 40.7861 14.3116 40.7122 14.283L37.1425 12.8237C37.0472 12.7849 36.942 12.7776 36.8422 12.8028C36.7424 12.828 36.6532 12.8845 36.5878 12.964L34.7292 15.2312C34.6252 15.3638 34.4834 15.4286 34.3071 15.4286C34.2332 15.4286 34.17 15.4166 34.1156 15.394C34.0071 15.3532 33.9197 15.2884 33.8533 15.1919C33.7871 15.097 33.7523 14.993 33.7523 14.8768V12.2178C33.7523 11.9946 33.8292 11.7806 33.9694 11.6072L41.1916 2.75401L32.1002 10.623C32.0665 10.6519 32.0254 10.6711 31.9815 10.6782C31.9377 10.6854 31.8927 10.6804 31.8514 10.6637L28.5879 9.3265C28.3753 9.2467 28.2592 9.08986 28.244 8.85157C28.2321 8.62243 28.3241 8.45214 28.52 8.34204L42.8467 0.0769443C42.9296 0.025992 43.0252 -0.000663045 43.1225 1.25302e-05C43.2386 1.25302e-05 43.3426 0.0330777 43.4345 0.0964527C43.626 0.23202 43.6998 0.417626 43.6652 0.645225H43.6653Z"
    fill="#343434" />
  <path
    d="M31.5859 13.1709C29.1002 15.2281 23.6659 18.7252 21.8144 16.2566C19.5002 13.1709 24.1803 11.1138 25.4144 13.1706C26.1859 14.4563 25.1573 18.3138 20.5287 20.6281"
    stroke="black" stroke-width="0.514286" stroke-linecap="round" stroke-dasharray="0.51 1.54" />
</svg>
  