<svg width="24" height="25" viewBox="0 0 24 25" fill="none" xmlns="http://www.w3.org/2000/svg">
  <path
    d="M9.14453 5.96593C9.31314 5.44001 9.88672 5.11151 10.4257 5.2322L21.3302 7.67413C21.8691 7.79481 22.1693 8.31899 22.0007 8.84491L18.3053 20.371C18.1367 20.8969 17.5631 21.2254 17.0242 21.1047L6.11966 18.6628C5.58072 18.5421 5.28052 18.018 5.44913 17.492L9.14453 5.96593Z"
    fill="#1754F8" />
  <path fill-rule="evenodd" clip-rule="evenodd"
    d="M10.6568 7.12112L7.44988 17.1236L16.793 19.2159L20 9.21341L10.6568 7.12112ZM10.4257 5.23224C9.88673 5.11155 9.31315 5.44006 9.14453 5.96597L5.44914 17.4921C5.28053 18.018 5.58073 18.5422 6.11967 18.6629L17.0242 21.1048C17.5631 21.2255 18.1367 20.897 18.3053 20.3711L22.0007 8.84495C22.1693 8.31904 21.8691 7.79486 21.3302 7.67417L10.4257 5.23224Z"
    fill="black" />
  <rect x="3" y="3.5" width="15" height="18" rx="1" fill="black" />
  <path d="M7.73584 14.3002L10.4999 11.7002L13.2639 14.3002" stroke="white" stroke-width="1.8" />
</svg>
  