<svg width="16" height="16" viewBox="0 0 16 16" fill="none" xmlns="http://www.w3.org/2000/svg">
<mask id="path-1-inside-1_6802_4729" fill="white">
<path d="M2.5 0C1.83696 0 1.20107 0.263392 0.732233 0.732233C0.263392 1.20107 0 1.83696 0 2.5V5H1V2.5C1 1.67 1.67 1 2.5 1H5V0H2.5ZM0 11V13.5C0 14.163 0.263392 14.7989 0.732233 15.2678C1.20107 15.7366 1.83696 16 2.5 16H5V15H2.5C2.10218 15 1.72064 14.842 1.43934 14.5607C1.15804 14.2794 1 13.8978 1 13.5V11H0ZM13.5 1H11V0H13.5C14.163 0 14.7989 0.263392 15.2678 0.732233C15.7366 1.20107 16 1.83696 16 2.5V5H15V2.5C15 1.67 14.33 1 13.5 1ZM16 13.5V11H15V13.5C15 14.33 14.33 15 13.5 15H11V16H13.5C14.163 16 14.7989 15.7366 15.2678 15.2678C15.7366 14.7989 16 14.163 16 13.5Z"/>
</mask>
<path d="M2.5 0V-1V0ZM0 2.5H-1H0ZM0 5H-1V6H0V5ZM1 5V6H2V5H1ZM5 1V2H6V1H5ZM5 0H6V-1H5V0ZM0 11V10H-1V11H0ZM0 13.5H-1H0ZM5 16V17H6V16H5ZM5 15H6V14H5V15ZM1 11H2V10H1V11ZM11 1H10V2H11V1ZM11 0V-1H10V0H11ZM13.5 0V-1V0ZM16 5V6H17V5H16ZM15 5H14V6H15V5ZM16 11H17V10H16V11ZM15 11V10H14V11H15ZM11 15V14H10V15H11ZM11 16H10V17H11V16ZM2.5 -1C1.57174 -1 0.681504 -0.631251 0.0251263 0.0251263L1.43934 1.43934C1.72064 1.15804 2.10218 1 2.5 1V-1ZM0.0251263 0.0251263C-0.631251 0.681504 -1 1.57174 -1 2.5H1C1 2.10218 1.15804 1.72064 1.43934 1.43934L0.0251263 0.0251263ZM-1 2.5V5H1V2.5H-1ZM0 6H1V4H0V6ZM2 5V2.5H0V5H2ZM2 2.5C2 2.22228 2.22228 2 2.5 2V0C1.11772 0 0 1.11772 0 2.5H2ZM2.5 2H5V0H2.5V2ZM6 1V0H4V1H6ZM5 -1H2.5V1H5V-1ZM-1 11V13.5H1V11H-1ZM-1 13.5C-1 14.4283 -0.631251 15.3185 0.0251263 15.9749L1.43934 14.5607C1.15804 14.2794 1 13.8978 1 13.5H-1ZM0.0251263 15.9749C0.681504 16.6313 1.57174 17 2.5 17V15C2.10218 15 1.72064 14.842 1.43934 14.5607L0.0251263 15.9749ZM2.5 17H5V15H2.5V17ZM6 16V15H4V16H6ZM5 14H2.5V16H5V14ZM2.5 14C2.36739 14 2.24022 13.9473 2.14645 13.8536L0.732233 15.2678C1.20107 15.7366 1.83696 16 2.5 16V14ZM2.14645 13.8536C2.05268 13.7598 2 13.6326 2 13.5H0C0 14.163 0.263392 14.7989 0.732233 15.2678L2.14645 13.8536ZM2 13.5V11H0V13.5H2ZM1 10H0V12H1V10ZM13.5 0H11V2H13.5V0ZM12 1V0H10V1H12ZM11 1H13.5V-1H11V1ZM13.5 1C13.8978 1 14.2794 1.15804 14.5607 1.43934L15.9749 0.0251263C15.3185 -0.631251 14.4283 -1 13.5 -1V1ZM14.5607 1.43934C14.842 1.72064 15 2.10218 15 2.5H17C17 1.57174 16.6313 0.681504 15.9749 0.0251263L14.5607 1.43934ZM15 2.5V5H17V2.5H15ZM16 4H15V6H16V4ZM16 5V2.5H14V5H16ZM16 2.5C16 1.11772 14.8823 0 13.5 0V2C13.7777 2 14 2.22228 14 2.5H16ZM17 13.5V11H15V13.5H17ZM16 10H15V12H16V10ZM14 11V13.5H16V11H14ZM14 13.5C14 13.7777 13.7777 14 13.5 14V16C14.8823 16 16 14.8823 16 13.5H14ZM13.5 14H11V16H13.5V14ZM10 15V16H12V15H10ZM11 17H13.5V15H11V17ZM13.5 17C14.4283 17 15.3185 16.6313 15.9749 15.9749L14.5607 14.5607C14.2794 14.842 13.8978 15 13.5 15V17ZM15.9749 15.9749C16.6313 15.3185 17 14.4283 17 13.5H15C15 13.8978 14.842 14.2794 14.5607 14.5607L15.9749 15.9749Z" fill="#8E8E92" mask="url(#path-1-inside-1_6802_4729)"/>
</svg>
