<svg width="24" height="26" viewBox="0 0 24 26" fill="none" xmlns="http://www.w3.org/2000/svg">
<path d="M19.8007 11.0677L20.3823 10.3199L19.8007 11.0677C19.9215 11.1617 19.9838 11.2104 20.0276 11.2484C20.0364 11.256 20.0428 11.2618 20.047 11.2657C20.0472 11.2661 20.0474 11.2664 20.0475 11.2668C20.048 11.2726 20.0487 11.2811 20.0493 11.2928C20.0523 11.3507 20.0526 11.4297 20.0526 11.5828V21.2003C20.0526 21.496 20.0519 21.6607 20.0422 21.7799C20.0401 21.805 20.0379 21.8234 20.0361 21.8364C20.0232 21.8382 20.0047 21.8404 19.9797 21.8424C19.8604 21.8522 19.6957 21.8529 19.4 21.8529H4.6C4.30434 21.8529 4.13957 21.8522 4.02035 21.8424C3.9953 21.8404 3.97685 21.8382 3.96391 21.8364C3.96208 21.8234 3.95989 21.805 3.95785 21.7799C3.94811 21.6607 3.94737 21.496 3.94737 21.2003V11.5828C3.94737 11.4297 3.94767 11.3507 3.9507 11.2928C3.95131 11.2811 3.95195 11.2726 3.95246 11.2668C3.95263 11.2664 3.95281 11.2661 3.95298 11.2657C3.95725 11.2618 3.96356 11.256 3.97242 11.2484C4.01625 11.2104 4.07847 11.1617 4.19932 11.0677L11.5993 5.31211C11.7856 5.1672 11.8864 5.08958 11.9635 5.03807C11.9796 5.0273 11.9916 5.01982 12 5.01482C12.0084 5.01982 12.0204 5.0273 12.0365 5.03807C12.1136 5.08958 12.2144 5.1672 12.4007 5.31212L19.8007 11.0677Z" fill="#6C6D6F" stroke="#6C6D6F" stroke-width="1.89474"/>
<path d="M9.89258 24.1887L9.89258 16.7324L14.1062 16.7324L14.1062 24.1887L9.89258 24.1887Z" stroke="black" stroke-width="1.89474"/>
</svg>
