<svg width="24" height="25" viewBox="0 0 24 25" fill="none" xmlns="http://www.w3.org/2000/svg">
<path d="M19.8008 10.2674L20.3824 9.51957L19.8008 10.2674C19.9217 10.3614 19.9839 10.4101 20.0277 10.4481C20.0366 10.4557 20.0429 10.4615 20.0471 10.4654C20.0473 10.4658 20.0475 10.4661 20.0477 10.4665C20.0482 10.4723 20.0488 10.4808 20.0494 10.4925C20.0525 10.5504 20.0528 10.6294 20.0528 10.7825V20.4C20.0528 20.6957 20.052 20.8604 20.0423 20.9797C20.0402 21.0047 20.038 21.0231 20.0362 21.0361C20.0233 21.0379 20.0048 21.0401 19.9798 21.0422C19.8605 21.0519 19.6958 21.0526 19.4001 21.0526H4.60012C4.30446 21.0526 4.1397 21.0519 4.02047 21.0422C3.99542 21.0401 3.97698 21.0379 3.96403 21.0361C3.9622 21.0232 3.96002 21.0047 3.95797 20.9797C3.94823 20.8604 3.94749 20.6957 3.94749 20.4V10.7825C3.94749 10.6294 3.94779 10.5504 3.95082 10.4925C3.95143 10.4808 3.95207 10.4723 3.95259 10.4665C3.95276 10.4661 3.95293 10.4658 3.9531 10.4654C3.95737 10.4615 3.96368 10.4557 3.97254 10.4481C4.01637 10.4101 4.0786 10.3614 4.19944 10.2674L11.5994 4.51182C11.7858 4.36691 11.8865 4.28929 11.9636 4.23778C11.9797 4.22701 11.9917 4.21953 12.0001 4.21453C12.0085 4.21953 12.0205 4.22701 12.0367 4.23778C12.1138 4.28929 12.2145 4.36691 12.4008 4.51182L19.8008 10.2674Z" fill="#C1C1C1" stroke="#C1C1C1" stroke-width="1.89474"/>
<path d="M9.89343 23.3884L9.89343 15.9321L14.107 15.9321L14.107 23.3884L9.89343 23.3884Z" stroke="white" stroke-width="1.89474"/>
</svg>
