<svg width="24" height="25" viewBox="0 0 24 25" fill="none" xmlns="http://www.w3.org/2000/svg">
<path d="M19.8007 10.2674L20.3823 9.51957L19.8007 10.2674C19.9215 10.3614 19.9838 10.4101 20.0276 10.4481C20.0364 10.4557 20.0428 10.4615 20.047 10.4654C20.0472 10.4658 20.0474 10.4661 20.0475 10.4665C20.048 10.4723 20.0487 10.4808 20.0493 10.4925C20.0523 10.5504 20.0526 10.6294 20.0526 10.7825V20.4C20.0526 20.6957 20.0519 20.8604 20.0422 20.9797C20.0401 21.0047 20.0379 21.0231 20.0361 21.0361C20.0232 21.0379 20.0047 21.0401 19.9797 21.0422C19.8604 21.0519 19.6957 21.0526 19.4 21.0526H4.6C4.30434 21.0526 4.13957 21.0519 4.02035 21.0422C3.9953 21.0401 3.97685 21.0379 3.96391 21.0361C3.96208 21.0232 3.95989 21.0047 3.95785 20.9797C3.94811 20.8604 3.94737 20.6957 3.94737 20.4V10.7825C3.94737 10.6294 3.94767 10.5504 3.9507 10.4925C3.95131 10.4808 3.95195 10.4723 3.95246 10.4665C3.95263 10.4661 3.95281 10.4658 3.95298 10.4654C3.95725 10.4615 3.96356 10.4557 3.97242 10.4481C4.01625 10.4101 4.07847 10.3614 4.19932 10.2674L11.5993 4.51182C11.7856 4.36691 11.8864 4.28929 11.9635 4.23778C11.9796 4.22701 11.9916 4.21953 12 4.21453C12.0084 4.21953 12.0204 4.22701 12.0365 4.23778C12.1136 4.28929 12.2144 4.36691 12.4007 4.51182L19.8007 10.2674Z" fill="white" stroke="white" stroke-width="1.89474"/>
<path d="M9.89258 23.3884L9.89258 15.9321L14.1062 15.9321L14.1062 23.3884L9.89258 23.3884Z" stroke="black" stroke-width="1.89474"/>
</svg>
