<svg width="24" height="25" viewBox="0 0 24 25" fill="none" xmlns="http://www.w3.org/2000/svg">
<path d="M3.90012 10.7434C3.90012 10.598 3.9004 10.5229 3.90329 10.4679C3.90387 10.4568 3.90447 10.4487 3.90496 10.4432C3.90512 10.4428 3.90529 10.4425 3.90545 10.4422C3.90951 10.4384 3.91551 10.433 3.92392 10.4257C3.96556 10.3896 4.02467 10.3433 4.13948 10.254L11.6195 4.43623C11.7965 4.29856 11.8922 4.22482 11.9654 4.17589C11.9807 4.16566 11.9921 4.15855 12.0001 4.1538C12.0081 4.15855 12.0195 4.16566 12.0348 4.17589C12.1081 4.22482 12.2038 4.29856 12.3808 4.43623L12.9224 3.73987L12.3808 4.43623L19.8608 10.254C19.9756 10.3433 20.0347 10.3896 20.0763 10.4257C20.0847 10.433 20.0907 10.4384 20.0948 10.4422C20.095 10.4425 20.0951 10.4428 20.0953 10.4432C20.0958 10.4487 20.0964 10.4568 20.097 10.4679C20.0998 10.5229 20.1001 10.598 20.1001 10.7434V20.48C20.1001 20.7609 20.0994 20.9174 20.0902 21.0307C20.0882 21.0545 20.0862 21.072 20.0844 21.0843C20.0721 21.086 20.0546 21.0881 20.0308 21.09C19.9175 21.0993 19.761 21.1 19.4801 21.1H4.52012C4.23925 21.1 4.08272 21.0993 3.96945 21.09C3.94565 21.0881 3.92813 21.086 3.91584 21.0843C3.9141 21.072 3.91202 21.0545 3.91008 21.0307C3.90082 20.9174 3.90012 20.7609 3.90012 20.48V10.7434Z" fill="black" stroke="black" stroke-width="1.8"/>
<path d="M9.89343 23.3884L9.89343 15.9321L14.107 15.9321L14.107 23.3884L9.89343 23.3884Z" fill="#1754F8" stroke="white" stroke-width="1.89"/>
</svg>
