<svg width="16" height="16" viewBox="0 0 16 16" fill="none" xmlns="http://www.w3.org/2000/svg">
<path fill-rule="evenodd" clip-rule="evenodd" d="M14 8C14 11.3137 11.3137 14 8 14C4.68629 14 2 11.3137 2 8C2 4.68629 4.68629 2 8 2C11.3137 2 14 4.68629 14 8ZM8 10C8.36819 10 8.66667 10.2985 8.66667 10.6667V11.3333C8.66667 11.7015 8.36819 12 8 12C7.63181 12 7.33333 11.7015 7.33333 11.3333V10.6667C7.33333 10.2985 7.63181 10 8 10ZM6.66667 6.66667C6.66667 5.93029 7.26362 5.33333 8 5.33333C8.73638 5.33333 9.33333 5.93029 9.33333 6.66667C9.33333 7.40305 8.73638 8 8 8C7.63181 8 7.33333 8.29848 7.33333 8.66667C7.33333 9.03486 7.63181 9.33333 8 9.33333C9.47276 9.33333 10.6667 8.13943 10.6667 6.66667C10.6667 5.19391 9.47276 4 8 4C6.52724 4 5.33333 5.19391 5.33333 6.66667C5.33333 7.03486 5.63181 7.33333 6 7.33333C6.36819 7.33333 6.66667 7.03486 6.66667 6.66667Z" fill="#757E97"/>
</svg>
