<svg width="20" height="20" viewBox="0 0 20 20" fill="none" xmlns="http://www.w3.org/2000/svg">
<path fill-rule="evenodd" clip-rule="evenodd" d="M13.5774 8.08922C13.9028 8.41466 14.4305 8.41466 14.7559 8.08922C15.0814 7.76378 15.0814 7.23614 14.7559 6.91071L10.5893 2.74404L10 2.15479L9.41074 2.74404L5.24408 6.91071C4.91864 7.23614 4.91864 7.76378 5.24408 8.08922C5.56951 8.41466 6.09715 8.41466 6.42259 8.08922L9.16667 5.34514L9.16667 13.3333C9.16667 13.7935 9.53976 14.1666 10 14.1666C10.4602 14.1666 10.8333 13.7935 10.8333 13.3333L10.8333 5.34514L13.5774 8.08922ZM4.16667 11.6666C4.16667 11.2064 3.79357 10.8333 3.33333 10.8333C2.8731 10.8333 2.5 11.2064 2.5 11.6666V15C2.5 16.3807 3.61929 17.5 5 17.5H15C16.3807 17.5 17.5 16.3807 17.5 15V11.6666C17.5 11.2064 17.1269 10.8333 16.6667 10.8333C16.2064 10.8333 15.8333 11.2064 15.8333 11.6666V15C15.8333 15.4602 15.4602 15.8333 15 15.8333H5C4.53976 15.8333 4.16667 15.4602 4.16667 15V11.6666Z" fill="#494D5A"/>
</svg>
