<svg width="24" height="24" viewBox="0 0 24 24" fill="none" xmlns="http://www.w3.org/2000/svg">
<path d="M11.7284 4.57858C11.8364 4.34854 12.1636 4.34854 12.2716 4.57858L14.4041 9.12196C14.4466 9.21253 14.5315 9.27594 14.6304 9.29105L19.4229 10.0233C19.6642 10.0602 19.7628 10.3546 19.5923 10.5293L16.1057 14.1028C16.0392 14.1709 16.009 14.2666 16.0244 14.3606L16.8448 19.3903C16.8851 19.6374 16.6228 19.8223 16.4036 19.7011L12.1451 17.3471C12.0548 17.2972 11.9452 17.2972 11.8549 17.3471L7.59641 19.7011C7.37724 19.8223 7.11487 19.6374 7.15519 19.3903L7.97562 14.3606C7.99095 14.2666 7.96076 14.1709 7.89426 14.1028L4.40772 10.5293C4.2372 10.3546 4.33576 10.0602 4.57714 10.0233L9.36962 9.29105C9.46852 9.27594 9.55337 9.21253 9.59588 9.12196L11.7284 4.57858Z" fill="#1754F8" stroke="#1754F8" stroke-width="2" stroke-linejoin="round"/>
</svg>
