<svg width="24" height="24" viewBox="0 0 24 24" fill="none" xmlns="http://www.w3.org/2000/svg">
<path fill-rule="evenodd" clip-rule="evenodd" d="M5.29278 15.2932L4.58594 16L5.29304 16.7071L9.29304 20.7071C9.68357 21.0976 10.3167 21.0976 10.7073 20.7071C11.0978 20.3166 11.0978 19.6834 10.7073 19.2929L8.41436 17L18.0002 17C18.5524 17 19.0002 16.5523 19.0002 16C19.0002 15.4477 18.5524 15 18.0002 15L8.41436 15L10.7073 12.7071C11.0978 12.3166 11.0978 11.6834 10.7073 11.2929C10.3167 10.9024 9.68357 10.9024 9.29304 11.2929L5.29344 15.2925L5.29278 15.2932ZM19.4144 8L18.7078 8.70658C18.7074 8.70692 18.7071 8.70726 18.7068 8.7076L14.7073 12.7071C14.3167 13.0976 13.6836 13.0976 13.293 12.7071C12.9025 12.3166 12.9025 11.6834 13.293 11.2929L15.5859 9L6.00015 9C5.44786 9 5.00015 8.55228 5.00015 8C5.00015 7.44771 5.44786 7 6.00015 7L15.5859 7L13.293 4.70711C12.9025 4.31658 12.9025 3.68342 13.293 3.29289C13.6836 2.90237 14.3167 2.90237 14.7073 3.29289L18.7068 7.2924C18.7071 7.29274 18.7074 7.29308 18.7078 7.29342L19.4144 8Z" fill="black"/>
</svg>
