<svg width="30" height="30" viewBox="0 0 30 30" fill="none" xmlns="http://www.w3.org/2000/svg">
<rect width="30" height="30" rx="15" fill="#50AF95"/>
<path fill-rule="evenodd" clip-rule="evenodd" d="M8.02835 6.4939L4.01698 14.9198C4.00172 14.9511 3.99688 14.9865 4.00318 15.0208C4.00947 15.0551 4.02657 15.0865 4.05198 15.1103L14.8857 25.4917C14.9165 25.5212 14.9575 25.5377 15.0001 25.5377C15.0428 25.5377 15.0838 25.5212 15.1145 25.4917L25.9483 15.111C25.9737 15.0871 25.9908 15.0557 25.9971 15.0215C26.0034 14.9872 25.9985 14.9518 25.9833 14.9204L21.9719 6.49454C21.959 6.46625 21.9381 6.44227 21.9119 6.42549C21.8857 6.40871 21.8552 6.39983 21.8241 6.39991H8.17743C8.14616 6.39953 8.11545 6.40819 8.089 6.42487C8.06254 6.44154 8.04148 6.46552 8.02835 6.4939Z" fill="white"/>
<path fill-rule="evenodd" clip-rule="evenodd" d="M16.3919 15.7852C16.3141 15.7911 15.9123 15.815 15.0159 15.815C14.3029 15.815 13.7967 15.7937 13.6191 15.7852C10.8639 15.664 8.80731 15.1844 8.80731 14.6101C8.80731 14.0359 10.8639 13.5569 13.6191 13.4338V15.3075C13.7993 15.3205 14.3152 15.351 15.0282 15.351C15.8838 15.351 16.3122 15.3153 16.3893 15.3082V13.4351C19.1387 13.5575 21.1908 14.0372 21.1908 14.6101C21.1908 15.1831 19.1394 15.6627 16.3893 15.7846L16.3919 15.7852ZM16.3919 13.2413V11.5645H20.2289V9.00757H9.78212V11.5645H13.6185V13.2406C10.5003 13.3838 8.15527 14.0015 8.15527 14.7417C8.15527 15.4819 10.5003 16.0989 13.6185 16.2428V21.6159H16.3913V16.2409C19.5024 16.0976 21.8435 15.4806 21.8435 14.7411C21.8435 14.0015 19.5043 13.3845 16.3913 13.2406L16.3919 13.2413Z" fill="#50AF95"/>
</svg>
