<svg width="20" height="20" viewBox="0 0 20 20" fill="none" xmlns="http://www.w3.org/2000/svg">
<path fill-rule="evenodd" clip-rule="evenodd" d="M1.66667 5.83325C1.66667 4.45254 2.78596 3.33325 4.16667 3.33325H15.8333C17.2141 3.33325 18.3333 4.45254 18.3333 5.83325V14.1666C18.3333 15.5473 17.2141 16.6666 15.8333 16.6666H4.16667C2.78596 16.6666 1.66667 15.5473 1.66667 14.1666V5.83325ZM4.16667 4.99992C3.70644 4.99992 3.33334 5.37302 3.33334 5.83325V6.66659H16.6667V5.83325C16.6667 5.37301 16.2936 4.99992 15.8333 4.99992H4.16667ZM3.33334 14.1666V8.33325H16.6667V14.1666C16.6667 14.6268 16.2936 14.9999 15.8333 14.9999H4.16667C3.70643 14.9999 3.33334 14.6268 3.33334 14.1666ZM6.66667 10.8333C6.20643 10.8333 5.83334 11.2063 5.83334 11.6666C5.83334 12.1268 6.20643 12.4999 6.66667 12.4999H10C10.4602 12.4999 10.8333 12.1268 10.8333 11.6666C10.8333 11.2063 10.4602 10.8333 10 10.8333H6.66667Z" fill="currentColor"/>
</svg>
