<svg width="44" height="44" viewBox="0 0 44 44" fill="none" xmlns="http://www.w3.org/2000/svg">
<circle cx="22" cy="22" r="21.5" stroke="#F0F0F0"/>
<path fill-rule="evenodd" clip-rule="evenodd" d="M19.4142 26L27.7071 17.7071C28.0976 17.3166 28.0976 16.6834 27.7071 16.2929C27.3166 15.9024 26.6834 15.9024 26.2929 16.2929L18 24.5858V18C18 17.4477 17.5523 17 17 17C16.4477 17 16 17.4477 16 18V26.9998C16 26.9999 16 27.0001 16 27.0002V28H16.9993M17.0007 28H26C26.5523 28 27 27.5523 27 27C27 26.4477 26.5523 26 26 26H19.4142" fill="#1754F8"/>
</svg>
