<svg width="45" height="44" viewBox="0 0 45 44" fill="none" xmlns="http://www.w3.org/2000/svg">
<circle cx="22.3334" cy="22" r="21.5" stroke="#F0F0F0"/>
<path fill-rule="evenodd" clip-rule="evenodd" d="M19.0402 15.2925L18.3334 14.5857L17.6263 15.2928L13.6263 19.2928C13.2357 19.6833 13.2357 20.3165 13.6263 20.707C14.0168 21.0975 14.65 21.0975 15.0405 20.707L17.3334 18.4141V27.9999C17.3334 28.5522 17.7811 28.9999 18.3334 28.9999C18.8857 28.9999 19.3334 28.5522 19.3334 27.9999V18.4141L21.6263 20.707C22.0168 21.0975 22.65 21.0975 23.0405 20.707C23.431 20.3165 23.431 19.6833 23.0405 19.2928L19.0409 15.2932L19.0402 15.2925ZM26.3334 29.4141L25.6268 28.7075C25.6265 28.7072 25.6261 28.7069 25.6258 28.7065L21.6263 24.707C21.2357 24.3165 21.2357 23.6833 21.6263 23.2928C22.0168 22.9023 22.65 22.9023 23.0405 23.2928L25.3334 25.5857L25.3334 15.9999C25.3334 15.4476 25.7811 14.9999 26.3334 14.9999C26.8857 14.9999 27.3334 15.4476 27.3334 15.9999L27.3334 25.5857L29.6263 23.2928C30.0168 22.9023 30.65 22.9023 31.0405 23.2928C31.431 23.6833 31.431 24.3165 31.0405 24.707L27.041 28.7065C27.0406 28.7069 27.0403 28.7072 27.04 28.7075L26.3334 29.4141Z" fill="#1754F8"/>
</svg>
