<svg xmlns="http://www.w3.org/2000/svg" width="28" height="31" viewBox="0 0 28 31" fill="none">
  <rect x="1.99951" y="8.89648" width="24" height="4.8" rx="1.2" stroke="black" stroke-width="2.4" />
  <rect x="7.99902" y="16.0977" width="12" height="8.4" fill="#1754F8" fill-opacity="0.2" />
  <rect x="12.7998" y="7.70117" width="2.4" height="22.8" fill="#1754F8" />
  <path
    d="M4.39941 17.3027V26.9027C4.39941 28.2282 5.47393 29.3027 6.79941 29.3027H21.1994C22.5249 29.3027 23.5994 28.2282 23.5994 26.9027V17.3027"
    stroke="black" stroke-width="2.4" stroke-linecap="square" />
  <path
    d="M13.9998 4.1C13.9998 2.77452 15.0743 1.7 16.3998 1.7C17.7253 1.7 18.7998 2.77452 18.7998 4.1C18.7998 5.42548 17.7253 6.5 16.3998 6.5H13.9998V4.1Z"
    stroke="#1754F8" stroke-width="2.4" />
  <path
    d="M13.9997 4.1C13.9997 2.77452 12.9252 1.7 11.5997 1.7C10.2742 1.7 9.19971 2.77452 9.19971 4.1C9.19971 5.42548 10.2742 6.5 11.5997 6.5H13.9997V4.1Z"
    stroke="#1754F8" stroke-width="2.4" />
</svg>