<svg width="279" height="260" viewBox="0 0 279 260" fill="none" xmlns="http://www.w3.org/2000/svg">
<ellipse cx="125.342" cy="200.555" rx="118.333" ry="21.6667" fill="white" fill-opacity="0.1"/>
<rect x="1.10925" y="0.914395" width="142.193" height="142.193" rx="71.0963" transform="matrix(0.99863 -0.052336 0.139173 0.990268 20.2385 64.2779)" fill="white"/>
<rect x="1.10925" y="0.914395" width="142.193" height="142.193" rx="71.0963" transform="matrix(0.99863 -0.052336 0.139173 0.990268 20.2385 64.2779)" stroke="#2B2D34" stroke-width="1.94981"/>
<path fill-rule="evenodd" clip-rule="evenodd" d="M111.25 135.646C110.793 135.705 108.426 135.971 103.103 136.25C98.8685 136.472 95.8445 136.504 94.7828 136.509C78.3192 136.653 65.7084 134.469 65.2331 131.087C64.7578 127.705 76.5752 124.244 92.8366 122.661L94.3874 133.696C95.4683 133.716 98.5575 133.735 102.792 133.513C107.873 133.247 110.388 132.904 110.84 132.838L109.289 121.806C125.72 121.672 138.303 123.858 138.778 127.232C139.252 130.607 127.466 134.07 111.234 135.643L111.25 135.646ZM109.144 120.664L107.757 110.79L130.544 109.595L128.428 94.537L66.3853 97.7886L68.5016 112.847L91.2856 111.653L92.6728 121.524C74.2725 123.338 60.857 127.705 61.4696 132.064C62.0823 136.424 76.5197 139.327 95.1577 139.204L99.6049 170.848L116.072 169.985L111.623 138.33C129.981 136.518 143.374 132.155 142.762 127.8C142.15 123.445 127.747 120.539 109.14 120.661L109.144 120.664Z" fill="#1754F8"/>
<rect x="1.10925" y="0.914395" width="142.193" height="142.193" rx="71.0963" transform="matrix(0.99863 -0.052336 0.139173 0.990268 12.4392 73.0513)" fill="white"/>
<rect x="1.10925" y="0.914395" width="142.193" height="142.193" rx="71.0963" transform="matrix(0.99863 -0.052336 0.139173 0.990268 12.4392 73.0513)" stroke="#2B2D34" stroke-width="1.94981"/>
<path fill-rule="evenodd" clip-rule="evenodd" d="M103.451 144.42C102.994 144.478 100.627 144.745 95.3036 145.024C91.0694 145.245 88.0454 145.277 86.9837 145.283C70.5201 145.426 57.9093 143.242 57.434 139.86C56.9587 136.478 68.7761 133.017 85.0375 131.434L86.5884 142.47C87.6692 142.49 90.7584 142.509 94.9926 142.287C100.074 142.02 102.589 141.677 103.041 141.611L101.49 130.58C117.92 130.446 130.504 132.631 130.979 136.006C131.453 139.38 119.667 142.843 103.435 144.417L103.451 144.42ZM101.345 129.438L99.9576 119.563L122.745 118.369L120.629 103.31L58.5863 106.562L60.7026 121.62L83.4865 120.426L84.8738 130.297C66.4734 132.111 53.0579 136.479 53.6706 140.838C54.2832 145.197 68.7206 148.101 87.3586 147.978L91.8058 179.621L108.273 178.758L103.824 147.103C122.182 145.291 135.575 140.929 134.963 136.574C134.351 132.218 119.948 129.313 101.341 129.434L101.345 129.438Z" fill="#1754F8"/>
<path fill-rule="evenodd" clip-rule="evenodd" d="M88.8096 67.6855L205.234 0.468124L212.86 13.678C212.82 13.7009 212.779 13.7241 212.738 13.7475C206.817 17.166 204.789 24.7371 208.207 30.658C211.626 36.5789 219.197 38.6076 225.118 35.1891C225.158 35.1657 225.199 35.1421 225.239 35.1183L231.259 45.5463L114.835 112.764L108.02 100.959C108.029 100.954 108.037 100.949 108.046 100.944C113.967 97.526 115.996 89.9549 112.577 84.034C109.159 78.113 101.588 76.0844 95.6666 79.5028C95.658 79.5078 95.6494 79.5127 95.6409 79.5177L88.8096 67.6855Z" fill="#00B076"/>
<path d="M125.954 65.7435C125.456 66.3596 125.274 67.0394 125.407 67.7832C125.566 68.5127 125.873 69.2715 126.328 70.0596C126.84 70.9463 127.317 71.5739 127.759 71.9423C128.188 72.2861 128.859 72.4242 129.772 72.3566L125.954 65.7435ZM138.93 83.867C139.604 83.2149 139.843 82.5189 139.645 81.779C139.458 81.0002 139.045 80.0566 138.405 78.9483C138.05 78.3326 137.726 77.8296 137.435 77.4393C137.169 77.0348 136.896 76.7326 136.616 76.5328C136.047 76.172 135.339 76.0552 134.493 76.1825L138.93 83.867ZM141.013 91.8265L139.221 88.7231C138.352 89.0939 137.472 89.3059 136.584 89.3593C135.72 89.3984 134.885 89.2892 134.079 89.0318C132.405 88.5207 131.084 87.4277 130.117 85.7529L129.264 84.2751L133.033 82.0994L133.8 83.4294C134.127 83.9959 134.569 84.4473 135.124 84.7834C135.679 85.1196 136.32 85.1767 137.046 84.9548L132.14 76.4575L130.585 76.6655C128.575 76.939 126.975 76.6974 125.782 75.9408C124.601 75.1453 123.533 73.9224 122.581 72.2723C121.5 70.4004 121.019 68.5435 121.138 66.7016C121.242 64.835 122.122 63.2595 123.778 61.9752L122.178 59.2043L124.063 58.1165L125.662 60.8874C126.557 60.5024 127.443 60.3027 128.321 60.2882C129.21 60.2348 130.064 60.3492 130.884 60.6313C131.704 60.9134 132.428 61.3158 133.059 61.8386C133.689 62.3614 134.203 62.9676 134.601 63.6573L135.668 65.5045L131.899 67.6802L131.409 66.8304C130.954 66.0423 130.427 65.4432 129.829 65.0331C129.256 64.6088 128.592 64.483 127.838 64.6557L132.125 72.0816L134.04 71.8138C135.062 71.6505 135.96 71.6412 136.733 71.7859C137.492 71.906 138.183 72.164 138.805 72.5598C139.417 72.9945 139.993 73.5652 140.533 74.2718C141.058 74.9538 141.598 75.7751 142.152 76.7357C142.764 77.7948 143.234 78.8368 143.563 79.8619C143.902 80.8481 144.055 81.7946 144.02 82.7013C143.975 83.6469 143.716 84.5353 143.244 85.3664C142.796 86.1832 142.083 86.9395 141.105 87.6353L142.897 90.7387L141.013 91.8265ZM149.514 82.4849L147.422 68.9642L147.306 68.9329C147.239 69.1025 147.092 69.3025 146.864 69.5328C146.646 69.7243 146.328 69.9409 145.909 70.1826C145.244 70.5666 144.536 70.762 143.784 70.7688C143.033 70.7757 142.355 70.6253 141.75 70.3175C141.436 70.1708 141.151 69.9904 140.896 69.7763C140.627 69.5377 140.34 69.2109 140.035 68.796C139.705 68.3953 139.336 67.8696 138.927 67.2188C138.504 66.5434 137.994 65.6884 137.397 64.654C136.899 63.7919 136.506 63.0829 136.218 62.5268C135.916 61.9461 135.688 61.4374 135.534 61.0007C135.37 60.6028 135.259 60.2399 135.201 59.9121C135.168 59.5701 135.152 59.2015 135.154 58.8064C135.177 57.7092 135.467 56.7043 136.024 55.7917C136.605 54.8649 137.413 54.1029 138.448 53.5057C139.482 52.9084 140.541 52.6092 141.624 52.6079C142.693 52.5819 143.701 52.8209 144.649 53.3246C144.992 53.5206 145.303 53.7185 145.582 53.9184C145.862 54.1182 146.145 54.3815 146.433 54.7083C146.709 55.0739 147.024 55.5329 147.375 56.0851C147.713 56.6128 148.13 57.3076 148.628 58.1697C149.097 58.9824 149.476 59.6669 149.764 60.223C150.038 60.7544 150.257 61.2191 150.421 61.617C150.575 62.0537 150.695 62.4606 150.781 62.8377C150.878 63.1759 150.964 63.5529 151.04 63.9689L153.726 80.0533L149.514 82.4849ZM142.68 65.1014C143.007 65.6679 143.455 66.0169 144.023 66.1484C144.592 66.2799 145.122 66.2035 145.615 65.9191C146.107 65.6347 146.439 65.2134 146.609 64.6553C146.78 64.0972 146.701 63.5349 146.374 62.9684L143.559 58.0917C143.232 57.5252 142.784 57.1762 142.215 57.0447C141.647 56.9132 141.116 56.9896 140.624 57.274C140.131 57.5584 139.799 57.9797 139.629 58.5378C139.459 59.0959 139.537 59.6582 139.864 60.2247L142.68 65.1014ZM163.26 74.5486L161.168 61.0279L161.052 60.9967C160.985 61.1663 160.838 61.3662 160.61 61.5966C160.392 61.788 160.074 62.0046 159.655 62.2464C158.99 62.6303 158.282 62.8257 157.53 62.8326C156.779 62.8394 156.101 62.689 155.496 62.3813C155.182 62.2345 154.897 62.0541 154.642 61.8401C154.373 61.6014 154.086 61.2746 153.781 60.8597C153.451 60.459 153.082 59.9333 152.673 59.2825C152.25 58.6071 151.74 57.7522 151.143 56.7177C150.645 55.8557 150.252 55.1466 149.964 54.5905C149.662 54.0098 149.434 53.5011 149.28 53.0644C149.116 52.6665 149.005 52.3036 148.947 51.9758C148.914 51.6338 148.898 51.2652 148.9 50.8702C148.923 49.773 149.213 48.7681 149.77 47.8555C150.351 46.9287 151.159 46.1666 152.194 45.5694C153.228 44.9722 154.287 44.6729 155.37 44.6716C156.439 44.6457 157.447 44.8846 158.395 45.3883C158.738 45.5844 159.049 45.7823 159.329 45.9821C159.608 46.1819 159.891 46.4452 160.179 46.772C160.455 47.1377 160.77 47.5966 161.121 48.1489C161.459 48.6765 161.876 49.3714 162.374 50.2334C162.843 51.0462 163.222 51.7306 163.51 52.2867C163.784 52.8181 164.003 53.2828 164.167 53.6807C164.321 54.1174 164.441 54.5243 164.527 54.9014C164.624 55.2396 164.71 55.6167 164.786 56.0326L167.472 72.117L163.26 74.5486ZM156.426 57.1651C156.753 57.7316 157.201 58.0806 157.769 58.2121C158.338 58.3437 158.868 58.2672 159.361 57.9828C159.853 57.6984 160.185 57.2772 160.355 56.719C160.526 56.1609 160.447 55.5986 160.12 55.0321L157.305 50.1554C156.978 49.5889 156.53 49.2399 155.961 49.1084C155.393 48.9769 154.862 49.0534 154.37 49.3378C153.877 49.6222 153.545 50.0434 153.375 50.6015C153.205 51.1596 153.283 51.7219 153.61 52.2884L156.426 57.1651ZM177.006 66.6124L174.914 53.0916L174.798 53.0604C174.731 53.23 174.584 53.43 174.356 53.6603C174.138 53.8517 173.82 54.0683 173.401 54.3101C172.736 54.694 172.028 54.8894 171.276 54.8963C170.525 54.9032 169.847 54.7527 169.243 54.445C168.928 54.2983 168.643 54.1178 168.388 53.9038C168.119 53.6651 167.832 53.3383 167.527 52.9234C167.197 52.5228 166.828 51.997 166.419 51.3463C165.996 50.6708 165.486 49.8159 164.889 48.7815C164.391 47.9194 163.998 47.2104 163.71 46.6543C163.408 46.0736 163.18 45.5648 163.026 45.1281C162.862 44.7302 162.751 44.3674 162.693 44.0396C162.66 43.6975 162.644 43.329 162.646 42.9339C162.669 41.8367 162.959 40.8318 163.516 39.9192C164.098 38.9924 164.905 38.2304 165.94 37.6331C166.974 37.0359 168.033 36.7366 169.116 36.7353C170.185 36.7094 171.193 36.9483 172.141 37.4521C172.484 37.6481 172.795 37.846 173.075 38.0458C173.354 38.2457 173.637 38.509 173.925 38.8358C174.201 39.2014 174.516 39.6603 174.867 40.2126C175.205 40.7402 175.622 41.4351 176.12 42.2971C176.589 43.1099 176.968 43.7943 177.256 44.3504C177.53 44.8819 177.749 45.3465 177.913 45.7444C178.067 46.1811 178.187 46.588 178.273 46.9651C178.37 47.3033 178.456 47.6804 178.532 48.0963L181.218 64.1807L177.006 66.6124ZM170.172 49.2289C170.499 49.7953 170.947 50.1443 171.515 50.2759C172.084 50.4074 172.614 50.3309 173.107 50.0465C173.599 49.7621 173.931 49.3409 174.101 48.7828C174.272 48.2246 174.193 47.6623 173.866 47.0959L171.051 42.2192C170.724 41.6527 170.276 41.3037 169.707 41.1722C169.139 41.0406 168.608 41.1171 168.116 41.4015C167.623 41.6859 167.292 42.1071 167.121 42.6653C166.951 43.2234 167.029 43.7857 167.356 44.3522L170.172 49.2289ZM190.752 58.6761L188.66 45.1553L188.544 45.1241C188.477 45.2937 188.33 45.4937 188.102 45.724C187.884 45.9155 187.566 46.1321 187.147 46.3738C186.482 46.7578 185.774 46.9532 185.022 46.96C184.271 46.9669 183.593 46.8165 182.989 46.5087C182.674 46.362 182.389 46.1816 182.134 45.9675C181.865 45.7289 181.578 45.4021 181.273 44.9872C180.943 44.5865 180.574 44.0608 180.165 43.41C179.742 42.7346 179.232 41.8796 178.635 40.8452C178.137 39.9831 177.744 39.2741 177.456 38.718C177.154 38.1373 176.926 37.6286 176.772 37.1918C176.608 36.794 176.497 36.4311 176.439 36.1033C176.406 35.7613 176.39 35.3927 176.392 34.9976C176.415 33.9004 176.705 32.8955 177.262 31.9829C177.844 31.0561 178.651 30.2941 179.686 29.6969C180.72 29.0996 181.779 28.8003 182.862 28.7991C183.931 28.7731 184.939 29.012 185.887 29.5158C186.23 29.7118 186.541 29.9097 186.821 30.1096C187.1 30.3094 187.384 30.5727 187.671 30.8995C187.947 31.2651 188.262 31.7241 188.613 32.2763C188.951 32.804 189.368 33.4988 189.866 34.3609C190.335 35.1736 190.714 35.8581 191.002 36.4141C191.276 36.9456 191.495 37.4103 191.659 37.8081C191.813 38.2449 191.933 38.6518 192.019 39.0288C192.116 39.3671 192.202 39.7441 192.278 40.1601L194.964 56.2445L190.752 58.6761ZM183.918 41.2926C184.245 41.8591 184.693 42.2081 185.261 42.3396C185.83 42.4711 186.36 42.3947 186.853 42.1103C187.345 41.8259 187.677 41.4046 187.847 40.8465C188.018 40.2884 187.939 39.7261 187.612 39.1596L184.797 34.2829C184.47 33.7164 184.022 33.3674 183.453 33.2359C182.885 33.1044 182.354 33.1808 181.862 33.4652C181.369 33.7496 181.038 34.1709 180.867 34.729C180.697 35.2871 180.775 35.8494 181.102 36.4159L183.918 41.2926Z" fill="white"/>
<g clip-path="url(#clip0_9089_29124)">
<rect width="143.818" height="143.818" rx="71.9092" transform="matrix(1 0 -0.0697565 0.997564 127.811 69.9316)" fill="white"/>
<path d="M262.288 158.776L262.179 159.117C249.928 196.806 209.968 219.699 172.748 210.279C135.431 200.832 114.996 162.452 127.12 124.563L127.121 124.563C139.237 86.667 179.326 63.6051 216.646 73.0516L216.958 72.0784L216.647 73.0517C253.976 82.4982 274.41 120.883 262.288 158.776Z" stroke="black" stroke-width="2.01145"/>
<path d="M226.147 131.296L226.16 131.3L226.149 131.299C225.422 134.633 224.095 137.025 222.397 138.716C220.698 140.408 218.557 141.467 216.092 142.025L213.392 142.636L215.723 143.893C219.025 145.672 221.325 147.859 222.36 150.663C223.389 153.454 223.23 157.032 221.239 161.761L221.239 161.761C218.798 167.562 215.214 170.598 210.712 171.951C206.116 173.332 200.449 172.995 193.843 171.731L192.923 171.555L192.629 172.474L188.762 184.556L182.925 183.08L186.737 171.174L187.049 170.199L186.089 169.957C184.084 169.452 182.039 168.916 179.934 168.335L178.962 168.066L178.644 169.06L174.816 181.027L168.988 179.552L172.858 167.445L173.167 166.478L172.216 166.231C171.481 166.04 170.735 165.842 169.98 165.643C168.894 165.355 167.792 165.063 166.686 164.781L166.685 164.781L157.725 162.514L161.326 155.381C161.349 155.387 161.373 155.393 161.397 155.4C161.932 155.543 162.645 155.733 163.356 155.919C164.066 156.105 164.779 156.288 165.312 156.419C165.576 156.483 165.806 156.538 165.972 156.572C166.05 156.589 166.138 156.606 166.214 156.616L166.216 156.616C166.228 156.618 166.255 156.621 166.29 156.624C167.59 156.916 168.678 156.647 169.524 156.066C170.353 155.497 170.847 154.699 171.12 154.123L171.15 154.059L171.172 153.991L177.776 133.354L177.703 133.336L177.725 133.28L177.794 133.297L182.506 118.566L182.535 118.474L182.547 118.38C182.669 117.416 182.619 116.239 182.012 115.167C181.41 114.104 180.328 113.266 178.643 112.809C178.617 112.796 178.596 112.788 178.586 112.784L178.584 112.783C178.507 112.752 178.418 112.723 178.341 112.699C178.177 112.649 177.947 112.586 177.683 112.517C177.152 112.377 176.437 112.2 175.723 112.027C175.044 111.863 174.361 111.701 173.832 111.576L175.892 105.133L184.69 107.363L184.678 107.405L185.615 107.641C187.233 108.05 188.901 108.437 190.59 108.827L191.536 109.045L191.841 108.092L195.667 96.138L201.499 97.614L197.755 109.314L197.437 110.308L198.422 110.535C200.507 111.018 202.594 111.502 204.622 112.015L205.581 112.258L205.892 111.284L209.608 99.667L215.444 101.143L211.619 113.101L211.334 113.993L212.184 114.292C216.998 115.987 220.991 118.064 223.525 120.805C226.012 123.495 227.124 126.851 226.147 131.296ZM203.267 162.388C205.349 161.509 207.056 160.002 208.018 157.667H208.053L208.296 156.907C209.212 154.043 208.704 151.652 207.324 149.72C205.979 147.834 203.836 146.425 201.528 145.346C197.835 143.62 193.422 142.617 190.517 141.958C189.804 141.796 189.182 141.654 188.684 141.528L187.725 141.285L187.414 142.259L181.868 159.587L181.556 160.561L182.517 160.803C182.932 160.908 183.425 161.041 183.982 161.19C186.848 161.96 191.402 163.184 195.76 163.411C198.367 163.547 201.02 163.337 203.267 162.388ZM208.117 136.622C209.903 135.785 211.366 134.397 212.232 132.306H212.267L212.51 131.545C213.342 128.944 212.976 126.773 211.837 125.016C210.726 123.304 208.924 122.05 206.991 121.109C203.904 119.606 200.187 118.774 197.766 118.232C197.173 118.099 196.658 117.984 196.249 117.88L195.29 117.638L194.979 118.611L189.951 134.327L189.639 135.3L190.598 135.543C190.943 135.63 191.353 135.742 191.819 135.868C194.203 136.516 198.021 137.553 201.697 137.688C203.902 137.769 206.172 137.534 208.117 136.622Z" fill="black" stroke="black" stroke-width="2.01145"/>
</g>
<g clip-path="url(#clip1_9089_29124)">
<rect width="143.818" height="143.818" rx="71.9092" transform="matrix(1 0 -0.0697565 0.997564 117.754 69.9316)" fill="white"/>
<path d="M252.231 158.776L252.122 159.117C239.871 196.806 199.911 219.699 162.691 210.279C125.374 200.832 104.939 162.452 117.063 124.563L117.063 124.563C129.18 86.667 169.269 63.6051 206.589 73.0516L206.901 72.0784L206.589 73.0517C243.919 82.4982 264.353 120.883 252.231 158.776Z" stroke="black" stroke-width="2.01145"/>
<path d="M216.09 131.296L216.103 131.3L216.092 131.299C215.365 134.633 214.038 137.025 212.34 138.716C210.641 140.408 208.5 141.467 206.035 142.025L203.335 142.636L205.666 143.893C208.967 145.672 211.268 147.859 212.303 150.663C213.332 153.454 213.173 157.032 211.182 161.761L211.182 161.761C208.741 167.562 205.157 170.598 200.655 171.951C196.059 173.332 190.392 172.995 183.786 171.731L182.866 171.555L182.571 172.474L178.705 184.556L172.868 183.08L176.68 171.174L176.992 170.199L176.031 169.957C174.027 169.452 171.982 168.916 169.877 168.335L168.905 168.066L168.587 169.06L164.759 181.027L158.931 179.552L162.8 167.445L163.11 166.478L162.159 166.231C161.424 166.04 160.678 165.842 159.923 165.643C158.837 165.355 157.735 165.063 156.629 164.781L156.628 164.781L147.668 162.514L151.269 155.381C151.292 155.387 151.316 155.393 151.34 155.4C151.875 155.543 152.588 155.733 153.299 155.919C154.009 156.105 154.722 156.288 155.254 156.419C155.519 156.483 155.749 156.538 155.915 156.572C155.993 156.589 156.081 156.606 156.157 156.616L156.159 156.616C156.171 156.618 156.197 156.621 156.233 156.624C157.533 156.916 158.62 156.647 159.467 156.066C160.296 155.497 160.79 154.699 161.063 154.123L161.093 154.059L161.115 153.991L167.719 133.354L167.646 133.336L167.668 133.28L167.736 133.297L172.448 118.566L172.478 118.474L172.49 118.38C172.612 117.416 172.562 116.239 171.955 115.167C171.353 114.104 170.271 113.266 168.586 112.809C168.56 112.796 168.539 112.788 168.529 112.784L168.527 112.783C168.45 112.752 168.36 112.723 168.284 112.699C168.119 112.649 167.889 112.586 167.626 112.517C167.095 112.377 166.379 112.2 165.666 112.027C164.987 111.863 164.304 111.701 163.775 111.576L165.835 105.133L174.633 107.363L174.621 107.405L175.557 107.641C177.176 108.05 178.844 108.437 180.533 108.827L181.478 109.045L181.784 108.092L185.61 96.138L191.442 97.614L187.698 109.314L187.38 110.308L188.365 110.535C190.45 111.018 192.537 111.502 194.565 112.015L195.523 112.258L195.835 111.284L199.55 99.667L205.387 101.143L201.562 113.101L201.277 113.993L202.127 114.292C206.941 115.987 210.934 118.064 213.468 120.805C215.955 123.495 217.067 126.851 216.09 131.296ZM193.21 162.388C195.292 161.509 196.999 160.002 197.961 157.667H197.995L198.239 156.907C199.155 154.043 198.646 151.652 197.267 149.72C195.921 147.834 193.779 146.425 191.471 145.346C187.778 143.62 183.365 142.617 180.46 141.958C179.747 141.796 179.125 141.654 178.627 141.528L177.668 141.285L177.356 142.259L171.811 159.587L171.499 160.561L172.459 160.803C172.875 160.908 173.368 161.041 173.925 161.19C176.791 161.96 181.344 163.184 185.703 163.411C188.31 163.547 190.963 163.337 193.21 162.388ZM198.06 136.622C199.846 135.785 201.309 134.397 202.174 132.306H202.21L202.453 131.545C203.285 128.944 202.919 126.773 201.78 125.016C200.669 123.304 198.867 122.05 196.934 121.109C193.847 119.606 190.13 118.774 187.709 118.232C187.116 118.099 186.601 117.984 186.192 117.88L185.233 117.638L184.922 118.611L179.894 134.327L179.582 135.3L180.541 135.543C180.885 135.63 181.296 135.742 181.762 135.868C184.146 136.516 187.964 137.553 191.64 137.688C193.845 137.769 196.115 137.534 198.06 136.622Z" fill="black" stroke="black" stroke-width="2.01145"/>
</g>
<path d="M8.12061 164.445L140.343 153.334V257.778L8.12061 246.667V164.445Z" fill="white" stroke="black" stroke-width="2.22222"/>
<path d="M273.676 246.666L140.343 257.777V153.333L273.676 164.444V246.666Z" fill="white" stroke="black" stroke-width="2.22222"/>
<defs>
<clipPath id="clip0_9089_29124">
<rect width="143.818" height="143.818" rx="71.9092" transform="matrix(1 0 -0.0697565 0.997564 127.811 69.9316)" fill="white"/>
</clipPath>
<clipPath id="clip1_9089_29124">
<rect width="143.818" height="143.818" rx="71.9092" transform="matrix(1 0 -0.0697565 0.997564 117.754 69.9316)" fill="white"/>
</clipPath>
</defs>
</svg>
