<svg width="13" height="12" viewBox="0 0 13 12" fill="none" xmlns="http://www.w3.org/2000/svg">
<path fill-rule="evenodd" clip-rule="evenodd" d="M2.2998 3C2.2998 2.72386 2.52366 2.5 2.7998 2.5H10.7998C11.0759 2.5 11.2998 2.72386 11.2998 3C11.2998 3.27614 11.0759 3.5 10.7998 3.5H2.7998C2.52366 3.5 2.2998 3.27614 2.2998 3ZM2.2998 6C2.2998 5.72386 2.52366 5.5 2.7998 5.5H10.7998C11.0759 5.5 11.2998 5.72386 11.2998 6C11.2998 6.27614 11.0759 6.5 10.7998 6.5H2.7998C2.52366 6.5 2.2998 6.27614 2.2998 6ZM2.7998 8.5C2.52366 8.5 2.2998 8.72386 2.2998 9C2.2998 9.27614 2.52366 9.5 2.7998 9.5H10.7998C11.0759 9.5 11.2998 9.27614 11.2998 9C11.2998 8.72386 11.0759 8.5 10.7998 8.5H2.7998Z" fill="currentColor"/>
</svg>
