<svg xmlns="http://www.w3.org/2000/svg" width="16" height="16" viewBox="0 0 16 16" fill="none">
  <path fill-rule="evenodd" clip-rule="evenodd"
    d="M2.66668 7.99999C2.66668 5.05448 5.05449 2.66666 8.00001 2.66666C10.9455 2.66666 13.3333 5.05448 13.3333 7.99999C13.3333 10.9455 10.9455 13.3333 8.00001 13.3333C5.05449 13.3333 2.66668 10.9455 2.66668 7.99999ZM8.00001 1.33333C4.31811 1.33333 1.33334 4.3181 1.33334 7.99999C1.33334 11.6819 4.31811 14.6667 8.00001 14.6667C11.6819 14.6667 14.6667 11.6819 14.6667 7.99999C14.6667 4.3181 11.6819 1.33333 8.00001 1.33333ZM8.00001 6.66666C7.63182 6.66666 7.33334 6.36818 7.33334 5.99999V5.33333C7.33334 4.96514 7.63182 4.66666 8.00001 4.66666C8.3682 4.66666 8.66668 4.96514 8.66668 5.33333V5.99999C8.66668 6.36818 8.3682 6.66666 8.00001 6.66666ZM8.00001 11.3333C7.63182 11.3333 7.33334 11.0349 7.33334 10.6667V7.99999C7.33334 7.6318 7.63182 7.33333 8.00001 7.33333C8.3682 7.33333 8.66668 7.63181 8.66668 8L8.66668 10.6667C8.66668 11.0349 8.3682 11.3333 8.00001 11.3333Z"
    fill="#7A8091" />
</svg>