<svg xmlns="http://www.w3.org/2000/svg" width="64" height="64" viewBox="0 0 64 64" fill="none">
  <path fill-rule="evenodd" clip-rule="evenodd"
    d="M22.5174 6L22.6 6H41.4L41.4826 6C43.0925 5.99998 44.4213 5.99995 45.5037 6.08839C46.6278 6.18024 47.6613 6.37737 48.6319 6.87195C50.1372 7.63894 51.3611 8.86278 52.1281 10.3681C52.6226 11.3387 52.8198 12.3722 52.9116 13.4963C53 14.5787 53 15.9074 53 17.5174V17.6V46.4V46.4826C53 48.0926 53 49.4213 52.9116 50.5037C52.8198 51.6278 52.6226 52.6613 52.1281 53.6319C51.3611 55.1372 50.1372 56.3611 48.6319 57.1281C47.6613 57.6226 46.6278 57.8198 45.5037 57.9116C44.4213 58 43.0926 58 41.4827 58H41.4H22.6H22.5174C20.9074 58 19.5787 58 18.4964 57.9116C17.3722 57.8198 16.3387 57.6226 15.3681 57.1281C13.8628 56.3611 12.6389 55.1372 11.8719 53.6319C11.3774 52.6613 11.1802 51.6278 11.0884 50.5037C11 49.4213 11 48.0925 11 46.4826L11 46.4V17.6L11 17.5174C11 15.9075 11 14.5787 11.0884 13.4963C11.1802 12.3722 11.3774 11.3387 11.8719 10.3681C12.6389 8.86278 13.8628 7.63894 15.3681 6.87195C16.3387 6.37737 17.3722 6.18024 18.4963 6.08839C19.5787 5.99995 20.9075 5.99998 22.5174 6ZM18.8221 10.0751C17.9452 10.1467 17.4968 10.2766 17.184 10.436C16.4314 10.8195 15.8195 11.4314 15.436 12.184C15.2766 12.4968 15.1467 12.9452 15.0751 13.8221C15.0016 14.7223 15 15.8868 15 17.6V46.4C15 48.1132 15.0016 49.2777 15.0751 50.1779C15.1467 51.0548 15.2766 51.5032 15.436 51.816C15.8195 52.5686 16.4314 53.1805 17.184 53.564C17.4968 53.7234 17.9452 53.8533 18.8221 53.9249C19.7223 53.9984 20.8868 54 22.6 54H41.4C43.1132 54 44.2777 53.9984 45.1779 53.9249C46.0548 53.8533 46.5032 53.7234 46.816 53.564C47.5686 53.1805 48.1805 52.5686 48.564 51.816C48.7234 51.5032 48.8533 51.0548 48.9249 50.1779C48.9984 49.2777 49 48.1132 49 46.4V17.6C49 15.8868 48.9984 14.7223 48.9249 13.8221C48.8533 12.9452 48.7234 12.4968 48.564 12.184C48.1805 11.4314 47.5686 10.8195 46.816 10.436C46.5032 10.2766 46.0548 10.1467 45.1779 10.0751C44.2777 10.0016 43.1132 10 41.4 10H22.6C20.8868 10 19.7223 10.0016 18.8221 10.0751Z"
    fill="white" />
  <line x1="25" y1="46" x2="39" y2="46" stroke="#1754F8" stroke-width="4" />
  <path d="M24.333 28L30.333 34L40.333 24" stroke="#1754F8" stroke-width="4" stroke-linecap="round" />
</svg>