<svg xmlns="http://www.w3.org/2000/svg" width="33" height="32" viewBox="0 0 33 32" fill="none">
  <path fill-rule="evenodd" clip-rule="evenodd"
    d="M25.7333 7.33338C25.7333 4.90333 23.7634 2.93338 21.3333 2.93338C18.9033 2.93338 16.9333 4.90332 16.9333 7.33338V9.60005H16.4V7.33338C16.4 4.90333 14.43 2.93338 12 2.93338C9.56992 2.93338 7.59998 4.90333 7.59998 7.33338C7.59998 8.16249 7.8293 8.93803 8.22797 9.60005H5.73331C4.5551 9.60005 3.59998 10.5552 3.59998 11.7334V14.9334C3.59998 16.1116 4.5551 17.0667 5.73331 17.0667H6.26664V25.8667C6.26664 27.634 7.69933 29.0667 9.46664 29.0667H23.8666C25.634 29.0667 27.0666 27.634 27.0666 25.8667V17.0667H27.6C28.7782 17.0667 29.7333 16.1116 29.7333 14.9334V11.7334C29.7333 10.5552 28.7782 9.60005 27.6 9.60005H25.1053C25.504 8.93803 25.7333 8.16249 25.7333 7.33338ZM21.3333 5.06671C22.5852 5.06671 23.6 6.08153 23.6 7.33338C23.6 8.58522 22.5852 9.60005 21.3333 9.60005H19.0666V7.33338C19.0666 6.08153 20.0815 5.06671 21.3333 5.06671ZM15.3333 11.7334H15.6V14.9334H7.33331H6.26664L5.73331 14.9334V11.7334H12H15.3333ZM14.2666 7.33338V9.60005H12C10.7481 9.60005 9.73331 8.58523 9.73331 7.33338C9.73331 6.08153 10.7481 5.06671 12 5.06671C13.2518 5.06671 14.2666 6.08153 14.2666 7.33338ZM8.39997 17.0667V25.8667C8.39997 26.4558 8.87754 26.9334 9.46664 26.9334H15.6V17.0667H8.39997ZM17.7333 26.9334V17.0667H24.9333V25.8667C24.9333 26.4558 24.4557 26.9334 23.8666 26.9334H17.7333ZM17.7333 14.9334V11.7334H27.6V14.9334H27.0666H26H17.7333Z"
    fill="currentColor" />
</svg>