<svg xmlns="http://www.w3.org/2000/svg" width="20" height="20" viewBox="0 0 20 20" fill="none">
  <path fill-rule="evenodd" clip-rule="evenodd"
    d="M10 17.5C14.1421 17.5 17.5 14.1421 17.5 10C17.5 5.85786 14.1421 2.5 10 2.5C5.85786 2.5 2.5 5.85786 2.5 10C2.5 14.1421 5.85786 17.5 10 17.5ZM9.99998 5.5C9.99998 5.08578 9.66419 4.75 9.24998 4.75C8.83577 4.75 8.49998 5.08578 8.49998 5.5V10.75V11.5H9.24998H13C13.4142 11.5 13.75 11.1642 13.75 10.75C13.75 10.3358 13.4142 10 13 10H9.99998V5.5Z"
    fill="#B9C3DF" />
</svg>