<svg xmlns="http://www.w3.org/2000/svg" width="20" height="20" viewBox="0 0 20 20" fill="none">
  <path fill-rule="evenodd" clip-rule="evenodd"
    d="M13.6785 3.33334C13.0276 2.68247 11.9724 2.68246 11.3215 3.33334L4.65482 10C4.34226 10.3126 4.16667 10.7365 4.16667 11.1785V12.5C4.16667 13.4205 4.91286 14.1667 5.83333 14.1667H7.15482C7.59685 14.1667 8.02077 13.9911 8.33333 13.6785L15 7.01185C15.6509 6.36098 15.6509 5.3057 15 4.65483L13.6785 3.33334ZM5.83333 11.1785L12.5 4.51185L13.8215 5.83334L7.15482 12.5H5.83333L5.83333 11.1785ZM3.33333 15.8333C2.8731 15.8333 2.5 16.2064 2.5 16.6667C2.5 17.1269 2.8731 17.5 3.33333 17.5H16.6667C17.1269 17.5 17.5 17.1269 17.5 16.6667C17.5 16.2064 17.1269 15.8333 16.6667 15.8333H3.33333Z"
    fill="currentColor" />
</svg>