<svg xmlns="http://www.w3.org/2000/svg" width="24" height="24" viewBox="0 0 24 24" fill="none">
  <g clip-path="url(#clip0_1864_6495)">
    <path
      d="M0 6C0 2.68629 2.68629 0 6 0H18C21.3137 0 24 2.68629 24 6V18C24 21.3137 21.3137 24 18 24H6C2.68629 24 0 21.3137 0 18V6Z"
      fill="white" />
    <path
      d="M18 0C21.3137 0 24 2.68629 24 6V18C24 21.3137 21.3137 24 18 24H6C2.68629 24 0 21.3137 0 18V6C0 2.68629 2.68629 0 6 0H18ZM18 0.428578H6C2.92287 0.428578 0.428578 2.92287 0.428578 6V18C0.428578 21.0771 2.92287 23.5714 6 23.5714H18C21.0771 23.5714 23.5714 21.0771 23.5714 18V6C23.5714 2.92287 21.0771 0.428578 18 0.428578Z"
      fill="#E9E9E9" />
    <path
      d="M21 11.9996C21.0001 12.1988 20.9609 12.3962 20.8847 12.5803C20.8085 12.7644 20.6968 12.9317 20.5559 13.0726C20.415 13.2135 20.2477 13.3253 20.0636 13.4015C19.8795 13.4777 19.6821 13.5168 19.4829 13.5167H14.25L12 8.96571L14.4283 4.76016C14.6295 4.41195 14.9608 4.15789 15.3493 4.05382C15.7377 3.94974 16.1516 4.00418 16.5 4.20516C16.8482 4.40639 17.1023 4.73766 17.2064 5.12614C17.3104 5.51462 17.256 5.92853 17.055 6.27689L14.6267 10.4829H19.4833C19.6825 10.4828 19.8797 10.522 20.0638 10.5982C20.2478 10.6744 20.415 10.7861 20.5559 10.927C20.6967 11.0678 20.8085 11.2351 20.8847 11.4191C20.9609 11.6031 21.0001 11.8004 21 11.9996Z"
      fill="#1A73E8" />
    <path
      d="M16.5 19.794C16.1516 19.9951 15.7376 20.0496 15.349 19.9455C14.9604 19.8415 14.6291 19.5873 14.4279 19.239L12 15.0334L9.57171 19.239C9.37047 19.5872 9.03921 19.8413 8.65074 19.9453C8.26226 20.0494 7.84835 19.995 7.5 19.794C7.15178 19.5928 6.89772 19.2615 6.79365 18.873C6.68958 18.4846 6.74402 18.0706 6.945 17.7223L9.37286 13.5163L12 13.4173L14.6267 13.5163L17.055 17.7223C17.256 18.0706 17.3104 18.4845 17.2063 18.873C17.1023 19.2615 16.8482 19.5928 16.5 19.794Z"
      fill="#EA4335" />
    <path
      d="M12 8.96571L11.3156 10.8257L9.37285 10.4829L6.94501 6.27686C6.74402 5.9285 6.68958 5.51459 6.79365 5.12611C6.89772 4.73762 7.15179 4.40636 7.50001 4.20513C7.84836 4.00415 8.26227 3.94971 8.65075 4.05378C9.03922 4.15786 9.37048 4.41192 9.57172 4.76013L12 8.96571Z"
      fill="#FBBC04" />
    <path
      d="M11.6083 10.4829L9.84771 13.5171H4.51629C4.3171 13.5171 4.11986 13.4779 3.93584 13.4016C3.75182 13.3254 3.58463 13.2136 3.44382 13.0727C3.30301 12.9318 3.19134 12.7646 3.11519 12.5805C3.03903 12.3965 2.99989 12.1992 3 12C2.99989 11.8007 3.03906 11.6034 3.11526 11.4193C3.19146 11.2352 3.30321 11.0679 3.44411 10.927C3.58501 10.7861 3.7523 10.6743 3.93642 10.5981C4.12054 10.5219 4.31787 10.4828 4.51713 10.4829H11.6083Z"
      fill="#34A853" />
    <path d="M14.6267 13.5171H9.37289L12 8.96658L14.6267 13.5171Z" fill="#185DB7" />
  </g>
  <defs>
    <clipPath id="clip0_1864_6495">
      <rect width="24" height="24" fill="white" />
    </clipPath>
  </defs>
</svg>