<svg xmlns="http://www.w3.org/2000/svg" width="20" height="20" viewBox="0 0 20 20" fill="none">
  <path fill-rule="evenodd" clip-rule="evenodd"
    d="M17.5 10C17.5 14.1421 14.1421 17.5 10 17.5C5.85786 17.5 2.5 14.1421 2.5 10C2.5 5.85786 5.85786 2.5 10 2.5C14.1421 2.5 17.5 5.85786 17.5 10ZM10 5.83333C10.4602 5.83333 10.8333 6.20643 10.8333 6.66667V9.16667C10.8333 9.6269 10.4602 10 10 10C9.53976 10 9.16667 9.6269 9.16667 9.16667V6.66667C9.16667 6.20643 9.53976 5.83333 10 5.83333ZM10.8333 11.6667C10.8333 11.2064 10.4602 10.8333 10 10.8333C9.53976 10.8333 9.16667 11.2064 9.16667 11.6667V12.5C9.16667 12.9602 9.53976 13.3333 10 13.3333C10.4602 13.3333 10.8333 12.9602 10.8333 12.5V11.6667Z"
    fill="#FF9142" />
</svg>