<svg xmlns="http://www.w3.org/2000/svg" width="32" height="32" viewBox="0 0 32 32" fill="none">
  <path fill-rule="evenodd" clip-rule="evenodd"
    d="M9.33337 4.26672C5.51332 4.26672 2.81637 6.43408 2.11862 7.05405C1.7638 7.36931 1.60004 7.80441 1.60004 8.22097V25.3791C1.60004 26.1189 2.07923 26.6354 2.56608 26.8649C3.04812 27.0922 3.7152 27.1284 4.27829 26.7349C5.30365 26.0183 7.09334 25.0667 9.33337 25.0667C12.0637 25.0667 14.121 26.4815 14.9255 27.1404C14.9907 27.1938 15.059 27.2416 15.1299 27.2838C15.3231 27.5559 15.6409 27.7334 16 27.7334C16.3592 27.7334 16.6769 27.5559 16.8702 27.2838C16.9411 27.2416 17.0094 27.1938 17.0746 27.1404C17.8791 26.4815 19.9364 25.0667 22.6667 25.0667C24.9067 25.0667 26.6964 26.0183 27.7218 26.7349C28.2849 27.1284 28.9519 27.0922 29.434 26.8649C29.9208 26.6354 30.4 26.1189 30.4 25.3791V8.22097C30.4 7.80441 30.2363 7.36931 29.8815 7.05405C29.1837 6.43408 26.4867 4.26672 22.6667 4.26672C19.5089 4.26672 17.1206 5.74809 16 6.60417C14.8794 5.74809 12.4912 4.26672 9.33337 4.26672ZM17.0667 24.5467C18.3592 23.7682 20.2961 22.9334 22.6667 22.9334C25.0428 22.9334 26.9815 23.7727 28.2667 24.5466V8.4802C27.486 7.83902 25.4199 6.40006 22.6667 6.40006C19.9364 6.40006 17.8791 7.81488 17.0746 8.47373C17.072 8.47589 17.0693 8.47803 17.0667 8.48017V24.5467ZM14.9334 8.48016C14.9307 8.47803 14.9281 8.47589 14.9255 8.47373C14.121 7.81488 12.0637 6.40006 9.33337 6.40006C6.58019 6.40006 4.51402 7.83902 3.73337 8.4802V24.5466C5.01858 23.7727 6.95725 22.9334 9.33337 22.9334C11.704 22.9334 13.6409 23.7682 14.9334 24.5467V8.48016Z"
    fill="currentColor" />
</svg>