<svg xmlns="http://www.w3.org/2000/svg" width="16" height="16" viewBox="0 0 16 16" fill="none">
  <path fill-rule="evenodd" clip-rule="evenodd"
    d="M2.66683 8.00001C2.66683 5.05449 5.05464 2.66668 8.00016 2.66668C10.9457 2.66668 13.3335 5.05449 13.3335 8.00001C13.3335 10.9455 10.9457 13.3333 8.00016 13.3333C5.05464 13.3333 2.66683 10.9455 2.66683 8.00001ZM8.00016 1.33334C4.31826 1.33334 1.3335 4.31811 1.3335 8.00001C1.3335 11.6819 4.31826 14.6667 8.00016 14.6667C11.6821 14.6667 14.6668 11.6819 14.6668 8.00001C14.6668 4.31811 11.6821 1.33334 8.00016 1.33334ZM8.00016 6.66668C7.63197 6.66668 7.3335 6.3682 7.3335 6.00001V5.33334C7.3335 4.96515 7.63197 4.66668 8.00016 4.66668C8.36835 4.66668 8.66683 4.96515 8.66683 5.33334V6.00001C8.66683 6.3682 8.36835 6.66668 8.00016 6.66668ZM8.00016 11.3333C7.63197 11.3333 7.3335 11.0349 7.3335 10.6667V8.00001C7.3335 7.63182 7.63197 7.33334 8.00016 7.33334C8.36835 7.33334 8.66683 7.63182 8.66683 8.00001L8.66683 10.6667C8.66683 11.0349 8.36835 11.3333 8.00016 11.3333Z"
    fill="#FF9142" />
</svg>