<svg xmlns="http://www.w3.org/2000/svg" width="33" height="32" viewBox="0 0 33 32" fill="none">
  <path fill-rule="evenodd" clip-rule="evenodd"
    d="M8.06662 10.0001C8.06662 8.74822 9.08144 7.7334 10.3333 7.7334C11.5851 7.7334 12.6 8.74822 12.6 10.0001C12.6 11.2519 11.5851 12.2667 10.3333 12.2667C9.08144 12.2667 8.06662 11.2519 8.06662 10.0001ZM10.3333 5.60007C7.90324 5.60007 5.93329 7.57001 5.93329 10.0001C5.93329 12.4301 7.90324 14.4001 10.3333 14.4001C12.7633 14.4001 14.7333 12.4301 14.7333 10.0001C14.7333 7.57001 12.7633 5.60007 10.3333 5.60007ZM25.0875 8.75431C25.5041 8.33776 25.5041 7.66238 25.0875 7.24582C24.671 6.82926 23.9956 6.82926 23.579 7.24582L7.57904 23.2458C7.16248 23.6624 7.16248 24.3378 7.57904 24.7543C7.9956 25.1709 8.67098 25.1709 9.08754 24.7543L25.0875 8.75431ZM20.0666 22.0001C20.0666 20.7482 21.0814 19.7334 22.3333 19.7334C23.5851 19.7334 24.6 20.7482 24.6 22.0001C24.6 23.2519 23.5851 24.2667 22.3333 24.2667C21.0814 24.2667 20.0666 23.2519 20.0666 22.0001ZM22.3333 17.6001C19.9032 17.6001 17.9333 19.57 17.9333 22.0001C17.9333 24.4301 19.9032 26.4001 22.3333 26.4001C24.7633 26.4001 26.7333 24.4301 26.7333 22.0001C26.7333 19.57 24.7633 17.6001 22.3333 17.6001Z"
    fill="black" />
</svg>