<svg xmlns="http://www.w3.org/2000/svg" width="32" height="32" viewBox="0 0 32 32" fill="none">
  <path fill-rule="evenodd" clip-rule="evenodd"
    d="M18.544 3.57561C17.1489 2.14692 14.8512 2.14692 13.4561 3.57561L11.9834 5.08386C11.7569 5.31576 11.4454 5.44481 11.1213 5.44095L9.01343 5.41584C7.01673 5.39206 5.39199 7.01679 5.41578 9.01349L5.44089 11.1214C5.44475 11.4455 5.3157 11.757 5.0838 11.9835L3.57555 13.4562C2.14686 14.8513 2.14685 17.149 3.57555 18.544L5.0838 20.0168C5.3157 20.2432 5.44475 20.5548 5.44089 20.8789L5.41578 22.9867C5.39199 24.9834 7.01673 26.6082 9.01343 26.5844L11.1213 26.5593C11.4454 26.5554 11.7569 26.6845 11.9834 26.9164L13.4561 28.4246C14.8512 29.8533 17.1489 29.8533 18.544 28.4246L20.0167 26.9164C20.2432 26.6845 20.5547 26.5554 20.8788 26.5593L22.9867 26.5844C24.9834 26.6082 26.6081 24.9834 26.5843 22.9867L26.5592 20.8789C26.5554 20.5548 26.6844 20.2432 26.9163 20.0168L28.4246 18.544C29.8533 17.149 29.8533 14.8513 28.4246 13.4562L26.9163 11.9835C26.6844 11.757 26.5554 11.4455 26.5592 11.1214L26.5843 9.01349C26.6081 7.01679 24.9834 5.39206 22.9867 5.41584L20.8788 5.44095C20.5547 5.44481 20.2432 5.31576 20.0167 5.08386L18.544 3.57561ZM15.1521 5.23163C15.6171 4.7554 16.383 4.7554 16.848 5.23163L18.3208 6.73988C19.0001 7.4356 19.9347 7.82273 20.907 7.81115L23.0149 7.78604C23.6805 7.77811 24.2221 8.31969 24.2141 8.98526L24.189 11.0931C24.1774 12.0654 24.5646 13.0001 25.2603 13.6794L26.7685 15.1521C27.2448 15.6172 27.2448 16.3831 26.7685 16.8481L25.2603 18.3208C24.5646 19.0002 24.1774 19.9348 24.189 20.9071L24.2141 23.015C24.2221 23.6805 23.6805 24.2221 23.0149 24.2142L20.907 24.1891C19.9347 24.1775 19.0001 24.5646 18.3208 25.2604L16.848 26.7686C16.383 27.2448 15.6171 27.2448 15.1521 26.7686L13.6793 25.2604C13 24.5646 12.0654 24.1775 11.0931 24.1891L8.9852 24.2142C8.31963 24.2221 7.77805 23.6805 7.78598 23.015L7.81109 20.9071C7.82267 19.9348 7.43553 19.0002 6.73982 18.3208L5.23157 16.8481C4.75534 16.3831 4.75534 15.6172 5.23157 15.1521L6.73982 13.6794C7.43553 13.0001 7.82267 12.0654 7.81109 11.0931L7.78598 8.98526C7.77805 8.31969 8.31963 7.77811 8.9852 7.78604L11.0931 7.81115C12.0654 7.82273 13 7.43559 13.6793 6.73988L15.1521 5.23163ZM21.2826 13.8751C21.7454 13.4123 21.7454 12.6619 21.2826 12.199C20.8198 11.7362 20.0693 11.7362 19.6065 12.199L14.5186 17.2869L12.3937 15.162C11.9309 14.6992 11.1804 14.6992 10.7176 15.162C10.2548 15.6249 10.2548 16.3753 10.7176 16.8381L13.6806 19.8011L14.5186 20.6391L15.3567 19.8011L21.2826 13.8751Z"
    fill="currentColor" />
</svg>