<svg xmlns="http://www.w3.org/2000/svg" width="64" height="64" viewBox="0 0 64 64" fill="none">
  <path fill-rule="evenodd" clip-rule="evenodd"
    d="M15.5174 11L15.6 11H48.4L48.4826 11C50.0925 11 51.4213 11 52.5037 11.0884C53.6278 11.1802 54.6613 11.3774 55.6319 11.8719C57.1372 12.6389 58.3611 13.8628 59.1281 15.3681C59.6226 16.3387 59.8198 17.3722 59.9116 18.4963C60 19.5787 60 20.9074 60 22.5174V22.6V41.4V41.4827C60 43.0926 60 44.4213 59.9116 45.5037C59.8198 46.6278 59.6226 47.6613 59.1281 48.6319C58.3611 50.1372 57.1372 51.3611 55.6319 52.1281C54.6613 52.6226 53.6278 52.8198 52.5037 52.9116C51.4213 53 50.0926 53 48.4826 53H48.4H15.6H15.5174C13.9074 53 12.5787 53 11.4963 52.9116C10.3722 52.8198 9.33875 52.6226 8.36808 52.1281C6.86278 51.3611 5.63894 50.1372 4.87195 48.6319C4.37737 47.6613 4.18024 46.6278 4.08839 45.5037C3.99995 44.4213 3.99998 43.0925 4 41.4826L4 41.4V22.6L4 22.5174C3.99998 20.9075 3.99995 19.5787 4.08839 18.4964C4.18024 17.3722 4.37737 16.3387 4.87195 15.3681C5.63894 13.8628 6.86278 12.6389 8.36808 11.8719C9.33875 11.3774 10.3722 11.1802 11.4963 11.0884C12.5787 11 13.9075 11 15.5174 11ZM11.8221 15.0751C10.9452 15.1467 10.4968 15.2766 10.184 15.436C9.43139 15.8195 8.81947 16.4314 8.43598 17.184C8.2766 17.4968 8.14674 17.9452 8.0751 18.8221C8.00156 19.7223 8 20.8868 8 22.6V41.4C8 43.1132 8.00156 44.2777 8.0751 45.1779C8.14674 46.0548 8.2766 46.5032 8.43598 46.816C8.81947 47.5686 9.43139 48.1805 10.184 48.564C10.4968 48.7234 10.9452 48.8533 11.8221 48.9249C12.7223 48.9984 13.8868 49 15.6 49H48.4C50.1132 49 51.2777 48.9984 52.1779 48.9249C53.0548 48.8533 53.5032 48.7234 53.816 48.564C54.5686 48.1805 55.1805 47.5686 55.564 46.816C55.7234 46.5032 55.8533 46.0548 55.9249 45.1779C55.9984 44.2777 56 43.1132 56 41.4V22.6C56 20.8868 55.9984 19.7223 55.9249 18.8221C55.8533 17.9452 55.7234 17.4968 55.564 17.184C55.1805 16.4314 54.5686 15.8195 53.816 15.436C53.5032 15.2766 53.0548 15.1467 52.1779 15.0751C51.2777 15.0016 50.1132 15 48.4 15H15.6C13.8868 15 12.7223 15.0016 11.8221 15.0751Z"
    fill="white" />
  <path d="M19.5 24L31.8948 34L44.5 24" stroke="#1754F8" stroke-width="4" stroke-linecap="round" />
</svg>