<svg xmlns="http://www.w3.org/2000/svg" width="20" height="20" viewBox="0 0 20 20" fill="none">
  <path fill-rule="evenodd" clip-rule="evenodd"
    d="M10 17.5C14.1421 17.5 17.5 14.1421 17.5 10C17.5 5.85786 14.1421 2.5 10 2.5C5.85786 2.5 2.5 5.85786 2.5 10C2.5 14.1421 5.85786 17.5 10 17.5ZM13.9226 8.08926C14.248 7.76382 14.248 7.23618 13.9226 6.91074C13.5972 6.58531 13.0695 6.58531 12.7441 6.91074L9.16667 10.4882L7.25592 8.57741C6.93049 8.25197 6.40285 8.25197 6.07741 8.57741C5.75197 8.90285 5.75197 9.43049 6.07741 9.75592L8.57741 12.2559L9.16667 12.8452L9.75592 12.2559L13.9226 8.08926Z"
    fill="#28AD76" />
</svg>