<svg xmlns="http://www.w3.org/2000/svg" width="64" height="64" viewBox="0 0 64 64" fill="none">
  <path fill-rule="evenodd" clip-rule="evenodd"
    d="M26.7105 4H26.7998H37.1998H37.2892C40.8539 3.99999 43.6517 3.99998 45.9011 4.18376C48.1925 4.37098 50.0903 4.75884 51.8097 5.6349C54.6321 7.073 56.9268 9.36771 58.3649 12.1901C59.241 13.9095 59.6288 15.8073 59.8161 18.0988C59.9998 20.3481 59.9998 23.1459 59.9998 26.7106V26.8V37.2V37.2894C59.9998 40.8541 59.9998 43.6519 59.8161 45.9012C59.6288 48.1927 59.241 50.0905 58.3649 51.8099C56.9268 54.6323 54.6321 56.927 51.8097 58.3651C50.0903 59.2412 48.1925 59.629 45.9011 59.8162C43.6517 60 40.8539 60 37.2892 60H37.1998H26.7998H26.7104C23.1458 60 20.3479 60 18.0986 59.8162C15.8071 59.629 13.9093 59.2412 12.19 58.3651C9.36753 56.927 7.07282 54.6323 5.63472 51.8099C4.75866 50.0905 4.37079 48.1927 4.18357 45.9012C3.99979 43.6519 3.9998 40.854 3.99982 37.2893V37.2V26.8V26.7107C3.9998 23.146 3.99979 20.3481 4.18357 18.0988C4.37079 15.8073 4.75866 13.9095 5.63472 12.1901C7.07282 9.36771 9.36753 7.073 12.19 5.6349C13.9093 4.75884 15.8071 4.37098 18.0986 4.18376C20.3479 3.99998 23.1458 3.99999 26.7105 4ZM18.4243 8.17047C16.3802 8.33748 15.0674 8.65807 14.0059 9.19893C11.9361 10.2535 10.2534 11.9363 9.19875 14.0061C8.65789 15.0676 8.3373 16.3804 8.17029 18.4245C8.00137 20.4919 7.99982 23.1267 7.99982 26.8V37.2C7.99982 40.8733 8.00137 43.5081 8.17029 45.5755C8.3373 47.6196 8.65789 48.9324 9.19875 49.9939C10.2534 52.0637 11.9361 53.7465 14.0059 54.8011C15.0674 55.3419 16.3802 55.6625 18.4243 55.8295C20.4918 55.9984 23.1265 56 26.7998 56H37.1998C40.8732 56 43.5079 55.9984 45.5753 55.8295C47.6194 55.6625 48.9322 55.3419 49.9937 54.8011C52.0635 53.7465 53.7463 52.0637 54.8009 49.9939C55.3417 48.9324 55.6623 47.6196 55.8293 45.5755C55.9983 43.5081 55.9998 40.8733 55.9998 37.2V26.8C55.9998 23.1267 55.9983 20.4919 55.8293 18.4245C55.6623 16.3804 55.3417 15.0676 54.8009 14.0061C53.7463 11.9363 52.0635 10.2535 49.9937 9.19893C48.9322 8.65807 47.6194 8.33748 45.5753 8.17047C43.5079 8.00156 40.8732 8 37.1998 8H26.7998C23.1265 8 20.4918 8.00156 18.4243 8.17047Z"
    fill="black" />
  <path d="M22.8 30.8L30 38L42 26" stroke="#1754F8" stroke-width="4" stroke-linecap="round" />
</svg>