<svg xmlns="http://www.w3.org/2000/svg" width="24" height="24" viewBox="0 0 24 24" fill="none">
  <path fill-rule="evenodd" clip-rule="evenodd"
    d="M12 4C10.3431 4 9 5.34315 9 7V8H15V7C15 5.34315 13.6569 4 12 4ZM7 7V8H6C4.34315 8 3 9.34315 3 11V19C3 20.6569 4.34315 22 6 22H18C19.6569 22 21 20.6569 21 19V11C21 9.34315 19.6569 8 18 8H17V7C17 4.23858 14.7614 2 12 2C9.23858 2 7 4.23858 7 7ZM6 10C5.44772 10 5 10.4477 5 11V19C5 19.5523 5.44772 20 6 20H18C18.5523 20 19 19.5523 19 19V11C19 10.4477 18.5523 10 18 10H6ZM13 14C13 13.4477 12.5523 13 12 13C11.4477 13 11 13.4477 11 14V16C11 16.5523 11.4477 17 12 17C12.5523 17 13 16.5523 13 16V14Z"
    fill="currentColor" />
</svg>