<svg xmlns="http://www.w3.org/2000/svg" width="64" height="64" viewBox="0 0 64 64" fill="none">
  <path fill-rule="evenodd" clip-rule="evenodd"
    d="M26.7107 4H26.8H37.2H37.2893C40.854 3.99999 43.6519 3.99998 45.9012 4.18376C48.1927 4.37098 50.0905 4.75884 51.8099 5.6349C54.6323 7.073 56.927 9.36771 58.3651 12.1901C59.2412 13.9095 59.629 15.8073 59.8162 18.0988C60 20.3481 60 23.1459 60 26.7106V26.8V37.2V37.2894C60 40.8541 60 43.6519 59.8162 45.9012C59.629 48.1927 59.2412 50.0905 58.3651 51.8099C56.927 54.6323 54.6323 56.927 51.8099 58.3651C50.0905 59.2412 48.1927 59.629 45.9012 59.8162C43.6519 60 40.8541 60 37.2894 60H37.2H26.8H26.7106C23.1459 60 20.3481 60 18.0988 59.8162C15.8073 59.629 13.9095 59.2412 12.1901 58.3651C9.36771 56.927 7.073 54.6323 5.6349 51.8099C4.75884 50.0905 4.37098 48.1927 4.18376 45.9012C3.99998 43.6519 3.99999 40.854 4 37.2893V37.2V26.8V26.7107C3.99999 23.146 3.99998 20.3481 4.18376 18.0988C4.37098 15.8073 4.75884 13.9095 5.6349 12.1901C7.073 9.36771 9.36771 7.073 12.1901 5.6349C13.9095 4.75884 15.8073 4.37098 18.0988 4.18376C20.3481 3.99998 23.146 3.99999 26.7107 4ZM18.4245 8.17047C16.3804 8.33748 15.0676 8.65807 14.0061 9.19893C11.9363 10.2535 10.2535 11.9363 9.19893 14.0061C8.65807 15.0676 8.33748 16.3804 8.17047 18.4245C8.00156 20.4919 8 23.1267 8 26.8V37.2C8 40.8733 8.00156 43.5081 8.17047 45.5755C8.33748 47.6196 8.65807 48.9324 9.19893 49.9939C10.2535 52.0637 11.9363 53.7465 14.0061 54.8011C15.0676 55.3419 16.3804 55.6625 18.4245 55.8295C20.4919 55.9984 23.1267 56 26.8 56H37.2C40.8733 56 43.5081 55.9984 45.5755 55.8295C47.6196 55.6625 48.9324 55.3419 49.9939 54.8011C52.0637 53.7465 53.7465 52.0637 54.8011 49.9939C55.3419 48.9324 55.6625 47.6196 55.8295 45.5755C55.9984 43.5081 56 40.8733 56 37.2V26.8C56 23.1267 55.9984 20.4919 55.8295 18.4245C55.6625 16.3804 55.3419 15.0676 54.8011 14.0061C53.7465 11.9363 52.0637 10.2535 49.9939 9.19893C48.9324 8.65807 47.6196 8.33748 45.5755 8.17047C43.5081 8.00156 40.8733 8 37.2 8H26.8C23.1267 8 20.4919 8.00156 18.4245 8.17047Z"
    fill="white" />
  <path d="M22.8008 30.8L30.0008 38L42.0008 26" stroke="#1754F8" stroke-width="4"
    stroke-linecap="round" />
</svg>