<svg width="33" height="32" viewBox="0 0 33 32" fill="none" xmlns="http://www.w3.org/2000/svg">
  <path fill-rule="evenodd" clip-rule="evenodd" d="M23.0001 14.3983C23.5883 14.3983 24.0651 13.9215 24.0651 13.3333C24.0651 12.7451 23.5883 12.2683 23.0001 12.2683L21.3984 12.2683L21.3984 10.6666C21.3984 10.0785 20.9216 9.60165 20.3334 9.60165C19.7453 9.60165 19.2684 10.0785 19.2684 10.6666L19.2684 12.2683L17.6668 12.2683C17.0786 12.2683 16.6018 12.7451 16.6018 13.3333C16.6018 13.9215 17.0786 14.3983 17.6668 14.3983L19.2684 14.3983L19.2684 16C19.2684 16.5882 19.7453 17.065 20.3334 17.065C20.9216 17.065 21.3984 16.5882 21.3984 16L21.3984 14.3983L23.0001 14.3983Z" fill="black"/>
  <path d="M4.0833 9.33387C4.17134 7.92529 4.21535 7.221 4.51767 6.68674C4.78381 6.2164 5.18657 5.83803 5.6726 5.60174C6.22467 5.33334 6.93034 5.33334 8.34166 5.33334H24.325C25.7363 5.33334 26.442 5.33334 26.9941 5.60174C27.4801 5.83803 27.8829 6.2164 28.149 6.68674C28.4513 7.221 28.4953 7.92529 28.5834 9.33386L29.4036 22.4571C29.4832 23.7315 29.523 24.3687 29.3471 24.8751C29.0985 25.5907 28.5573 26.1668 27.8587 26.4595C27.3642 26.6667 26.7258 26.6667 25.4489 26.6667V26.6667C24.6745 26.6667 24.2873 26.6667 23.9394 26.5708C23.4484 26.4354 23.0063 26.1622 22.6656 25.7835C22.4243 25.5153 22.2512 25.169 21.9048 24.4763L20.2563 21.1793C20.0423 20.7512 19.9352 20.5372 19.7756 20.3808C19.6344 20.2425 19.4642 20.1373 19.2774 20.0729C19.0661 20 18.8268 20 18.3482 20H14.3185C13.8399 20 13.6006 20 13.3893 20.0729C13.2025 20.1373 13.0323 20.2425 12.8911 20.3808C12.7314 20.5372 12.6244 20.7512 12.4104 21.1793L10.7618 24.4763C10.4155 25.169 10.2424 25.5153 10.001 25.7835C9.66034 26.1622 9.21831 26.4354 8.72724 26.5708C8.37939 26.6667 7.99219 26.6667 7.21777 26.6667V26.6667C5.94088 26.6667 5.30243 26.6667 4.80798 26.4595C4.10933 26.1668 3.56815 25.5907 3.31956 24.8751C3.14362 24.3687 3.18345 23.7315 3.2631 22.4571L4.0833 9.33387Z" stroke="black" stroke-width="2.13"/>
  </svg>
  