<svg width="21" height="22" viewBox="0 0 21 22" fill="none" xmlns="http://www.w3.org/2000/svg">
  <path fill-rule="evenodd" clip-rule="evenodd"
    d="M9.55002 2.96567C9.92794 2.16053 11.0731 2.16053 11.451 2.96567L13.5277 7.39009L18.171 8.09952C19.0158 8.22859 19.3608 9.25903 18.764 9.87074L15.3727 13.3465L16.1731 18.2534C16.3142 19.1185 15.3959 19.7654 14.6288 19.3414L10.5005 17.0593L6.37222 19.3414C5.60512 19.7654 4.68683 19.1185 4.82794 18.2534L5.62834 13.3465L2.23708 9.87074C1.64025 9.25904 1.9852 8.2286 2.83003 8.09952L7.47331 7.39009L9.55002 2.96567ZM10.5005 5.05927L8.89878 8.47178C8.75 8.78876 8.453 9.01071 8.10686 9.0636L4.441 9.62369L7.12763 12.3773C7.36037 12.6158 7.46604 12.9507 7.41239 13.2796L6.78718 17.1124L9.99254 15.3405C10.3087 15.1658 10.6924 15.1658 11.0085 15.3405L14.2139 17.1124L13.5887 13.2796C13.535 12.9507 13.6407 12.6158 13.8734 12.3773L16.56 9.62369L12.8942 9.0636C12.548 9.01071 12.2511 8.78876 12.1023 8.47178L10.5005 5.05927Z"
    fill="currentColor" />
</svg>
  