<svg width="25" height="25" viewBox="0 0 25 25" fill="none" xmlns="http://www.w3.org/2000/svg">
<path fill-rule="evenodd" clip-rule="evenodd" d="M15.7178 17.3297C16.1083 17.7202 16.7415 17.7202 17.132 17.3297C17.5226 16.9391 17.5226 16.306 17.132 15.9155L13.8391 12.6226L17.132 9.32967C17.5226 8.93914 17.5226 8.30598 17.132 7.91545C16.7415 7.52493 16.1083 7.52493 15.7178 7.91545L12.4249 11.2083L9.13203 7.91545C8.74151 7.52493 8.10834 7.52493 7.71782 7.91545C7.3273 8.30598 7.3273 8.93914 7.71782 9.32967L11.0107 12.6226L7.71782 15.9155C7.3273 16.306 7.3273 16.9391 7.71782 17.3297C8.10834 17.7202 8.74151 17.7202 9.13203 17.3297L12.4249 14.0368L15.7178 17.3297Z" fill="white"/>
</svg>
