<svg width="57" height="54" viewBox="0 0 57 54" fill="none" xmlns="http://www.w3.org/2000/svg">
  <circle cx="22.5857" cy="32.3998" r="21.6" fill="#F1F3F6" />
  <path
    d="M18.4992 20.8713H52.351C54.0787 20.8713 55.3898 22.4277 55.0962 24.1303L51.0174 47.7875C50.787 49.1236 49.6281 50.0999 48.2722 50.0999H14.4204C12.6927 50.0999 11.3816 48.5434 11.6752 46.8408L15.754 23.1837C15.9844 21.8475 17.1433 20.8713 18.4992 20.8713Z"
    fill="white" stroke="black" stroke-width="0.6" />
  <path
    d="M16.4143 17.2712H47.7858C49.3243 17.2712 50.5715 18.5184 50.5715 20.0569V47.314C50.5715 48.8526 49.3243 50.0998 47.7858 50.0998H16.4143C14.8758 50.0998 13.6286 48.8526 13.6286 47.314V20.0569C13.6286 18.5184 14.8758 17.2712 16.4143 17.2712Z"
    fill="white" stroke="black" stroke-width="0.6" />
  <path
    d="M48.8892 49.9576H14.432C12.8935 49.9576 11.387 48.7377 11.0671 47.2328L6.04159 23.5896C5.72172 22.0847 6.70962 20.8647 8.24812 20.8647H14.0414C14.7802 20.8647 15.5498 21.1518 16.1808 21.6628L20.2096 24.9252C20.9765 25.5463 21.9119 25.8952 22.8098 25.8952H43.7745C45.313 25.8952 46.8195 27.1152 47.1394 28.62L51.0957 47.2328C51.4156 48.7377 50.4277 49.9576 48.8892 49.9576Z"
    fill="white" stroke="black" stroke-width="0.6" />
  <rect x="27.2143" y="20.5713" width="10.2857" height="1.54286" rx="0.771429" fill="#C2C5D1" />
  <path
    d="M43.6652 0.645225L41.4613 13.87C41.4326 14.0358 41.3391 14.1654 41.1854 14.2573C41.1038 14.3026 41.012 14.3264 40.9187 14.3267C40.8553 14.3267 40.786 14.3116 40.712 14.283L37.1424 12.8237C37.0471 12.7849 36.9418 12.7776 36.842 12.8028C36.7422 12.828 36.6531 12.8845 36.5877 12.964L34.7291 15.2312C34.625 15.3638 34.4833 15.4286 34.3069 15.4286C34.2331 15.4286 34.1698 15.4166 34.1155 15.394C34.0069 15.3532 33.9195 15.2884 33.8532 15.1919C33.7869 15.097 33.7521 14.993 33.7521 14.8768V12.2178C33.7521 11.9946 33.829 11.7806 33.9692 11.6072L41.1914 2.75401L32.1001 10.623C32.0663 10.6519 32.0253 10.6711 31.9814 10.6782C31.9375 10.6854 31.8925 10.6804 31.8513 10.6637L28.5878 9.3265C28.3752 9.2467 28.2591 9.08986 28.2439 8.85157C28.232 8.62243 28.3239 8.45214 28.5199 8.34204L42.8466 0.0769443C42.9295 0.025992 43.025 -0.000663045 43.1223 1.25302e-05C43.2384 1.25302e-05 43.3425 0.0330777 43.4344 0.0964527C43.6258 0.23202 43.6997 0.417626 43.6651 0.645225H43.6652Z"
    fill="black" />
  <path
    d="M31.5857 13.1709C29.1 15.2281 23.6657 18.7252 21.8143 16.2566C19.5 13.1709 24.1802 11.1138 25.4143 13.1706C26.1857 14.4563 25.1571 18.3138 20.5286 20.6281"
    stroke="black" stroke-width="0.514286" stroke-linecap="round" stroke-dasharray="0.51 1.54" />
</svg>
  