<svg width="16" height="16" viewBox="0 0 16 16" fill="none" xmlns="http://www.w3.org/2000/svg">
<path fill-rule="evenodd" clip-rule="evenodd" d="M14 8C14 11.3137 11.3137 14 8 14C4.68629 14 2 11.3137 2 8C2 4.68629 4.68629 2 8 2C11.3137 2 14 4.68629 14 8ZM8 11.6667C7.44772 11.6667 7 11.219 7 10.6667L7 8C7 7.44772 7.44772 7 8 7C8.55229 7 9 7.44772 9 8L9 10.6667C9 11.219 8.55228 11.6667 8 11.6667ZM7 6C7 6.55228 7.44772 7 8 7C8.55228 7 9 6.55228 9 6V5.33333C9 4.78105 8.55228 4.33333 8 4.33333C7.44772 4.33333 7 4.78105 7 5.33333V6Z" fill="#757E97"/>
</svg>
