<svg width="16" height="16" viewBox="0 0 16 16" fill="none" xmlns="http://www.w3.org/2000/svg">
<path fill-rule="evenodd" clip-rule="evenodd" d="M14 8C14 11.3137 11.3137 14 8 14C4.68629 14 2 11.3137 2 8C2 4.68629 4.68629 2 8 2C11.3137 2 14 4.68629 14 8ZM8 11.3333C7.63181 11.3333 7.33333 11.0349 7.33333 10.6667V8C7.33333 7.63181 7.63181 7.33333 8 7.33333C8.36819 7.33333 8.66667 7.63181 8.66667 8L8.66667 10.6667C8.66667 11.0349 8.36819 11.3333 8 11.3333ZM7.33333 6C7.33333 6.36819 7.63181 6.66667 8 6.66667C8.36819 6.66667 8.66667 6.36819 8.66667 6V5.33333C8.66667 4.96514 8.36819 4.66667 8 4.66667C7.63181 4.66667 7.33333 4.96514 7.33333 5.33333V6Z" fill="#FF9142"/>
</svg>
