<svg width="24" height="24" viewBox="0 0 24 24" fill="none" xmlns="http://www.w3.org/2000/svg">
<g clip-path="url(#clip0_5644_36043)">
<path d="M16.4657 3.79279L16.4657 3.79279L20.2071 7.53421C20.2071 7.53421 20.2071 7.53421 20.2071 7.53422C20.3947 7.72176 20.5 7.97612 20.5 8.24132V11.9999V19.4999C20.5 20.0522 20.0523 20.4999 19.5 20.4999H8.31777C7.90854 20.4999 7.54061 20.2506 7.38896 19.8705M16.4657 3.79279L7.38896 19.8705M16.4657 3.79279C16.2782 3.60527 16.0238 3.4999 15.7586 3.4999H7.35C6.79772 3.4999 6.35 3.94762 6.35 4.4999V17.0743C6.35 17.2012 6.37416 17.3269 6.42119 17.4448L7.38896 19.8705M16.4657 3.79279L7.38896 19.8705" fill="black" stroke="black" stroke-width="1.8"/>
<rect x="18.6272" y="17.1372" width="4.75" height="1.71" transform="rotate(-180 18.6272 17.1372)" fill="#1754F8"/>
<path d="M14.5862 4.52495C14.5862 3.67859 15.6095 3.25473 16.2079 3.8532L20.2936 7.93888C20.5929 8.23811 20.3809 8.74976 19.9577 8.74976H14.5862V4.52495Z" fill="white" stroke="black" stroke-width="1.71"/>
<path d="M3.35645 14.2432H8.35645V20.4541H6.35645C4.69959 20.4541 3.35645 19.111 3.35645 17.4541V14.2432Z" fill="black" stroke="black" stroke-width="1.71"/>
</g>
<defs>
<clipPath id="clip0_5644_36043">
<rect width="19" height="19" fill="white" transform="translate(2.5 2.5)"/>
</clipPath>
</defs>
</svg>
