<svg width="21" height="20" viewBox="0 0 21 20" fill="none" xmlns="http://www.w3.org/2000/svg">
<path fill-rule="evenodd" clip-rule="evenodd" d="M4.29927 9.16675C4.29927 5.94509 6.91094 3.33341 10.1326 3.33341C13.3543 3.33341 15.9659 5.94509 15.9659 9.16675C15.9659 12.3884 13.3543 15.0001 10.1326 15.0001C6.91094 15.0001 4.29927 12.3884 4.29927 9.16675ZM10.1326 1.66675C5.99046 1.66675 2.6326 5.02461 2.6326 9.16675C2.6326 13.3089 5.99046 16.6667 10.1326 16.6667C11.9034 16.6667 13.5309 16.053 14.814 15.0267L17.8767 18.0893C18.2021 18.4148 18.7297 18.4148 19.0552 18.0893C19.3806 17.7639 19.3806 17.2363 19.0552 16.9108L15.9925 13.8482C17.0189 12.5651 17.6326 10.9376 17.6326 9.16675C17.6326 5.02461 14.2747 1.66675 10.1326 1.66675Z" fill="currentColor"/>
</svg>
