<svg width="20" height="20" viewBox="0 0 20 20" fill="none" xmlns="http://www.w3.org/2000/svg">
<path fill-rule="evenodd" clip-rule="evenodd" d="M9.99999 0.833496C10.4602 0.833496 10.8333 1.20659 10.8333 1.66683V3.3335C10.8333 3.79373 10.4602 4.16683 9.99999 4.16683C9.53976 4.16683 9.16666 3.79373 9.16666 3.3335V1.66683C9.16666 1.20659 9.53976 0.833496 9.99999 0.833496ZM9.99999 15.8335C10.4602 15.8335 10.8333 16.2066 10.8333 16.6668V18.3335C10.8333 18.7937 10.4602 19.1668 9.99999 19.1668C9.53976 19.1668 9.16666 18.7937 9.16666 18.3335V16.6668C9.16666 16.2066 9.53976 15.8335 9.99999 15.8335ZM18.3333 10.8335C18.7936 10.8335 19.1667 10.4604 19.1667 10.0002C19.1667 9.53993 18.7936 9.16683 18.3333 9.16683H16.6667C16.2064 9.16683 15.8333 9.53993 15.8333 10.0002C15.8333 10.4604 16.2064 10.8335 16.6667 10.8335H18.3333ZM4.16666 10.0002C4.16666 10.4604 3.79357 10.8335 3.33333 10.8335H1.66666C1.20642 10.8335 0.833328 10.4604 0.833328 10.0002C0.833328 9.53993 1.20642 9.16683 1.66666 9.16683H3.33333C3.79357 9.16683 4.16666 9.53993 4.16666 10.0002ZM16.4818 4.69668C16.8072 4.37124 16.8072 3.8436 16.4818 3.51817C16.1564 3.19273 15.6287 3.19273 15.3033 3.51817L14.1248 4.69668C13.7993 5.02211 13.7993 5.54975 14.1248 5.87519C14.4502 6.20063 14.9778 6.20063 15.3033 5.87519L16.4818 4.69668ZM5.8752 14.1249C6.20064 14.4503 6.20064 14.9779 5.8752 15.3034L4.69669 16.4819C4.37125 16.8073 3.84362 16.8073 3.51818 16.4819C3.19274 16.1564 3.19274 15.6288 3.51818 15.3034L4.69669 14.1249C5.02213 13.7994 5.54976 13.7994 5.8752 14.1249ZM15.3033 16.4822C15.6287 16.8076 16.1564 16.8076 16.4818 16.4822C16.8072 16.1567 16.8072 15.6291 16.4818 15.3036L15.3033 14.1251C14.9778 13.7997 14.4502 13.7997 14.1248 14.1251C13.7993 14.4506 13.7993 14.9782 14.1248 15.3036L15.3033 16.4822ZM5.8752 5.87547C5.54976 6.20091 5.02213 6.20091 4.69669 5.87547L3.51818 4.69696C3.19274 4.37152 3.19274 3.84388 3.51818 3.51845C3.84362 3.19301 4.37125 3.19301 4.69669 3.51845L5.8752 4.69696C6.20064 5.0224 6.20064 5.55003 5.8752 5.87547ZM6.66666 10.0002C6.66666 8.15921 8.15905 6.66683 9.99999 6.66683C11.8409 6.66683 13.3333 8.15921 13.3333 10.0002C13.3333 11.8411 11.8409 13.3335 9.99999 13.3335C8.15905 13.3335 6.66666 11.8411 6.66666 10.0002ZM9.99999 5.00016C7.23857 5.00016 4.99999 7.23874 4.99999 10.0002C4.99999 12.7616 7.23857 15.0002 9.99999 15.0002C12.7614 15.0002 15 12.7616 15 10.0002C15 7.23874 12.7614 5.00016 9.99999 5.00016Z" fill="#494D5A"/>
</svg>
