<svg width="24" height="24" viewBox="0 0 24 24" fill="none" xmlns="http://www.w3.org/2000/svg">
<path fill-rule="evenodd" clip-rule="evenodd" d="M11.2955 18.2955L5.24264 12.2426C4.44699 11.447 4 10.3679 4 9.24264C4 6.8995 5.8995 5 8.24264 5C9.36786 5 10.447 5.44699 11.2426 6.24264L11.9529 6.95285C11.9789 6.97889 12.0211 6.97889 12.0471 6.95285L12.7574 6.24264C13.553 5.44699 14.6321 5 15.7574 5C18.1005 5 20 6.8995 20 9.24264C20 10.3679 19.553 11.447 18.7574 12.2426L12.7045 18.2955C12.3154 18.6846 11.6846 18.6846 11.2955 18.2955Z" fill="black"/>
</svg>
