<svg width="20" height="20" viewBox="0 0 20 20" fill="none" xmlns="http://www.w3.org/2000/svg">
<path d="M12.6869 16.1099C12.5647 16.2016 12.47 16.3251 12.4132 16.467L11.8762 17.8096C11.7497 18.126 11.4432 18.3334 11.1025 18.3334H8.89753C8.55678 18.3334 8.25036 18.126 8.1238 17.8096L7.58679 16.467C7.53003 16.3251 7.43533 16.2016 7.31306 16.1099L6.18264 15.2621C5.96388 15.098 5.67854 15.0517 5.41912 15.1382L4.019 15.6049C3.62557 15.736 3.19558 15.5579 3.01012 15.187L2.01178 13.1903C1.81705 12.8008 1.955 12.3271 2.32839 12.103L3.34542 11.4928C3.59642 11.3422 3.75001 11.071 3.75001 10.7783V9.56727C3.75001 9.31412 3.63493 9.07469 3.43725 8.91655L2.19273 7.92093C1.88589 7.67545 1.79222 7.24899 1.96795 6.89752L3.01012 4.81319C3.19558 4.44226 3.62557 4.26416 4.019 4.3953L5.50587 4.89093C5.71555 4.96082 5.94439 4.94455 6.14208 4.84571L7.19127 4.32112C7.38895 4.22228 7.53927 4.04896 7.60916 3.83928L8.1434 2.23656C8.25683 1.89627 8.57528 1.66675 8.93397 1.66675H11.066C11.4247 1.66675 11.7432 1.89627 11.8566 2.23656L12.3909 3.83928C12.4607 4.04896 12.6111 4.22228 12.8087 4.32112L13.8579 4.84571C14.0556 4.94455 14.2845 4.96082 14.4941 4.89093L15.981 4.3953C16.3744 4.26416 16.8044 4.44227 16.9899 4.81319L18.0321 6.89752C18.2078 7.24899 18.1141 7.67545 17.8073 7.92093L16.5628 8.91655C16.3651 9.07469 16.25 9.31412 16.25 9.56727V10.4329C16.25 10.686 16.3651 10.9255 16.5628 11.0836L17.8073 12.0792C18.1141 12.3247 18.2078 12.7512 18.0321 13.1026L16.9899 15.187C16.8044 15.5579 16.3744 15.736 15.981 15.6049L14.5809 15.1382C14.3215 15.0517 14.0361 15.098 13.8174 15.2621L12.6869 16.1099Z" stroke="#424757" stroke-width="1.66667"/>
<path d="M10 12.5C11.3807 12.5 12.5 11.3807 12.5 10C12.5 8.61929 11.3807 7.5 10 7.5C8.61929 7.5 7.5 8.61929 7.5 10C7.5 11.3807 8.61929 12.5 10 12.5Z" fill="#424757"/>
</svg>
