<svg width="20" height="20" viewBox="0 0 20 20" fill="none" xmlns="http://www.w3.org/2000/svg">
<path fill-rule="evenodd" clip-rule="evenodd" d="M10 0.833252C10.4602 0.833252 10.8333 1.20635 10.8333 1.66659V3.33325C10.8333 3.79349 10.4602 4.16659 10 4.16659C9.53977 4.16659 9.16668 3.79349 9.16668 3.33325V1.66659C9.16668 1.20635 9.53977 0.833252 10 0.833252ZM10 15.8333C10.4602 15.8333 10.8333 16.2063 10.8333 16.6666V18.3333C10.8333 18.7935 10.4602 19.1666 10 19.1666C9.53977 19.1666 9.16668 18.7935 9.16668 18.3333V16.6666C9.16668 16.2063 9.53977 15.8333 10 15.8333ZM18.3333 10.8333C18.7936 10.8333 19.1667 10.4602 19.1667 9.99992C19.1667 9.53968 18.7936 9.16659 18.3333 9.16659H16.6667C16.2064 9.16659 15.8333 9.53968 15.8333 9.99992C15.8333 10.4602 16.2064 10.8333 16.6667 10.8333H18.3333ZM4.16668 9.99992C4.16668 10.4602 3.79358 10.8333 3.33334 10.8333H1.66668C1.20644 10.8333 0.833343 10.4602 0.833344 9.99992C0.833344 9.53968 1.20644 9.16659 1.66668 9.16659H3.33334C3.79358 9.16659 4.16668 9.53968 4.16668 9.99992ZM16.4818 4.69664C16.8072 4.3712 16.8072 3.84356 16.4818 3.51813C16.1564 3.19269 15.6287 3.19269 15.3033 3.51813L14.1248 4.69664C13.7993 5.02207 13.7993 5.54971 14.1248 5.87515C14.4502 6.20059 14.9779 6.20059 15.3033 5.87515L16.4818 4.69664ZM5.87522 14.1246C6.20065 14.45 6.20065 14.9777 5.87522 15.3031L4.6967 16.4816C4.37127 16.8071 3.84363 16.8071 3.51819 16.4816C3.19276 16.1562 3.19276 15.6286 3.51819 15.3031L4.6967 14.1246C5.02214 13.7992 5.54978 13.7992 5.87522 14.1246ZM15.3033 16.4817C15.6287 16.8071 16.1564 16.8071 16.4818 16.4817C16.8072 16.1563 16.8072 15.6286 16.4818 15.3032L15.3033 14.1247C14.9779 13.7993 14.4502 13.7993 14.1248 14.1247C13.7993 14.4501 13.7993 14.9778 14.1248 15.3032L15.3033 16.4817ZM5.87522 5.87523C5.54978 6.20066 5.02214 6.20066 4.6967 5.87523L3.51819 4.69671C3.19276 4.37128 3.19276 3.84364 3.51819 3.5182C3.84363 3.19277 4.37127 3.19277 4.6967 3.5182L5.87522 4.69671C6.20065 5.02215 6.20065 5.54979 5.87522 5.87523ZM6.66668 9.99992C6.66668 8.15897 8.15906 6.66659 10 6.66659C11.841 6.66659 13.3333 8.15897 13.3333 9.99992C13.3333 11.8409 11.841 13.3333 10 13.3333C8.15906 13.3333 6.66668 11.8409 6.66668 9.99992ZM10 4.99992C7.23859 4.99992 5.00001 7.23849 5.00001 9.99992C5.00001 12.7613 7.23859 14.9999 10 14.9999C12.7614 14.9999 15 12.7613 15 9.99992C15 7.23849 12.7614 4.99992 10 4.99992Z" fill="#424757"/>
</svg>
