<svg width="171" height="27" viewBox="0 0 171 27" fill="none" xmlns="http://www.w3.org/2000/svg">
<ellipse cx="12.0346" cy="13.9618" rx="5.2963" ry="5.2963" fill="#1754F8"/>
<path fill-rule="evenodd" clip-rule="evenodd" d="M11.5548 1.93408C5.13004 2.18669 -0.000976562 7.47498 -0.000976562 13.9617C-0.000976562 20.6095 5.38819 25.9987 12.0361 25.9987C18.5227 25.9987 23.811 20.8677 24.0637 14.4429H19.2425C18.9948 18.2073 15.8631 21.1839 12.0361 21.1839C8.04734 21.1839 4.81384 17.9504 4.81384 13.9617C4.81384 10.1347 7.79046 7.00288 11.5548 6.75523V1.93408Z" fill="#1754F8"/>
<rect x="20.7363" y="-0.000976562" width="4.81481" height="4.81481" transform="rotate(45 20.7363 -0.000976562)" fill="#1754F8"/>
<path d="M42.032 22.0252C40.336 22.0252 38.8 21.6572 37.424 20.9212C36.064 20.1692 34.992 19.1372 34.208 17.8252C33.44 16.5132 33.056 15.0332 33.056 13.3852C33.056 11.7372 33.448 10.2572 34.232 8.94516C35.016 7.63316 36.088 6.60916 37.448 5.87316C38.824 5.12116 40.36 4.74516 42.056 4.74516C43.432 4.74516 44.688 4.98516 45.824 5.46516C46.96 5.94516 47.92 6.64116 48.704 7.55315L46.688 9.44916C45.472 8.13716 43.976 7.48116 42.2 7.48116C41.048 7.48116 40.016 7.73716 39.104 8.24916C38.192 8.74516 37.48 9.44116 36.968 10.3372C36.456 11.2332 36.2 12.2492 36.2 13.3852C36.2 14.5212 36.456 15.5372 36.968 16.4332C37.48 17.3292 38.192 18.0332 39.104 18.5452C40.016 19.0412 41.048 19.2892 42.2 19.2892C43.976 19.2892 45.472 18.6252 46.688 17.2972L48.704 19.2172C47.92 20.1292 46.952 20.8252 45.8 21.3052C44.664 21.7852 43.408 22.0252 42.032 22.0252ZM55.7368 21.9532C54.4408 21.9532 53.2728 21.6732 52.2328 21.1132C51.1928 20.5532 50.3768 19.7772 49.7848 18.7852C49.2088 17.7772 48.9208 16.6412 48.9208 15.3772C48.9208 14.1132 49.2088 12.9852 49.7848 11.9932C50.3768 11.0012 51.1928 10.2252 52.2328 9.66516C53.2728 9.10516 54.4408 8.82516 55.7368 8.82516C57.0488 8.82516 58.2248 9.10516 59.2648 9.66516C60.3048 10.2252 61.1128 11.0012 61.6888 11.9932C62.2808 12.9852 62.5768 14.1132 62.5768 15.3772C62.5768 16.6412 62.2808 17.7772 61.6888 18.7852C61.1128 19.7772 60.3048 20.5532 59.2648 21.1132C58.2248 21.6732 57.0488 21.9532 55.7368 21.9532ZM55.7368 19.3852C56.8408 19.3852 57.7528 19.0172 58.4728 18.2812C59.1928 17.5452 59.5528 16.5772 59.5528 15.3772C59.5528 14.1772 59.1928 13.2092 58.4728 12.4732C57.7528 11.7372 56.8408 11.3692 55.7368 11.3692C54.6328 11.3692 53.7208 11.7372 53.0008 12.4732C52.2968 13.2092 51.9448 14.1772 51.9448 15.3772C51.9448 16.5772 52.2968 17.5452 53.0008 18.2812C53.7208 19.0172 54.6328 19.3852 55.7368 19.3852ZM71.5895 8.82516C72.8375 8.82516 73.9495 9.09716 74.9255 9.64116C75.9175 10.1852 76.6935 10.9532 77.2535 11.9452C77.8135 12.9372 78.0935 14.0812 78.0935 15.3772C78.0935 16.6732 77.8135 17.8252 77.2535 18.8332C76.6935 19.8252 75.9175 20.5932 74.9255 21.1372C73.9495 21.6812 72.8375 21.9532 71.5895 21.9532C69.8615 21.9532 68.4935 21.3772 67.4855 20.2252V26.4412H64.4855V8.96916H67.3415V10.6492C67.8375 10.0412 68.4455 9.58516 69.1655 9.28116C69.9015 8.97716 70.7095 8.82516 71.5895 8.82516ZM71.2535 19.3852C72.3575 19.3852 73.2615 19.0172 73.9655 18.2812C74.6855 17.5452 75.0455 16.5772 75.0455 15.3772C75.0455 14.1772 74.6855 13.2092 73.9655 12.4732C73.2615 11.7372 72.3575 11.3692 71.2535 11.3692C70.5335 11.3692 69.8855 11.5372 69.3095 11.8732C68.7335 12.1932 68.2775 12.6572 67.9415 13.2652C67.6055 13.8732 67.4375 14.5772 67.4375 15.3772C67.4375 16.1772 67.6055 16.8812 67.9415 17.4892C68.2775 18.0972 68.7335 18.5692 69.3095 18.9052C69.8855 19.2252 70.5335 19.3852 71.2535 19.3852ZM87.0826 8.82516C88.3306 8.82516 89.4426 9.09716 90.4186 9.64116C91.4106 10.1852 92.1866 10.9532 92.7466 11.9452C93.3066 12.9372 93.5866 14.0812 93.5866 15.3772C93.5866 16.6732 93.3066 17.8252 92.7466 18.8332C92.1866 19.8252 91.4106 20.5932 90.4186 21.1372C89.4426 21.6812 88.3306 21.9532 87.0826 21.9532C86.2026 21.9532 85.3946 21.8012 84.6586 21.4972C83.9386 21.1932 83.3306 20.7372 82.8346 20.1292V21.7852H79.9786V3.97716H82.9786V10.5292C83.4906 9.96916 84.0906 9.54516 84.7786 9.25716C85.4826 8.96916 86.2506 8.82516 87.0826 8.82516ZM86.7466 19.3852C87.8506 19.3852 88.7546 19.0172 89.4586 18.2812C90.1786 17.5452 90.5386 16.5772 90.5386 15.3772C90.5386 14.1772 90.1786 13.2092 89.4586 12.4732C88.7546 11.7372 87.8506 11.3692 86.7466 11.3692C86.0266 11.3692 85.3786 11.5372 84.8026 11.8732C84.2266 12.1932 83.7706 12.6572 83.4346 13.2652C83.0986 13.8732 82.9306 14.5772 82.9306 15.3772C82.9306 16.1772 83.0986 16.8812 83.4346 17.4892C83.7706 18.0972 84.2266 18.5692 84.8026 18.9052C85.3786 19.2252 86.0266 19.3852 86.7466 19.3852ZM95.4717 8.96916H98.4718V21.7852H95.4717V8.96916ZM96.9838 6.85716C96.4398 6.85716 95.9838 6.68916 95.6158 6.35316C95.2477 6.00116 95.0637 5.56916 95.0637 5.05716C95.0637 4.54516 95.2477 4.12116 95.6158 3.78515C95.9838 3.43316 96.4398 3.25716 96.9838 3.25716C97.5278 3.25716 97.9837 3.42516 98.3518 3.76116C98.7198 4.08116 98.9038 4.48916 98.9038 4.98516C98.9038 5.51315 98.7198 5.96115 98.3518 6.32915C97.9998 6.68116 97.5438 6.85716 96.9838 6.85716ZM108.649 21.0892C108.297 21.3772 107.865 21.5932 107.353 21.7372C106.857 21.8812 106.329 21.9532 105.769 21.9532C104.361 21.9532 103.273 21.5852 102.505 20.8492C101.737 20.1132 101.353 19.0412 101.353 17.6332V6.13716H104.353V9.06516H107.785V11.4652H104.353V17.5612C104.353 18.1852 104.505 18.6652 104.809 19.0012C105.129 19.3212 105.569 19.4812 106.129 19.4812C106.801 19.4812 107.361 19.3052 107.809 18.9532L108.649 21.0892Z" fill="black"/>
</svg>
