<svg width="112" height="26" viewBox="0 0 112 26" fill="none" xmlns="http://www.w3.org/2000/svg">
<path d="M93.7549 22.0002V5.2002H96.7069V19.3122H105.539V22.0002H93.7549Z" fill="black"/>
<path d="M84.8224 22.2881C79.5664 22.2881 76.1104 18.5441 76.1104 13.6481V13.6001C76.1104 8.89611 79.7104 4.91211 84.7744 4.91211C87.7024 4.91211 89.5024 5.72811 91.2304 7.19211L89.3584 9.42411C88.0624 8.32011 86.7903 7.62411 84.6544 7.62411C81.5584 7.62411 79.2064 10.3361 79.2064 13.5521V13.6001C79.2064 17.0561 81.4864 19.6001 84.9184 19.6001C86.5023 19.6001 87.9424 19.0961 88.9744 18.3281V15.1841H84.6784V12.6161H91.8304V19.6721C90.1744 21.0881 87.7984 22.2881 84.8224 22.2881Z" fill="black"/>
<path d="M69.3243 22.2881C64.4283 22.2881 60.7803 18.4721 60.7803 13.6481V13.6001C60.7803 8.82411 64.3563 4.91211 69.4443 4.91211C72.5403 4.91211 74.4123 5.99211 76.0203 7.52811L74.1243 9.71211C72.7803 8.46411 71.3403 7.62411 69.4203 7.62411C66.2043 7.62411 63.8763 10.2641 63.8763 13.5521V13.6001C63.8763 16.8881 66.2043 19.5761 69.4203 19.5761C71.4843 19.5761 72.8043 18.7361 74.2443 17.3921L76.1403 19.3121C74.3883 21.1361 72.4683 22.2881 69.3243 22.2881Z" fill="black"/>
<path d="M53.9728 22.24C51.4048 22.24 48.9808 21.352 46.9648 19.552L48.7408 17.44C50.3488 18.832 51.9568 19.624 54.0448 19.624C55.8688 19.624 57.0208 18.784 57.0208 17.512V17.464C57.0208 16.264 56.3488 15.616 53.2288 14.896C49.6528 14.032 47.6368 12.976 47.6368 9.87996V9.83196C47.6368 6.95196 50.0368 4.95996 53.3728 4.95996C55.8208 4.95996 57.7648 5.70396 59.4688 7.07196L57.8848 9.30396C56.3728 8.17596 54.8608 7.57596 53.3248 7.57596C51.5968 7.57596 50.5888 8.46396 50.5888 9.56796V9.61596C50.5888 10.912 51.3568 11.488 54.5728 12.256C58.1248 13.12 59.9728 14.392 59.9728 17.176V17.224C59.9728 20.368 57.5008 22.24 53.9728 22.24Z" fill="black"/>
<path d="M39.1602 22.2881C33.9042 22.2881 30.4482 18.5441 30.4482 13.6481V13.6001C30.4482 8.89611 34.0482 4.91211 39.1122 4.91211C42.0402 4.91211 43.8402 5.72811 45.5682 7.19211L43.6962 9.42411C42.4002 8.32011 41.1282 7.62411 38.9922 7.62411C35.8962 7.62411 33.5442 10.3361 33.5442 13.5521V13.6001C33.5442 17.0561 35.8242 19.6001 39.2562 19.6001C40.8402 19.6001 42.2802 19.0961 43.3122 18.3281V15.1841H39.0162V12.6161H46.1682V19.6721C44.5122 21.0881 42.1362 22.2881 39.1602 22.2881Z" fill="black"/>
<path fill-rule="evenodd" clip-rule="evenodd" d="M93.4551 4.90039H97.0071V19.0124H105.839V22.3004H93.4551V4.90039ZM94.0551 5.50039V21.7004H105.239V19.6124H96.4071V5.50039H94.0551Z" fill="black"/>
<path fill-rule="evenodd" clip-rule="evenodd" d="M84.7745 5.2123C79.8854 5.2123 76.4105 9.05266 76.4105 13.6003V13.6483C76.4105 16.0246 77.2484 18.1069 78.7095 19.594C80.1697 21.0802 82.2685 21.9883 84.8225 21.9883C87.6516 21.9883 89.9233 20.8728 91.5305 19.533V12.9163H84.9785V14.8843H89.2745V18.479L89.1536 18.569C88.0674 19.3773 86.5639 19.9003 84.9185 19.9003C83.1247 19.9003 81.6156 19.2336 80.5565 18.1012C79.4991 16.9708 78.9065 15.3945 78.9065 13.6003V13.5523C78.9065 10.2002 81.3647 7.3243 84.6545 7.3243C86.7502 7.3243 88.0595 7.97569 89.3209 9.0024L90.8067 7.23077C89.2 5.93073 87.4982 5.2123 84.7745 5.2123ZM75.8105 13.6003C75.8105 8.73995 79.5357 4.6123 84.7745 4.6123C87.7767 4.6123 89.6447 5.45554 91.4245 6.96341L91.6522 7.15637L89.3941 9.84871L89.164 9.65268C87.9076 8.58238 86.702 7.9243 84.6545 7.9243C81.7524 7.9243 79.5065 10.4724 79.5065 13.5523V13.6003C79.5065 15.2621 80.054 16.6858 80.9946 17.6914C81.9335 18.695 83.2804 19.3003 84.9185 19.3003C86.3794 19.3003 87.7058 18.8538 88.6745 18.1749V15.4843H84.3785V12.3163H92.1305V19.8105L92.0255 19.9003C90.3262 21.3534 87.8833 22.5883 84.8225 22.5883C82.1206 22.5883 79.8634 21.6245 78.2816 20.0146C76.7007 18.4057 75.8105 16.168 75.8105 13.6483V13.6003Z" fill="black"/>
<path fill-rule="evenodd" clip-rule="evenodd" d="M69.4445 5.2123C64.5303 5.2123 61.0805 8.98173 61.0805 13.6003V13.6483C61.0805 18.3127 64.6002 21.9883 69.3245 21.9883C70.8579 21.9883 72.0793 21.7078 73.1263 21.2131C74.0922 20.7567 74.9227 20.1118 75.7198 19.3132L74.2344 17.8091C72.8442 19.0664 71.4858 19.8763 69.4205 19.8763C66.0124 19.8763 63.5765 17.0263 63.5765 13.6003V13.5523C63.5765 10.1231 66.0154 7.3243 69.4205 7.3243C71.3318 7.3243 72.7846 8.1195 74.099 9.28407L75.6044 7.5499C74.0893 6.16289 72.3174 5.2123 69.4445 5.2123ZM60.4805 13.6003C60.4805 8.66688 64.1826 4.6123 69.4445 4.6123C72.6306 4.6123 74.574 5.73169 76.2277 7.31137L76.4345 7.50896L74.1477 10.1432L73.9203 9.93214C72.6076 8.71321 71.2372 7.9243 69.4205 7.9243C66.3936 7.9243 64.1765 10.4056 64.1765 13.5523V13.6003C64.1765 16.7503 66.3966 19.2763 69.4205 19.2763C71.377 19.2763 72.6269 18.4916 74.0398 17.173L74.253 16.974L76.5592 19.3094L76.3568 19.5201C75.4649 20.4488 74.5179 21.2191 73.3826 21.7555C72.2457 22.2928 70.9351 22.5883 69.3245 22.5883C64.2568 22.5883 60.4805 18.6319 60.4805 13.6483V13.6003Z" fill="black"/>
<path fill-rule="evenodd" clip-rule="evenodd" d="M53.3729 5.26016C50.1528 5.26016 47.9369 7.16362 47.9369 9.83216V9.88016C47.9369 11.3498 48.4089 12.2962 49.279 12.9907C50.1736 13.7047 51.5131 14.1729 53.2979 14.6042C54.8579 14.9643 55.8589 15.3163 56.4703 15.7567C56.7836 15.9825 57.0023 16.2365 57.1393 16.5316C57.2752 16.8244 57.3209 17.1368 57.3209 17.4642V17.5122C57.3209 18.2504 56.9816 18.8671 56.3914 19.2892C55.8099 19.705 54.9987 19.9242 54.0449 19.9242C51.9673 19.9242 50.3484 19.1677 48.7767 17.8638L47.3844 19.5194C49.2998 21.1414 51.5702 21.9402 53.9729 21.9402C55.6868 21.9402 57.1141 21.4853 58.1066 20.6784C59.0924 19.8769 59.6729 18.71 59.6729 17.2242V17.1762C59.6729 15.8627 59.2426 14.9355 58.41 14.2243C57.5592 13.4974 56.2662 12.9768 54.5026 12.5478C52.8984 12.1647 51.8516 11.819 51.2068 11.3826C50.876 11.1588 50.6398 10.9042 50.49 10.5999C50.3411 10.2976 50.2889 9.96922 50.2889 9.61616V9.56816C50.2889 8.91703 50.589 8.33341 51.126 7.92037C51.6586 7.51069 52.4119 7.27616 53.3249 7.27616C54.8569 7.27616 56.3486 7.84344 57.8159 8.88304L59.0585 7.13212C57.4606 5.91718 55.6451 5.26016 53.3729 5.26016ZM47.3369 9.83216C47.3369 6.7407 49.921 4.66016 53.3729 4.66016C55.8905 4.66016 57.9005 5.42829 59.6567 6.83822L59.8772 7.01521L57.9517 9.72832L57.7055 9.54461C56.2289 8.44298 54.7783 7.87616 53.3249 7.87616C52.5099 7.87616 51.8952 8.08562 51.4918 8.39594C51.0928 8.70291 50.8889 9.11528 50.8889 9.56816V9.61616C50.8889 9.91109 50.9327 10.1407 51.0283 10.3349C51.1229 10.5271 51.2798 10.7075 51.543 10.8857C52.0861 11.2532 53.0311 11.5795 54.6426 11.9644L54.6438 11.9647C56.4319 12.3996 57.8387 12.947 58.7998 13.7681C59.7792 14.6048 60.2729 15.7056 60.2729 17.1762V17.2242C60.2729 18.8823 59.6174 20.2234 58.4851 21.1439C57.3597 22.059 55.787 22.5402 53.9729 22.5402C51.3321 22.5402 48.8367 21.6256 46.7651 19.7759L46.5479 19.582L48.7072 17.0142L48.9372 17.2133C50.5079 18.573 52.0488 19.3242 54.0449 19.3242C54.9151 19.3242 55.5919 19.1233 56.0424 18.8011C56.4842 18.4852 56.7209 18.0459 56.7209 17.5122V17.4642C56.7209 17.1915 56.6826 16.9729 56.595 16.7842C56.5085 16.5978 56.3642 16.4198 56.1195 16.2436C55.6151 15.8801 54.7205 15.5483 53.1614 15.1885L53.1584 15.1878C51.368 14.7552 49.9119 14.2635 48.9048 13.4596C47.8729 12.6361 47.3369 11.5065 47.3369 9.88016V9.83216Z" fill="black"/>
<path fill-rule="evenodd" clip-rule="evenodd" d="M39.1124 5.2123C34.2233 5.2123 30.7484 9.05266 30.7484 13.6003V13.6483C30.7484 16.0246 31.5863 18.1069 33.0474 19.594C34.5076 21.0802 36.6064 21.9883 39.1604 21.9883C41.9895 21.9883 44.2612 20.8728 45.8684 19.533V12.9163H39.3164V14.8843H43.6124V18.479L43.4915 18.569C42.4053 19.3773 40.9018 19.9003 39.2564 19.9003C37.4626 19.9003 35.9535 19.2336 34.8943 18.1012C33.8369 16.9708 33.2444 15.3945 33.2444 13.6003V13.5523C33.2444 10.2002 35.7026 7.3243 38.9924 7.3243C41.0881 7.3243 42.3974 7.97569 43.6587 9.0024L45.1446 7.23077C43.5379 5.93073 41.8361 5.2123 39.1124 5.2123ZM30.1484 13.6003C30.1484 8.73995 33.8736 4.6123 39.1124 4.6123C42.1146 4.6123 43.9826 5.45554 45.7624 6.96341L45.9901 7.15637L43.732 9.84871L43.5019 9.65268C42.2455 8.58238 41.0399 7.9243 38.9924 7.9243C36.0903 7.9243 33.8444 10.4724 33.8444 13.5523V13.6003C33.8444 15.2621 34.3919 16.6858 35.3325 17.6914C36.2714 18.695 37.6183 19.3003 39.2564 19.3003C40.7173 19.3003 42.0437 18.8538 43.0124 18.1749V15.4843H38.7164V12.3163H46.4684V19.8105L46.3634 19.9003C44.6641 21.3534 42.2212 22.5883 39.1604 22.5883C36.4585 22.5883 34.2013 21.6245 32.6194 20.0146C31.0386 18.4057 30.1484 16.168 30.1484 13.6483V13.6003Z" fill="black"/>
<path fill-rule="evenodd" clip-rule="evenodd" d="M12.1293 1.00049C5.52958 1.03285 0.189453 6.39297 0.189453 13.0003C0.189453 19.6278 5.56204 25.0003 12.1895 25.0003C18.3295 25.0003 23.3925 20.3889 24.1039 14.4404H19.0003C18.337 17.5933 15.5396 19.9603 12.1895 19.9603C8.34555 19.9603 5.22945 16.8442 5.22945 13.0003C5.22945 9.17649 8.31312 6.07288 12.1293 6.0406V1.00049Z" fill="#1754F8"/>
<path d="M11.6504 10.1201H24.1304V12.7601V14.4401L23.6504 15.4001H11.6504V10.1201Z" fill="#1754F8"/>
<mask id="mask0_10973_86901" style="mask-type:alpha" maskUnits="userSpaceOnUse" x="0" y="1" width="25" height="24">
<path fill-rule="evenodd" clip-rule="evenodd" d="M12.1293 1C5.52958 1.03237 0.189453 6.39248 0.189453 12.9999C0.189453 19.6273 5.56204 24.9999 12.1895 24.9999C18.1632 24.9999 23.1175 20.6348 24.0366 14.9202H18.8812C18.0476 17.8302 15.3672 19.9599 12.1895 19.9599C8.34555 19.9599 5.22945 16.8438 5.22945 12.9999C5.22945 9.17601 8.31312 6.07239 12.1293 6.04011V1Z" fill="#FE7701"/>
</mask>
<g mask="url(#mask0_10973_86901)">
<g filter="url(#filter0_d_10973_86901)">
<path d="M18.8508 14.9204H24.1308V20.2004L14.0508 25.4804C14.0508 25.4804 17.1708 22.8404 18.1308 19.9604C19.0908 17.0804 18.8508 14.9204 18.8508 14.9204Z" fill="#1754F8"/>
</g>
</g>
<rect x="18.8506" y="1" width="5.28" height="5.28" fill="black"/>
<defs>
<filter id="filter0_d_10973_86901" x="10.2108" y="14.9204" width="13.9201" height="14.4001" filterUnits="userSpaceOnUse" color-interpolation-filters="sRGB">
<feFlood flood-opacity="0" result="BackgroundImageFix"/>
<feColorMatrix in="SourceAlpha" type="matrix" values="0 0 0 0 0 0 0 0 0 0 0 0 0 0 0 0 0 0 127 0" result="hardAlpha"/>
<feOffset dx="-1.92" dy="1.92"/>
<feGaussianBlur stdDeviation="0.96"/>
<feComposite in2="hardAlpha" operator="out"/>
<feColorMatrix type="matrix" values="0 0 0 0 0 0 0 0 0 0 0 0 0 0 0 0 0 0 0.25 0"/>
<feBlend mode="normal" in2="BackgroundImageFix" result="effect1_dropShadow_10973_86901"/>
<feBlend mode="normal" in="SourceGraphic" in2="effect1_dropShadow_10973_86901" result="shape"/>
</filter>
</defs>
</svg>
