<svg width="342" height="361" viewBox="0 0 342 361" fill="none" xmlns="http://www.w3.org/2000/svg">
  <path
    d="M187.694 34.9229L187.609 34.7673C187.464 34.7692 187.271 34.7735 187.037 34.7823C186.47 34.8038 185.664 34.8525 184.713 34.9614C182.805 35.1797 180.335 35.6376 178.039 36.5891C175.741 37.5419 173.669 38.9679 172.476 41.0925C171.293 43.2007 170.926 46.0878 172.213 50.0788C177.398 66.1602 188.134 75.9005 199.287 85.8757L210.977 77.9616C209.339 74.8615 203.716 64.4658 198.376 54.6123C195.566 49.4278 192.836 44.3955 190.808 40.6594C189.794 38.7913 188.956 37.2473 188.371 36.1703L187.694 34.9229Z"
    fill="#1754F8" stroke="black" stroke-width="1.08381" />
  <path
    d="M179.716 35.4752C195.092 26.0401 209.379 51.5141 215.502 68.5265L197.486 82.8019C185.789 73.1598 164.341 44.9103 179.716 35.4752Z"
    fill="white" stroke="black" stroke-width="1.08381" />
  <path
    d="M183.832 43.3073C193.344 40.4328 208.205 57.8133 213.109 71.4372L189.734 87.7272C185.301 84.0732 176.475 53.3333 176.475 53.3333C176.475 53.3333 174.321 46.1818 183.832 43.3073Z"
    fill="white" stroke="black" stroke-width="1.08381" />
  <path d="M153.328 158.74V246.343L241.045 282.178L241.576 194.576L153.328 158.74Z" fill="#D1DDFE"
    stroke="black" stroke-width="1.37104" />
  <path d="M152.389 245.526L240.385 282.52L152.389 319.514L64.3936 282.52L152.389 245.526Z"
    fill="white" stroke="black" stroke-width="2.17273" />
  <path d="M64.2965 283.144L63.797 194.197L152.708 158.399V246.01L64.2965 283.144Z" fill="#D1DDFE"
    stroke="black" stroke-width="1.37104" />
  <path
    d="M297.414 114.253C297.239 117.968 295.322 120.839 292.243 123.056C289.15 125.285 284.905 126.834 280.165 127.864C270.867 129.883 259.834 129.868 252.341 129.217L249.928 112.324L293.484 95.4575C293.485 95.4587 293.485 95.46 293.486 95.4613C293.607 95.7965 293.781 96.2849 293.989 96.8953C294.404 98.1166 294.954 99.8248 295.492 101.772C296.574 105.682 297.591 110.493 297.414 114.253Z"
    fill="#1754F8" stroke="black" stroke-width="1.08381" />
  <path
    d="M294.047 97.638C294.784 81.9674 261.938 89.5723 245.422 95.3336L247.957 113.078C263.013 114.461 293.31 113.309 294.047 97.638Z"
    fill="white" stroke="black" stroke-width="1.08381" />
  <path
    d="M291.936 103.621C295.275 98.0089 275.262 98.504 252.09 106.009L253.901 113.379C270.234 115.296 288.088 110.088 291.936 103.621Z"
    fill="white" stroke="black" stroke-width="1.08381" />
  <path d="M158.248 45.1202L251.785 82.537L264.823 171.202L171.286 133.785L158.248 45.1202Z"
    fill="#D1DDFE" stroke="black" stroke-width="1.37104" />
  <path d="M159.026 152.178L172.591 134.659L265.376 172.043L252.006 189.593L159.026 152.178Z"
    fill="#D1DDFE" stroke="black" stroke-width="1.37104" />
  <path
    d="M234.68 33.9481L234.73 33.8272C234.612 33.7194 234.457 33.5797 234.267 33.4139C233.789 32.997 233.094 32.4161 232.227 31.764C230.49 30.4574 228.08 28.8756 225.367 27.7494C222.651 26.622 219.67 25.9674 216.772 26.4624C213.894 26.9539 211.035 28.5893 208.555 32.1635C198.542 46.5939 198.599 61.0787 198.787 76.0559L215.422 79.7906C216.817 76.5753 221.486 65.4634 225.902 54.9245C228.216 49.4034 230.459 44.0421 232.124 40.0611C232.957 38.0706 233.645 36.4252 234.124 35.2774L234.68 33.9481Z"
    fill="#1754F8" stroke="black" stroke-width="1.08381" />
  <path
    d="M234.255 33.0831C247.71 37.9951 239.764 65.7284 232.718 81.738L215.029 78.1614C214.838 63.0433 220.8 28.1711 234.255 33.0831Z"
    fill="white" stroke="black" stroke-width="1.08381" />
  <path d="M143.886 63.1787L158.951 152.225L172.653 134.529L157.588 45.4824L143.886 63.1787Z"
    fill="white" stroke="black" stroke-width="1.31473" />
  <path d="M157.876 44.6843L251.928 82.5792L237.702 101.253L143.444 63.3236L157.876 44.6843Z"
    fill="white" stroke="black" stroke-width="1.31473" />
  <path d="M237.55 100.928L253.273 191.935L266.975 174.239L251.252 83.2318L237.55 100.928Z"
    fill="white" stroke="black" stroke-width="1.31473" />
  <path fill-rule="evenodd" clip-rule="evenodd"
    d="M149.412 152.431L171.159 273.421L183.455 271.211C183.454 271.202 183.452 271.194 183.451 271.185C182.345 265.031 186.436 259.147 192.589 258.041C198.743 256.935 204.627 261.026 205.733 267.18C205.735 267.188 205.736 267.197 205.738 267.206L218.005 265.001L196.259 144.011L149.412 152.431Z"
    fill="white" />
  <path
    d="M171.159 273.421L170.512 273.538L170.628 274.185L171.275 274.068L171.159 273.421ZM149.412 152.431L149.296 151.784L148.649 151.9L148.765 152.547L149.412 152.431ZM183.455 271.211L183.572 271.858L184.22 271.742L184.102 271.093L183.455 271.211ZM183.451 271.185L184.098 271.068L184.098 271.068L183.451 271.185ZM205.738 267.206L205.091 267.321L205.206 267.97L205.854 267.853L205.738 267.206ZM218.005 265.001L218.122 265.648L218.769 265.532L218.652 264.885L218.005 265.001ZM196.259 144.011L196.906 143.895L196.789 143.248L196.142 143.364L196.259 144.011ZM171.806 273.305L150.059 152.315L148.765 152.547L170.512 273.538L171.806 273.305ZM183.339 270.564L171.043 272.774L171.275 274.068L183.572 271.858L183.339 270.564ZM184.102 271.093C184.101 271.085 184.099 271.077 184.098 271.068L182.804 271.301C182.805 271.31 182.807 271.32 182.809 271.329L184.102 271.093ZM184.098 271.068C183.056 265.272 186.91 259.73 192.706 258.688L192.473 257.394C185.963 258.564 181.633 264.79 182.804 271.301L184.098 271.068ZM192.706 258.688C198.502 257.646 204.044 261.5 205.086 267.296L206.38 267.063C205.21 260.553 198.984 256.224 192.473 257.394L192.706 258.688ZM205.086 267.296C205.088 267.304 205.089 267.313 205.091 267.321L206.385 267.092C206.384 267.082 206.382 267.073 206.38 267.063L205.086 267.296ZM217.889 264.354L205.622 266.559L205.854 267.853L218.122 265.648L217.889 264.354ZM195.612 144.127L217.358 265.118L218.652 264.885L196.906 143.895L195.612 144.127ZM149.529 153.078L196.375 144.658L196.142 143.364L149.296 151.784L149.529 153.078Z"
    fill="black" />
  <path
    d="M159.897 167.273L172.177 169.663L172.24 169.572C172.115 169.463 171.988 169.274 171.861 169.006C171.764 168.76 171.676 168.419 171.598 167.984C171.474 167.292 171.525 166.623 171.752 165.974C171.979 165.326 172.318 164.789 172.77 164.364C172.994 164.139 173.238 163.95 173.501 163.797C173.79 163.639 174.16 163.494 174.611 163.36C175.058 163.2 175.625 163.045 176.311 162.896C177.023 162.741 177.917 162.567 178.992 162.374C179.888 162.213 180.62 162.095 181.187 162.019C181.781 161.939 182.289 161.9 182.712 161.904C183.105 161.886 183.452 161.903 183.752 161.954C184.056 162.032 184.378 162.133 184.718 162.256C185.654 162.617 186.429 163.178 187.042 163.939C187.659 164.727 188.064 165.658 188.257 166.733C188.45 167.808 188.38 168.812 188.045 169.744C187.736 170.671 187.218 171.465 186.491 172.124C186.216 172.358 185.95 172.565 185.691 172.743C185.432 172.922 185.118 173.084 184.748 173.23C184.348 173.354 183.855 173.483 183.271 173.614C182.713 173.741 181.986 173.885 181.09 174.046C180.245 174.198 179.539 174.311 178.971 174.387C178.429 174.458 177.962 174.502 177.568 174.52C177.145 174.517 176.758 174.494 176.407 174.451C176.086 174.43 175.735 174.387 175.353 174.324L160.684 171.65L159.897 167.273ZM176.97 166.78C176.381 166.886 175.942 167.163 175.653 167.611C175.364 168.06 175.265 168.54 175.357 169.052C175.449 169.564 175.709 169.979 176.136 170.299C176.563 170.618 177.071 170.725 177.66 170.62L182.728 169.709C183.317 169.603 183.756 169.326 184.045 168.877C184.334 168.429 184.433 167.949 184.341 167.437C184.249 166.925 183.989 166.509 183.562 166.19C183.135 165.87 182.627 165.763 182.038 165.869L176.97 166.78ZM162.464 181.558L174.745 183.948L174.808 183.857C174.682 183.748 174.556 183.559 174.429 183.291C174.331 183.045 174.244 182.704 174.165 182.269C174.041 181.578 174.093 180.908 174.319 180.259C174.546 179.611 174.886 179.074 175.338 178.649C175.562 178.424 175.805 178.235 176.068 178.082C176.357 177.925 176.727 177.779 177.179 177.645C177.626 177.485 178.192 177.33 178.879 177.181C179.591 177.026 180.485 176.852 181.56 176.659C182.455 176.498 183.187 176.38 183.755 176.304C184.348 176.224 184.857 176.185 185.28 176.189C185.673 176.171 186.02 176.188 186.319 176.24C186.624 176.317 186.946 176.418 187.285 176.542C188.222 176.902 188.997 177.463 189.609 178.225C190.226 179.012 190.631 179.943 190.825 181.018C191.018 182.093 190.947 183.097 190.613 184.029C190.304 184.956 189.786 185.75 189.059 186.409C188.784 186.643 188.517 186.85 188.259 187.028C188 187.207 187.686 187.369 187.316 187.515C186.915 187.64 186.423 187.768 185.839 187.899C185.28 188.026 184.553 188.17 183.657 188.331C182.813 188.483 182.107 188.596 181.539 188.672C180.997 188.743 180.529 188.787 180.136 188.805C179.713 188.802 179.325 188.779 178.974 188.737C178.653 188.715 178.302 188.672 177.921 188.609L163.251 185.935L162.464 181.558ZM179.537 181.065C178.949 181.171 178.51 181.448 178.22 181.897C177.931 182.345 177.832 182.825 177.924 183.337C178.016 183.849 178.276 184.265 178.703 184.584C179.131 184.904 179.639 185.01 180.228 184.905L185.296 183.994C185.884 183.888 186.323 183.611 186.613 183.163C186.902 182.714 187.001 182.234 186.909 181.722C186.817 181.21 186.557 180.794 186.13 180.475C185.702 180.155 185.194 180.049 184.605 180.154L179.537 181.065ZM165.032 195.843L177.312 198.233L177.375 198.143C177.25 198.033 177.123 197.844 176.996 197.577C176.899 197.33 176.811 196.989 176.733 196.554C176.609 195.863 176.66 195.193 176.887 194.544C177.114 193.896 177.454 193.359 177.906 192.935C178.129 192.709 178.373 192.52 178.636 192.367C178.925 192.21 179.295 192.064 179.746 191.93C180.193 191.77 180.76 191.616 181.446 191.466C182.159 191.311 183.052 191.138 184.127 190.944C185.023 190.783 185.755 190.665 186.322 190.589C186.916 190.509 187.424 190.471 187.847 190.474C188.241 190.456 188.587 190.473 188.887 190.525C189.192 190.602 189.514 190.703 189.853 190.827C190.79 191.187 191.564 191.748 192.177 192.51C192.794 193.297 193.199 194.228 193.392 195.303C193.586 196.378 193.515 197.382 193.18 198.314C192.871 199.241 192.354 200.035 191.626 200.694C191.352 200.928 191.085 201.135 190.826 201.313C190.568 201.492 190.253 201.654 189.883 201.8C189.483 201.925 188.991 202.053 188.407 202.184C187.848 202.311 187.121 202.455 186.225 202.616C185.38 202.768 184.674 202.882 184.106 202.957C183.564 203.028 183.097 203.073 182.704 203.09C182.28 203.087 181.893 203.064 181.542 203.022C181.221 203 180.87 202.958 180.488 202.894L165.819 200.22L165.032 195.843ZM182.105 195.35C181.516 195.456 181.077 195.733 180.788 196.182C180.499 196.63 180.4 197.11 180.492 197.622C180.584 198.134 180.844 198.55 181.271 198.869C181.698 199.189 182.206 199.296 182.795 199.19L187.863 198.279C188.452 198.173 188.891 197.896 189.18 197.448C189.47 196.999 189.568 196.519 189.476 196.007C189.384 195.495 189.124 195.08 188.697 194.76C188.27 194.441 187.762 194.334 187.173 194.44L182.105 195.35ZM167.6 210.128L179.88 212.518L179.943 212.428C179.817 212.318 179.691 212.13 179.564 211.862C179.466 211.615 179.379 211.274 179.301 210.839C179.176 210.148 179.228 209.478 179.455 208.83C179.682 208.181 180.021 207.644 180.473 207.22C180.697 206.994 180.94 206.805 181.204 206.652C181.492 206.495 181.862 206.349 182.314 206.215C182.761 206.055 183.328 205.901 184.014 205.751C184.726 205.596 185.62 205.423 186.695 205.229C187.591 205.068 188.322 204.95 188.89 204.874C189.483 204.794 189.992 204.756 190.415 204.759C190.808 204.741 191.155 204.758 191.455 204.81C191.759 204.887 192.081 204.988 192.421 205.112C193.357 205.472 194.132 206.033 194.744 206.795C195.362 207.582 195.767 208.513 195.96 209.588C196.153 210.664 196.082 211.667 195.748 212.599C195.439 213.527 194.921 214.32 194.194 214.979C193.919 215.213 193.652 215.42 193.394 215.598C193.135 215.777 192.821 215.939 192.451 216.085C192.05 216.21 191.558 216.338 190.974 216.469C190.416 216.596 189.688 216.74 188.793 216.901C187.948 217.053 187.242 217.167 186.674 217.242C186.132 217.313 185.664 217.358 185.271 217.376C184.848 217.372 184.461 217.349 184.109 217.307C183.789 217.285 183.437 217.243 183.056 217.179L168.386 214.505L167.6 210.128ZM184.673 209.636C184.084 209.741 183.645 210.018 183.356 210.467C183.066 210.915 182.968 211.395 183.06 211.907C183.152 212.419 183.411 212.835 183.839 213.154C184.266 213.474 184.774 213.581 185.363 213.475L190.431 212.564C191.019 212.458 191.458 212.181 191.748 211.733C192.037 211.284 192.136 210.804 192.044 210.292C191.952 209.78 191.692 209.365 191.265 209.045C190.837 208.726 190.329 208.619 189.741 208.725L184.673 209.636Z"
    fill="black" />
  <path
    d="M147.518 134.603C146.883 130.188 149.926 125.97 154.316 125.181L184.34 119.784C188.73 118.995 192.804 121.934 193.439 126.349L196.054 144.519L150.133 152.773L147.518 134.603Z"
    fill="#28AD76" stroke="black" stroke-width="1.18894" />
  <path
    d="M153.352 144.897C153.005 144.961 152.757 144.781 152.609 144.356L150.283 137.518L151.562 137.282L153.677 143.673L154.536 143.515L156.095 136.449L157.415 136.206L155.694 143.884C155.646 144.105 155.571 144.266 155.469 144.37C155.368 144.48 155.235 144.55 155.072 144.58L153.352 144.897ZM158.216 140.617C158.14 138.932 158.908 137.941 160.518 137.645L161.009 137.555C162.421 137.295 163.235 137.815 163.45 139.115C163.477 139.273 163.495 139.446 163.505 139.634L163.546 140.515C163.621 142.201 162.854 143.191 161.244 143.488L160.753 143.578C159.341 143.838 158.527 143.317 158.311 142.017C158.285 141.86 158.267 141.687 158.257 141.498L158.216 140.617ZM161.195 142.365C162.014 142.214 162.403 141.681 162.364 140.764L162.323 139.82C162.314 139.68 162.305 139.583 162.296 139.529C162.18 138.831 161.767 138.547 161.058 138.677L160.567 138.768C159.748 138.918 159.359 139.452 159.398 140.368L159.439 141.313C159.448 141.452 159.457 141.549 159.466 141.604C159.582 142.302 159.994 142.586 160.704 142.455L161.195 142.365ZM168.453 140.956L168.244 136.266L169.421 136.05L169.674 141.895L167.105 142.367C165.693 142.627 164.879 142.107 164.664 140.807C164.637 140.649 164.619 140.476 164.609 140.288L164.468 136.961L165.645 136.744L165.791 140.102C165.792 140.194 165.806 140.318 165.832 140.476C165.891 140.831 166.014 141.063 166.2 141.169C166.393 141.275 166.678 141.293 167.053 141.224L168.453 140.956ZM173.005 136.523C172.582 136.6 172.276 136.773 172.089 137.04C171.908 137.306 171.827 137.666 171.846 138.121L171.89 139.023C171.9 139.162 171.909 139.263 171.919 139.324C172.034 140.015 172.443 140.296 173.145 140.167L173.544 140.094C173.851 140.037 174.361 139.912 175.074 139.717L175.144 140.836C174.554 141.008 174.044 141.134 173.614 141.213L173.195 141.29C171.782 141.55 170.97 141.036 170.756 139.75C170.728 139.579 170.709 139.399 170.698 139.21L170.664 138.37C170.631 137.53 170.801 136.864 171.177 136.372C171.551 135.873 172.144 135.549 172.955 135.4L173.334 135.33L174.77 135.087L174.818 136.2L173.005 136.523ZM175.803 132.613L176.98 132.396L177.079 134.642L178.47 134.386C179.882 134.126 180.696 134.646 180.912 135.946C180.938 136.104 180.956 136.277 180.967 136.465L181.107 139.792L179.931 140.009L179.785 136.651C179.776 136.511 179.767 136.414 179.757 136.36C179.642 135.662 179.229 135.378 178.52 135.508L177.128 135.764L177.331 140.487L176.155 140.703L175.803 132.613ZM184.525 133.23C185.228 133.101 185.785 133.171 186.195 133.441C186.611 133.703 186.873 134.159 186.981 134.809C187.006 134.96 187.023 135.126 187.032 135.307L187.073 136.252L183.256 136.954L183.257 136.964C183.269 137.117 183.279 137.221 183.288 137.276C183.346 137.625 183.488 137.867 183.714 138.001C183.946 138.128 184.301 138.147 184.778 138.059L185.28 137.967C185.635 137.902 186.168 137.772 186.881 137.578L186.946 138.666C186.356 138.838 185.822 138.968 185.344 139.055L184.843 139.148C184.018 139.299 183.383 139.243 182.938 138.98C182.5 138.715 182.228 138.257 182.12 137.607C182.094 137.45 182.077 137.287 182.07 137.119L182.03 136.238C181.989 135.399 182.156 134.734 182.532 134.242C182.906 133.743 183.502 133.418 184.321 133.267L184.525 133.23ZM185.853 135.45L185.852 135.44C185.84 135.287 185.829 135.176 185.818 135.108C185.763 134.779 185.633 134.546 185.427 134.407C185.228 134.268 184.941 134.232 184.566 134.301L184.361 134.339C183.557 134.487 183.174 135.019 183.213 135.936L185.853 135.45ZM191.056 133.224C190.631 133.288 190.357 133.331 190.234 133.354C189.798 133.434 189.488 133.601 189.305 133.853C189.12 134.098 189.041 134.466 189.066 134.955L189.2 138.304L188.023 138.521L187.884 135.204C187.842 134.316 187.997 133.639 188.348 133.172C188.706 132.704 189.319 132.391 190.185 132.231C190.526 132.169 190.818 132.125 191.06 132.102L191.056 133.224Z"
    fill="black" />
  <path
    d="M170.178 221.635L170.18 221.632C170.394 218.353 169.347 214.578 167.649 210.643C165.937 206.674 163.578 202.577 161.235 198.706C155.053 188.494 144.579 179.379 133.054 173.336C121.526 167.291 109.012 164.352 98.7046 166.391C94.9204 167.139 92.2165 169.107 89.9946 171.574C88.3978 173.347 87.0775 175.343 85.7805 177.303C85.2643 178.083 84.7517 178.857 84.2269 179.61C78.2301 188.212 78.4367 200.767 86.1759 213.552C98.5552 234.002 125.392 247.138 146.056 243.051C154.34 241.413 160.404 237.256 163.906 231.544C164.905 229.916 166.485 227.418 167.815 225.33C168.48 224.286 169.083 223.343 169.52 222.661C169.738 222.32 169.915 222.045 170.037 221.854L170.178 221.635Z"
    fill="white" stroke="black" stroke-width="1.18894" />
  <path
    d="M93.1262 203.611C105.506 224.061 132.343 237.197 153.006 233.11C173.67 229.022 180.564 209.214 168.185 188.764C155.806 168.314 128.969 155.178 108.305 159.265C87.6414 163.353 80.747 183.161 93.1262 203.611Z"
    fill="white" stroke="black" stroke-width="1.18894" />
  <path
    d="M101.113 202.03C110.884 218.172 132.03 228.492 148.266 225.281C164.502 222.069 169.967 206.486 160.196 190.344C150.425 174.202 129.279 163.882 113.043 167.093C96.8071 170.305 91.3419 185.889 101.113 202.03Z"
    fill="#FF9142" stroke="black" stroke-width="1.49462" />
  <path
    d="M139.944 185.771L139.951 185.769L139.946 185.771C140.799 186.964 141.096 188.002 141.01 188.906C140.924 189.811 140.451 190.62 139.68 191.347L138.836 192.144L140.172 192.007C142.066 191.813 143.707 191.971 145.066 192.604C146.419 193.235 147.576 194.376 148.41 196.284L148.41 196.284C149.436 198.625 149.073 200.369 147.779 201.8C146.458 203.261 144.134 204.432 141.128 205.529L140.709 205.682L140.908 206.032L143.517 210.633L140.738 211.491L138.168 206.956L137.958 206.585L137.501 206.726C136.547 207.021 135.567 207.316 134.549 207.61L134.079 207.746L134.293 208.125L136.878 212.682L134.104 213.538L131.487 208.928L131.278 208.56L130.823 208.698C130.472 208.804 130.114 208.911 129.752 209.019C129.23 209.175 128.701 209.333 128.174 209.494L128.174 209.495L123.909 210.811L122.882 207.798L122.916 207.787C123.173 207.711 123.516 207.609 123.857 207.507C124.197 207.404 124.537 207.301 124.789 207.221C124.914 207.182 125.023 207.146 125.099 207.12C125.135 207.107 125.175 207.093 125.208 207.079L125.209 207.078C125.214 207.076 125.226 207.071 125.24 207.064C125.847 206.862 126.179 206.534 126.311 206.164C126.44 205.802 126.361 205.444 126.271 205.205L126.261 205.178L126.247 205.152L121.79 197.293L121.755 197.303L121.745 197.281L121.777 197.271L118.595 191.661L118.575 191.626L118.548 191.594C118.267 191.269 117.847 190.917 117.245 190.722C116.648 190.53 115.941 190.514 115.128 190.752C115.114 190.754 115.103 190.756 115.098 190.757L115.096 190.758C115.056 190.765 115.011 190.776 114.973 190.786C114.892 190.808 114.781 190.84 114.654 190.878C114.4 190.954 114.061 191.061 113.724 191.168C113.403 191.27 113.082 191.374 112.833 191.454L111.44 189.001L115.63 187.71L115.639 187.725L116.085 187.587C116.855 187.349 117.638 187.093 118.429 186.834L118.872 186.688L118.666 186.325L116.085 181.772L118.861 180.916L121.388 185.372L121.602 185.75L122.064 185.599C123.041 185.278 124.019 184.958 124.985 184.66L125.441 184.52L125.231 184.149L122.721 179.725L125.499 178.867L128.082 183.421L128.275 183.761L128.708 183.662C131.162 183.102 133.426 182.845 135.348 183.121C137.234 183.392 138.811 184.178 139.944 185.771ZM141.618 200.523C142.131 199.782 142.283 198.933 141.862 197.995L141.876 197.987L141.711 197.698C141.093 196.607 140.08 195.983 138.884 195.697C137.717 195.417 136.402 195.464 135.134 195.65C133.107 195.948 131.045 196.632 129.688 197.082C129.355 197.193 129.064 197.289 128.827 197.362L128.37 197.503L128.581 197.874L132.323 204.473L132.533 204.844L132.99 204.703C133.188 204.642 133.425 204.572 133.693 204.493C135.072 204.086 137.264 203.439 139.041 202.528C140.103 201.983 141.066 201.321 141.618 200.523ZM134.731 191.474C135.142 190.813 135.239 190.055 134.864 189.214L134.878 189.206L134.714 188.917C134.152 187.926 133.269 187.338 132.227 187.052C131.21 186.773 130.081 186.791 129.006 186.936C127.291 187.166 125.559 187.746 124.43 188.123C124.154 188.216 123.914 188.296 123.719 188.356L123.263 188.497L123.473 188.868L126.867 194.853L127.077 195.224L127.534 195.083C127.698 195.032 127.896 194.974 128.12 194.909C129.27 194.572 131.112 194.033 132.591 193.247C133.478 192.776 134.283 192.193 134.731 191.474Z"
    fill="black" stroke="black" stroke-width="0.905384" />
  <path d="M152.575 320.14V230.987L241.671 195.114V282.92L152.575 320.14Z" fill="white"
    stroke="black" stroke-width="1.18894" />
  <mask id="mask0_10137_39516" style="mask-type:alpha" maskUnits="userSpaceOnUse" x="152" y="194"
    width="91" height="127">
    <path d="M153.054 319.838L153.727 231.165L241.671 195.12V282.919L153.054 319.838Z" fill="white"
      stroke="black" stroke-width="1.18894" />
  </mask>
  <g mask="url(#mask0_10137_39516)">
    <rect x="189.222" y="182.963" width="21.2884" height="164.562" fill="#1754F8" stroke="black"
      stroke-width="1.18894" />
  </g>
  <path d="M63.6965 194.551V282.355L152.494 320.183L153.026 231.023L63.6965 194.551Z" fill="white"
    stroke="black" stroke-width="1.18894" />
  <mask id="mask1_10137_39516" style="mask-type:alpha" maskUnits="userSpaceOnUse" x="63" y="193"
    width="91" height="128">
    <path d="M63.6987 194.642L64.5918 282.917L152.494 320.087L153.026 231.024L63.6987 194.642Z"
      fill="white" stroke="black" stroke-width="1.18894" />
  </mask>
  <g mask="url(#mask1_10137_39516)">
    <rect x="98.1692" y="181.213" width="21.2884" height="164.562" fill="#1754F8" stroke="black"
      stroke-width="1.18894" />
  </g>
  <path
    d="M65.8127 260.518C78.2493 258.166 92.9649 268.937 97.3967 278.133C93.3093 275.752 87.991 271.098 80.0932 270.596C66.3267 269.719 63.392 278.988 46.8831 285.175C30.3741 291.363 13.8401 279.624 16.8309 267.68C16.8309 267.68 26.5435 276.074 40.0287 271.109C53.5138 266.143 53.376 262.87 65.8127 260.518Z"
    fill="white" stroke="black" stroke-width="1.28104" />
  <path
    d="M243.934 307.209L243.933 307.018C245.178 304.746 247.472 302.671 250.276 300.76C253.11 298.828 256.434 297.083 259.656 295.481C268.133 291.266 279.019 289.608 289.306 290.455C299.595 291.303 309.209 294.647 315.233 300.376C317.433 302.469 318.406 304.921 318.847 307.516C319.163 309.382 319.2 311.276 319.236 313.143C319.251 313.889 319.265 314.63 319.297 315.363C319.661 323.663 314.195 331.983 303.582 337.259C286.602 345.701 263.068 343.093 250.985 331.6C246.139 326.992 243.845 321.64 243.925 316.332C243.948 314.812 243.95 312.46 243.946 310.491C243.944 309.506 243.94 308.616 243.937 307.972C243.936 307.65 243.935 307.389 243.934 307.209Z"
    fill="white" stroke="black" stroke-width="1.18894" />
  <path
    d="M303.147 327.62C286.167 336.062 262.633 333.453 250.55 321.961C238.467 310.468 242.241 294.283 259.221 285.841C276.201 277.399 299.735 280.008 311.819 291.5C323.902 302.992 320.128 319.178 303.147 327.62Z"
    fill="white" stroke="black" stroke-width="1.18894" />
  <path
    d="M298.542 323.239C285.102 329.921 266.499 327.847 256.96 318.774C247.42 309.701 250.386 296.903 263.827 290.221C277.267 283.539 295.869 285.613 305.409 294.686C314.949 303.76 311.982 316.557 298.542 323.239Z"
    fill="#28AD76" stroke="black" stroke-width="1.18894" />
  <path
    d="M296.213 299.266L295.379 299.448L275.848 309.158L275.811 309.409L288.506 313.722L296.213 299.266Z"
    fill="white" />
  <path d="M296.207 299.263L273.828 299.764L275.806 309.406L285.285 304.693L296.207 299.263Z"
    fill="white" />
  <path
    d="M274.092 310.261L273.866 310.243L266.908 313.702L266.673 313.95L286.789 314.58L274.092 310.261Z"
    fill="white" />
  <path d="M266.669 313.946L274.088 310.257L272.108 300.616L266.669 313.946Z" fill="white" />
  <path d="M275.801 309.402L288.496 313.715L285.281 304.689L275.801 309.402Z" fill="white" />
  <path d="M273.836 299.769L275.814 309.411L285.293 304.698L273.836 299.769Z" fill="white" />
  <path
    d="M189.672 337.328L189.569 337.167C189.405 334.581 190.231 331.601 191.575 328.485C192.934 325.336 194.807 322.082 196.67 319.004C201.572 310.906 209.879 303.676 219.02 298.883C228.163 294.089 238.074 291.765 246.229 293.378C249.208 293.967 251.343 295.518 253.104 297.473C254.371 298.879 255.416 300.46 256.447 302.017C256.858 302.639 257.267 303.257 257.687 303.859C262.438 310.674 262.277 320.628 256.139 330.767C246.319 346.989 225.047 357.388 208.688 354.152C202.128 352.855 197.325 349.563 194.55 345.037C193.756 343.741 192.498 341.755 191.44 340.094C190.911 339.263 190.431 338.513 190.084 337.97C189.91 337.699 189.77 337.48 189.672 337.328Z"
    fill="white" stroke="black" stroke-width="1.18894" />
  <path
    d="M250.611 322.858C240.791 339.08 219.518 349.479 203.16 346.243C186.801 343.008 181.321 327.317 191.141 311.095C200.961 294.873 222.234 284.474 238.593 287.71C254.951 290.945 260.431 306.636 250.611 322.858Z"
    fill="white" stroke="black" stroke-width="1.18894" />
  <path
    d="M244.376 321.625C236.603 334.465 219.782 342.675 206.866 340.12C193.951 337.566 189.604 325.169 197.376 312.329C205.149 299.488 221.971 291.279 234.886 293.833C247.801 296.388 252.149 308.785 244.376 321.625Z"
    fill="#1754F8" stroke="black" stroke-width="1.18894" />
  <path
    d="M229.57 302.625L228.964 303.225L217.669 321.884L217.771 322.116L230.803 318.961L229.57 302.625Z"
    fill="white" />
  <path d="M229.564 302.624L210.932 315.031L217.765 322.115L223.248 313.058L229.564 302.624Z"
    fill="white" />
  <path
    d="M216.776 323.756L216.575 323.862L212.552 330.508L212.485 330.844L229.812 320.604L216.776 323.756Z"
    fill="white" />
  <path d="M212.479 330.842L216.77 323.754L209.935 316.672L212.479 330.842Z" fill="white" />
  <path d="M217.759 322.115L230.79 318.96L223.241 313.059L217.759 322.115Z" fill="white" />
  <path d="M210.941 315.031L217.774 322.115L223.257 313.058L210.941 315.031Z" fill="white" />
  <path
    d="M261.163 150.654C260.941 151.513 260.717 152.337 260.492 153.129L254.989 173.437C255.181 178.447 257.955 183.966 265.726 194.286C270.828 199.109 282.84 208.728 290.075 208.617C287.802 210.379 282.506 213.849 279.501 213.626L281.588 223.644C272.868 221.511 255.207 208.979 254.316 175.919L254.989 173.437C254.779 167.941 257.676 163.059 260.492 153.129L261.163 150.654Z"
    fill="white" />
  <path
    d="M259.235 130.169C261.725 129.847 265.597 133.494 261.163 150.654M261.163 150.654C255.62 172.104 248.751 171.745 265.726 194.286C270.828 199.109 282.84 208.728 290.075 208.617C287.802 210.379 282.506 213.849 279.501 213.626L281.588 223.644C272.868 221.511 255.207 208.979 254.316 175.919L261.163 150.654Z"
    stroke="black" stroke-width="1.28104" />
  <path
    d="M84.0981 271.23C98.1691 274.878 120.863 295.358 121.656 306.756L99.1014 298.119C99.1014 298.119 99.1014 287.138 96.3244 281.02C94.2124 276.368 89.2863 272.592 84.0981 271.23C83.9034 271.18 83.7103 271.133 83.5189 271.089C82.0736 270.761 80.6154 270.624 79.199 270.71C66.0163 270.71 61.3388 278.414 53.3866 282.413C50.1924 284.019 47.25 285.117 44.5329 285.797C32.1324 289.568 13.6697 291.348 5.35344 274.935C-3.22596 258.002 4.31905 240.41 9.16398 233.731L10.0105 248.406L20.311 251.369C20.311 251.369 12.9812 272.285 19.7076 278.661C25.1755 283.845 32.7274 288.754 44.5329 285.797C48.1236 284.705 51.206 283.446 53.3866 282.413C61.3388 278.414 66.0163 270.71 79.199 270.71C80.4922 270.589 81.9471 270.728 83.5189 271.089C83.7122 271.133 83.9054 271.18 84.0981 271.23Z"
    fill="#1754F8" />
  <path
    d="M79.199 270.71C92.0249 269.507 120.762 293.904 121.656 306.756L99.1014 298.119C99.1014 298.119 99.1014 287.138 96.3244 281.02C93.5474 274.903 85.9051 270.302 79.199 270.71ZM79.199 270.71C66.0163 270.71 61.3388 278.414 53.3866 282.413M53.3866 282.413C36.314 290.999 26.434 285.038 19.7076 278.661C12.9812 272.285 20.311 251.369 20.311 251.369L10.0105 248.406L9.16398 233.731C4.31905 240.41 -3.22596 258.002 5.35344 274.935C16.0777 296.101 43.6751 287.012 53.3866 282.413Z"
    stroke="black" stroke-width="1.28104" />
  <path
    d="M271.097 147.437C271.097 139.092 263.207 128.311 259.664 129.338C260.859 132.142 263.127 139.025 262.637 144.126C262.024 150.503 256.751 163.01 255.28 170.981C254.103 177.357 258.959 184.593 261.533 187.414C258.1 170.245 271.097 155.783 271.097 147.437Z"
    fill="#1754F8" stroke="black" stroke-width="1.28104" />
</svg>
  