<svg width="342" height="361" viewBox="0 0 342 361" fill="none" xmlns="http://www.w3.org/2000/svg">
  <path
    d="M187.692 34.9229L187.607 34.7673C187.462 34.7692 187.269 34.7735 187.035 34.7823C186.469 34.8038 185.662 34.8525 184.711 34.9614C182.803 35.1797 180.333 35.6376 178.038 36.5891C175.739 37.5419 173.667 38.9679 172.474 41.0925C171.291 43.2007 170.924 46.0878 172.211 50.0788C177.397 66.1602 188.132 75.9005 199.285 85.8757L210.975 77.9616C209.337 74.8615 203.714 64.4658 198.374 54.6123C195.564 49.4278 192.834 44.3955 190.806 40.6594C189.792 38.7913 188.954 37.2473 188.369 36.1703L187.692 34.9229Z"
    fill="#1754F8" stroke="black" stroke-width="1.08381" />
  <path
    d="M179.714 35.4752C195.09 26.0401 209.377 51.5141 215.5 68.5265L197.484 82.8019C185.786 73.1598 164.338 44.9103 179.714 35.4752Z"
    fill="white" stroke="black" stroke-width="1.08381" />
  <path
    d="M183.833 43.3072C193.344 40.4327 208.206 57.8132 213.109 71.4372L189.735 87.7271C185.302 84.0731 176.475 53.3332 176.475 53.3332C176.475 53.3332 174.322 46.1817 183.833 43.3072Z"
    fill="white" stroke="black" stroke-width="1.08381" />
  <path d="M153.33 158.74V246.343L241.047 282.178L241.578 194.576L153.33 158.74Z" fill="#D1DDFE"
    stroke="black" stroke-width="1.37104" />
  <path d="M152.39 245.526L240.386 282.52L152.39 319.514L64.3945 282.52L152.39 245.526Z"
    fill="#0F0F0F" stroke="black" stroke-width="2.17273" />
  <path d="M64.297 283.144L63.7975 194.197L152.708 158.399V246.01L64.297 283.144Z" fill="#D1DDFE"
    stroke="black" stroke-width="1.37104" />
  <path
    d="M297.415 114.253C297.241 117.968 295.323 120.839 292.245 123.057C289.151 125.285 284.906 126.834 280.166 127.864C270.869 129.883 259.836 129.869 252.343 129.217L249.929 112.324L293.486 95.4576C293.486 95.4589 293.487 95.4601 293.487 95.4614C293.609 95.7966 293.783 96.285 293.99 96.8955C294.405 98.1168 294.955 99.8249 295.494 101.772C296.575 105.682 297.592 110.493 297.415 114.253Z"
    fill="#1754F8" stroke="black" stroke-width="1.08381" />
  <path
    d="M294.05 97.6379C294.788 81.9673 261.941 89.5722 245.426 95.3335L247.961 113.078C263.017 114.461 293.313 113.308 294.05 97.6379Z"
    fill="white" stroke="black" stroke-width="1.08381" />
  <path
    d="M291.94 103.621C295.279 98.0089 275.266 98.5041 252.094 106.009L253.905 113.379C270.238 115.296 288.091 110.088 291.94 103.621Z"
    fill="white" stroke="black" stroke-width="1.08381" />
  <path d="M158.253 45.1204L251.79 82.5372L264.827 171.202L171.29 133.785L158.253 45.1204Z"
    fill="#D1DDFE" stroke="black" stroke-width="1.37104" />
  <path d="M159.029 152.178L172.594 134.659L265.378 172.043L252.008 189.593L159.029 152.178Z"
    fill="#D1DDFE" stroke="black" stroke-width="1.37104" />
  <path
    d="M234.682 33.9482L234.732 33.8273C234.614 33.7195 234.459 33.5798 234.269 33.4141C233.791 32.9972 233.095 32.4163 232.229 31.7641C230.492 30.4575 228.082 28.8757 225.369 27.7496C222.653 26.6221 219.672 25.9676 216.774 26.4625C213.896 26.9541 211.037 28.5894 208.557 32.1636C198.544 46.5941 198.601 61.0788 198.789 76.056L215.424 79.7908C216.819 76.5754 221.488 65.4635 225.904 54.9246C228.218 49.4035 230.461 44.0422 232.126 40.0612C232.959 38.0708 233.647 36.4253 234.126 35.2776L234.682 33.9482Z"
    fill="#1754F8" stroke="black" stroke-width="1.08381" />
  <path
    d="M234.26 33.0832C247.715 37.9952 239.768 65.7285 232.722 81.7382L215.034 78.1615C214.843 63.0434 220.805 28.1712 234.26 33.0832Z"
    fill="white" stroke="black" stroke-width="1.08381" />
  <path d="M143.889 63.179L158.954 152.225L172.656 134.529L157.591 45.4826L143.889 63.179Z"
    fill="white" stroke="black" stroke-width="1.31473" />
  <path d="M157.878 44.6843L251.931 82.5792L237.705 101.253L143.446 63.3236L157.878 44.6843Z"
    fill="white" stroke="black" stroke-width="1.31473" />
  <path d="M237.554 100.928L253.278 191.935L266.979 174.239L251.256 83.232L237.554 100.928Z"
    fill="white" stroke="black" stroke-width="1.31473" />
  <path fill-rule="evenodd" clip-rule="evenodd"
    d="M149.413 152.431L171.16 273.422L183.456 271.212C183.455 271.203 183.453 271.194 183.452 271.185C182.346 265.032 186.437 259.147 192.59 258.041C198.744 256.935 204.628 261.027 205.734 267.18C205.736 267.189 205.737 267.198 205.739 267.206L218.006 265.002L196.26 144.011L149.413 152.431Z"
    fill="white" />
  <path
    d="M171.16 273.422L170.513 273.538L170.629 274.185L171.276 274.069L171.16 273.422ZM149.413 152.431L149.297 151.784L148.65 151.901L148.766 152.548L149.413 152.431ZM183.456 271.212L183.573 271.859L184.221 271.742L184.103 271.094L183.456 271.212ZM183.452 271.185L184.099 271.069L184.099 271.069L183.452 271.185ZM205.739 267.206L205.092 267.321L205.207 267.97L205.855 267.853L205.739 267.206ZM218.006 265.002L218.123 265.649L218.77 265.532L218.653 264.885L218.006 265.002ZM196.26 144.011L196.907 143.895L196.79 143.248L196.143 143.364L196.26 144.011ZM171.807 273.305L150.06 152.315L148.766 152.548L170.513 273.538L171.807 273.305ZM183.34 270.565L171.044 272.775L171.276 274.069L183.573 271.859L183.34 270.565ZM184.103 271.094C184.102 271.085 184.1 271.077 184.099 271.069L182.805 271.301C182.806 271.311 182.808 271.32 182.81 271.329L184.103 271.094ZM184.099 271.069C183.057 265.273 186.911 259.73 192.707 258.688L192.474 257.394C185.964 258.564 181.634 264.791 182.805 271.301L184.099 271.069ZM192.707 258.688C198.502 257.646 204.045 261.5 205.087 267.296L206.381 267.064C205.211 260.553 198.985 256.224 192.474 257.394L192.707 258.688ZM205.087 267.296C205.089 267.305 205.09 267.313 205.092 267.321L206.386 267.092C206.385 267.082 206.383 267.073 206.381 267.064L205.087 267.296ZM217.89 264.355L205.623 266.559L205.855 267.853L218.123 265.649L217.89 264.355ZM195.613 144.127L217.359 265.118L218.653 264.885L196.907 143.895L195.613 144.127ZM149.53 153.078L196.376 144.658L196.143 143.364L149.297 151.784L149.53 153.078Z"
    fill="black" />
  <path
    d="M159.899 167.273L172.18 169.663L172.243 169.572C172.117 169.463 171.991 169.274 171.863 169.006C171.766 168.76 171.678 168.419 171.6 167.984C171.476 167.293 171.527 166.623 171.754 165.974C171.981 165.326 172.321 164.789 172.773 164.364C172.997 164.139 173.24 163.95 173.503 163.797C173.792 163.64 174.162 163.494 174.614 163.36C175.061 163.2 175.627 163.045 176.314 162.896C177.026 162.741 177.919 162.567 178.994 162.374C179.89 162.213 180.622 162.095 181.19 162.019C181.783 161.939 182.291 161.9 182.715 161.904C183.108 161.886 183.454 161.903 183.754 161.955C184.059 162.032 184.381 162.133 184.72 162.257C185.657 162.617 186.431 163.178 187.044 163.94C187.661 164.727 188.066 165.658 188.26 166.733C188.453 167.808 188.382 168.812 188.048 169.744C187.739 170.671 187.221 171.465 186.494 172.124C186.219 172.358 185.952 172.565 185.693 172.743C185.435 172.922 185.121 173.084 184.75 173.23C184.35 173.355 183.858 173.483 183.274 173.614C182.715 173.741 181.988 173.885 181.092 174.046C180.248 174.198 179.541 174.311 178.974 174.387C178.432 174.458 177.964 174.502 177.571 174.52C177.147 174.517 176.76 174.494 176.409 174.452C176.088 174.43 175.737 174.387 175.356 174.324L160.686 171.65L159.899 167.273ZM176.972 166.78C176.384 166.886 175.945 167.163 175.655 167.612C175.366 168.06 175.267 168.54 175.359 169.052C175.451 169.564 175.711 169.98 176.138 170.299C176.566 170.619 177.074 170.725 177.662 170.62L182.73 169.709C183.319 169.603 183.758 169.326 184.047 168.878C184.337 168.429 184.435 167.949 184.343 167.437C184.251 166.925 183.992 166.509 183.564 166.19C183.137 165.87 182.629 165.764 182.04 165.869L176.972 166.78ZM162.467 181.558L174.747 183.948L174.81 183.858C174.685 183.748 174.558 183.559 174.431 183.292C174.334 183.045 174.246 182.704 174.168 182.269C174.044 181.578 174.095 180.908 174.322 180.259C174.549 179.611 174.888 179.074 175.34 178.65C175.564 178.424 175.808 178.235 176.071 178.082C176.36 177.925 176.73 177.779 177.181 177.645C177.628 177.485 178.195 177.331 178.881 177.181C179.593 177.026 180.487 176.853 181.562 176.659C182.458 176.498 183.19 176.38 183.757 176.304C184.351 176.224 184.859 176.186 185.282 176.189C185.675 176.171 186.022 176.188 186.322 176.24C186.626 176.317 186.948 176.418 187.288 176.542C188.224 176.902 188.999 177.463 189.612 178.225C190.229 179.012 190.634 179.943 190.827 181.018C191.02 182.093 190.95 183.097 190.615 184.029C190.306 184.956 189.788 185.75 189.061 186.409C188.786 186.643 188.52 186.85 188.261 187.028C188.003 187.207 187.688 187.369 187.318 187.515C186.918 187.64 186.425 187.768 185.841 187.899C185.283 188.026 184.556 188.17 183.66 188.331C182.815 188.483 182.109 188.597 181.541 188.672C180.999 188.743 180.532 188.788 180.138 188.805C179.715 188.802 179.328 188.779 178.977 188.737C178.656 188.715 178.305 188.673 177.923 188.609L163.254 185.935L162.467 181.558ZM179.54 181.065C178.951 181.171 178.512 181.448 178.223 181.897C177.934 182.345 177.835 182.825 177.927 183.337C178.019 183.849 178.279 184.265 178.706 184.584C179.133 184.904 179.641 185.011 180.23 184.905L185.298 183.994C185.887 183.888 186.326 183.611 186.615 183.163C186.904 182.714 187.003 182.234 186.911 181.722C186.819 181.21 186.559 180.795 186.132 180.475C185.705 180.156 185.197 180.049 184.608 180.155L179.54 181.065ZM165.035 195.843L177.315 198.233L177.378 198.143C177.252 198.033 177.126 197.845 176.999 197.577C176.901 197.33 176.814 196.989 176.735 196.554C176.611 195.863 176.663 195.193 176.89 194.545C177.116 193.896 177.456 193.359 177.908 192.935C178.132 192.709 178.375 192.52 178.638 192.367C178.927 192.21 179.297 192.064 179.749 191.93C180.196 191.77 180.762 191.616 181.449 191.466C182.161 191.311 183.055 191.138 184.13 190.944C185.025 190.783 185.757 190.665 186.325 190.589C186.918 190.509 187.427 190.471 187.85 190.474C188.243 190.456 188.59 190.473 188.89 190.525C189.194 190.602 189.516 190.703 189.855 190.827C190.792 191.187 191.567 191.748 192.179 192.51C192.796 193.297 193.202 194.228 193.395 195.303C193.588 196.379 193.517 197.382 193.183 198.314C192.874 199.242 192.356 200.035 191.629 200.694C191.354 200.928 191.087 201.135 190.829 201.313C190.57 201.492 190.256 201.654 189.886 201.8C189.485 201.925 188.993 202.053 188.409 202.184C187.85 202.311 187.123 202.455 186.227 202.616C185.383 202.768 184.677 202.882 184.109 202.957C183.567 203.028 183.099 203.073 182.706 203.091C182.283 203.087 181.895 203.064 181.544 203.022C181.223 203 180.872 202.958 180.491 202.894L165.821 200.22L165.035 195.843ZM182.108 195.351C181.519 195.456 181.08 195.733 180.79 196.182C180.501 196.63 180.402 197.11 180.494 197.622C180.587 198.134 180.846 198.55 181.274 198.869C181.701 199.189 182.209 199.296 182.798 199.19L187.866 198.279C188.454 198.173 188.893 197.896 189.183 197.448C189.472 196.999 189.571 196.519 189.479 196.007C189.387 195.495 189.127 195.08 188.7 194.76C188.272 194.441 187.764 194.334 187.175 194.44L182.108 195.351ZM167.602 210.128L179.882 212.518L179.945 212.428C179.82 212.318 179.694 212.13 179.566 211.862C179.469 211.615 179.381 211.274 179.303 210.839C179.179 210.148 179.23 209.478 179.457 208.83C179.684 208.181 180.024 207.645 180.476 207.22C180.699 206.995 180.943 206.806 181.206 206.653C181.495 206.495 181.865 206.349 182.316 206.215C182.763 206.056 183.33 205.901 184.017 205.751C184.729 205.597 185.622 205.423 186.697 205.23C187.593 205.069 188.325 204.95 188.893 204.875C189.486 204.794 189.994 204.756 190.417 204.759C190.811 204.741 191.157 204.758 191.457 204.81C191.762 204.887 192.084 204.988 192.423 205.112C193.36 205.472 194.134 206.033 194.747 206.795C195.364 207.582 195.769 208.514 195.962 209.589C196.156 210.664 196.085 211.667 195.75 212.599C195.442 213.527 194.924 214.32 194.196 214.979C193.922 215.214 193.655 215.42 193.396 215.599C193.138 215.777 192.823 215.939 192.453 216.085C192.053 216.21 191.561 216.338 190.977 216.469C190.418 216.596 189.691 216.74 188.795 216.901C187.95 217.053 187.244 217.167 186.676 217.242C186.134 217.313 185.667 217.358 185.274 217.376C184.85 217.372 184.463 217.35 184.112 217.307C183.791 217.285 183.44 217.243 183.058 217.179L168.389 214.505L167.602 210.128ZM184.675 209.636C184.086 209.741 183.647 210.019 183.358 210.467C183.069 210.915 182.97 211.395 183.062 211.907C183.154 212.419 183.414 212.835 183.841 213.154C184.268 213.474 184.777 213.581 185.365 213.475L190.433 212.564C191.022 212.458 191.461 212.181 191.75 211.733C192.04 211.285 192.138 210.804 192.046 210.293C191.954 209.781 191.695 209.365 191.267 209.045C190.84 208.726 190.332 208.619 189.743 208.725L184.675 209.636Z"
    fill="black" />
  <path
    d="M147.519 134.603C146.884 130.189 149.928 125.97 154.318 125.181L184.342 119.785C188.732 118.995 192.805 121.935 193.441 126.349L196.056 144.52L150.134 152.773L147.519 134.603Z"
    fill="#28AD76" stroke="white" stroke-width="1.18894" />
  <path
    d="M153.353 144.897C153.005 144.961 152.757 144.781 152.609 144.356L150.283 137.518L151.562 137.282L153.677 143.674L154.537 143.515L156.095 136.449L157.416 136.206L155.695 143.884C155.647 144.105 155.572 144.266 155.469 144.37C155.368 144.48 155.236 144.55 155.072 144.581L153.353 144.897ZM158.217 140.617C158.141 138.932 158.908 137.941 160.518 137.645L161.009 137.555C162.421 137.295 163.235 137.815 163.451 139.115C163.477 139.273 163.495 139.446 163.505 139.634L163.546 140.515C163.622 142.201 162.855 143.192 161.245 143.488L160.754 143.578C159.342 143.838 158.528 143.317 158.312 142.017C158.286 141.86 158.268 141.687 158.257 141.498L158.217 140.617ZM161.196 142.365C162.014 142.214 162.404 141.681 162.364 140.764L162.324 139.82C162.314 139.68 162.305 139.583 162.296 139.529C162.18 138.831 161.768 138.547 161.058 138.677L160.567 138.768C159.749 138.918 159.359 139.452 159.399 140.368L159.439 141.313C159.448 141.452 159.457 141.549 159.467 141.604C159.582 142.302 159.995 142.586 160.704 142.455L161.196 142.365ZM168.453 140.956L168.245 136.266L169.422 136.05L169.674 141.895L167.106 142.367C165.694 142.627 164.88 142.107 164.664 140.807C164.638 140.649 164.62 140.476 164.61 140.288L164.469 136.961L165.646 136.744L165.791 140.102C165.793 140.194 165.806 140.318 165.832 140.476C165.891 140.831 166.014 141.063 166.201 141.169C166.394 141.275 166.678 141.293 167.053 141.224L168.453 140.956ZM173.005 136.523C172.582 136.6 172.277 136.773 172.089 137.04C171.908 137.306 171.828 137.667 171.847 138.121L171.891 139.023C171.9 139.162 171.91 139.263 171.92 139.324C172.035 140.015 172.443 140.296 173.146 140.167L173.545 140.094C173.852 140.037 174.362 139.912 175.075 139.717L175.144 140.836C174.554 141.008 174.044 141.134 173.615 141.213L173.195 141.29C171.783 141.55 170.97 141.036 170.757 139.75C170.728 139.579 170.709 139.399 170.699 139.21L170.665 138.37C170.631 137.53 170.802 136.864 171.177 136.372C171.551 135.873 172.144 135.549 172.956 135.4L173.335 135.33L174.771 135.087L174.818 136.2L173.005 136.523ZM175.804 132.613L176.981 132.396L177.079 134.642L178.471 134.386C179.883 134.126 180.697 134.646 180.913 135.946C180.939 136.104 180.957 136.277 180.967 136.465L181.108 139.792L179.931 140.009L179.785 136.651C179.776 136.512 179.767 136.414 179.758 136.36C179.642 135.662 179.229 135.378 178.52 135.508L177.128 135.764L177.332 140.487L176.155 140.703L175.804 132.613ZM184.526 133.23C185.229 133.101 185.785 133.171 186.196 133.441C186.612 133.703 186.874 134.159 186.981 134.809C187.006 134.96 187.023 135.126 187.032 135.307L187.073 136.252L183.256 136.954L183.258 136.964C183.269 137.117 183.28 137.221 183.289 137.276C183.346 137.625 183.489 137.867 183.715 138.001C183.947 138.128 184.301 138.147 184.779 138.06L185.28 137.967C185.635 137.902 186.169 137.772 186.882 137.578L186.946 138.666C186.356 138.838 185.822 138.968 185.345 139.055L184.843 139.148C184.018 139.299 183.383 139.244 182.939 138.98C182.501 138.715 182.228 138.257 182.12 137.607C182.094 137.45 182.078 137.287 182.071 137.119L182.03 136.238C181.99 135.399 182.157 134.734 182.532 134.242C182.906 133.743 183.503 133.418 184.321 133.267L184.526 133.23ZM185.854 135.45L185.852 135.44C185.841 135.287 185.83 135.176 185.818 135.108C185.764 134.779 185.634 134.546 185.428 134.407C185.229 134.268 184.942 134.232 184.567 134.301L184.362 134.339C183.557 134.487 183.174 135.019 183.214 135.936L185.854 135.45ZM191.057 133.224C190.632 133.288 190.358 133.331 190.235 133.354C189.798 133.434 189.488 133.601 189.305 133.853C189.121 134.098 189.041 134.466 189.066 134.955L189.2 138.304L188.023 138.521L187.884 135.204C187.842 134.316 187.997 133.639 188.349 133.172C188.707 132.704 189.319 132.391 190.186 132.231C190.527 132.169 190.818 132.126 191.06 132.102L191.057 133.224Z"
    fill="black" />
  <path
    d="M170.176 221.635L170.178 221.633C170.392 218.353 169.345 214.579 167.647 210.643C165.935 206.674 163.576 202.577 161.233 198.706C155.051 188.494 144.577 179.379 133.052 173.336C121.524 167.291 109.01 164.352 98.7027 166.391C94.9184 167.139 92.2146 169.107 89.9927 171.574C88.3959 173.347 87.0755 175.343 85.7786 177.303C85.2623 178.083 84.7498 178.858 84.2249 179.61C78.2282 188.212 78.4347 200.768 86.1739 213.552C98.5532 234.002 125.39 247.138 146.054 243.051C154.338 241.413 160.402 237.256 163.904 231.544C164.903 229.916 166.483 227.419 167.813 225.33C168.479 224.286 169.081 223.343 169.518 222.661C169.736 222.32 169.913 222.045 170.035 221.854L170.176 221.635Z"
    fill="white" stroke="black" stroke-width="1.18894" />
  <path
    d="M93.1258 203.611C105.505 224.061 132.342 237.197 153.006 233.11C173.669 229.023 180.564 209.215 168.185 188.765C155.805 168.315 128.968 155.178 108.305 159.266C87.6409 163.353 80.7465 183.161 93.1258 203.611Z"
    fill="white" stroke="black" stroke-width="1.18894" />
  <path
    d="M101.112 202.03C110.883 218.172 132.029 228.492 148.265 225.281C164.501 222.07 169.966 206.486 160.195 190.344C150.424 174.203 129.278 163.882 113.042 167.094C96.8061 170.305 91.3409 185.889 101.112 202.03Z"
    fill="#FFA963" stroke="black" stroke-width="1.49462" />
  <path
    d="M139.945 185.771L139.952 185.769L139.947 185.771C140.799 186.965 141.097 188.002 141.011 188.906C140.925 189.811 140.452 190.62 139.681 191.347L138.837 192.144L140.173 192.007C142.067 191.814 143.708 191.971 145.067 192.605C146.42 193.235 147.577 194.376 148.411 196.284L148.411 196.284C149.437 198.625 149.074 200.369 147.78 201.801C146.459 203.261 144.135 204.433 141.129 205.529L140.71 205.682L140.909 206.032L143.518 210.633L140.739 211.491L138.169 206.956L137.959 206.585L137.502 206.726C136.548 207.021 135.568 207.316 134.55 207.61L134.08 207.746L134.294 208.125L136.879 212.682L134.105 213.538L131.488 208.928L131.279 208.56L130.824 208.698C130.473 208.804 130.115 208.911 129.753 209.019C129.231 209.175 128.702 209.333 128.175 209.495L128.175 209.495L123.91 210.811L122.883 207.798L122.917 207.788C123.174 207.711 123.517 207.609 123.858 207.507C124.198 207.405 124.538 207.301 124.79 207.221C124.915 207.182 125.023 207.147 125.1 207.12C125.136 207.107 125.176 207.093 125.209 207.079L125.21 207.079C125.215 207.076 125.227 207.072 125.241 207.064C125.848 206.862 126.18 206.534 126.312 206.164C126.441 205.802 126.362 205.444 126.272 205.205L126.262 205.178L126.248 205.153L121.791 197.293L121.756 197.304L121.746 197.281L121.778 197.271L118.596 191.661L118.576 191.626L118.549 191.594C118.268 191.269 117.848 190.917 117.246 190.723C116.649 190.53 115.942 190.514 115.129 190.752C115.115 190.754 115.104 190.756 115.099 190.757L115.097 190.758C115.057 190.765 115.012 190.777 114.974 190.787C114.893 190.808 114.782 190.84 114.655 190.878C114.401 190.955 114.062 191.061 113.725 191.168C113.404 191.27 113.083 191.374 112.834 191.454L111.441 189.001L115.631 187.71L115.64 187.725L116.086 187.587C116.856 187.349 117.639 187.094 118.43 186.834L118.873 186.688L118.667 186.325L116.086 181.772L118.862 180.916L121.389 185.372L121.603 185.75L122.065 185.599C123.042 185.279 124.02 184.958 124.986 184.661L125.442 184.52L125.232 184.149L122.722 179.725L125.5 178.867L128.083 183.421L128.276 183.761L128.709 183.662C131.163 183.102 133.427 182.845 135.349 183.121C137.235 183.392 138.812 184.178 139.945 185.771ZM141.619 200.523C142.132 199.783 142.284 198.933 141.863 197.995L141.876 197.988L141.712 197.698C141.094 196.607 140.081 195.983 138.885 195.697C137.718 195.418 136.403 195.464 135.135 195.651C133.108 195.949 131.046 196.632 129.689 197.082C129.356 197.193 129.065 197.289 128.828 197.362L128.371 197.503L128.582 197.874L132.324 204.473L132.534 204.845L132.991 204.703C133.188 204.642 133.426 204.572 133.694 204.493C135.073 204.086 137.265 203.439 139.042 202.528C140.104 201.983 141.067 201.321 141.619 200.523ZM134.732 191.474C135.143 190.813 135.24 190.055 134.865 189.215L134.879 189.207L134.715 188.917C134.153 187.926 133.27 187.338 132.228 187.052C131.211 186.773 130.082 186.791 129.007 186.936C127.292 187.166 125.56 187.746 124.431 188.123C124.155 188.216 123.915 188.296 123.72 188.356L123.264 188.497L123.474 188.868L126.868 194.853L127.078 195.224L127.535 195.083C127.699 195.032 127.897 194.974 128.121 194.909C129.271 194.572 131.113 194.033 132.592 193.248C133.479 192.776 134.284 192.193 134.732 191.474Z"
    fill="white" stroke="white" stroke-width="0.905384" />
  <path d="M152.575 320.14V230.987L241.671 195.114V282.92L152.575 320.14Z" fill="white"
    stroke="black" stroke-width="1.18894" />
  <mask id="mask0_12703_100204" style="mask-type:alpha" maskUnits="userSpaceOnUse" x="152" y="194"
    width="91" height="127">
    <path d="M153.054 319.838L153.727 231.165L241.671 195.12V282.919L153.054 319.838Z" fill="white"
      stroke="black" stroke-width="1.18894" />
  </mask>
  <g mask="url(#mask0_12703_100204)">
    <rect x="189.223" y="182.963" width="21.2884" height="164.562" fill="#1754F8" stroke="black"
      stroke-width="1.18894" />
  </g>
  <path d="M63.696 194.551V282.355L152.493 320.183L153.025 231.023L63.696 194.551Z" fill="white"
    stroke="black" stroke-width="1.18894" />
  <mask id="mask1_12703_100204" style="mask-type:alpha" maskUnits="userSpaceOnUse" x="63" y="193"
    width="91" height="128">
    <path d="M63.6972 194.642L64.5903 282.917L152.493 320.087L153.025 231.023L63.6972 194.642Z"
      fill="white" stroke="black" stroke-width="1.18894" />
  </mask>
  <g mask="url(#mask1_12703_100204)">
    <rect x="98.1687" y="181.213" width="21.2884" height="164.562" fill="#1754F8" stroke="black"
      stroke-width="1.18894" />
  </g>
  <path
    d="M65.8112 260.518C78.2479 258.166 92.9635 268.937 97.3953 278.133C93.3078 275.752 87.9896 271.098 80.0917 270.596C66.3253 269.719 63.3905 278.988 46.8816 285.175C30.3727 291.363 13.8386 279.624 16.8294 267.68C16.8294 267.68 26.542 276.074 40.0272 271.109C53.5124 266.143 53.3745 262.87 65.8112 260.518Z"
    fill="white" stroke="black" stroke-width="1.28104" />
  <path
    d="M243.933 307.209L243.932 307.018C245.178 304.746 247.471 302.671 250.276 300.76C253.109 298.828 256.433 297.083 259.655 295.481C268.132 291.266 279.019 289.609 289.305 290.456C299.594 291.303 309.209 294.647 315.233 300.376C317.433 302.469 318.406 304.921 318.846 307.516C319.163 309.382 319.199 311.276 319.236 313.144C319.25 313.889 319.265 314.63 319.297 315.363C319.66 323.663 314.194 331.983 303.581 337.259C286.601 345.701 263.067 343.093 250.984 331.601C246.139 326.992 243.845 321.64 243.925 316.332C243.947 314.812 243.949 312.461 243.945 310.491C243.943 309.506 243.94 308.616 243.937 307.972C243.935 307.65 243.934 307.389 243.933 307.209Z"
    fill="white" stroke="black" stroke-width="1.18894" />
  <path
    d="M303.147 327.62C286.167 336.062 262.633 333.453 250.55 321.961C238.467 310.469 242.241 294.283 259.221 285.841C276.201 277.399 299.735 280.008 311.819 291.5C323.902 302.992 320.128 319.178 303.147 327.62Z"
    fill="white" stroke="black" stroke-width="1.18894" />
  <path
    d="M298.542 323.239C285.101 329.921 266.499 327.847 256.959 318.774C247.419 309.701 250.386 296.903 263.826 290.221C277.266 283.539 295.869 285.613 305.409 294.686C314.948 303.76 311.982 316.557 298.542 323.239Z"
    fill="#28AD76" stroke="black" stroke-width="1.18894" />
  <path
    d="M296.215 299.266L295.382 299.448L275.851 309.158L275.813 309.409L288.508 313.722L296.215 299.266Z"
    fill="white" />
  <path d="M296.207 299.263L273.828 299.764L275.806 309.406L285.285 304.693L296.207 299.263Z"
    fill="white" />
  <path
    d="M274.094 310.261L273.867 310.243L266.91 313.702L266.674 313.95L286.79 314.58L274.094 310.261Z"
    fill="white" />
  <path d="M266.67 313.946L274.09 310.257L272.109 300.616L266.67 313.946Z" fill="white" />
  <path d="M275.801 309.402L288.497 313.716L285.281 304.689L275.801 309.402Z" fill="white" />
  <path d="M273.836 299.769L275.814 309.411L285.293 304.698L273.836 299.769Z" fill="white" />
  <path
    d="M189.671 337.328L189.568 337.167C189.404 334.581 190.23 331.601 191.574 328.485C192.933 325.336 194.806 322.082 196.669 319.004C201.571 310.906 209.878 303.676 219.019 298.883C228.162 294.089 238.073 291.765 246.228 293.378C249.207 293.967 251.342 295.517 253.103 297.473C254.37 298.879 255.415 300.46 256.446 302.017C256.857 302.639 257.266 303.257 257.686 303.859C262.437 310.674 262.276 320.627 256.138 330.767C246.319 346.989 225.046 357.388 208.687 354.152C202.127 352.855 197.324 349.563 194.549 345.037C193.755 343.741 192.497 341.754 191.439 340.093C190.91 339.262 190.43 338.512 190.083 337.97C189.909 337.699 189.769 337.48 189.671 337.328Z"
    fill="white" stroke="black" stroke-width="1.18894" />
  <path
    d="M250.61 322.858C240.79 339.08 219.518 349.479 203.159 346.243C186.8 343.008 181.321 327.317 191.141 311.095C200.961 294.873 222.233 284.474 238.592 287.71C254.951 290.945 260.43 306.636 250.61 322.858Z"
    fill="white" stroke="black" stroke-width="1.18894" />
  <path
    d="M244.375 321.625C236.602 334.465 219.78 342.675 206.865 340.12C193.95 337.566 189.602 325.169 197.375 312.329C205.148 299.488 221.969 291.279 234.884 293.833C247.8 296.388 252.147 308.785 244.375 321.625Z"
    fill="#1754F8" stroke="black" stroke-width="1.18894" />
  <path
    d="M229.569 302.625L228.962 303.225L217.667 321.884L217.77 322.116L230.801 318.961L229.569 302.625Z"
    fill="white" />
  <path d="M229.565 302.624L210.933 315.031L217.766 322.115L223.249 313.058L229.565 302.624Z"
    fill="white" />
  <path
    d="M216.775 323.756L216.574 323.862L212.55 330.509L212.484 330.844L229.811 320.605L216.775 323.756Z"
    fill="white" />
  <path d="M212.477 330.842L216.768 323.754L209.934 316.672L212.477 330.842Z" fill="white" />
  <path d="M217.76 322.116L230.791 318.96L223.242 313.059L217.76 322.116Z" fill="white" />
  <path d="M210.941 315.031L217.774 322.115L223.257 313.058L210.941 315.031Z" fill="white" />
  <path
    d="M261.163 150.654C260.941 151.513 260.717 152.337 260.492 153.129L254.989 173.436C255.181 178.447 257.955 183.966 265.726 194.286C270.828 199.109 282.84 208.728 290.075 208.617C287.802 210.379 282.506 213.849 279.501 213.626L281.588 223.644C272.868 221.51 255.207 208.979 254.316 175.919L254.989 173.436C254.779 167.941 257.676 163.059 260.492 153.129L261.163 150.654Z"
    fill="white" />
  <path
    d="M259.235 130.169C261.725 129.847 265.597 133.494 261.163 150.654M261.163 150.654C255.62 172.104 248.751 171.745 265.726 194.286C270.828 199.109 282.84 208.728 290.075 208.617C287.802 210.379 282.506 213.849 279.501 213.626L281.588 223.644C272.868 221.51 255.207 208.979 254.316 175.919L261.163 150.654Z"
    stroke="black" stroke-width="1.28104" />
  <path
    d="M84.0962 271.23C98.1671 274.878 120.861 295.358 121.655 306.755L99.0994 298.119C99.0994 298.119 99.0994 287.138 96.3224 281.02C94.2104 276.368 89.2843 272.592 84.0962 271.23C83.9014 271.18 83.7083 271.133 83.517 271.089C82.0717 270.761 80.6135 270.624 79.1971 270.71C66.0143 270.71 61.3369 278.414 53.3847 282.413C50.1905 284.019 47.2481 285.116 44.531 285.797C32.1304 289.568 13.6677 291.348 5.35148 274.934C-3.22791 258.001 4.3171 240.41 9.16202 233.731L10.0086 248.406L20.309 251.369C20.309 251.369 12.9793 272.285 19.7057 278.661C25.1736 283.845 32.7255 288.753 44.531 285.797C48.1216 284.705 51.204 283.446 53.3847 282.413C61.3369 278.414 66.0143 270.71 79.1971 270.71C80.4902 270.589 81.9451 270.728 83.517 271.089C83.7103 271.132 83.9034 271.18 84.0962 271.23Z"
    fill="#1754F8" />
  <path
    d="M79.1971 270.71C92.0229 269.507 120.76 293.904 121.654 306.755L99.0994 298.119C99.0994 298.119 99.0994 287.138 96.3224 281.02C93.5454 274.903 85.9031 270.302 79.1971 270.71ZM79.1971 270.71C66.0143 270.71 61.3369 278.414 53.3847 282.413M53.3847 282.413C36.3121 290.998 26.4321 285.038 19.7057 278.661C12.9793 272.285 20.309 251.369 20.309 251.369L10.0086 248.406L9.16202 233.731C4.3171 240.41 -3.22791 258.001 5.35148 274.934C16.0757 296.101 43.6731 287.012 53.3847 282.413Z"
    stroke="black" stroke-width="1.28104" />
  <path
    d="M271.096 147.437C271.096 139.092 263.206 128.311 259.662 129.338C260.858 132.142 263.126 139.025 262.635 144.126C262.022 150.503 256.75 163.01 255.279 170.981C254.101 177.357 258.957 184.593 261.532 187.414C258.099 170.245 271.096 155.783 271.096 147.437Z"
    fill="#1754F8" stroke="black" stroke-width="1.28104" />
</svg>
  