<svg width="171" height="27" viewBox="0 0 171 27" fill="none" xmlns="http://www.w3.org/2000/svg">
<path fill-rule="evenodd" clip-rule="evenodd" d="M0 0.714355H12C16.6243 0.714355 20.6376 3.33 22.6412 7.16249H13.9709V7.16193H10.3889V7.16249H0V0.714355ZM10.3889 10.7446H0V24.7144H10.3889L10.3889 10.7446ZM13.9709 24.5533C19.6607 23.6131 24 18.6705 24 12.7144C24 12.0435 23.9449 11.3855 23.8391 10.7446H13.9709L13.9709 24.5533Z" fill="#1754F8"/>
<path d="M32.8161 3.48564H46.4001V6.48564H41.3121V20.2856H38.0961V6.48564H32.8161V3.48564ZM46.5141 7.56564H49.6341V9.46164C50.0501 8.74164 50.5941 8.22164 51.2661 7.90164C51.9381 7.58164 52.6261 7.42164 53.3301 7.42164C53.6661 7.42164 54.0181 7.45364 54.3861 7.51764V10.8536C53.8901 10.6936 53.4101 10.6136 52.9461 10.6136C52.2901 10.6136 51.5701 10.8456 50.7861 11.3096C50.0181 11.7576 49.6341 12.5896 49.6341 13.8056V20.2856H46.5141V7.56564ZM56.2061 9.24564C57.4381 7.98164 58.9261 7.34964 60.6701 7.34964C62.1901 7.34964 63.4621 7.88564 64.4861 8.95764V7.56564H67.6061V20.2856H64.4861V18.9176C63.4781 19.9576 62.2061 20.4776 60.6701 20.4776C58.9421 20.4776 57.4541 19.8296 56.2061 18.5336C54.9741 17.2376 54.3581 15.7016 54.3581 13.9256C54.3581 12.0856 54.9741 10.5256 56.2061 9.24564ZM57.2861 13.9256C57.2861 14.9496 57.6381 15.8296 58.3421 16.5656C59.0621 17.2856 59.9421 17.6456 60.9821 17.6456C61.9901 17.6456 62.8541 17.2776 63.5741 16.5416C64.3101 15.8056 64.6781 14.9336 64.6781 13.9256C64.6781 12.9176 64.3101 12.0456 63.5741 11.3096C62.8541 10.5576 61.9901 10.1816 60.9821 10.1816C59.9421 10.1816 59.0621 10.5496 58.3421 11.2856C57.6381 12.0216 57.2861 12.9016 57.2861 13.9256ZM70.668 9.24564C71.9 7.98164 73.388 7.34964 75.132 7.34964C76.652 7.34964 77.924 7.88564 78.948 8.95764V3.48564H82.068V20.2856H78.948V18.9176C77.94 19.9576 76.668 20.4776 75.132 20.4776C73.404 20.4776 71.916 19.8296 70.668 18.5336C69.436 17.2376 68.82 15.7016 68.82 13.9256C68.82 12.0856 69.436 10.5256 70.668 9.24564ZM71.748 13.9256C71.748 14.9496 72.1 15.8296 72.804 16.5656C73.524 17.2856 74.404 17.6456 75.444 17.6456C76.452 17.6456 77.316 17.2776 78.036 16.5416C78.772 15.8056 79.14 14.9336 79.14 13.9256C79.14 12.9176 78.772 12.0456 78.036 11.3096C77.316 10.5576 76.452 10.1816 75.444 10.1816C74.404 10.1816 73.524 10.5496 72.804 11.2856C72.1 12.0216 71.748 12.9016 71.748 13.9256ZM85.2019 9.24564C86.4819 7.98164 88.0259 7.34964 89.8339 7.34964C91.4019 7.34964 92.7859 7.86164 93.9859 8.88564C95.2019 9.89364 95.9539 11.1576 96.2419 12.6776C96.3379 13.1256 96.3859 13.5576 96.3859 13.9736C96.3859 14.3576 96.3459 14.7256 96.2659 15.0776H86.3779C86.5539 15.9096 86.9539 16.5576 87.5779 17.0216C88.2019 17.4856 88.9539 17.7176 89.8339 17.7176C91.1619 17.7176 92.2499 17.2776 93.0979 16.3976L95.8339 17.1416C95.3379 18.1496 94.5139 18.9576 93.3619 19.5656C92.2259 20.1736 91.0499 20.4776 89.8339 20.4776C88.0099 20.4776 86.4579 19.8376 85.1779 18.5576C83.9139 17.2616 83.2819 15.7176 83.2819 13.9256C83.2819 12.0856 83.9219 10.5256 85.2019 9.24564ZM86.3779 12.7016H93.2179C93.0419 11.9656 92.6499 11.3496 92.0419 10.8536C91.4339 10.3576 90.6899 10.1096 89.8099 10.1096C88.9299 10.1096 88.1779 10.3576 87.5539 10.8536C86.9459 11.3496 86.5539 11.9656 86.3779 12.7016ZM97.5178 20.3096V3.46164H103.686C106.086 3.46164 108.118 4.27764 109.782 5.90964C111.446 7.52564 112.278 8.93364 112.278 10.1336C112.294 11.3176 112.302 11.9256 112.302 11.9576C112.302 14.2936 111.47 16.2696 109.806 17.8856C108.158 19.5016 106.118 20.3096 103.686 20.3096H97.5178ZM100.782 17.2856H103.686C105.302 17.2856 106.614 16.7736 107.622 15.7496C108.63 14.7256 109.134 13.4376 109.134 11.8856C109.134 10.3176 108.63 9.02964 107.622 8.02164C106.614 6.99764 105.302 6.48564 103.686 6.48564H100.782V17.2856ZM114.804 9.24564C116.036 7.98164 117.524 7.34964 119.268 7.34964C120.788 7.34964 122.06 7.88564 123.084 8.95764V7.56564H126.204V20.2856H123.084V18.9176C122.076 19.9576 120.804 20.4776 119.268 20.4776C117.54 20.4776 116.052 19.8296 114.804 18.5336C113.572 17.2376 112.956 15.7016 112.956 13.9256C112.956 12.0856 113.572 10.5256 114.804 9.24564ZM115.884 13.9256C115.884 14.9496 116.236 15.8296 116.94 16.5656C117.66 17.2856 118.54 17.6456 119.58 17.6456C120.588 17.6456 121.452 17.2776 122.172 16.5416C122.908 15.8056 123.276 14.9336 123.276 13.9256C123.276 12.9176 122.908 12.0456 122.172 11.3096C121.452 10.5576 120.588 10.1816 119.58 10.1816C118.54 10.1816 117.66 10.5496 116.94 11.2856C116.236 12.0216 115.884 12.9016 115.884 13.9256ZM129.265 9.24564C130.497 7.98164 131.985 7.34964 133.729 7.34964C135.249 7.34964 136.521 7.88564 137.545 8.95764V3.48564H140.665V20.2856H137.545V18.9176C136.537 19.9576 135.265 20.4776 133.729 20.4776C132.001 20.4776 130.513 19.8296 129.265 18.5336C128.033 17.2376 127.417 15.7016 127.417 13.9256C127.417 12.0856 128.033 10.5256 129.265 9.24564ZM130.345 13.9256C130.345 14.9496 130.697 15.8296 131.401 16.5656C132.121 17.2856 133.001 17.6456 134.041 17.6456C135.049 17.6456 135.913 17.2776 136.633 16.5416C137.369 15.8056 137.737 14.9336 137.737 13.9256C137.737 12.9176 137.369 12.0456 136.633 11.3096C135.913 10.5576 135.049 10.1816 134.041 10.1816C133.001 10.1816 132.121 10.5496 131.401 11.2856C130.697 12.0216 130.345 12.9016 130.345 13.9256ZM143.727 9.24564C144.959 7.98164 146.447 7.34964 148.191 7.34964C149.711 7.34964 150.983 7.88564 152.007 8.95764V3.48564H155.127V20.2856H152.007V18.9176C150.999 19.9576 149.727 20.4776 148.191 20.4776C146.463 20.4776 144.975 19.8296 143.727 18.5336C142.495 17.2376 141.879 15.7016 141.879 13.9256C141.879 12.0856 142.495 10.5256 143.727 9.24564ZM144.807 13.9256C144.807 14.9496 145.159 15.8296 145.863 16.5656C146.583 17.2856 147.463 17.6456 148.503 17.6456C149.511 17.6456 150.375 17.2776 151.095 16.5416C151.831 15.8056 152.199 14.9336 152.199 13.9256C152.199 12.9176 151.831 12.0456 151.095 11.3096C150.375 10.5576 149.511 10.1816 148.503 10.1816C147.463 10.1816 146.583 10.5496 145.863 11.2856C145.159 12.0216 144.807 12.9016 144.807 13.9256ZM155.741 7.56564H159.077L162.629 16.5416L165.989 7.56564H169.301L162.245 25.3256H159.005L161.021 20.2136L155.741 7.56564Z" fill="black"/>
</svg>
