<svg width="97" height="27" viewBox="0 0 97 27" fill="none" xmlns="http://www.w3.org/2000/svg">
<path fill-rule="evenodd" clip-rule="evenodd" d="M0 0.714355H12C16.6243 0.714355 20.6376 3.33 22.6412 7.16249H13.9709V7.16193H10.3889V7.16249H0V0.714355ZM10.3889 10.7446H0V24.7144H10.3889L10.3889 10.7446ZM13.9709 24.5533C19.6607 23.6131 24 18.6705 24 12.7144C24 12.0435 23.9449 11.3855 23.8391 10.7446H13.9709L13.9709 24.5533Z" fill="#1754F8"/>
<path d="M45.416 4.48564V7.48564H36.584V11.4216H44.456V14.3496H36.584V18.2856H45.416V21.2856H33.344V4.48564H45.416ZM46.1718 4.48564H49.6038L53.5878 12.3816L57.5718 4.48564H61.0038L55.2438 15.9336V21.2856H52.0038V16.0296L46.1718 4.48564ZM62.3362 6.83764C64.0002 5.15764 66.0162 4.31764 68.3842 4.31764C70.7362 4.31764 72.7442 5.15764 74.4082 6.83764C76.0882 8.51764 76.9362 10.5416 76.9522 12.9096C76.9522 14.9576 76.2802 16.7976 74.9362 18.4296L77.6002 21.2856H74.1442L73.0402 20.0856C71.6322 21.0136 70.0802 21.4776 68.3842 21.4776C66.0162 21.4776 63.9922 20.6456 62.3122 18.9816C60.6482 17.3016 59.8162 15.2776 59.8162 12.9096C59.8162 10.5416 60.6562 8.51764 62.3362 6.83764ZM64.5922 16.8216C65.6002 17.9096 66.8642 18.4536 68.3842 18.4536C69.2962 18.4536 70.1442 18.2376 70.9282 17.8056L67.0402 13.6776H70.5202L72.7522 16.0536C73.3922 15.1736 73.7122 14.1256 73.7122 12.9096C73.7122 11.3576 73.2002 10.0376 72.1762 8.94964C71.1682 7.86164 69.9042 7.31764 68.3842 7.31764C66.8802 7.31764 65.6162 7.86164 64.5922 8.94964C63.5682 10.0376 63.0562 11.3576 63.0562 12.9096C63.0562 14.4456 63.5682 15.7496 64.5922 16.8216ZM80.5246 6.83764C82.1886 5.15764 84.2046 4.31764 86.5726 4.31764C88.9246 4.31764 90.9326 5.15764 92.5966 6.83764C94.2766 8.51764 95.1246 10.5416 95.1406 12.9096C95.1406 14.9576 94.4686 16.7976 93.1246 18.4296L95.7886 21.2856H92.3326L91.2286 20.0856C89.8206 21.0136 88.2686 21.4776 86.5726 21.4776C84.2046 21.4776 82.1806 20.6456 80.5006 18.9816C78.8366 17.3016 78.0046 15.2776 78.0046 12.9096C78.0046 10.5416 78.8446 8.51764 80.5246 6.83764ZM82.7806 16.8216C83.7886 17.9096 85.0526 18.4536 86.5726 18.4536C87.4846 18.4536 88.3326 18.2376 89.1166 17.8056L85.2286 13.6776H88.7086L90.9406 16.0536C91.5806 15.1736 91.9006 14.1256 91.9006 12.9096C91.9006 11.3576 91.3886 10.0376 90.3646 8.94964C89.3566 7.86164 88.0926 7.31764 86.5726 7.31764C85.0686 7.31764 83.8046 7.86164 82.7806 8.94964C81.7566 10.0376 81.2446 11.3576 81.2446 12.9096C81.2446 14.4456 81.7566 15.7496 82.7806 16.8216Z" fill="black"/>
</svg>
