<svg width="110" height="110" viewBox="0 0 110 110" fill="none" xmlns="http://www.w3.org/2000/svg">
<rect x="18.8" y="30.9998" width="85.6" height="50.4" rx="3.6" stroke="black" stroke-width="2.4"/>
<line x1="105.6" y1="60.6004" x2="17.6" y2="60.6004" stroke="black" stroke-width="2.4"/>
<line x1="97.6" y1="74.9998" x2="86.4" y2="74.9998" stroke="black" stroke-width="2.4"/>
<rect x="4" y="1" width="76.8" height="40" rx="4" fill="#1754F8"/>
<path d="M24.686 27.504C23.9753 28.3533 22.9873 28.8907 21.722 29.116V31.56H19.044V29.168C17.7613 28.9947 16.7387 28.4573 15.976 27.556C15.248 26.724 14.8407 25.5713 14.754 24.098H17.744C17.848 24.982 18.108 25.5887 18.524 25.918C18.9227 26.282 19.5293 26.464 20.344 26.464C21.8347 26.464 22.58 25.788 22.58 24.436C22.58 23.8467 22.4327 23.3787 22.138 23.032C21.8607 22.7373 21.384 22.5207 20.708 22.382L19.434 22.148C17.978 21.888 16.9033 21.3853 16.21 20.64C15.4993 19.8947 15.144 18.8807 15.144 17.598C15.144 16.298 15.4907 15.2407 16.184 14.426C16.8947 13.5767 17.848 13.0393 19.044 12.814V10.76H21.722V12.84C22.866 13.0827 23.7587 13.6027 24.4 14.4C25.076 15.232 25.4487 16.2807 25.518 17.546H22.45C22.3807 16.7833 22.1727 16.2373 21.826 15.908C21.4967 15.5787 20.9767 15.414 20.266 15.414C19.6073 15.414 19.1133 15.5787 18.784 15.908C18.4373 16.2547 18.264 16.74 18.264 17.364C18.264 17.9187 18.4287 18.352 18.758 18.664C19.1047 18.9933 19.642 19.2187 20.37 19.34L21.852 19.626C23.1693 19.8687 24.1487 20.3627 24.79 21.108C25.4313 21.8533 25.752 22.876 25.752 24.176C25.752 25.5453 25.3967 26.6547 24.686 27.504ZM27.9868 14.322L31.0028 12.06H34.4088V30H31.0028V15.83L27.9868 18.014V14.322ZM43.2918 19.574C43.9505 18.6727 44.2798 17.832 44.2798 17.052V16.688C44.2798 16.0467 44.1152 15.5527 43.7858 15.206C43.4565 14.842 42.9972 14.66 42.4078 14.66C41.8358 14.66 41.3852 14.8507 41.0558 15.232C40.7265 15.6133 40.5618 16.142 40.5618 16.818V17.234H37.2598V16.61C37.2598 15.6567 37.4765 14.8247 37.9098 14.114C38.3258 13.386 38.9325 12.814 39.7298 12.398C40.5445 11.982 41.4805 11.774 42.5378 11.774C43.5778 11.774 44.4965 11.9907 45.2938 12.424C46.0738 12.8573 46.6805 13.438 47.1138 14.166C47.5298 14.894 47.7378 15.7 47.7378 16.584V17.026C47.7378 17.8407 47.5992 18.56 47.3218 19.184C47.0098 19.8773 46.6025 20.5533 46.0998 21.212L41.6278 27.01H47.7378V30H37.3378V27.296L43.2918 19.574ZM49.8481 14.322L52.8641 12.06H56.2701V30H52.8641V15.83L49.8481 18.014V14.322ZM60.5772 28.726C59.6932 27.7033 59.2512 26.1607 59.2512 24.098V17.754C59.2512 15.7953 59.7105 14.3047 60.6292 13.282C61.5305 12.2767 62.8565 11.774 64.6072 11.774C66.4272 11.774 67.7792 12.2767 68.6632 13.282C69.5298 14.3047 69.9632 15.7953 69.9632 17.754V24.098C69.9632 26.126 69.5298 27.6687 68.6632 28.726C67.7792 29.766 66.4272 30.286 64.6072 30.286C62.7872 30.286 61.4438 29.766 60.5772 28.726ZM66.1672 26.516C66.4272 25.996 66.5572 25.0947 66.5572 23.812V18.248C66.5572 16.9653 66.4272 16.064 66.1672 15.544C65.8898 15.024 65.3698 14.764 64.6072 14.764C63.8445 14.764 63.3332 15.024 63.0732 15.544C62.8132 16.064 62.6832 16.9653 62.6832 18.248V23.812C62.6832 25.112 62.8218 26.0133 63.0992 26.516C63.3592 27.0533 63.8618 27.322 64.6072 27.322C65.3698 27.322 65.8898 27.0533 66.1672 26.516Z" fill="white"/>
<circle cx="29.6" cy="83.3998" r="25.6" fill="#D4DFFF"/>
<path d="M41.0525 79.7923C41.575 76.71 38.9151 75.0532 35.278 73.9479L36.4579 69.7728L33.577 69.1395L32.4284 73.2047C31.6711 73.0381 30.8933 72.881 30.1203 72.7254L31.2772 68.6333L28.3982 68L27.2176 72.1738C26.5909 72.0479 25.9753 71.9235 25.3781 71.7924L25.3814 71.7793L21.4087 70.9041L20.6423 73.6186C20.6423 73.6186 22.7797 74.0508 22.7346 74.0774C23.9012 74.3343 24.1122 75.0156 24.0772 75.5556L22.7331 80.3121C22.8134 80.3301 22.9176 80.3562 23.0326 80.3969C22.9365 80.3759 22.8342 80.3529 22.7281 80.3305L20.8442 86.9937C20.7016 87.3063 20.3398 87.7756 19.5241 87.5974C19.553 87.6343 17.4303 87.1364 17.4303 87.1364L16 90.0457L19.749 90.8702C20.4464 91.0245 21.1298 91.1859 21.8029 91.3377L20.6108 95.5608L23.4883 96.1941L24.6689 92.0159C25.455 92.2041 26.2178 92.3778 26.9647 92.5415L25.7881 96.7L28.6691 97.3333L29.8611 93.1182C34.7735 93.9384 38.4673 93.6077 40.0221 89.6877C41.2749 86.5316 39.9597 84.7112 37.3753 83.5241C39.2576 83.1411 40.6755 82.0489 41.0535 79.7926L41.0526 79.792L41.0525 79.7923ZM34.4704 87.935C33.5801 91.0911 27.5569 89.385 25.6041 88.9572L27.186 83.3623C29.1387 83.7924 35.4009 84.6435 34.4705 87.935H34.4704ZM35.3614 79.7465C34.5492 82.6173 29.536 81.1588 27.9098 80.8012L29.344 75.727C30.9703 76.0847 36.2074 76.7521 35.3616 79.7465H35.3614Z" fill="#1754F8"/>
</svg>
