<svg width="110" height="110" viewBox="0 0 110 110" fill="none" xmlns="http://www.w3.org/2000/svg">
<rect x="18.7996" y="31" width="85.6" height="50.4" rx="3.6" stroke="white" stroke-width="2.4"/>
<line x1="105.6" y1="60.5999" x2="17.5996" y2="60.5999" stroke="white" stroke-width="2.4"/>
<line x1="97.5996" y1="75" x2="86.3996" y2="75" stroke="white" stroke-width="2.4"/>
<rect x="4" y="1" width="76.8" height="40" rx="4" fill="#1754F8"/>
<circle cx="29.6" cy="83.4" r="25.6" fill="#D4DFFF"/>
<path d="M41.0525 79.7923C41.575 76.71 38.9151 75.0532 35.278 73.9479L36.4579 69.7728L33.577 69.1395L32.4284 73.2047C31.6711 73.0381 30.8933 72.881 30.1203 72.7254L31.2772 68.6333L28.3982 68L27.2176 72.1738C26.5909 72.0479 25.9753 71.9235 25.3781 71.7924L25.3814 71.7793L21.4087 70.9041L20.6423 73.6186C20.6423 73.6186 22.7797 74.0508 22.7346 74.0774C23.9012 74.3343 24.1122 75.0156 24.0772 75.5556L22.7331 80.3121C22.8134 80.3301 22.9176 80.3562 23.0326 80.3969C22.9365 80.3759 22.8342 80.3529 22.7281 80.3305L20.8442 86.9937C20.7016 87.3063 20.3398 87.7756 19.5241 87.5974C19.553 87.6343 17.4303 87.1364 17.4303 87.1364L16 90.0457L19.749 90.8702C20.4464 91.0245 21.1298 91.1859 21.8029 91.3377L20.6108 95.5608L23.4883 96.1941L24.6689 92.0159C25.455 92.2041 26.2178 92.3778 26.9647 92.5415L25.7881 96.7L28.6691 97.3333L29.8611 93.1182C34.7735 93.9384 38.4673 93.6077 40.0221 89.6877C41.2749 86.5316 39.9597 84.7112 37.3753 83.5241C39.2576 83.1411 40.6755 82.0489 41.0535 79.7926L41.0526 79.792L41.0525 79.7923ZM34.4704 87.935C33.5801 91.0911 27.5569 89.385 25.6041 88.9572L27.186 83.3623C29.1387 83.7924 35.4009 84.6435 34.4705 87.935H34.4704ZM35.3614 79.7465C34.5492 82.6173 29.536 81.1588 27.9098 80.8012L29.344 75.727C30.9703 76.0847 36.2074 76.7521 35.3616 79.7465H35.3614Z" fill="#1754F8"/>
<path d="M62.2573 28.808C59.5453 28.808 57.3613 26.96 57.3613 23.936V16.352C57.3613 13.328 59.5453 11.48 62.2573 11.48C64.9933 11.48 67.1773 13.328 67.1773 16.352V23.936C67.1773 26.96 64.9933 28.808 62.2573 28.808ZM62.2573 26.024C63.6733 26.024 64.5133 24.992 64.5133 23.504V16.784C64.5133 15.296 63.6733 14.264 62.2573 14.264C60.8653 14.264 60.0253 15.296 60.0253 16.784V23.504C60.0253 24.992 60.8653 26.024 62.2573 26.024Z" fill="white"/>
<path d="M49.4605 28.808C46.7485 28.808 44.5645 26.96 44.5645 23.936V16.352C44.5645 13.328 46.7485 11.48 49.4605 11.48C52.1965 11.48 54.3805 13.328 54.3805 16.352V23.936C54.3805 26.96 52.1965 28.808 49.4605 28.808ZM49.4605 26.024C50.8765 26.024 51.7165 24.992 51.7165 23.504V16.784C51.7165 15.296 50.8765 14.264 49.4605 14.264C48.0685 14.264 47.2285 15.296 47.2285 16.784V23.504C47.2285 24.992 48.0685 26.024 49.4605 26.024Z" fill="white"/>
<path d="M36.3271 11.7681H38.7271C38.8951 11.7681 39.0151 11.8881 39.0151 12.0561V28.2321C39.0151 28.4001 38.8951 28.5201 38.7271 28.5201H36.5431C36.3751 28.5201 36.2551 28.4001 36.2551 28.2321V14.8641L33.2311 17.6241C33.0631 17.7921 32.8711 17.6961 32.8711 17.4561V14.8161C32.8711 14.6721 32.9431 14.5521 33.0391 14.4561L35.9911 11.9121C36.0871 11.8161 36.1831 11.7681 36.3271 11.7681Z" fill="white"/>
<path d="M24.4088 30.4881H22.0328V28.3521C19.6088 28.1601 18.0008 27.128 16.8008 25.7361L18.7448 23.96C19.6808 25.04 20.8328 25.76 22.2488 25.952V21.0801C18.7448 20.3361 17.2808 18.824 17.2808 16.472C17.2808 13.928 19.0328 12.296 22.0328 11.96V9.80005H24.4088V11.96C26.4008 12.176 27.8408 12.968 28.9208 14.288L26.9528 15.992C26.3288 15.224 25.4648 14.624 24.1928 14.36V18.824C27.6008 19.616 29.1608 20.96 29.1608 23.432C29.1608 25.9041 27.5528 27.8241 24.4088 28.2801V30.4881ZM20.1848 16.352C20.1848 17.48 20.8328 18.008 22.2488 18.3921V14.336C20.8808 14.576 20.1848 15.272 20.1848 16.352ZM26.2808 23.6481C26.2808 22.6881 25.8008 21.944 24.1928 21.512V25.9281C25.5368 25.64 26.2808 24.7761 26.2808 23.6481Z" fill="white"/>
</svg>
