<svg width="171" height="27" viewBox="0 0 171 27" fill="none" xmlns="http://www.w3.org/2000/svg">
  <path fill-rule="evenodd" clip-rule="evenodd"
    d="M0 1.29492H12C16.6243 1.29492 20.6377 3.91061 22.6413 7.74316H13.9707V7.74268H10.3886V7.74316H0V1.29492ZM10.3886 11.3253H0V25.2949H10.3886L10.3886 11.3253ZM13.9707 25.1339C19.6605 24.1938 24 19.2511 24 13.2949C24 12.6241 23.945 11.9661 23.8391 11.3253H13.9707L13.9707 25.1339Z"
    fill="#1754F8" />
  <path
    d="M32.816 3.78008H46.4V6.78008H41.312V20.5801H38.096V6.78008H32.816V3.78008ZM46.514 7.86008H49.634V9.75608C50.05 9.03608 50.594 8.51608 51.266 8.19608C51.938 7.87608 52.626 7.71608 53.33 7.71608C53.666 7.71608 54.018 7.74808 54.386 7.81208V11.1481C53.89 10.9881 53.41 10.9081 52.946 10.9081C52.29 10.9081 51.57 11.1401 50.786 11.6041C50.018 12.0521 49.634 12.8841 49.634 14.1001V20.5801H46.514V7.86008ZM56.2061 9.54008C57.4381 8.27608 58.9261 7.64408 60.6701 7.64408C62.1901 7.64408 63.4621 8.18008 64.4861 9.25208V7.86008H67.6061V20.5801H64.4861V19.2121C63.4781 20.2521 62.2061 20.7721 60.6701 20.7721C58.9421 20.7721 57.4541 20.1241 56.2061 18.8281C54.9741 17.5321 54.3581 15.9961 54.3581 14.2201C54.3581 12.3801 54.9741 10.8201 56.2061 9.54008ZM57.2861 14.2201C57.2861 15.2441 57.6381 16.1241 58.3421 16.8601C59.0621 17.5801 59.9421 17.9401 60.9821 17.9401C61.9901 17.9401 62.8541 17.5721 63.5741 16.8361C64.3101 16.1001 64.6781 15.2281 64.6781 14.2201C64.6781 13.2121 64.3101 12.3401 63.5741 11.6041C62.8541 10.8521 61.9901 10.4761 60.9821 10.4761C59.9421 10.4761 59.0621 10.8441 58.3421 11.5801C57.6381 12.3161 57.2861 13.1961 57.2861 14.2201ZM70.6679 9.54008C71.8999 8.27608 73.3879 7.64408 75.1319 7.64408C76.6519 7.64408 77.9239 8.18008 78.9479 9.25208V3.78008H82.0679V20.5801H78.9479V19.2121C77.9399 20.2521 76.6679 20.7721 75.1319 20.7721C73.4039 20.7721 71.9159 20.1241 70.6679 18.8281C69.4359 17.5321 68.8199 15.9961 68.8199 14.2201C68.8199 12.3801 69.4359 10.8201 70.6679 9.54008ZM71.7479 14.2201C71.7479 15.2441 72.0999 16.1241 72.8039 16.8601C73.5239 17.5801 74.4039 17.9401 75.4439 17.9401C76.4519 17.9401 77.3159 17.5721 78.0359 16.8361C78.7719 16.1001 79.1399 15.2281 79.1399 14.2201C79.1399 13.2121 78.7719 12.3401 78.0359 11.6041C77.3159 10.8521 76.4519 10.4761 75.4439 10.4761C74.4039 10.4761 73.5239 10.8441 72.8039 11.5801C72.0999 12.3161 71.7479 13.1961 71.7479 14.2201ZM85.2018 9.54008C86.4818 8.27608 88.0258 7.64408 89.8338 7.64408C91.4018 7.64408 92.7858 8.15608 93.9858 9.18008C95.2018 10.1881 95.9538 11.4521 96.2418 12.9721C96.3378 13.4201 96.3858 13.8521 96.3858 14.2681C96.3858 14.6521 96.3458 15.0201 96.2658 15.3721H86.3778C86.5538 16.2041 86.9538 16.8521 87.5778 17.3161C88.2018 17.7801 88.9538 18.0121 89.8338 18.0121C91.1618 18.0121 92.2498 17.5721 93.0978 16.6921L95.8338 17.4361C95.3378 18.4441 94.5138 19.2521 93.3618 19.8601C92.2258 20.4681 91.0498 20.7721 89.8338 20.7721C88.0098 20.7721 86.4578 20.1321 85.1778 18.8521C83.9138 17.5561 83.2818 16.0121 83.2818 14.2201C83.2818 12.3801 83.9218 10.8201 85.2018 9.54008ZM86.3778 12.9961H93.2178C93.0418 12.2601 92.6498 11.6441 92.0418 11.1481C91.4338 10.6521 90.6898 10.4041 89.8098 10.4041C88.9298 10.4041 88.1778 10.6521 87.5538 11.1481C86.9458 11.6441 86.5538 12.2601 86.3778 12.9961ZM98.7714 9.54008C100.003 8.27608 101.491 7.64408 103.235 7.64408C104.755 7.64408 106.027 8.18008 107.051 9.25208V3.78008H110.171V20.5801H107.051V19.2121C106.043 20.2521 104.771 20.7721 103.235 20.7721C101.507 20.7721 100.019 20.1241 98.7714 18.8281C97.5394 17.5321 96.9234 15.9961 96.9234 14.2201C96.9234 12.3801 97.5394 10.8201 98.7714 9.54008ZM99.8514 14.2201C99.8514 15.2441 100.203 16.1241 100.907 16.8601C101.627 17.5801 102.507 17.9401 103.547 17.9401C104.555 17.9401 105.419 17.5721 106.139 16.8361C106.875 16.1001 107.243 15.2281 107.243 14.2201C107.243 13.2121 106.875 12.3401 106.139 11.6041C105.419 10.8521 104.555 10.4761 103.547 10.4761C102.507 10.4761 101.627 10.8441 100.907 11.5801C100.203 12.3161 99.8514 13.1961 99.8514 14.2201ZM113.233 9.54008C114.465 8.27608 115.953 7.64408 117.697 7.64408C119.217 7.64408 120.489 8.18008 121.513 9.25208V7.86008H124.633V20.5801H121.513V19.2121C120.505 20.2521 119.233 20.7721 117.697 20.7721C115.969 20.7721 114.481 20.1241 113.233 18.8281C112.001 17.5321 111.385 15.9961 111.385 14.2201C111.385 12.3801 112.001 10.8201 113.233 9.54008ZM114.313 14.2201C114.313 15.2441 114.665 16.1241 115.369 16.8601C116.089 17.5801 116.969 17.9401 118.009 17.9401C119.017 17.9401 119.881 17.5721 120.601 16.8361C121.337 16.1001 121.705 15.2281 121.705 14.2201C121.705 13.2121 121.337 12.3401 120.601 11.6041C119.881 10.8521 119.017 10.4761 118.009 10.4761C116.969 10.4761 116.089 10.8441 115.369 11.5801C114.665 12.3161 114.313 13.1961 114.313 14.2201ZM127.695 9.54008C128.927 8.27608 130.415 7.64408 132.159 7.64408C133.679 7.64408 134.951 8.18008 135.975 9.25208V3.78008H139.095V20.5801H135.975V19.2121C134.967 20.2521 133.695 20.7721 132.159 20.7721C130.431 20.7721 128.943 20.1241 127.695 18.8281C126.463 17.5321 125.847 15.9961 125.847 14.2201C125.847 12.3801 126.463 10.8201 127.695 9.54008ZM128.775 14.2201C128.775 15.2441 129.127 16.1241 129.831 16.8601C130.551 17.5801 131.431 17.9401 132.471 17.9401C133.479 17.9401 134.343 17.5721 135.063 16.8361C135.799 16.1001 136.167 15.2281 136.167 14.2201C136.167 13.2121 135.799 12.3401 135.063 11.6041C134.343 10.8521 133.479 10.4761 132.471 10.4761C131.431 10.4761 130.551 10.8441 129.831 11.5801C129.127 12.3161 128.775 13.1961 128.775 14.2201ZM139.709 7.86008H143.045L146.597 16.8361L149.957 7.86008H153.269L146.213 25.6201H142.973L144.989 20.5081L139.709 7.86008Z"
    fill="white" />
</svg>
  