<svg width="171" height="28" viewBox="0 0 171 28" fill="none" xmlns="http://www.w3.org/2000/svg">
<path fill-rule="evenodd" clip-rule="evenodd" d="M0 1.57153H12C16.6243 1.57153 20.6376 4.18718 22.6412 8.01967H13.9709V8.0191H10.3889V8.01967H0V1.57153ZM10.3889 11.6018H0V25.5715H10.3889L10.3889 11.6018ZM13.9709 25.4105C19.6607 24.4703 24 19.5277 24 13.5715C24 12.9007 23.9449 12.2426 23.8391 11.6018H13.9709L13.9709 25.4105Z" fill="#1754F8"/>
<path d="M32.816 4.34282H46.4V7.34282H41.312V21.1428H38.096V7.34282H32.816V4.34282ZM46.514 8.42282H49.634V10.3188C50.05 9.59882 50.594 9.07882 51.266 8.75882C51.938 8.43882 52.626 8.27882 53.33 8.27882C53.666 8.27882 54.018 8.31082 54.386 8.37482V11.7108C53.89 11.5508 53.41 11.4708 52.946 11.4708C52.29 11.4708 51.57 11.7028 50.786 12.1668C50.018 12.6148 49.634 13.4468 49.634 14.6628V21.1428H46.514V8.42282ZM56.2061 10.1028C57.4381 8.83882 58.9261 8.20682 60.6701 8.20682C62.1901 8.20682 63.4621 8.74282 64.4861 9.81482V8.42282H67.6061V21.1428H64.4861V19.7748C63.4781 20.8148 62.2061 21.3348 60.6701 21.3348C58.9421 21.3348 57.4541 20.6868 56.2061 19.3908C54.9741 18.0948 54.3581 16.5588 54.3581 14.7828C54.3581 12.9428 54.9741 11.3828 56.2061 10.1028ZM57.2861 14.7828C57.2861 15.8068 57.6381 16.6868 58.3421 17.4228C59.0621 18.1428 59.9421 18.5028 60.9821 18.5028C61.9901 18.5028 62.8541 18.1348 63.5741 17.3988C64.3101 16.6628 64.6781 15.7908 64.6781 14.7828C64.6781 13.7748 64.3101 12.9028 63.5741 12.1668C62.8541 11.4148 61.9901 11.0388 60.9821 11.0388C59.9421 11.0388 59.0621 11.4068 58.3421 12.1428C57.6381 12.8788 57.2861 13.7588 57.2861 14.7828ZM70.6679 10.1028C71.8999 8.83882 73.3879 8.20682 75.1319 8.20682C76.6519 8.20682 77.9239 8.74282 78.9479 9.81482V4.34282H82.0679V21.1428H78.9479V19.7748C77.9399 20.8148 76.6679 21.3348 75.1319 21.3348C73.4039 21.3348 71.9159 20.6868 70.6679 19.3908C69.4359 18.0948 68.8199 16.5588 68.8199 14.7828C68.8199 12.9428 69.4359 11.3828 70.6679 10.1028ZM71.7479 14.7828C71.7479 15.8068 72.0999 16.6868 72.8039 17.4228C73.5239 18.1428 74.4039 18.5028 75.4439 18.5028C76.4519 18.5028 77.3159 18.1348 78.0359 17.3988C78.7719 16.6628 79.1399 15.7908 79.1399 14.7828C79.1399 13.7748 78.7719 12.9028 78.0359 12.1668C77.3159 11.4148 76.4519 11.0388 75.4439 11.0388C74.4039 11.0388 73.5239 11.4068 72.8039 12.1428C72.0999 12.8788 71.7479 13.7588 71.7479 14.7828ZM85.2018 10.1028C86.4818 8.83882 88.0258 8.20682 89.8338 8.20682C91.4018 8.20682 92.7858 8.71882 93.9858 9.74282C95.2018 10.7508 95.9538 12.0148 96.2418 13.5348C96.3378 13.9828 96.3858 14.4148 96.3858 14.8308C96.3858 15.2148 96.3458 15.5828 96.2658 15.9348H86.3778C86.5538 16.7668 86.9538 17.4148 87.5778 17.8788C88.2018 18.3428 88.9538 18.5748 89.8338 18.5748C91.1618 18.5748 92.2498 18.1348 93.0978 17.2548L95.8338 17.9988C95.3378 19.0068 94.5138 19.8148 93.3618 20.4228C92.2258 21.0308 91.0498 21.3348 89.8338 21.3348C88.0098 21.3348 86.4578 20.6948 85.1778 19.4148C83.9138 18.1188 83.2818 16.5748 83.2818 14.7828C83.2818 12.9428 83.9218 11.3828 85.2018 10.1028ZM86.3778 13.5588H93.2178C93.0418 12.8228 92.6498 12.2068 92.0418 11.7108C91.4338 11.2148 90.6898 10.9668 89.8098 10.9668C88.9298 10.9668 88.1778 11.2148 87.5538 11.7108C86.9458 12.2068 86.5538 12.8228 86.3778 13.5588ZM98.7714 10.1028C100.003 8.83882 101.491 8.20682 103.235 8.20682C104.755 8.20682 106.027 8.74282 107.051 9.81482V4.34282H110.171V21.1428H107.051V19.7748C106.043 20.8148 104.771 21.3348 103.235 21.3348C101.507 21.3348 100.019 20.6868 98.7714 19.3908C97.5394 18.0948 96.9234 16.5588 96.9234 14.7828C96.9234 12.9428 97.5394 11.3828 98.7714 10.1028ZM99.8514 14.7828C99.8514 15.8068 100.203 16.6868 100.907 17.4228C101.627 18.1428 102.507 18.5028 103.547 18.5028C104.555 18.5028 105.419 18.1348 106.139 17.3988C106.875 16.6628 107.243 15.7908 107.243 14.7828C107.243 13.7748 106.875 12.9028 106.139 12.1668C105.419 11.4148 104.555 11.0388 103.547 11.0388C102.507 11.0388 101.627 11.4068 100.907 12.1428C100.203 12.8788 99.8514 13.7588 99.8514 14.7828ZM113.233 10.1028C114.465 8.83882 115.953 8.20682 117.697 8.20682C119.217 8.20682 120.489 8.74282 121.513 9.81482V8.42282H124.633V21.1428H121.513V19.7748C120.505 20.8148 119.233 21.3348 117.697 21.3348C115.969 21.3348 114.481 20.6868 113.233 19.3908C112.001 18.0948 111.385 16.5588 111.385 14.7828C111.385 12.9428 112.001 11.3828 113.233 10.1028ZM114.313 14.7828C114.313 15.8068 114.665 16.6868 115.369 17.4228C116.089 18.1428 116.969 18.5028 118.009 18.5028C119.017 18.5028 119.881 18.1348 120.601 17.3988C121.337 16.6628 121.705 15.7908 121.705 14.7828C121.705 13.7748 121.337 12.9028 120.601 12.1668C119.881 11.4148 119.017 11.0388 118.009 11.0388C116.969 11.0388 116.089 11.4068 115.369 12.1428C114.665 12.8788 114.313 13.7588 114.313 14.7828ZM127.695 10.1028C128.927 8.83882 130.415 8.20682 132.159 8.20682C133.679 8.20682 134.951 8.74282 135.975 9.81482V4.34282H139.095V21.1428H135.975V19.7748C134.967 20.8148 133.695 21.3348 132.159 21.3348C130.431 21.3348 128.943 20.6868 127.695 19.3908C126.463 18.0948 125.847 16.5588 125.847 14.7828C125.847 12.9428 126.463 11.3828 127.695 10.1028ZM128.775 14.7828C128.775 15.8068 129.127 16.6868 129.831 17.4228C130.551 18.1428 131.431 18.5028 132.471 18.5028C133.479 18.5028 134.343 18.1348 135.063 17.3988C135.799 16.6628 136.167 15.7908 136.167 14.7828C136.167 13.7748 135.799 12.9028 135.063 12.1668C134.343 11.4148 133.479 11.0388 132.471 11.0388C131.431 11.0388 130.551 11.4068 129.831 12.1428C129.127 12.8788 128.775 13.7588 128.775 14.7828ZM139.709 8.42282H143.045L146.597 17.3988L149.957 8.42282H153.269L146.213 26.1828H142.973L144.989 21.0708L139.709 8.42282Z" fill="black"/>
</svg>
