<svg width="24" height="24" viewBox="0 0 24 24" fill="none" xmlns="http://www.w3.org/2000/svg">
<g clip-path="url(#clip0_7463_61910)">
<mask id="mask0_7463_61910" style="mask-type:luminance" maskUnits="userSpaceOnUse" x="0" y="0" width="24" height="24">
<path d="M24 12C24 5.37258 18.6274 0 12 0C5.37258 0 0 5.37258 0 12C0 18.6274 5.37258 24 12 24C18.6274 24 24 18.6274 24 12Z" fill="white"/>
</mask>
<g mask="url(#mask0_7463_61910)">
<path d="M24 12C24 5.37258 18.6274 0 12 0C5.37258 0 0 5.37258 0 12C0 18.6274 5.37258 24 12 24C18.6274 24 24 18.6274 24 12Z" fill="white"/>
<mask id="mask1_7463_61910" style="mask-type:luminance" maskUnits="userSpaceOnUse" x="0" y="0" width="24" height="24">
<path d="M12 24C18.6274 24 24 18.6274 24 12C24 5.37258 18.6274 0 12 0C5.37258 0 0 5.37258 0 12C0 18.6274 5.37258 24 12 24Z" fill="white"/>
</mask>
<g mask="url(#mask1_7463_61910)">
<path d="M0 0H24V24H0V0Z" fill="white"/>
<path d="M12 0H0V12.9338H12V0Z" fill="#231D9A"/>
<path d="M7.75182 3.17005L8.65479 2.26709L7.75182 1.36413L6.84886 2.26709L7.75182 3.17005Z" fill="white"/>
<path d="M7.75182 6.82203L8.65479 5.91907L7.75182 5.01611L6.84886 5.91907L7.75182 6.82203Z" fill="white"/>
<path d="M7.75182 10.474L8.65479 9.57104L7.75182 8.66808L6.84886 9.57104L7.75182 10.474Z" fill="white"/>
<path d="M2.93591 3.17005L3.83887 2.26709L2.93591 1.36413L2.03294 2.26709L2.93591 3.17005Z" fill="white"/>
<path d="M2.93591 6.82203L3.83887 5.91907L2.93591 5.01611L2.03294 5.91907L2.93591 6.82203Z" fill="white"/>
<path d="M2.93591 10.474L3.83887 9.57104L2.93591 8.66808L2.03294 9.57104L2.93591 10.474Z" fill="white"/>
<path d="M10.1595 4.99598L11.0625 4.09302L10.1595 3.19006L9.25658 4.09302L10.1595 4.99598Z" fill="white"/>
<path d="M10.1595 1.34425L11.0625 0.441284L10.1595 -0.461677L9.25658 0.441285L10.1595 1.34425Z" fill="white"/>
<path d="M10.1595 8.64796L11.0625 7.745L10.1595 6.84203L9.25658 7.745L10.1595 8.64796Z" fill="white"/>
<path d="M10.1595 12.3001L11.0625 11.3971L10.1595 10.4941L9.25658 11.3971L10.1595 12.3001Z" fill="white"/>
<path d="M5.34362 4.99598L6.24658 4.09302L5.34362 3.19006L4.44066 4.09302L5.34362 4.99598Z" fill="white"/>
<path d="M5.34362 8.64796L6.24658 7.745L5.34362 6.84203L4.44066 7.745L5.34362 8.64796Z" fill="white"/>
<path d="M5.34362 12.3001L6.24658 11.3971L5.34362 10.4941L4.44066 11.3971L5.34362 12.3001Z" fill="white"/>
<path d="M0.528191 4.99598L1.43115 4.09302L0.528191 3.19006L-0.37477 4.09302L0.528191 4.99598Z" fill="white"/>
<path d="M0.528191 8.64796L1.43115 7.745L0.528191 6.84203L-0.37477 7.74499L0.528191 8.64796Z" fill="white"/>
<path d="M0.528191 12.3001L1.43115 11.3971L0.528191 10.4941L-0.37477 11.3971L0.528191 12.3001Z" fill="white"/>
<path d="M29.7182 -0.123047H12V1.74203H29.7182V-0.123047Z" fill="#F0263C"/>
<path d="M25.0555 3.60718H12V5.47226H25.0555V3.60718Z" fill="#F0263C"/>
<path d="M25.0555 7.33716H12V9.20224H25.0555V7.33716Z" fill="#F0263C"/>
<path d="M29.7182 11.0675H12V12.9326H29.7182V11.0675Z" fill="#F0263C"/>
<path d="M29.6255 14.7976H0.250488V16.6627H29.6255V14.7976Z" fill="#F0263C"/>
<path d="M29.6255 18.5277H0.250488V20.3928H29.6255V18.5277Z" fill="#F0263C"/>
<path d="M29.6255 22.2579H0.250488V24.123H29.6255V22.2579Z" fill="#F0263C"/>
</g>
</g>
</g>
<defs>
<clipPath id="clip0_7463_61910">
<rect width="24" height="24" fill="white"/>
</clipPath>
</defs>
</svg>
