<svg width="24" height="24" viewBox="0 0 24 24" fill="none" xmlns="http://www.w3.org/2000/svg">
<g clip-path="url(#clip0_7471_62614)">
<mask id="mask0_7471_62614" style="mask-type:luminance" maskUnits="userSpaceOnUse" x="0" y="0" width="24" height="24">
<path d="M24 12C24 5.37258 18.6274 0 12 0C5.37258 0 0 5.37258 0 12C0 18.6274 5.37258 24 12 24C18.6274 24 24 18.6274 24 12Z" fill="white"/>
</mask>
<g mask="url(#mask0_7471_62614)">
<path d="M24 12C24 5.37258 18.6274 0 12 0C5.37258 0 0 5.37258 0 12C0 18.6274 5.37258 24 12 24C18.6274 24 24 18.6274 24 12Z" fill="white"/>
<mask id="mask1_7471_62614" style="mask-type:luminance" maskUnits="userSpaceOnUse" x="0" y="0" width="24" height="24">
<path d="M12 24C18.6274 24 24 18.6274 24 12C24 5.37258 18.6274 0 12 0C5.37258 0 0 5.37258 0 12C0 18.6274 5.37258 24 12 24Z" fill="white"/>
</mask>
<g mask="url(#mask1_7471_62614)">
<path d="M0 0H24V24H0V0Z" fill="#F0263C"/>
<path d="M11.7502 7.5L12.8166 10.7822H16.2677L13.4757 12.8107L14.5422 16.0928L11.7502 14.0643L8.95823 16.0928L10.0247 12.8107L7.23267 10.7822H10.6838L11.7502 7.5Z" fill="#FFD400"/>
</g>
</g>
</g>
<defs>
<clipPath id="clip0_7471_62614">
<rect width="24" height="24" fill="white"/>
</clipPath>
</defs>
</svg>
