<svg width="165" height="154" viewBox="0 0 165 154" fill="none" xmlns="http://www.w3.org/2000/svg">
<path d="M1.88318 119.393L82.6378 85.4438L163.392 119.393L82.6378 153.343L1.88318 119.393Z" stroke="black" stroke-opacity="0.1"/>
<path d="M82.6378 91.9609L147.891 119.394L82.6378 146.826L17.3845 119.394L82.6378 91.9609Z" fill="#F1F3F6"/>
<path d="M18.6747 119.394L82.6378 92.5033L146.601 119.394L82.6378 146.284L18.6747 119.394Z" stroke="black" stroke-opacity="0.2"/>
<path d="M82.6945 84.5049L138.678 108.04L82.6945 131.576L26.7114 108.04L82.6945 84.5049Z" fill="white" stroke="black" stroke-width="1.3823"/>
<path d="M82.8142 131.112V75.2536L139.497 52.4311V108.29L82.8142 131.112Z" fill="#1754F8" stroke="black" stroke-width="0.75641"/>
<path d="M26.4617 108.545L83.1359 131.698V75.024L26.4617 51.8705V108.545Z" fill="white" stroke="black" stroke-width="0.75641"/>
<path d="M82.4909 18.4287L144.209 44.3752L82.4909 70.3217L20.7729 44.3752L82.4909 18.4287Z" fill="white" stroke="black" stroke-width="0.725339"/>
<path d="M65.7949 30.6924L49.4431 37.7837L99.4552 57.5449L115.473 50.7913L65.7949 30.6924Z" fill="#525252" stroke="black" stroke-width="0.75641"/>
<path d="M83.1521 70.0734L144.443 44.2979V56.5744L83.1521 82.35V70.0734Z" fill="white" stroke="black" stroke-width="0.725339"/>
<path d="M20.4102 56.2975L83.5147 81.9639V69.9126L20.4102 44.2462V56.2975Z" fill="white" stroke="black" stroke-width="0.725339"/>
<path d="M96.214 104.806C94.1662 105.675 92.6373 104.776 92.6373 102.613C92.6373 100.45 94.1662 98.2527 96.2235 97.3795C97.3653 96.8947 98.3185 96.9413 98.9414 97.497L97.9599 98.8979C97.5163 98.5325 96.9595 98.4818 96.2989 98.7622C95.0627 99.287 94.185 100.603 94.185 101.956C94.185 103.309 95.0627 103.88 96.2989 103.355C96.9595 103.075 97.5163 102.551 97.9599 101.799L98.9414 102.367C98.3185 103.462 97.3653 104.317 96.214 104.806ZM103.035 101.911C100.949 102.796 99.4203 101.866 99.4203 99.7338C99.4203 97.6013 100.949 95.3735 103.035 94.4882C105.111 93.607 106.649 94.5226 106.649 96.6653C106.649 98.808 105.111 101.03 103.035 101.911ZM103.035 100.496C104.214 99.9953 105.101 98.6858 105.101 97.3222C105.101 95.9587 104.214 95.4023 103.035 95.903C101.855 96.4038 100.968 97.7133 100.968 99.0768C100.968 100.44 101.855 100.997 103.035 100.496ZM110.658 91.3756C112.422 90.6265 113.526 91.1522 113.526 92.7618C113.526 94.3612 112.422 95.8243 110.658 96.5734L109.327 97.1382V99.1169L107.798 99.7658V92.5893L110.658 91.3756ZM110.573 95.2562C111.507 94.8596 111.979 94.1979 111.979 93.4188C111.979 92.6294 111.507 92.3683 110.573 92.7649L109.327 93.2937V95.7849L110.573 95.2562ZM119.469 91.0802C120.205 91.0241 120.677 91.4389 120.677 92.3411C120.677 93.5816 119.771 94.6838 118.034 95.4209L114.618 96.871V89.6945L117.845 88.3245C119.497 87.6235 120.346 88.0114 120.346 89.1288C120.346 89.8465 120.007 90.5443 119.469 91.0802ZM117.657 89.6554L116.137 90.3003V91.9919L117.657 91.347C118.402 91.0305 118.808 90.5712 118.808 90.0073C118.808 89.4435 118.402 89.3389 117.657 89.6554ZM117.921 94.2182C118.714 93.8817 119.138 93.4349 119.138 92.8197C119.138 92.2149 118.714 92.1081 117.921 92.4446L116.137 93.2017V94.9753L117.921 94.2182ZM121.834 93.8079V86.6314L123.363 85.9825V93.159L121.834 93.8079ZM126.299 91.9127V86.0895L124.185 86.9868V85.6335L129.942 83.1899V84.5432L127.828 85.4405V91.2637L126.299 91.9127Z" fill="white"/>
<mask id="mask0_7707_51819" style="mask-type:alpha" maskUnits="userSpaceOnUse" x="49" y="0" width="68" height="58">
<path d="M49.9102 37.5V0L116.852 13.9936L114.583 50.7372L99.455 57.1667L49.9102 37.5Z" fill="#D9D9D9"/>
</mask>
<g mask="url(#mask0_7707_51819)">
<path d="M110.085 53.3102C110.085 61.0415 107.272 66.5872 102.808 69.3761C98.3453 72.165 92.1276 72.2624 85.1788 68.8732C78.2285 65.4833 71.915 59.267 67.3379 51.9421C62.7608 44.6172 59.9412 36.2175 59.9412 28.4846C59.9412 20.7533 62.7544 15.2076 67.2175 12.4187C71.6807 9.62986 77.8983 9.53243 84.8472 12.9216C91.7975 16.3115 98.111 22.5279 102.688 29.8528C107.265 37.1776 110.085 45.5773 110.085 53.3102Z" fill="url(#paint0_linear_7707_51819)" stroke="black" stroke-width="0.75641"/>
<path d="M102.701 57.5153C102.701 65.2466 99.8883 70.7923 95.4251 73.5812C90.962 76.37 84.7443 76.4675 77.7955 73.0783C70.8452 69.6884 64.5317 63.472 59.9546 56.1471C55.3775 48.8223 52.5579 40.4226 52.5579 32.6897C52.5579 24.9584 55.3711 19.4127 59.8342 16.6238C64.2974 13.8349 70.515 13.7375 77.4639 17.1267C84.4142 20.5166 90.7277 26.733 95.3048 34.0578C99.8819 41.3827 102.701 49.7824 102.701 57.5153Z" fill="url(#paint1_linear_7707_51819)" stroke="black" stroke-width="0.75641"/>
<path fill-rule="evenodd" clip-rule="evenodd" d="M80.2595 48.92C80.0986 48.8549 79.2675 48.5048 77.4136 47.6005C75.9391 46.8814 74.8922 46.3215 74.5249 46.123C68.8265 43.0648 64.5731 39.8867 64.5731 38.5652C64.5731 37.2438 68.8265 38.2162 74.5249 40.7121V45.0238C74.8976 45.2354 75.9646 45.8259 77.4391 46.5451C79.2086 47.4081 80.0946 47.7583 80.2541 47.8197V43.5094C85.9405 46.5647 90.1845 49.7383 90.1845 51.0567C90.1845 52.3751 85.9418 51.4095 80.2541 48.9159L80.2595 48.92ZM80.2595 43.0661V39.2078L88.1952 43.0783V37.1946L66.5892 26.6567V32.5403L74.5236 36.4102V40.267C68.0745 37.4512 63.2246 36.5071 63.2246 38.2103C63.2246 39.9135 68.0745 43.6988 74.5236 47.1753V59.5392L80.2582 62.3362V49.9678C86.6925 52.7764 91.5343 53.7181 91.5343 52.0164C91.5343 50.3147 86.6965 46.5353 80.2582 43.064L80.2595 43.0661Z" fill="#1754F8"/>
</g>
<defs>
<linearGradient id="paint0_linear_7707_51819" x1="86.9744" y1="13.6726" x2="82.337" y2="98.3979" gradientUnits="userSpaceOnUse">
<stop stop-color="white"/>
<stop offset="1" stop-color="#737373"/>
</linearGradient>
<linearGradient id="paint1_linear_7707_51819" x1="75.2501" y1="31.0705" x2="65.5369" y2="94.4099" gradientUnits="userSpaceOnUse">
<stop stop-color="white"/>
<stop offset="1" stop-color="#737373"/>
</linearGradient>
</defs>
</svg>
