<svg width="44" height="44" viewBox="0 0 44 44" fill="none" xmlns="http://www.w3.org/2000/svg">
<path d="M19.6842 1.33702C21.1172 0.50967 22.8828 0.50967 24.3158 1.33702L38.7368 9.66298C40.1698 10.4903 41.0526 12.0193 41.0526 13.674V30.326C41.0526 31.9807 40.1698 33.5097 38.7368 34.337L24.3158 42.663C22.8828 43.4903 21.1172 43.4903 19.6842 42.663L5.26323 34.337C3.83022 33.5097 2.94744 31.9807 2.94744 30.326V13.674C2.94744 12.0193 3.83022 10.4903 5.26323 9.66298L19.6842 1.33702Z" fill="#1754F8"/>
<g clip-path="url(#clip0_4117_22153)">
<path d="M14.6757 15.2031H18.9714V16.2752H14.6757V15.2031Z" fill="white"/>
<path d="M15.7515 16.1797H18.9714V28.1092H15.7515V16.1797Z" fill="white"/>
<path d="M29.6662 15.2047L18.9724 28.11L15.8433 25.0826L24.2948 15.1992L29.6662 15.2047Z" fill="white"/>
</g>
<defs>
<clipPath id="clip0_4117_22153">
<rect width="15.4386" height="15.4386" fill="white" transform="translate(14.6666 14.2812)"/>
</clipPath>
</defs>
</svg>
