<svg width="20" height="20" fill="none" xmlns="http://www.w3.org/2000/svg"><path opacity=".5" d="M3.334 4.333a1 1 0 011-1h3.833a1 1 0 011 1v11.334a1 1 0 01-1 1H4.334a1 1 0 01-1-1V4.333z" fill="#2EBD85"/><path opacity=".5" fill-rule="evenodd" clip-rule="evenodd" d="M10.834 4.333a1 1 0 011-1h3.833a1 1 0 011 1v1.334a1 1 0 01-1 1h-3.833a1 1 0 01-1-1V4.333zm0 5a1 1 0 011-1h3.833a1 1 0 011 1v1.334a1 1 0 01-1 1h-3.833a1 1 0 01-1-1V9.333zm5.833 5a1 1 0 00-1-1h-3.833a1 1 0 00-1 1v1.334a1 1 0 001 1h3.833a1 1 0 001-1v-1.334z" fill="#8E8E92"/></svg>