<svg width="24" height="24" viewBox="0 0 24 24" fill="none" xmlns="http://www.w3.org/2000/svg">
<rect x="0.5" y="0.5" width="23" height="23" rx="2.5" fill="white" stroke="#FD3D49"/>
<path d="M15.1854 13.528C15.1854 14.064 15.0534 14.528 14.7894 14.92C14.5334 15.312 14.1734 15.612 13.7094 15.82C13.2534 16.028 12.7254 16.132 12.1254 16.132C11.2854 16.132 10.5534 15.936 9.92939 15.544C9.30539 15.144 8.89339 14.612 8.69339 13.948L9.73739 13.348C9.94539 13.86 10.2534 14.256 10.6614 14.536C11.0694 14.816 11.5694 14.956 12.1614 14.956C12.6894 14.956 13.0974 14.844 13.3854 14.62C13.6814 14.388 13.8294 14.068 13.8294 13.66C13.8294 13.332 13.7334 13.064 13.5414 12.856C13.3574 12.64 13.1254 12.476 12.8454 12.364C12.5654 12.244 12.1854 12.112 11.7054 11.968C11.1214 11.792 10.6574 11.628 10.3134 11.476C9.96939 11.316 9.67339 11.084 9.42539 10.78C9.18539 10.468 9.06539 10.06 9.06539 9.556C9.06539 9.028 9.20139 8.576 9.47339 8.2C9.74539 7.824 10.1094 7.544 10.5654 7.36C11.0294 7.168 11.5454 7.072 12.1134 7.072C12.8974 7.072 13.5414 7.244 14.0454 7.588C14.5494 7.932 14.8854 8.38 15.0534 8.932L14.0094 9.544C13.6494 8.672 13.0014 8.236 12.0654 8.236C11.5694 8.236 11.1694 8.348 10.8654 8.572C10.5694 8.788 10.4214 9.084 10.4214 9.46C10.4214 9.74 10.5054 9.968 10.6734 10.144C10.8494 10.32 11.0654 10.464 11.3214 10.576C11.5854 10.68 11.9414 10.796 12.3894 10.924C12.9814 11.1 13.4614 11.272 13.8294 11.44C14.2054 11.608 14.5254 11.86 14.7894 12.196C15.0534 12.532 15.1854 12.976 15.1854 13.528Z" fill="#FD3D49"/>
</svg>
