<svg width="16" height="16" viewBox="0 0 16 16" fill="none" xmlns="http://www.w3.org/2000/svg">
<path fill-rule="evenodd" clip-rule="evenodd" d="M8 10C10.2091 10 12 8.20914 12 6C12 3.79086 10.2091 2 8 2C5.79086 2 4 3.79086 4 6C4 8.20914 5.79086 10 8 10ZM8 10.6665C8.9915 10.6665 9.91078 10.3573 10.6667 9.83008V12.9212C10.6667 13.4168 10.1451 13.7391 9.70186 13.5175L8.29814 12.8156C8.11046 12.7218 7.88954 12.7218 7.70186 12.8156L6.29814 13.5175C5.85488 13.7391 5.33333 13.4168 5.33333 12.9212V9.83008C6.08922 10.3573 7.0085 10.6665 8 10.6665Z" fill="white"/>
</svg>
