<svg xmlns="http://www.w3.org/2000/svg" width="123" height="141" viewBox="0 0 123 141" fill="none">
  <path
    d="M66.2241 65.8544C73.2252 72.5709 85.1258 74.9017 92.7973 71.1288C95.4156 69.8411 97.2109 68.0073 98.1639 65.8823C98.5691 64.9789 99.0599 63.6354 99.4504 62.5141C99.6454 61.9542 99.815 61.451 99.9358 61.0878C99.9962 60.9062 100.044 60.7597 100.078 60.6585L100.115 60.5422L100.117 60.5362C99.8498 59.2359 99.0086 57.7764 97.8988 56.3214C96.7806 54.8553 95.4 53.4069 94.0898 52.1499C90.6124 48.8138 84.9722 46.7335 79.2111 45.9669C73.4819 45.2045 67.6867 45.7486 63.8477 47.6097L63.8154 47.6853C63.7787 47.7718 63.7253 47.8984 63.6587 48.0584C63.5254 48.3783 63.3391 48.8318 63.1275 49.366C62.704 50.4347 62.1795 51.8241 61.7736 53.111C60.5328 57.0448 61.977 61.7799 66.2241 65.8544Z"
    fill="#28AD76" stroke="white" stroke-width="0.481028" />
  <path
    d="M67.9 61.2278C74.9011 67.9443 86.8017 70.2751 94.4732 66.5022C102.145 62.7293 102.767 54.2398 95.7657 47.5233C88.7646 40.8068 76.8639 38.476 69.1925 42.2489C61.521 46.0218 60.899 54.5113 67.9 61.2278Z"
    fill="#1B1B1B" stroke="white" stroke-width="0.481028" />
  <path
    d="M71.0802 45.5018C74.6884 42.7494 81.0576 42.5589 87.0983 45.4076C94.7432 49.0129 98.9669 56.1208 96.5321 61.2836C96.0514 62.3029 95.347 63.1703 94.4672 63.8781"
    stroke="white" stroke-width="0.481028" />
  <path
    d="M84.5068 55.8529L88.7546 60.8064L86.0981 61.8589L81.8514 56.9067L81.7453 56.783L81.5889 56.837C79.8424 57.4398 78.2147 57.8447 76.9553 58.0122C76.3242 58.0961 75.7965 58.1189 75.3977 58.0814C74.9885 58.043 74.7736 57.9478 74.6816 57.8404C74.5896 57.7331 74.5735 57.5591 74.726 57.2981C74.8746 57.0438 75.1637 56.7429 75.5822 56.4109C76.4172 55.7485 77.7377 54.9854 79.37 54.2495L79.5162 54.1836L79.4101 54.0599L78.0521 52.4763L77.9408 52.3465L77.7818 52.4095L73.766 54.0007L71.9101 51.8365L82.9162 47.4756L84.7721 49.6398L80.7563 51.231L80.5973 51.2939L80.7086 51.4238L82.0675 53.0084L82.1735 53.132L82.3298 53.0781C84.0706 52.4789 85.6919 52.0767 86.9462 51.9109C87.5747 51.8278 88.1002 51.8056 88.4973 51.8433C88.9046 51.8819 89.1186 51.9769 89.2103 52.0839C89.302 52.1908 89.3182 52.3641 89.1669 52.6241C89.0193 52.8775 88.732 53.1773 88.3159 53.5081C87.4855 54.1683 86.1717 54.929 84.5468 55.6634L84.4008 55.7294L84.5068 55.8529ZM84.2637 55.3098L84.2643 55.3095C85.558 54.7244 86.6234 54.1353 87.3179 53.6309C87.664 53.3795 87.9254 53.1439 88.0748 52.9357C88.1495 52.8317 88.2008 52.7282 88.2161 52.6279C88.2316 52.5264 88.2111 52.4195 88.1269 52.3213C88.0427 52.2231 87.9159 52.1583 87.7784 52.1174C87.6425 52.0771 87.4847 52.0564 87.3146 52.0493C86.9744 52.0351 86.5439 52.0737 86.0513 52.1546C85.063 52.3169 83.7833 52.657 82.3957 53.1345L82.2231 53.1939L82.3401 53.3303L83.4906 54.6719C83.0794 54.8586 82.6367 55.0467 82.1726 55.2306C81.7168 55.4111 81.2678 55.5767 80.8348 55.7255L79.6797 54.3785L79.5628 54.2422L79.4018 54.3149C78.1014 54.9023 77.0295 55.4939 76.3304 56.0005C75.9819 56.253 75.7186 56.4896 75.5681 56.6987C75.4928 56.8032 75.4411 56.9071 75.4255 57.0077C75.4098 57.1096 75.4303 57.2169 75.5148 57.3155C75.5993 57.414 75.7266 57.479 75.8647 57.52C76.0012 57.5604 76.1598 57.581 76.3306 57.5881C76.6725 57.6021 77.1052 57.5631 77.6002 57.4815C78.5933 57.3178 79.8789 56.9753 81.2714 56.4949L81.2717 56.4948L81.4541 56.4315L81.4542 56.4317L81.4606 56.4291C81.643 56.3649 81.8271 56.2986 82.0129 56.2297L82.013 56.2298L82.0168 56.2283L82.032 56.2222L82.1868 56.1646L82.1868 56.1647L82.1904 56.1632L82.2341 56.1459L82.3634 56.0967L82.3634 56.0968L82.3657 56.0958L83.1921 55.7684L83.1921 55.7684L83.1943 55.7675L83.3224 55.7147L83.368 55.6967L83.368 55.6967L83.3715 55.6952L83.5325 55.6275L83.5384 55.6251L83.5384 55.6252L83.5422 55.6236C83.6631 55.5724 83.7819 55.5212 83.8987 55.4701L83.9133 55.4643L83.9134 55.4644L83.9195 55.4617L84.0737 55.3938L84.0896 55.3875L84.0897 55.3876L84.0967 55.3845L84.2637 55.3098Z"
    fill="white" stroke="white" stroke-width="0.342008" />
  <path
    d="M44.7742 102.268C51.7753 108.985 63.6759 111.316 71.3474 107.543C73.9657 106.255 75.761 104.421 76.7141 102.296C77.1192 101.393 77.61 100.049 78.0005 98.9282C78.1956 98.3683 78.3651 97.8651 78.4859 97.5019C78.5463 97.3203 78.5946 97.1737 78.6276 97.0726L78.6656 96.9563L78.6676 96.9502C78.3999 95.65 77.5587 94.1905 76.4489 92.7355C75.3307 91.2694 73.9501 89.8209 72.6399 88.5639C69.1625 85.2279 63.5223 83.1476 57.7612 82.3809C52.032 81.6186 46.2368 82.1626 42.3978 84.0238L42.3656 84.0994C42.3288 84.1859 42.2754 84.3124 42.2088 84.4724C42.0755 84.7924 41.8892 85.2459 41.6776 85.78C41.2541 86.8488 40.7296 88.2382 40.3237 89.5251C39.0829 93.4588 40.5271 98.194 44.7742 102.268Z"
    fill="#FFCE1F" stroke="white" stroke-width="0.481028" />
  <path
    d="M46.4501 97.6428C53.4512 104.359 65.3518 106.69 73.0233 102.917C80.6948 99.1443 81.3168 90.6548 74.3158 83.9383C67.3147 77.2218 55.414 74.8911 47.7426 78.664C40.0711 82.4369 39.4491 90.9264 46.4501 97.6428Z"
    fill="#1B1B1B" stroke="white" stroke-width="0.481028" />
  <path
    d="M61.0464 84.922L60.6257 89.1515C60.5942 89.4403 61.1522 89.6352 61.282 89.3653L62.6445 86.6342C62.6842 86.5648 62.8117 86.576 62.8702 86.6642L67.0722 93.0028C67.1306 93.0911 67.024 93.163 66.9237 93.1152L53.1311 86.7978C52.6839 86.5889 52.2032 86.5364 51.7788 86.6465L51.4861 86.7224C50.7251 86.9198 50.455 87.6249 50.8977 88.2928L56.8122 97.2147C57.2549 97.8826 58.2435 98.2613 59.0191 98.0601C59.5021 97.9348 59.8137 97.6029 59.8349 97.1691L60.2555 92.9396C60.2871 92.6509 59.7291 92.4559 59.5993 92.7259L58.2285 95.4444C58.1887 95.5138 58.0612 95.5025 58.0027 95.4143L53.8091 89.0883C53.7506 89.0001 53.8573 88.9281 53.9576 88.9759L67.7501 95.2933C68.1973 95.5022 68.6927 95.551 69.1025 95.4447L69.3952 95.3688C70.1709 95.1676 70.4409 94.4625 69.9982 93.7946L64.0837 84.8726C63.641 84.2047 62.6525 83.8261 61.8768 84.0273C61.3792 84.1563 61.0676 84.4882 61.0464 84.922Z"
    fill="white" />
  <path
    d="M57.4019 79.5571C54.8318 79.519 52.3645 79.985 50.2794 81.0104C46.0758 83.0778 44.5054 86.888 45.6816 90.8059M74.9028 96.3467C74.1273 98.0302 72.6901 99.4844 70.605 100.51C69.2315 101.185 67.6923 101.618 66.0671 101.824"
    stroke="white" stroke-width="0.660318" />
  <path
    d="M13.6402 93.4692L1.29682 53.1596L3.16376 52.3858L9.35775 58.7731C15.9017 7.87737 62.1029 -10.7514 88.3587 7.07863C57.863 3.34581 30.0129 38.2795 25.4989 70.4174L15.6178 93.4697L13.6402 93.4692Z"
    fill="black" stroke="black" stroke-width="0.520801" />
  <path
    d="M15.3616 93.2502L3.21472 52.5605L11.0269 58.1721C17.3815 7.27501 67.8449 -10.5284 88.7855 7.27324C59.2269 3.54733 31.0525 37.6739 26.6699 69.8127L32.511 74.026L15.3616 93.2502Z"
    fill="white" stroke="black" stroke-width="0.520801" />
  <path
    d="M88.6275 64.9428L105.361 45.3558L108.016 45.3558L118.377 85.7763L110.446 80.3331C105.182 131.355 55.1116 150.234 33.7947 132.885C63.4264 135.977 90.8637 101.255 94.5575 69.03L88.6275 64.9428Z"
    fill="white" stroke="#111111" stroke-width="0.520801" />
  <path
    d="M92.6074 64.1833L108.122 45.7672L120.588 84.4829L113.572 79.6668L113.047 79.3066L112.981 79.9398C110.363 105.325 96.6029 122.694 80.8662 131.564C65.6014 140.169 48.5523 140.748 37.9603 133.02C52.4576 134.041 66.2005 126.775 76.852 115.02C87.8213 102.914 95.5482 86.0144 97.4912 68.3632L97.5138 68.1579L97.3534 68.0279L92.6074 64.1833Z"
    fill="#1754F8" stroke="black" stroke-width="0.75641" />
  <path
    d="M27.3399 131.065C12.7552 123.015 8.31987 116.507 9.03219 100.286L10.9056 99.1367L23.1831 110.634C22.9571 118.661 27.0907 127.173 29.3018 130.18L27.3399 131.065Z"
    stroke="white" stroke-width="0.481028" />
  <path
    d="M25.4839 121.338C26.0692 124.08 27.0053 126.436 28.3511 129.047C21.7077 125.277 17.3628 121.816 14.7183 117.481C12.0144 113.048 11.0575 107.649 11.3278 99.949L24.7453 109.761C24.6144 114.696 24.8248 118.252 25.4839 121.338Z"
    fill="#1754F8" stroke="black" stroke-width="0.75641" />
  <path
    d="M51.5818 51.7063L51.5977 51.6566C51.3997 50.7008 50.8063 49.692 50.0021 48.6751C49.1837 47.6403 48.1621 46.6157 47.1565 45.651C44.5342 43.1352 40.7336 41.2785 36.8667 40.4092C32.9981 39.5396 29.1095 39.6668 26.2668 41.0648C25.2457 41.567 24.6156 42.3388 24.1574 43.2378C23.8274 43.8852 23.5977 44.5722 23.3689 45.2564C23.2767 45.5318 23.1848 45.8069 23.0865 46.0786C22.0046 49.0701 23.0492 52.7415 26.3332 55.892C31.5914 60.9365 40.4954 62.6606 46.2088 59.8507C48.5016 58.7231 49.9505 57.0327 50.5283 55.0841C50.6961 54.5183 50.9679 53.6475 51.1973 52.9194C51.3121 52.555 51.4165 52.226 51.4921 51.988L51.5818 51.7063Z"
    fill="#1754F8" stroke="black" stroke-width="0.75641" />
  <path
    d="M27.4831 52.4368C32.7847 57.5229 41.7866 59.2801 47.5816 56.43C53.3766 53.58 53.8551 47.1603 48.5535 42.0742C43.2519 36.988 34.2501 35.2309 28.455 38.0809C22.66 40.9309 22.1815 47.3506 27.4831 52.4368Z"
    fill="#1B1B1B" stroke="white" stroke-width="0.481028" />
  <path
    d="M45.94 55.1563C50.7966 52.7678 51.168 47.4108 46.7696 43.1911C42.3711 38.9715 34.8685 37.487 30.0119 39.8755"
    stroke="white" stroke-width="0.481028" />
  <path
    d="M31.9592 41.4513L32.331 41.6635L40.2282 49.2397L40.2085 49.3654L33.4832 49.5285L31.9592 41.4513Z"
    fill="white" />
  <path d="M31.9593 41.4509L42.6003 45.0442L40.2086 49.3649L36.3755 45.6876L31.9593 41.4509Z"
    fill="white" />
  <path
    d="M40.9026 50.0321L41.0138 50.0573L43.8269 52.756L43.9026 52.9101L34.1757 50.1976L40.9026 50.0321Z"
    fill="white" />
  <path d="M43.9026 52.9086L40.9026 50.0305L43.2954 45.7109L43.9026 52.9086Z" fill="white" />
  <path d="M40.2087 49.3648L33.4834 49.5279L36.3756 45.6875L40.2087 49.3648Z" fill="white" />
  <path d="M42.6003 45.0448L40.2086 49.3655L36.3755 45.6882L42.6003 45.0448Z" fill="white" />
</svg>