<svg xmlns="http://www.w3.org/2000/svg" width="22" height="23" viewBox="0 0 22 23" fill="none">
  <path
    d="M19.4528 0.5H3.63447C2.10513 0.5 0.859375 1.75984 0.859375 3.31119V19.6888C0.859375 21.2377 2.10306 22.5 3.63447 22.5H19.4528C20.3844 22.5 21.1406 21.7334 21.1406 20.7905V2.20947C21.1382 1.26863 20.3816 0.5 19.4528 0.5ZM3.63206 2.10634H19.4508C19.5075 2.10634 19.5525 2.15241 19.5525 2.20947V16.3799H2.44269V3.31119C2.44269 2.64775 2.97756 2.10634 3.63206 2.10634ZM19.4528 20.8937H3.63206C2.97756 20.8937 2.44269 20.3543 2.44269 19.6888V17.9866H19.5525V20.7909C19.5525 20.8479 19.5075 20.894 19.4528 20.894V20.8937Z"
    fill="#1754F8" stroke="#1754F8" />
  <path
    d="M6.57077 2.11328V8.61119L8.43871 7.15403L10.3101 8.61222V2.11328H11.6851V11.4268L8.43905 8.89753L5.19577 11.4275V2.11362L6.57077 2.11328Z"
    fill="#1754F8" stroke="#1754F8" />
</svg>