<svg width="34" height="34" viewBox="0 0 34 34" fill="none" xmlns="http://www.w3.org/2000/svg">
  <path
    d="M27.9012 3H7.65368C5.69612 3 4.10156 4.6126 4.10156 6.59832V27.5617C4.10156 29.5443 5.69348 31.16 7.65368 31.16H27.9012C29.0936 31.16 30.0616 30.1788 30.0616 28.9719V5.18812C30.0585 3.98384 29.09 3 27.9012 3ZM7.6506 5.05612H27.8985C27.9711 5.05612 28.0288 5.11508 28.0288 5.18812V23.3262H6.1282V6.59832C6.1282 5.74912 6.81284 5.05612 7.6506 5.05612ZM27.9012 29.1039H7.6506C6.81284 29.1039 6.1282 28.4135 6.1282 27.5617V25.3828H28.0288V28.9723C28.0288 29.0454 27.9711 29.1043 27.9012 29.1043V29.1039Z"
    fill="currentColor" stroke="currentColor" stroke-width="1.28" />
  <path
    d="M11.4123 5.06836V13.3857L13.8033 11.5205L16.1987 13.387V5.06836H17.9587V16.9897L13.8037 13.7522L9.65234 16.9906V5.0688L11.4123 5.06836Z"
    fill="currentColor" stroke="currentColor" stroke-width="1.28" />
</svg>
  