<svg width="34" height="34" viewBox="0 0 34 34" fill="none" xmlns="http://www.w3.org/2000/svg">
  <path
    d="M18.833 32.5758C18.9833 32.5612 19.1321 32.5409 19.281 32.522C19.3774 32.5097 19.4747 32.4993 19.5711 32.4856C19.7332 32.4615 19.8938 32.4322 20.055 32.4033C20.1381 32.3887 20.2213 32.375 20.3045 32.3589C20.468 32.3268 20.6305 32.2899 20.7917 32.2521C20.8725 32.2332 20.9537 32.2162 21.0345 32.1954C21.1914 32.1572 21.3464 32.1137 21.5014 32.0707C21.5883 32.0456 21.6762 32.0225 21.7618 31.996C21.9059 31.953 22.0481 31.9058 22.1899 31.858C22.2882 31.825 22.386 31.7938 22.4833 31.7588C22.6109 31.7135 22.7366 31.6643 22.8628 31.6161C22.9733 31.5731 23.0839 31.5306 23.194 31.4852C23.3041 31.4399 23.4123 31.3907 23.5215 31.343C23.6453 31.2882 23.7681 31.2338 23.8905 31.1757C23.9836 31.1318 24.0757 31.0855 24.1674 31.0387C24.3016 30.972 24.4358 30.9049 24.5691 30.8336C24.648 30.7911 24.726 30.7462 24.8044 30.7022C24.9452 30.6238 25.0851 30.5444 25.2235 30.4608C25.2954 30.4182 25.3653 30.3724 25.4366 30.328C25.5765 30.241 25.7164 30.1527 25.8544 30.0601C25.9257 30.0123 25.9947 29.9622 26.0651 29.9131C26.1984 29.8205 26.3321 29.7283 26.463 29.6305C26.5414 29.5724 26.618 29.511 26.695 29.451C26.8136 29.3588 26.9327 29.2681 27.0494 29.1722C27.1496 29.09 27.2464 29.0035 27.3447 28.9189C27.435 28.8405 27.5266 28.7649 27.616 28.6836C30.711 25.8796 32.6541 21.8295 32.6541 17.3249H30.7252C30.7278 19.1961 30.3371 21.0469 29.5785 22.7574C28.8199 24.468 27.7103 26 26.3217 27.2542C26.2437 27.325 26.1629 27.3912 26.0835 27.4602C25.9985 27.5344 25.9134 27.6095 25.826 27.6818C25.7239 27.765 25.619 27.8453 25.5151 27.9256C25.448 27.9776 25.3814 28.0315 25.3138 28.0816C25.199 28.1666 25.0822 28.2488 24.9641 28.3306C24.9036 28.3722 24.8436 28.4157 24.7822 28.4572C24.6617 28.5376 24.5384 28.6151 24.415 28.6921C24.3541 28.7308 24.2926 28.7705 24.2307 28.8079C24.1102 28.8806 23.9874 28.9491 23.8645 29.0186C23.7955 29.0564 23.7265 29.0966 23.6571 29.1339C23.5414 29.1953 23.4248 29.255 23.3074 29.313C23.2271 29.3536 23.1468 29.3947 23.065 29.433C22.9578 29.4832 22.8499 29.5319 22.7413 29.579C22.6468 29.6211 22.5523 29.6636 22.4559 29.7033C22.3605 29.743 22.2641 29.7799 22.1677 29.8167C22.0561 29.8602 21.9456 29.9032 21.8341 29.9429C21.7495 29.9726 21.6644 30.0005 21.5794 30.0289C21.4546 30.0705 21.3299 30.112 21.2042 30.1498C21.1286 30.173 21.052 30.1933 20.9759 30.2146C20.8403 30.2524 20.7047 30.2902 20.5681 30.3247C20.4982 30.3422 20.4273 30.3573 20.3574 30.3734C20.2156 30.4064 20.0725 30.439 19.9293 30.4669C19.8584 30.4811 19.7861 30.4929 19.7138 30.5057C19.572 30.5312 19.4308 30.5567 19.2885 30.5775C19.2058 30.5893 19.1222 30.5983 19.0395 30.6091C18.9072 30.6262 18.7754 30.6436 18.643 30.6564C18.5329 30.6673 18.4224 30.6739 18.3113 30.6814C18.2045 30.6895 18.0977 30.6994 17.991 30.7046C17.7763 30.7151 17.5614 30.7206 17.3464 30.7211H17.3119C17.0968 30.7206 16.8818 30.7151 16.6669 30.7046C16.5597 30.6994 16.4533 30.6895 16.3461 30.681C16.236 30.6739 16.1249 30.6668 16.0153 30.6564C15.882 30.6436 15.7493 30.6257 15.616 30.6087C15.5343 30.5983 15.4516 30.5893 15.3693 30.5775C15.2266 30.5567 15.0839 30.5302 14.9422 30.5052C14.8713 30.4924 14.799 30.4806 14.7281 30.4669C14.5851 30.4382 14.4425 30.4072 14.3005 30.3738C14.2301 30.3573 14.1592 30.3417 14.0893 30.3247C13.9526 30.2901 13.8165 30.2534 13.681 30.2146C13.6054 30.1933 13.5288 30.1721 13.4542 30.1498C13.328 30.112 13.2037 30.0705 13.078 30.0289C12.9935 30.0005 12.9079 29.9722 12.8238 29.9429C12.7123 29.9032 12.6017 29.8602 12.4912 29.8172C12.3943 29.7794 12.2974 29.743 12.201 29.7028C12.1065 29.6636 12.0111 29.6211 11.9166 29.5795C11.8083 29.5318 11.6992 29.4836 11.5924 29.433C11.5111 29.3947 11.4317 29.3536 11.3514 29.3135C11.2334 29.2555 11.1164 29.1956 11.0003 29.1339C10.9304 29.0961 10.8623 29.0569 10.7929 29.0186C10.6705 28.9496 10.5476 28.8806 10.4276 28.8079C10.3652 28.7701 10.3038 28.7308 10.2419 28.6921C10.119 28.6151 9.99619 28.538 9.87569 28.4572C9.81427 28.4157 9.75378 28.3722 9.69283 28.3297C9.57564 28.2484 9.45845 28.1671 9.3441 28.082C9.27558 28.031 9.20942 27.9776 9.14138 27.9252C9.0379 27.8444 8.93347 27.7645 8.8314 27.6818C8.74445 27.6095 8.65987 27.5344 8.57387 27.4597C8.49448 27.3917 8.41368 27.325 8.33619 27.2542C8.17519 27.1086 8.01795 26.9589 7.8646 26.8053C7.85846 26.8001 7.85326 26.7944 7.84759 26.7887C7.69439 26.6354 7.54503 26.4783 7.39963 26.3176C7.32875 26.2396 7.26259 26.1588 7.19313 26.0795C7.11942 25.9939 7.04381 25.9093 6.97199 25.8219C6.88882 25.7203 6.80896 25.6159 6.72863 25.5119C6.67665 25.4444 6.62231 25.3777 6.57175 25.3088C6.4867 25.1953 6.40542 25.0782 6.32367 24.961C6.28162 24.8995 6.23767 24.8395 6.19656 24.7781C6.11651 24.6574 6.03837 24.5355 5.96219 24.4124C5.92344 24.35 5.88327 24.2886 5.84594 24.2262C5.77317 24.1057 5.70418 23.9833 5.63567 23.8614C5.59692 23.7919 5.55723 23.7229 5.5199 23.653C5.45752 23.5377 5.39893 23.4205 5.34033 23.3033C5.30017 23.2225 5.25906 23.1422 5.22078 23.0609C5.17022 22.9546 5.1225 22.8459 5.07477 22.7377C5.03272 22.6427 4.99019 22.5478 4.9505 22.4518C4.9108 22.3568 4.87395 22.26 4.83709 22.1636C4.79362 22.0521 4.75062 21.9415 4.71045 21.8295C4.68068 21.7454 4.65375 21.6603 4.62539 21.5758C4.58313 21.4513 4.54265 21.3262 4.50395 21.2006C4.4808 21.125 4.46048 21.0479 4.43874 20.9719C4.39988 20.8366 4.36333 20.7006 4.32912 20.5641C4.31163 20.4946 4.29651 20.4237 4.27997 20.3533C4.24659 20.2113 4.21556 20.0687 4.18689 19.9257C4.17271 19.8538 4.1609 19.7816 4.14814 19.7093C4.12182 19.5682 4.09788 19.4268 4.07631 19.2849C4.06403 19.2013 4.05505 19.1176 4.04418 19.0335C4.02764 18.9022 4.01016 18.7708 3.9974 18.6394C3.98606 18.5284 3.97944 18.4164 3.97188 18.3054C3.96385 18.199 3.9544 18.0927 3.94873 17.9869C3.93839 17.7722 3.93303 17.5573 3.93266 17.3423V17.3078C3.93314 17.0914 3.93833 16.876 3.94873 16.6624C3.9544 16.5584 3.96385 16.454 3.97141 16.35C3.97944 16.2366 3.98606 16.1227 3.9974 16.0098C4.01016 15.8789 4.02764 15.748 4.04465 15.6167C4.05505 15.533 4.06403 15.4484 4.07631 15.3648C4.0971 15.223 4.12262 15.0813 4.14814 14.9405C4.1609 14.8682 4.17271 14.7954 4.18689 14.724C4.21524 14.5813 4.24737 14.4396 4.27997 14.2978C4.29604 14.2269 4.31163 14.1556 4.32912 14.0847C4.36267 13.9486 4.40094 13.813 4.43874 13.6779C4.46048 13.6018 4.48127 13.5252 4.50395 13.4496C4.54176 13.3244 4.58287 13.1992 4.62492 13.0749C4.65327 12.9899 4.68068 12.9039 4.71092 12.8193C4.75062 12.7082 4.79362 12.5972 4.83662 12.4866C4.87442 12.3902 4.9108 12.2929 4.9505 12.1979C4.99019 12.102 5.03272 12.007 5.07477 11.912C5.1225 11.8033 5.17022 11.6956 5.22126 11.5888C5.25906 11.5075 5.30017 11.4272 5.34033 11.3469C5.39893 11.2287 5.45847 11.1115 5.5199 10.9958C5.55675 10.9273 5.59645 10.8587 5.63472 10.7902C5.70371 10.6669 5.7727 10.544 5.84594 10.4231C5.88375 10.3612 5.92249 10.3002 5.96077 10.2388C6.03826 10.1154 6.11576 9.99211 6.19704 9.87114C6.23767 9.80971 6.28115 9.75065 6.32226 9.69064C6.40448 9.5725 6.48622 9.45437 6.5727 9.33954C6.62184 9.27245 6.67524 9.20676 6.72674 9.13966C6.80802 9.03523 6.88882 8.92986 6.97246 8.82732C7.04381 8.74132 7.11894 8.65674 7.19171 8.57168C7.26118 8.49135 7.32875 8.41007 7.39963 8.33211C7.54422 8.17239 7.69354 8.01504 7.84759 7.86099L7.8646 7.84398C8.01865 7.68994 8.17647 7.54062 8.33619 7.39508C8.41368 7.3242 8.49448 7.25804 8.57387 7.18953C8.65987 7.11534 8.74445 7.03973 8.8314 6.96838C8.93347 6.88474 9.03837 6.80441 9.14327 6.72361C9.2099 6.67163 9.27605 6.61823 9.3441 6.56767C9.45845 6.48262 9.57611 6.40087 9.69377 6.31959C9.75425 6.27707 9.81427 6.23359 9.87522 6.19201C9.99619 6.11168 10.119 6.03419 10.2419 5.95764C10.3038 5.91889 10.3652 5.87919 10.4271 5.84186C10.5476 5.76957 10.6705 5.7001 10.7929 5.63159C10.8623 5.59237 10.9309 5.55268 11.0008 5.51535C11.1161 5.45392 11.2333 5.39532 11.3505 5.33578C11.4308 5.29656 11.5111 5.25545 11.5924 5.21718C11.6992 5.16614 11.8079 5.11889 11.9161 5.07069C12.0111 5.02817 12.106 4.98564 12.2015 4.94642C12.2969 4.90672 12.3938 4.86987 12.4907 4.83254C12.6013 4.78954 12.7128 4.74654 12.8238 4.70684C12.9079 4.6766 12.9939 4.64919 13.078 4.62084C13.2028 4.57926 13.3285 4.53768 13.4537 4.49987C13.5293 4.47625 13.6054 4.4564 13.6819 4.43466C13.8171 4.39686 13.9527 4.35859 14.0893 4.32504C14.1592 4.30755 14.2301 4.29291 14.3005 4.27589C14.4427 4.24282 14.5849 4.21116 14.7277 4.18281C14.7995 4.16863 14.8718 4.15682 14.945 4.14406C15.0854 4.11854 15.2271 4.0935 15.3689 4.07271C15.4516 4.05995 15.5352 4.05144 15.6179 4.04057C15.7507 4.02356 15.8825 4.00608 16.0148 3.99332C16.1249 3.98245 16.2355 3.97631 16.3456 3.9678C16.4529 3.95977 16.5597 3.95032 16.6669 3.94512C19.7349 3.78943 22.7628 4.69593 25.2405 6.51191L24.0753 8.10576L29.6379 8.70635L27.3778 3.58789L26.3789 4.95445C23.4799 2.82806 20.003 1.84992 16.571 2.01861C16.4514 2.02475 16.3328 2.03562 16.2138 2.0446C16.0843 2.05358 15.9539 2.06161 15.8244 2.0739C15.6741 2.08807 15.5258 2.10839 15.3774 2.12729C15.28 2.14005 15.1827 2.15045 15.0863 2.16462C14.9242 2.18825 14.7636 2.21755 14.6029 2.2459C14.5193 2.26149 14.4356 2.27425 14.3529 2.29079C14.1894 2.32339 14.0278 2.36025 13.8662 2.39758C13.785 2.41601 13.7041 2.43349 13.6229 2.45334C13.466 2.49256 13.311 2.53603 13.156 2.57951C13.0695 2.60313 12.9821 2.62676 12.8961 2.65369C12.752 2.69717 12.6098 2.74347 12.4675 2.79167C12.3697 2.82428 12.2714 2.85594 12.1746 2.8909C12.047 2.93627 11.9208 2.98494 11.7946 3.03361C11.6841 3.07614 11.5735 3.11866 11.4639 3.1645C11.3533 3.20986 11.2446 3.25853 11.1359 3.3072C11.0131 3.36155 10.8888 3.41589 10.7674 3.47354C10.6738 3.51795 10.5831 3.56426 10.4905 3.6101C10.3563 3.67767 10.2216 3.74477 10.0888 3.81612C10.0094 3.85865 9.93193 3.90307 9.85349 3.94701C9.71232 4.02533 9.57227 4.10567 9.43341 4.188C9.36253 4.23195 9.29212 4.27684 9.22124 4.32126C9.0809 4.40915 8.94055 4.49704 8.80258 4.58966C8.73217 4.63691 8.66318 4.687 8.59324 4.73567C8.45952 4.82876 8.32579 4.92185 8.19395 5.01919C8.11646 5.07731 8.04085 5.13874 7.9643 5.1978C7.84523 5.28995 7.7252 5.38115 7.60849 5.4766C7.50926 5.55882 7.41286 5.64482 7.31552 5.72893C7.22432 5.80784 7.13123 5.88486 7.04145 5.96614C6.66699 6.3054 6.30948 6.66291 5.97022 7.03737C5.88847 7.12715 5.81145 7.22024 5.73254 7.31144C5.64843 7.40878 5.5629 7.5047 5.48115 7.60441C5.38523 7.72112 5.29403 7.84067 5.20141 7.96022C5.14187 8.03677 5.08092 8.11238 5.02327 8.19082C4.92545 8.32171 4.83284 8.45544 4.73975 8.58916C4.69108 8.6591 4.64146 8.72809 4.59373 8.79897C4.50112 8.93695 4.41276 9.07729 4.32534 9.21716C4.28092 9.28804 4.23556 9.35797 4.19303 9.4298C4.10892 9.56872 4.03 9.70859 3.95109 9.84941C3.90715 9.92785 3.86226 10.0053 3.8202 10.0847C3.74932 10.218 3.68175 10.3522 3.61418 10.4864C3.56834 10.5785 3.52203 10.6702 3.47761 10.7628C3.41997 10.8852 3.36562 11.0085 3.31081 11.1314C3.26261 11.241 3.21394 11.3497 3.16905 11.4593C3.12322 11.5694 3.08069 11.68 3.03769 11.791C2.94994 12.0126 2.86925 12.2368 2.79575 12.4635C2.7485 12.6052 2.70125 12.7479 2.65777 12.892C2.63131 12.978 2.60768 13.0655 2.58311 13.1519C2.53964 13.3074 2.49664 13.4619 2.45742 13.6188C2.43757 13.7001 2.42009 13.7813 2.40166 13.8621C2.36386 14.0238 2.327 14.1854 2.29487 14.3489C2.27833 14.4325 2.2651 14.5157 2.24998 14.5988C2.22163 14.7595 2.19233 14.9201 2.16823 15.0822C2.15405 15.1791 2.1446 15.276 2.13137 15.3733C2.11247 15.5217 2.09262 15.6705 2.07798 15.8203C2.06522 15.9498 2.05766 16.0802 2.04821 16.2097C2.0397 16.3288 2.02836 16.4474 2.02269 16.5669C1.99765 17.0717 1.99765 17.5775 2.02269 18.0823C2.02836 18.2024 2.0397 18.3205 2.04821 18.4396C2.05766 18.5695 2.06522 18.6995 2.07798 18.8289C2.09262 18.9797 2.11247 19.128 2.13137 19.2764C2.14413 19.3738 2.15405 19.4702 2.16823 19.5675C2.19233 19.7296 2.22163 19.8898 2.24998 20.0509C2.2651 20.1341 2.27833 20.2177 2.29487 20.3004C2.327 20.4644 2.36386 20.626 2.40166 20.7871C2.42056 20.8688 2.43757 20.9496 2.45742 21.0309C2.49664 21.1869 2.53964 21.3428 2.58311 21.4978C2.60768 21.5843 2.63131 21.6717 2.65777 21.7577C2.70077 21.9018 2.74803 22.044 2.79575 22.1863C2.82788 22.2841 2.86002 22.3819 2.89498 22.4792C2.94035 22.6068 2.98949 22.733 3.03769 22.8592C3.08069 22.9693 3.12322 23.0798 3.16858 23.1899C3.21394 23.3 3.26309 23.4087 3.31081 23.5174C3.36562 23.6412 3.41997 23.765 3.47761 23.8869C3.52203 23.98 3.56834 24.0712 3.61465 24.1629C3.68175 24.2975 3.74885 24.4322 3.8202 24.5645C3.86273 24.6444 3.90715 24.7219 3.95109 24.7998C4.03 24.9407 4.10892 25.0815 4.19256 25.2199C4.23556 25.2908 4.28092 25.3612 4.32534 25.4326C4.41276 25.5729 4.50112 25.7128 4.59373 25.8507C4.64146 25.9216 4.69108 25.9901 4.74022 26.0606C4.83284 26.1943 4.92545 26.328 5.02374 26.4594C5.08092 26.5373 5.14187 26.6129 5.20141 26.6895C5.29403 26.8086 5.3857 26.9286 5.48115 27.0453C5.5629 27.1445 5.64843 27.2409 5.73254 27.3378C5.81145 27.4295 5.88847 27.5221 5.97022 27.6119C6.30947 27.9865 6.66698 28.3442 7.04145 28.6836C7.13123 28.7653 7.22432 28.8419 7.31552 28.9213C7.41286 29.0049 7.50926 29.0909 7.60849 29.1717C7.7252 29.2686 7.84523 29.3598 7.9643 29.4524C8.04085 29.5115 8.11646 29.5724 8.19395 29.6305C8.32626 29.7283 8.45952 29.821 8.59324 29.9136C8.66318 29.9627 8.73217 30.0123 8.80258 30.0601C8.94055 30.1527 9.08137 30.241 9.22124 30.328C9.29212 30.3724 9.36205 30.4178 9.43388 30.4603C9.57233 30.5444 9.71267 30.6238 9.85349 30.7022C9.93193 30.7462 10.0094 30.7911 10.0883 30.8331C10.2216 30.9049 10.3563 30.972 10.4905 31.0391C10.5826 31.0855 10.6738 31.1318 10.7669 31.1757C10.8888 31.2338 11.0126 31.2882 11.1359 31.343C11.2446 31.3912 11.3533 31.4399 11.4634 31.4847C11.5735 31.5306 11.6841 31.5731 11.7946 31.6161C11.9208 31.6643 12.047 31.7135 12.1746 31.7588C12.2714 31.7938 12.3697 31.825 12.4675 31.858C12.6098 31.9053 12.752 31.9526 12.8961 31.996C12.9821 32.0225 13.0695 32.0456 13.156 32.0707C13.311 32.1132 13.466 32.1572 13.6229 32.1959C13.7041 32.2162 13.785 32.2337 13.8662 32.2521C14.0278 32.2899 14.1894 32.3268 14.3529 32.3589C14.4356 32.375 14.5193 32.3887 14.6034 32.4038C14.764 32.4322 14.9247 32.4615 15.0863 32.4851C15.1827 32.4993 15.28 32.5097 15.3774 32.522C15.5258 32.5409 15.6741 32.5612 15.8244 32.5758C15.9539 32.5881 16.0843 32.5961 16.2138 32.6051C16.3328 32.6141 16.4514 32.625 16.571 32.6306C17.0757 32.6557 17.5822 32.6557 18.0864 32.6306C18.2064 32.625 18.3246 32.6141 18.4436 32.6051C18.5736 32.5957 18.7035 32.5881 18.833 32.5758Z"
    fill="currentColor" stroke="currentColor" stroke-width="0.768" />
  <path
    d="M13.8989 16.2577C14.1715 15.8716 14.3081 15.4983 14.3081 15.1378C14.3081 14.7773 14.1895 14.4758 13.9527 14.2338C13.716 13.9919 13.4126 13.8709 13.0417 13.8709C12.3612 13.8709 11.7186 14.3553 11.1109 15.3226L9.17969 14.18C9.68435 13.397 10.2382 12.8049 10.8402 12.4033C11.4431 12.0016 12.21 11.8008 13.1414 11.8008C14.0737 11.8008 14.8931 12.0971 15.5981 12.6891C16.3036 13.2812 16.6561 14.0869 16.6561 15.1066C16.6561 15.6628 16.5143 16.1958 16.2318 16.7052C15.9482 17.2151 15.4251 17.8667 14.6629 18.6596L12.7171 20.683H16.9802V22.8457H9.36492V21.0539L12.5318 17.81C13.1697 17.1612 13.6262 16.6428 13.8989 16.2577ZM21.9395 18.1804V16.296H24.2563V18.1804H25.4759V20.2657H24.2563V22.8457H21.939V20.2657H17.5978V18.4276L21.4443 12.0484H24.0706L20.4099 18.1804H21.9395Z"
    fill="currentColor" stroke="currentColor" stroke-width="0.768" />
</svg>
  