<svg xmlns="http://www.w3.org/2000/svg" width="26" height="25" viewBox="0 0 26 25" fill="none">
  <path
    d="M14.1496 24.3874C14.267 24.3759 14.3832 24.36 14.4995 24.3453C14.5748 24.3357 14.6509 24.3276 14.7262 24.3169C14.8528 24.298 14.9783 24.2751 15.1042 24.2526C15.1692 24.2412 15.2342 24.2305 15.2991 24.2179C15.4269 24.1928 15.5539 24.164 15.6798 24.1345C15.7429 24.1197 15.8064 24.1064 15.8695 24.0902C15.9921 24.0603 16.1132 24.0263 16.2342 23.9927C16.3022 23.9732 16.3708 23.9551 16.4377 23.9344C16.5503 23.9008 16.6614 23.8639 16.7721 23.8266C16.8489 23.8008 16.9253 23.7764 17.0014 23.7491C17.101 23.7136 17.1992 23.6752 17.2978 23.6376C17.3842 23.604 17.4706 23.5708 17.5566 23.5353C17.6426 23.4999 17.7271 23.4615 17.8124 23.4242C17.9091 23.3814 18.0051 23.3389 18.1007 23.2935C18.1735 23.2592 18.2455 23.223 18.3171 23.1865C18.4219 23.1344 18.5268 23.082 18.6309 23.0263C18.6925 22.993 18.7534 22.958 18.8147 22.9236C18.9247 22.8623 19.034 22.8003 19.1422 22.735C19.1983 22.7018 19.2529 22.6659 19.3087 22.6312C19.4179 22.5633 19.5272 22.4943 19.635 22.4219C19.6907 22.3846 19.7446 22.3455 19.7996 22.3071C19.9038 22.2348 20.0082 22.1628 20.1105 22.0864C20.1718 22.0409 20.2316 21.993 20.2917 21.9461C20.3844 21.8741 20.4774 21.8032 20.5686 21.7283C20.6469 21.664 20.7226 21.5965 20.7993 21.5304C20.8699 21.4691 20.9415 21.41 21.0112 21.3465C23.4293 19.1559 24.9473 15.9918 24.9473 12.4725H23.4404C23.4424 13.9344 23.1372 15.3804 22.5445 16.7167C21.9519 18.0531 21.085 19.25 20.0001 20.2298C19.9392 20.2852 19.8761 20.3369 19.814 20.3908C19.7476 20.4487 19.6811 20.5074 19.6128 20.5639C19.5331 20.6289 19.4512 20.6916 19.3699 20.7544C19.3175 20.795 19.2655 20.8371 19.2127 20.8762C19.123 20.9427 19.0318 21.0069 18.9395 21.0708C18.8922 21.1033 18.8454 21.1372 18.7974 21.1697C18.7032 21.2325 18.6069 21.293 18.5105 21.3532C18.4629 21.3835 18.4149 21.4145 18.3665 21.4436C18.2724 21.5005 18.1764 21.554 18.0804 21.6083C18.0265 21.6378 17.9726 21.6692 17.9184 21.6984C17.828 21.7463 17.7369 21.793 17.6452 21.8383C17.5824 21.87 17.5197 21.9021 17.4558 21.932C17.3721 21.9713 17.2878 22.0093 17.2029 22.0461C17.1291 22.079 17.0553 22.1122 16.98 22.1432C16.9054 22.1742 16.8301 22.203 16.7548 22.2318C16.6676 22.2658 16.5813 22.2994 16.4941 22.3304C16.4281 22.3536 16.3616 22.3754 16.2952 22.3976C16.1977 22.43 16.1002 22.4625 16.002 22.4921C15.943 22.5102 15.8832 22.526 15.8237 22.5426C15.7178 22.5722 15.6118 22.6017 15.5051 22.6287C15.4505 22.6423 15.3951 22.6541 15.3405 22.6667C15.2297 22.6925 15.1179 22.718 15.006 22.7398C14.9507 22.7509 14.8942 22.7601 14.8377 22.7701C14.7269 22.79 14.6166 22.8099 14.5054 22.8262C14.4408 22.8354 14.3755 22.8424 14.3109 22.8509C14.2075 22.8642 14.1045 22.8778 14.0012 22.8878C13.9151 22.8963 13.8288 22.9015 13.742 22.9074C13.6586 22.9137 13.5751 22.9214 13.4917 22.9255C13.324 22.9337 13.1561 22.938 12.9882 22.9384H12.9612C12.7932 22.938 12.6252 22.9337 12.4573 22.9255C12.3735 22.9214 12.2905 22.9137 12.2066 22.907C12.1206 22.9015 12.0339 22.8959 11.9482 22.8878C11.8441 22.8778 11.7404 22.8638 11.6363 22.8505C11.5724 22.8424 11.5078 22.8354 11.4436 22.8262C11.3321 22.8099 11.2206 22.7892 11.1099 22.7697C11.0545 22.7597 10.998 22.7505 10.9426 22.7398C10.8309 22.7173 10.7195 22.6931 10.6085 22.6671C10.5535 22.6541 10.4982 22.6419 10.4435 22.6287C10.3368 22.6016 10.2304 22.573 10.1246 22.5426C10.0655 22.526 10.0057 22.5094 9.94736 22.4921C9.84879 22.4625 9.7517 22.43 9.6535 22.3976C9.58742 22.3754 9.5206 22.3533 9.45489 22.3304C9.36777 22.2994 9.28138 22.2658 9.195 22.2322C9.11932 22.2026 9.04364 22.1742 8.96833 22.1428C8.8945 22.1122 8.81993 22.079 8.74609 22.0465C8.66155 22.0092 8.57628 21.9715 8.49284 21.932C8.42935 21.9021 8.36733 21.87 8.30457 21.8386C8.21239 21.7934 8.12095 21.7466 8.03028 21.6984C7.97564 21.6688 7.92248 21.6382 7.86822 21.6083C7.7726 21.5544 7.67662 21.5005 7.58285 21.4436C7.53412 21.4141 7.48613 21.3835 7.43777 21.3532C7.34179 21.293 7.2458 21.2328 7.15167 21.1697C7.10367 21.1372 7.05642 21.1033 7.0088 21.07C6.91725 21.0065 6.82569 20.943 6.73636 20.8766C6.68283 20.8367 6.63114 20.795 6.57798 20.754C6.49714 20.6909 6.41555 20.6285 6.33581 20.5639C6.26788 20.5074 6.2018 20.4487 6.13462 20.3904C6.0726 20.3372 6.00947 20.2852 5.94893 20.2298C5.82315 20.1161 5.7003 19.9991 5.5805 19.8791C5.5757 19.8751 5.57164 19.8706 5.56721 19.8662C5.44753 19.7464 5.33083 19.6237 5.21724 19.4981C5.16186 19.4372 5.11018 19.3741 5.05591 19.3121C4.99832 19.2453 4.93926 19.1792 4.88314 19.1109C4.81817 19.0315 4.75578 18.9499 4.69302 18.8687C4.65242 18.8159 4.60996 18.7639 4.57046 18.71C4.50401 18.6214 4.44052 18.5298 4.37665 18.4383C4.34379 18.3903 4.30946 18.3434 4.27734 18.2954C4.2148 18.2011 4.15376 18.1059 4.09424 18.0097C4.06397 17.9609 4.03259 17.9129 4.00342 17.8642C3.94657 17.7701 3.89267 17.6745 3.83914 17.5792C3.80887 17.5249 3.77786 17.471 3.7487 17.4164C3.69997 17.3263 3.65419 17.2348 3.60842 17.1432C3.57704 17.0801 3.54492 17.0173 3.51502 16.9538C3.47552 16.8708 3.43823 16.7859 3.40095 16.7013C3.36809 16.6271 3.33486 16.5529 3.30385 16.478C3.27285 16.4038 3.24405 16.3281 3.21526 16.2528C3.18129 16.1657 3.1477 16.0793 3.11632 15.9918C3.09306 15.9261 3.07202 15.8596 3.04987 15.7936C3.01685 15.6963 2.98522 15.5986 2.95499 15.5004C2.9369 15.4414 2.92103 15.3812 2.90405 15.3218C2.87369 15.2161 2.84513 15.1099 2.8184 15.0032C2.80474 14.9489 2.79293 14.8935 2.78001 14.8385C2.75393 14.7276 2.72968 14.6162 2.70728 14.5044C2.69621 14.4483 2.68698 14.3918 2.67701 14.3354C2.65645 14.2252 2.63775 14.1147 2.6209 14.0038C2.6113 13.9385 2.60429 13.8732 2.5958 13.8075C2.58287 13.7048 2.56922 13.6022 2.55925 13.4996C2.55039 13.4128 2.54522 13.3253 2.53931 13.2386C2.53304 13.1555 2.52565 13.0724 2.52122 12.9897C2.51314 12.822 2.50896 12.6541 2.50867 12.4862V12.4593C2.50904 12.2902 2.5131 12.1218 2.52122 11.955C2.52565 11.8738 2.53304 11.7922 2.53894 11.711C2.54522 11.6224 2.55039 11.5334 2.55925 11.4452C2.56922 11.3429 2.58287 11.2406 2.59616 11.138C2.60429 11.0727 2.6113 11.0066 2.6209 10.9412C2.63714 10.8305 2.65708 10.7198 2.67701 10.6097C2.68698 10.5533 2.69621 10.4964 2.70728 10.4407C2.72943 10.3292 2.75454 10.2184 2.78001 10.1077C2.79256 10.0523 2.80474 9.99655 2.8184 9.94118C2.84461 9.83486 2.87452 9.72891 2.90405 9.62333C2.92103 9.56389 2.93727 9.50409 2.95499 9.44502C2.98453 9.34719 3.01664 9.24936 3.0495 9.15227C3.07165 9.08582 3.09306 9.01863 3.11669 8.95255C3.1477 8.8658 3.18129 8.77905 3.21489 8.69266C3.24442 8.61735 3.27285 8.5413 3.30385 8.4671C3.33486 8.39216 3.36809 8.31796 3.40095 8.24376C3.43823 8.15885 3.47552 8.07468 3.51539 7.99125C3.54492 7.92775 3.57704 7.86499 3.60842 7.80224C3.65419 7.70994 3.70071 7.61839 3.7487 7.52794C3.77749 7.47442 3.8085 7.42089 3.83841 7.36736C3.8923 7.27101 3.9462 7.17502 4.00342 7.08052C4.03296 7.03216 4.06323 6.98453 4.09313 6.93654C4.15367 6.84019 4.21422 6.74384 4.27771 6.64933C4.30946 6.60134 4.34342 6.55519 4.37554 6.50831C4.43978 6.41602 4.50364 6.32373 4.5712 6.23402C4.60959 6.1816 4.65131 6.13028 4.69155 6.07786C4.75504 5.99628 4.81817 5.91395 4.88351 5.83384C4.93926 5.76666 4.99796 5.70058 5.05481 5.63413C5.10907 5.57137 5.16186 5.50787 5.21724 5.44696C5.3302 5.32218 5.44686 5.19925 5.56721 5.0789L5.5805 5.06561C5.70085 4.94526 5.82415 4.82861 5.94893 4.7149C6.00947 4.65953 6.0726 4.60785 6.13462 4.55432C6.2018 4.49636 6.26788 4.43729 6.33581 4.38155C6.41555 4.31621 6.49751 4.25345 6.57946 4.19032C6.63151 4.14971 6.6832 4.108 6.73636 4.0685C6.82569 4.00205 6.91762 3.93818 7.00954 3.87468C7.05679 3.84146 7.10367 3.8075 7.1513 3.77501C7.2458 3.71225 7.34179 3.65171 7.43777 3.5919C7.48613 3.56163 7.53412 3.53062 7.58248 3.50146C7.67662 3.44497 7.7726 3.39071 7.86822 3.33718C7.92248 3.30654 7.97601 3.27553 8.03065 3.24636C8.12073 3.19837 8.21228 3.1526 8.30383 3.10608C8.36659 3.07544 8.42935 3.04332 8.49284 3.01342C8.57628 2.97355 8.66118 2.93663 8.74572 2.89898C8.81993 2.86575 8.89413 2.83253 8.9687 2.80189C9.04327 2.77088 9.11895 2.74208 9.19463 2.71292C9.28101 2.67933 9.36814 2.64573 9.45489 2.61472C9.5206 2.59109 9.58779 2.56968 9.6535 2.54753C9.75096 2.51505 9.84916 2.48256 9.94699 2.45303C10.0061 2.43457 10.0655 2.41906 10.1253 2.40208C10.2309 2.37255 10.3368 2.34265 10.4435 2.31644C10.4982 2.30278 10.5535 2.29133 10.6085 2.27804C10.7197 2.2522 10.8308 2.22747 10.9423 2.20532C10.9984 2.19424 11.0549 2.18501 11.1121 2.17505C11.2217 2.15511 11.3325 2.13554 11.4432 2.1193C11.5078 2.10933 11.5732 2.10269 11.6378 2.0942C11.7415 2.08091 11.8445 2.06725 11.9479 2.05728C12.0339 2.04879 12.1203 2.04399 12.2063 2.03735C12.2901 2.03107 12.3735 2.02369 12.4573 2.01963C14.8542 1.89799 17.2197 2.6062 19.1555 4.02493L18.2451 5.27013L22.5909 5.73934L20.8252 1.74054L20.0448 2.80816C17.7799 1.14692 15.0636 0.382747 12.3824 0.514539C12.289 0.519338 12.1963 0.527829 12.1033 0.534843C12.0021 0.541857 11.9002 0.548133 11.7991 0.557731C11.6817 0.568806 11.5658 0.58468 11.4499 0.599447C11.3738 0.609415 11.2978 0.617536 11.2225 0.628611C11.0958 0.647069 10.9703 0.669958 10.8448 0.692108C10.7795 0.70429 10.7141 0.714258 10.6495 0.727178C10.5218 0.752651 10.3955 0.781446 10.2693 0.81061C10.2058 0.825007 10.1426 0.838666 10.0791 0.854171C9.95659 0.884812 9.8355 0.918775 9.71441 0.952738C9.64686 0.971197 9.57856 0.989655 9.51137 1.0107C9.39878 1.04466 9.28766 1.08084 9.17654 1.11849C9.10012 1.14397 9.02334 1.1687 8.94766 1.19602C8.84798 1.23146 8.74941 1.26948 8.65085 1.30751C8.56446 1.34073 8.47808 1.37396 8.39243 1.40977C8.30605 1.44521 8.22114 1.48323 8.13623 1.52125C8.04025 1.56371 7.94316 1.60616 7.84828 1.6512C7.77519 1.6859 7.70431 1.72208 7.63195 1.75789C7.52711 1.81068 7.4219 1.8631 7.31816 1.91884C7.25614 1.95207 7.1956 1.98677 7.13432 2.0211C7.02403 2.08229 6.91462 2.14506 6.80613 2.20938C6.75075 2.24371 6.69575 2.27878 6.64037 2.31348C6.53073 2.38215 6.42109 2.45081 6.31329 2.52317C6.25829 2.56009 6.20439 2.59922 6.14975 2.63724C6.04528 2.70997 5.9408 2.78269 5.83781 2.85874C5.77726 2.90415 5.7182 2.95214 5.65839 2.99828C5.56536 3.07027 5.47159 3.14152 5.38041 3.21609C5.30289 3.28033 5.22758 3.34752 5.15153 3.41323C5.08028 3.47488 5.00755 3.53505 4.93741 3.59855C4.64486 3.86359 4.36556 4.1429 4.10051 4.43545C4.03665 4.50559 3.97647 4.57831 3.91482 4.64956C3.84911 4.72561 3.78229 4.80055 3.71843 4.87844C3.64349 4.96963 3.57224 5.06303 3.49988 5.15643C3.45337 5.21623 3.40574 5.2753 3.36071 5.33658C3.28429 5.43884 3.21193 5.54331 3.13921 5.64779C3.10118 5.70242 3.06242 5.75632 3.02513 5.81169C2.95278 5.91949 2.88374 6.02913 2.81545 6.13841C2.78075 6.19378 2.74531 6.24842 2.71208 6.30453C2.64637 6.41306 2.58472 6.52234 2.52307 6.63235C2.48874 6.69363 2.45367 6.75417 2.42081 6.81619C2.36544 6.9203 2.31265 7.02514 2.25985 7.12998C2.22405 7.20197 2.18787 7.27359 2.15317 7.34595C2.10813 7.44156 2.06567 7.53791 2.02285 7.6339C1.9852 7.71954 1.94717 7.80445 1.9121 7.8901C1.87629 7.97611 1.84307 8.0625 1.80947 8.14925C1.74092 8.32231 1.67788 8.49751 1.62046 8.67457C1.58354 8.78532 1.54663 8.89681 1.51266 9.00941C1.49199 9.07659 1.47353 9.14489 1.45434 9.21245C1.42037 9.3339 1.38678 9.45462 1.35614 9.57718C1.34063 9.64068 1.32697 9.70417 1.31258 9.7673C1.28304 9.89356 1.25425 10.0198 1.22914 10.1475C1.21622 10.2129 1.20589 10.2779 1.19407 10.3428C1.17192 10.4683 1.14904 10.5939 1.13021 10.7205C1.11913 10.7962 1.11175 10.8718 1.10141 10.9479C1.08665 11.0638 1.07114 11.1801 1.0597 11.2971C1.04973 11.3983 1.04382 11.5002 1.03644 11.6013C1.0298 11.6943 1.02094 11.787 1.01651 11.8804C0.99694 12.2748 0.99694 12.6699 1.01651 13.0643C1.02094 13.1581 1.0298 13.2504 1.03644 13.3434C1.04382 13.4449 1.04973 13.5465 1.0597 13.6476C1.07114 13.7654 1.08665 13.8813 1.10141 13.9972C1.11138 14.0732 1.11913 14.1486 1.13021 14.2246C1.14904 14.3512 1.17192 14.4764 1.19407 14.6023C1.20589 14.6672 1.21622 14.7326 1.22914 14.7972C1.25425 14.9253 1.28304 15.0515 1.31258 15.1774C1.32734 15.2413 1.34063 15.3044 1.35614 15.3679C1.38678 15.4897 1.42037 15.6116 1.45434 15.7326C1.47353 15.8002 1.49199 15.8685 1.51266 15.9357C1.54626 16.0483 1.58317 16.1594 1.62046 16.2705C1.64556 16.3469 1.67067 16.4234 1.69798 16.4994C1.73342 16.5991 1.77182 16.6976 1.80947 16.7962C1.84307 16.8822 1.87629 16.9686 1.91173 17.0546C1.94717 17.1406 1.98556 17.2256 2.02285 17.3105C2.06567 17.4072 2.10813 17.5039 2.15317 17.5991C2.18787 17.6719 2.22405 17.7431 2.26022 17.8147C2.31265 17.92 2.36507 18.0252 2.42081 18.1285C2.45404 18.1909 2.48874 18.2515 2.52307 18.3124C2.58472 18.4224 2.64637 18.5324 2.71171 18.6406C2.74531 18.6959 2.78075 18.7509 2.81545 18.8067C2.88374 18.9163 2.95278 19.0256 3.02513 19.1334C3.06242 19.1888 3.10118 19.2423 3.13958 19.2973C3.21193 19.4018 3.28429 19.5063 3.36108 19.6089C3.40574 19.6698 3.45337 19.7289 3.49988 19.7887C3.57224 19.8817 3.64386 19.9755 3.71843 20.0667C3.78229 20.1442 3.84911 20.2195 3.91482 20.2952C3.97647 20.3668 4.03665 20.4391 4.10051 20.5093C4.36555 20.802 4.64486 21.0814 4.93741 21.3465C5.00755 21.4104 5.08028 21.4702 5.15153 21.5322C5.22758 21.5976 5.30289 21.6648 5.38041 21.7279C5.47159 21.8036 5.56536 21.8748 5.65839 21.9472C5.7182 21.9933 5.77726 22.0409 5.83781 22.0864C5.94117 22.1628 6.04528 22.2351 6.14975 22.3075C6.20439 22.3459 6.25829 22.3846 6.31329 22.4219C6.42109 22.4943 6.5311 22.5633 6.64037 22.6312C6.69575 22.6659 6.75038 22.7014 6.8065 22.7346C6.91466 22.8003 7.0243 22.8623 7.13432 22.9236C7.1956 22.958 7.25614 22.993 7.31779 23.0259C7.4219 23.082 7.52711 23.1344 7.63195 23.1868C7.70394 23.223 7.77519 23.2592 7.84791 23.2935C7.94316 23.3389 8.03988 23.3814 8.13623 23.4242C8.22114 23.4619 8.30605 23.4999 8.39206 23.535C8.47808 23.5708 8.56446 23.604 8.65085 23.6376C8.74941 23.6752 8.84798 23.7136 8.94766 23.7491C9.02334 23.7764 9.10012 23.8008 9.17654 23.8266C9.28766 23.8635 9.39878 23.9004 9.51137 23.9344C9.57856 23.9551 9.64686 23.9732 9.71441 23.9927C9.8355 24.0259 9.95659 24.0603 10.0791 24.0906C10.1426 24.1064 10.2058 24.1201 10.2693 24.1345C10.3955 24.164 10.5218 24.1928 10.6495 24.2179C10.7141 24.2305 10.7795 24.2412 10.8452 24.253C10.9707 24.2751 11.0962 24.298 11.2225 24.3165C11.2978 24.3276 11.3738 24.3357 11.4499 24.3453C11.5658 24.36 11.6817 24.3759 11.7991 24.3874C11.9002 24.397 12.0021 24.4032 12.1033 24.4103C12.1963 24.4173 12.289 24.4258 12.3824 24.4302C12.7766 24.4498 13.1724 24.4498 13.5663 24.4302C13.6601 24.4258 13.7523 24.4173 13.8454 24.4103C13.9469 24.4029 14.0484 24.397 14.1496 24.3874Z"
    fill="#1754F8" stroke="#1754F8" stroke-width="0.6" />
  <path
    d="M10.2955 11.6402C10.5085 11.3386 10.6152 11.0469 10.6152 10.7652C10.6152 10.4836 10.5225 10.248 10.3376 10.059C10.1526 9.87002 9.91563 9.77552 9.62583 9.77552C9.09423 9.77552 8.59217 10.1539 8.11742 10.9096L6.60864 10.017C7.00291 9.40524 7.43557 8.94268 7.90589 8.62889C8.37694 8.3151 8.9761 8.1582 9.70373 8.1582C10.4321 8.1582 11.0722 8.38967 11.623 8.85223C12.1742 9.3148 12.4496 9.94423 12.4496 10.7409C12.4496 11.1754 12.3388 11.5918 12.1181 11.9898C11.8966 12.3881 11.4879 12.8972 10.8924 13.5166L9.37221 15.0974H12.7028V16.7871H6.75336V15.3872L9.2275 12.8529C9.72588 12.346 10.0825 11.941 10.2955 11.6402ZM16.5772 13.1423V11.6701H18.3872V13.1423H19.3401V14.7714H18.3872V16.7871H16.5768V14.7714H13.1853V13.3354L16.1903 8.35165H18.2422L15.3822 13.1423H16.5772Z"
    fill="#1754F8" stroke="#1754F8" stroke-width="0.6" />
</svg>