<svg xmlns="http://www.w3.org/2000/svg" width="21" height="20" viewBox="0 0 21 20" fill="none">
  <path fill-rule="evenodd" clip-rule="evenodd"
    d="M3.83333 10.0013C3.83333 6.3194 6.8181 3.33464 10.5 3.33464C14.1819 3.33464 17.1667 6.3194 17.1667 10.0013C17.1667 13.6832 14.1819 16.668 10.5 16.668C6.8181 16.668 3.83333 13.6832 3.83333 10.0013ZM10.5 1.66797C5.89763 1.66797 2.16667 5.39893 2.16667 10.0013C2.16667 14.6037 5.89763 18.3346 10.5 18.3346C15.1024 18.3346 18.8333 14.6037 18.8333 10.0013C18.8333 5.39893 15.1024 1.66797 10.5 1.66797ZM10.5 8.33464C10.0398 8.33464 9.66667 7.96154 9.66667 7.5013V6.66797C9.66667 6.20773 10.0398 5.83464 10.5 5.83464C10.9602 5.83464 11.3333 6.20773 11.3333 6.66797V7.5013C11.3333 7.96154 10.9602 8.33464 10.5 8.33464ZM10.5 14.168C10.0398 14.168 9.66667 13.7949 9.66667 13.3346L9.66667 10.0013C9.66667 9.54106 10.0398 9.16797 10.5 9.16797C10.9602 9.16797 11.3333 9.54106 11.3333 10.0013L11.3333 13.3346C11.3333 13.7949 10.9602 14.168 10.5 14.168Z"
    fill="#F1606D" />
</svg>