<svg xmlns="http://www.w3.org/2000/svg" width="28" height="28" viewBox="0 0 28 28" fill="none">
  <path fill-rule="evenodd" clip-rule="evenodd"
    d="M11.8001 8.49961C11.8001 7.28458 12.785 6.29961 14.0001 6.29961C15.2151 6.29961 16.2001 7.28458 16.2001 8.49961C16.2001 9.71464 15.2151 10.6996 14.0001 10.6996C12.785 10.6996 11.8001 9.71464 11.8001 8.49961ZM14.0001 4.09961C11.57 4.09961 9.60007 6.06956 9.60007 8.49961C9.60007 10.9297 11.57 12.8996 14.0001 12.8996C16.4301 12.8996 18.4001 10.9297 18.4001 8.49961C18.4001 6.06956 16.4301 4.09961 14.0001 4.09961ZM14.2962 16.1996C17.5054 16.1996 20.1545 18.5977 20.5493 21.6996H7.45084C7.84564 18.5977 10.4947 16.1996 13.7039 16.1996H14.2962ZM13.7039 13.9996C9.00738 13.9996 5.20007 17.8069 5.20007 22.5035C5.20007 23.2745 5.82515 23.8996 6.59623 23.8996H21.4039C22.175 23.8996 22.8001 23.2745 22.8001 22.5035C22.8001 17.8069 18.9928 13.9996 14.2962 13.9996H13.7039Z"
    fill="black" />
</svg>