<svg xmlns="http://www.w3.org/2000/svg" width="12" height="12" viewBox="0 0 12 12" fill="none">
  <path fill-rule="evenodd" clip-rule="evenodd"
    d="M8.20711 1.99992C7.81658 1.6094 7.18342 1.6094 6.79289 1.99992L2.79289 5.99992C2.60536 6.18746 2.5 6.44181 2.5 6.70703V7.49992C2.5 8.05221 2.94772 8.49992 3.5 8.49992H4.29289C4.55811 8.49992 4.81246 8.39457 5 8.20703L9 4.20703C9.39053 3.81651 9.39052 3.18334 9 2.79282L8.20711 1.99992ZM3.5 6.70703L7.5 2.70703L8.29289 3.49992L4.29289 7.49992H3.5L3.5 6.70703ZM2 9.49992C1.72386 9.49992 1.5 9.72378 1.5 9.99992C1.5 10.2761 1.72386 10.4999 2 10.4999H10C10.2761 10.4999 10.5 10.2761 10.5 9.99992C10.5 9.72378 10.2761 9.49992 10 9.49992H2Z"
    fill="currentColor" />
</svg>