<svg xmlns="http://www.w3.org/2000/svg" width="30" height="31" viewBox="0 0 30 31" fill="none">
  <path
    d="M15 3.5C8.346 3.5 3 8.8445 3 15.5C3 22.1555 8.3445 27.5 15 27.5C21.6555 27.5 27 22.1555 27 15.5C27 8.8445 21.6555 3.5 15 3.5ZM11.946 19.1C11.7479 18.2736 11.6026 17.4354 11.511 16.5905H18.381C18.273 17.4635 18.1635 18.227 17.946 18.9905C15.9573 18.6455 13.921 18.6821 11.946 19.0985V19.1ZM17.2905 21.173C16.7445 22.481 15.9825 23.681 15 24.881C14.0175 23.7905 13.2555 22.481 12.7095 21.173C14.219 20.8458 15.781 20.8458 17.2905 21.173ZM11.5095 14.408C11.6175 13.5365 11.727 12.773 11.9445 12.0095C12.927 12.119 13.9095 12.2285 14.9985 12.2285C16.0257 12.2279 17.0499 12.1183 18.054 11.9015C18.2715 12.665 18.381 13.5365 18.489 14.4095H11.508L11.5095 14.408ZM12.7095 9.827C13.2555 8.519 14.0175 7.2095 15 6.119C15.9825 7.2095 16.7445 8.519 17.2905 9.827C15.781 10.1542 14.219 10.1542 12.7095 9.827ZM17.6175 6.0095C19.1583 6.44254 20.5779 7.22652 21.765 8.3C21.0015 8.735 20.238 8.954 19.4745 9.2825C19.0395 8.192 18.384 7.1 17.619 6.0095H17.6175ZM10.527 9.3905L8.2365 8.4095C9.4365 7.319 10.746 6.554 12.3825 6.1175C11.6175 7.1 10.9635 8.1905 10.527 9.3905ZM9.873 11.465C9.654 12.4475 9.4365 13.43 9.327 14.411H5.292C5.51921 12.8727 6.03745 11.3918 6.819 10.0475C7.8 10.7015 8.7825 11.138 9.873 11.465ZM9.327 16.592C9.4365 17.5745 9.546 18.557 9.7635 19.538C8.673 19.865 7.692 20.3015 6.7095 20.846C5.8365 19.538 5.292 18.119 5.1825 16.4825H9.327V16.592ZM10.527 21.611C10.962 22.811 11.6175 23.9015 12.3825 24.884C10.8421 24.4503 9.42303 23.6658 8.2365 22.592L10.527 21.611ZM19.473 21.611C20.2731 21.8449 21.0421 22.1743 21.7635 22.592C20.5635 23.6825 19.254 24.4475 17.6175 24.884C18.3825 23.9015 19.0365 22.811 19.473 21.611ZM20.127 19.538C20.346 18.5555 20.5635 17.573 20.5635 16.592H24.7095C24.4818 18.1304 23.9631 19.6113 23.181 20.9555C22.2411 20.3303 21.2112 19.8523 20.127 19.538ZM20.673 14.411C20.5635 13.4285 20.454 12.446 20.2365 11.465C21.2994 11.1423 22.3235 10.7036 23.2905 10.157C24.1635 11.465 24.708 12.884 24.8175 14.519H20.673V14.411Z"
    fill="#1754F8" />
</svg>