<svg xmlns="http://www.w3.org/2000/svg" width="122" height="141" viewBox="0 0 122 141" fill="none">
  <path
    d="M65.3654 66.2763C72.3665 72.9928 84.2672 75.3235 91.9386 71.5506C94.5569 70.2629 96.3522 68.4292 97.3053 66.3041C97.7104 65.4008 98.2012 64.0573 98.5918 62.936C98.7868 62.3761 98.9563 61.8729 99.0772 61.5097C99.1376 61.3281 99.1858 61.1816 99.2189 61.0804L99.2568 60.9641L99.2588 60.958C98.9911 59.6578 98.1499 58.1983 97.0401 56.7433C95.9219 55.2772 94.5413 53.8287 93.2311 52.5718C89.7537 49.2357 84.1135 47.1554 78.3524 46.3888C72.6232 45.6264 66.828 46.1704 62.989 48.0316L62.9568 48.1072C62.9201 48.1937 62.8667 48.3203 62.8 48.4802C62.6667 48.8002 62.4805 49.2537 62.2688 49.7878C61.8453 50.8566 61.3208 52.246 60.9149 53.5329C59.6742 57.4666 61.1183 62.2018 65.3654 66.2763Z"
    fill="#28AD76" stroke="white" stroke-width="0.481028" />
  <path
    d="M67.0413 61.6487C74.0424 68.3652 85.9431 70.696 93.6145 66.9231C101.286 63.1502 101.908 54.6607 94.907 47.9442C87.9059 41.2277 76.0053 38.8969 68.3338 42.6698C60.6623 46.4427 60.0403 54.9322 67.0413 61.6487Z"
    fill="#1B1B1B" stroke="white" stroke-width="0.481028" />
  <path
    d="M70.2215 45.9247C73.8297 43.1723 80.199 42.9818 86.2397 45.8305C93.8845 49.4357 98.1082 56.5436 95.6735 61.7064C95.1927 62.7258 94.4884 63.5931 93.6086 64.301"
    stroke="white" stroke-width="0.481028" />
  <path
    d="M83.6481 56.2748L87.8959 61.2283L85.2394 62.2808L80.9927 57.3286L80.8866 57.2049L80.7302 57.2588C78.9837 57.8616 77.3561 58.2666 76.0966 58.4341C75.4655 58.518 74.9378 58.5408 74.539 58.5033C74.1298 58.4649 73.9149 58.3696 73.8229 58.2623C73.7309 58.155 73.7148 57.981 73.8673 57.72C74.0159 57.4657 74.3051 57.1647 74.7235 56.8328C75.5585 56.1704 76.879 55.4073 78.5113 54.6714L78.6575 54.6054L78.5514 54.4817L77.1935 52.8982L77.0821 52.7684L76.9232 52.8314L72.9073 54.4225L71.0514 52.2583L82.0575 47.8975L83.9134 50.0617L79.8976 51.6528L79.7386 51.7158L79.8499 51.8456L81.2088 53.4302L81.3148 53.5538L81.4712 53.5C83.2119 52.9007 84.8332 52.4986 86.0875 52.3328C86.7161 52.2497 87.2415 52.2275 87.6386 52.2651C88.046 52.3038 88.2599 52.3988 88.3516 52.5057C88.4433 52.6127 88.4595 52.786 88.3082 53.0459C88.1607 53.2993 87.8733 53.5992 87.4572 53.93C86.6268 54.5901 85.313 55.3509 83.6881 56.0853L83.5422 56.1512L83.6481 56.2748ZM83.405 55.7316L83.4056 55.7314C84.6994 55.1463 85.7647 54.5572 86.4592 54.0528C86.8054 53.8014 87.0668 53.5658 87.2162 53.3576C87.2908 53.2535 87.3422 53.15 87.3575 53.0498C87.373 52.9483 87.3524 52.8414 87.2682 52.7432C87.184 52.645 87.0572 52.5801 86.9197 52.5393C86.7838 52.4989 86.626 52.4783 86.456 52.4712C86.1157 52.457 85.6852 52.4955 85.1926 52.5765C84.2044 52.7388 82.9246 53.0789 81.537 53.5564L81.3645 53.6158L81.4814 53.7521L82.6319 55.0937C82.2207 55.2805 81.7781 55.4685 81.3139 55.6524C80.8581 55.833 80.4091 55.9986 79.9761 56.1473L78.8211 54.8004L78.7041 54.664L78.5431 54.7368C77.2427 55.3242 76.1708 55.9158 75.4717 56.4223C75.1232 56.6748 74.8599 56.9115 74.7094 57.1205C74.6341 57.225 74.5824 57.3289 74.5668 57.4296C74.5511 57.5314 74.5716 57.6388 74.6561 57.7374C74.7407 57.8359 74.868 57.9009 75.0061 57.9418C75.1426 57.9823 75.3011 58.0029 75.472 58.0099C75.8138 58.024 76.2466 57.985 76.7416 57.9034C77.7346 57.7397 79.0202 57.3972 80.4127 56.9168L80.413 56.9167L80.5954 56.8534L80.5955 56.8536L80.602 56.851C80.7843 56.7868 80.9685 56.7204 81.1543 56.6516L81.1543 56.6516L81.1581 56.6501L81.1733 56.6441L81.3281 56.5865L81.3282 56.5865L81.3317 56.5851L81.3754 56.5678L81.5047 56.5186L81.5048 56.5186L81.5071 56.5177L82.3334 56.1903L82.3334 56.1903L82.3357 56.1894L82.4637 56.1366L82.5093 56.1186L82.5093 56.1186L82.5128 56.1171L82.6738 56.0493L82.6797 56.047L82.6797 56.047L82.6835 56.0454C82.8044 55.9943 82.9232 55.9431 83.0401 55.892L83.0547 55.8862L83.0547 55.8863L83.0608 55.8836L83.215 55.8157L83.231 55.8094L83.2311 55.8095L83.2381 55.8064L83.405 55.7316Z"
    fill="white" stroke="white" stroke-width="0.342008" />
  <path
    d="M43.9155 102.69C50.9166 109.407 62.8173 111.738 70.4888 107.965C73.1071 106.677 74.9023 104.843 75.8554 102.718C76.2605 101.815 76.7513 100.471 77.1419 99.35C77.3369 98.7901 77.5065 98.287 77.6273 97.9238C77.6877 97.7422 77.7359 97.5956 77.769 97.4945L77.8069 97.3782L77.8089 97.3721C77.5412 96.0719 76.7 94.6124 75.5902 93.1573C74.472 91.6913 73.0914 90.2428 71.7812 88.9858C68.3038 85.6498 62.6636 83.5695 56.9025 82.8028C51.1733 82.0404 45.3781 82.5845 41.5391 84.4457L41.5069 84.5213C41.4702 84.6078 41.4168 84.7343 41.3501 84.8943C41.2168 85.2142 41.0306 85.6678 40.8189 86.2019C40.3954 87.2707 39.8709 88.6601 39.465 89.947C38.2243 93.8807 39.6685 98.6159 43.9155 102.69Z"
    fill="#FFCE1F" stroke="white" stroke-width="0.481028" />
  <path
    d="M45.5914 98.0647C52.5925 104.781 64.4932 107.112 72.1647 103.339C79.8361 99.5662 80.4582 91.0767 73.4571 84.3602C66.456 77.6437 54.5554 75.313 46.8839 79.0859C39.2124 82.8587 38.5904 91.3482 45.5914 98.0647Z"
    fill="#1B1B1B" stroke="white" stroke-width="0.481028" />
  <path
    d="M60.1877 85.3429L59.7671 89.5724C59.7355 89.8612 60.2935 90.0561 60.4233 89.7862L61.7858 87.0551C61.8256 86.9857 61.9531 86.9969 62.0115 87.0851L66.2135 93.4237C66.272 93.512 66.1653 93.5839 66.065 93.5361L52.2725 87.2187C51.8253 87.0098 51.3445 86.9573 50.9201 87.0674L50.6274 87.1433C49.8664 87.3407 49.5963 88.0458 50.0391 88.7137L55.9535 97.6356C56.3963 98.3035 57.3848 98.6822 58.1604 98.481C58.6434 98.3557 58.955 98.0238 58.9762 97.59L59.3969 93.3605C59.4284 93.0718 58.8704 92.8768 58.7406 93.1468L57.3698 95.8653C57.33 95.9347 57.2025 95.9234 57.144 95.8352L52.9504 89.5092C52.892 89.421 52.9986 89.349 53.0989 89.3968L66.8915 95.7142C67.3387 95.9231 67.8341 95.9719 68.2438 95.8656L68.5365 95.7897C69.3122 95.5885 69.5823 94.8834 69.1395 94.2155L63.225 85.2935C62.7823 84.6256 61.7938 84.247 61.0181 84.4482C60.5206 84.5772 60.2089 84.9091 60.1877 85.3429Z"
    fill="white" />
  <path
    d="M56.5432 79.9799C53.9731 79.9418 51.5058 80.4078 49.4207 81.4333C45.2171 83.5007 43.6467 87.3108 44.8229 91.2287M74.0441 96.7695C73.2686 98.453 71.8314 99.9073 69.7463 100.933C68.3729 101.608 66.8336 102.041 65.2084 102.247"
    stroke="white" stroke-width="0.660318" />
  <path
    d="M12.3935 93.888L0.43814 53.5812L2.24794 52.807L8.25033 59.1929C14.6049 8.29578 60.5632 -9.53004 86.0089 8.29402C56.4503 4.56811 28.276 38.6946 23.8933 70.8335L14.3104 93.888L12.3935 93.888Z"
    fill="white" stroke="black" stroke-width="0.520801" />
  <path
    d="M14.5029 93.6721L2.35601 52.9824L10.1682 58.594C16.5228 7.69689 66.9862 -10.1065 87.9268 7.69511C58.3682 3.9692 30.1938 38.0957 25.8111 70.2346L31.6523 74.4479L14.5029 93.6721Z"
    fill="#1B1B1B" stroke="white" stroke-width="0.520801" />
  <path
    d="M87.7688 65.3656L104.503 45.7787L107.158 45.7787L117.518 86.1991L109.587 80.756C104.324 131.777 54.2529 150.657 32.936 133.308C62.5677 136.4 90.0051 101.678 93.6988 69.4529L87.7688 65.3656Z"
    stroke="#111111" stroke-width="0.520801" />
  <path
    d="M91.7487 64.6052L107.264 46.1891L119.73 84.9047L112.713 80.0887L112.188 79.7284L112.123 80.3617C109.504 105.747 95.7442 123.115 80.0075 131.986C64.7427 140.591 47.6936 141.17 37.1016 133.441C51.5989 134.463 65.3418 127.197 75.9933 115.442C86.9626 103.336 94.6895 86.4363 96.6326 68.785L96.6552 68.5798L96.4947 68.4498L91.7487 64.6052Z"
    fill="#1754F8" stroke="black" stroke-width="0.75641" />
  <path
    d="M26.4812 131.487C11.8966 123.437 7.4612 116.929 8.17351 100.708L10.0469 99.5586L22.3244 111.056C22.0984 119.083 26.232 127.595 28.4431 130.602L26.4812 131.487Z"
    stroke="white" stroke-width="0.481028" />
  <path
    d="M24.6252 121.76C25.2105 124.502 26.1467 126.858 27.4924 129.468C20.849 125.699 16.5041 122.238 13.8596 117.903C11.1557 113.47 10.1988 108.071 10.4691 100.371L23.8867 110.182C23.7558 115.118 23.9661 118.674 24.6252 121.76Z"
    fill="#1754F8" stroke="black" stroke-width="0.75641" />
  <path
    d="M50.7231 52.1262L50.739 52.0765C50.541 51.1207 49.9476 50.1119 49.1434 49.0951C48.3249 48.0602 47.3034 47.0356 46.2978 46.0709C43.6754 43.5551 39.8749 41.6984 36.008 40.8291C32.1394 39.9595 28.2508 40.0867 25.4081 41.4848C24.387 41.9869 23.7569 42.7587 23.2987 43.6577C22.9687 44.3051 22.739 44.9921 22.5102 45.6763C22.418 45.9518 22.3261 46.2268 22.2278 46.4986C21.1459 49.49 22.1905 53.1614 25.4745 56.3119C30.7327 61.3564 39.6367 63.0806 45.3501 60.2707C47.6429 59.143 49.0918 57.4527 49.6696 55.504C49.8374 54.9382 50.1092 54.0674 50.3386 53.3393C50.4534 52.9749 50.5578 52.6459 50.6334 52.4079L50.7231 52.1262Z"
    fill="#1754F8" stroke="black" stroke-width="0.75641" />
  <path
    d="M26.6244 52.8567C31.926 57.9428 40.9279 59.7 46.7229 56.85C52.5179 53.9999 52.9964 47.5802 47.6948 42.4941C42.3932 37.408 33.3914 35.6508 27.5963 38.5008C21.8013 41.3509 21.3228 47.7705 26.6244 52.8567Z"
    fill="#1B1B1B" stroke="white" stroke-width="0.481028" />
  <path
    d="M45.0813 55.5762C49.9379 53.1877 50.3093 47.8307 45.9109 43.6111C41.5124 39.3914 34.0098 37.907 29.1532 40.2955"
    stroke="white" stroke-width="0.481028" />
  <path
    d="M31.1005 41.8713L31.4723 42.0834L39.3695 49.6596L39.3498 49.7853L32.6245 49.9484L31.1005 41.8713Z"
    fill="white" />
  <path d="M31.1006 41.8708L41.7416 45.4642L39.3499 49.7848L35.5168 46.1075L31.1006 41.8708Z"
    fill="white" />
  <path
    d="M40.0439 50.451L40.1551 50.4762L42.9682 53.175L43.0439 53.3291L33.317 50.6165L40.0439 50.451Z"
    fill="white" />
  <path d="M43.0439 53.3285L40.0439 50.4505L42.4367 46.1309L43.0439 53.3285Z" fill="white" />
  <path d="M39.35 49.7847L32.6247 49.9478L35.5169 46.1074L39.35 49.7847Z" fill="white" />
  <path d="M41.7416 45.4657L39.3499 49.7864L35.5168 46.1091L41.7416 45.4657Z" fill="white" />
</svg>