<svg xmlns="http://www.w3.org/2000/svg" width="15" height="14" viewBox="0 0 15 14" fill="none">
  <path fill-rule="evenodd" clip-rule="evenodd"
    d="M12.5833 7C12.5833 9.8995 10.2328 12.25 7.33334 12.25C4.43384 12.25 2.08334 9.8995 2.08334 7C2.08334 4.10051 4.43384 1.75 7.33334 1.75C10.2328 1.75 12.5833 4.10051 12.5833 7ZM9.49582 4.83752C9.72362 5.06533 9.72362 5.43467 9.49582 5.66248L8.15829 7L9.49582 8.33752C9.72362 8.56533 9.72362 8.93467 9.49582 9.16248C9.26801 9.39029 8.89866 9.39029 8.67086 9.16248L7.33334 7.82496L5.99582 9.16248C5.76801 9.39029 5.39866 9.39029 5.17086 9.16248C4.94305 8.93467 4.94305 8.56533 5.17086 8.33752L6.50838 7L5.17086 5.66248C4.94305 5.43467 4.94305 5.06533 5.17086 4.83752C5.39866 4.60972 5.76801 4.60972 5.99582 4.83752L7.33334 6.17504L8.67086 4.83752C8.89866 4.60972 9.26801 4.60972 9.49582 4.83752Z"
    fill="#A4ACC1" />
</svg>