<svg width="34" height="34" viewBox="0 0 34 34" fill="none" xmlns="http://www.w3.org/2000/svg">
  <path d="M28.05 8.9V5H4V29.05H28.05V25.8" stroke="currentColor" stroke-width="3.12" />
  <path d="M26.1016 12.1504L30.6516 17.3504L26.1016 21.9004" stroke="currentColor" stroke-width="3.12" />
  <path
    d="M20.9008 14.0154H15.3186C14.884 14.0154 14.5485 14.0374 14.3119 14.0814C14.0809 14.12 13.8773 14.2877 13.7013 14.5848C13.7563 14.9589 13.9048 15.1707 14.1469 15.2202C14.3889 15.2642 14.763 15.2862 15.2691 15.2862H18.3966C19.6509 15.3577 20.5284 15.7208 21.029 16.3755C21.5296 17.0301 21.7222 17.9434 21.6066 19.1151C21.4196 20.2869 21.007 21.1534 20.3688 21.7145C19.7307 22.2701 18.6772 22.559 17.2083 22.581H11.1508V19.6185H17.1588C17.731 19.6185 18.1656 19.5993 18.4626 19.5607C18.7652 19.5167 18.9715 19.2939 19.0815 18.8923C19.043 18.5733 18.889 18.3835 18.6194 18.3229C18.3554 18.2569 17.9098 18.2239 17.2826 18.2239H14.2624C12.9311 18.2239 11.9876 17.8993 11.432 17.2502C10.8818 16.601 10.6645 15.7016 10.7801 14.5518C10.9946 13.347 11.4292 12.4723 12.0839 11.9277C12.7385 11.3831 13.7755 11.0777 15.1949 11.0117H20.9008V14.0154Z"
    fill="currentColor" />
  <rect x="14.9102" y="8.86328" width="2.99681" height="2.24961" fill="currentColor" />
  <rect x="14.9102" y="22.5488" width="2.99681" height="2.23184" fill="currentColor" />
</svg>
  