<svg xmlns="http://www.w3.org/2000/svg" width="12" height="12" viewBox="0 0 12 12" fill="none">
  <path fill-rule="evenodd" clip-rule="evenodd"
    d="M5 3.5C5 2.94772 5.44772 2.5 6 2.5C6.55228 2.5 7 2.94772 7 3.5C7 4.05228 6.55228 4.5 6 4.5C5.44772 4.5 5 4.05228 5 3.5ZM6 1.5C4.89543 1.5 4 2.39543 4 3.5C4 4.60457 4.89543 5.5 6 5.5C7.10457 5.5 8 4.60457 8 3.5C8 2.39543 7.10457 1.5 6 1.5ZM6.13461 7C7.59334 7 8.79747 8.09003 8.97692 9.5H3.02308C3.20253 8.09003 4.40666 7 5.86539 7H6.13461ZM5.86539 6C3.73059 6 2 7.73059 2 9.86539C2 10.2159 2.28413 10.5 2.63462 10.5H9.36538C9.71587 10.5 10 10.2159 10 9.86539C10 7.73059 8.26941 6 6.13461 6H5.86539Z"
    fill="currentColor" />
</svg>