<svg width="34" height="34" viewBox="0 0 34 34" fill="none" xmlns="http://www.w3.org/2000/svg">
  <path
    d="M17.36 2C8.84288 2 2 8.84096 2 17.36C2 25.879 8.84096 32.72 17.36 32.72C25.879 32.72 32.72 25.879 32.72 17.36C32.72 8.84096 25.879 2 17.36 2ZM13.4509 21.968C13.1973 20.9102 13.0114 19.8373 12.8941 18.7558H21.6877C21.5494 19.8733 21.4093 20.8506 21.1309 21.8278C18.5853 21.3862 15.9789 21.4331 13.4509 21.9661V21.968ZM20.2918 24.6214C19.593 26.2957 18.6176 27.8317 17.36 29.3677C16.1024 27.9718 15.127 26.2957 14.4282 24.6214C16.3603 24.2026 18.3597 24.2026 20.2918 24.6214ZM12.8922 15.9622C13.0304 14.8467 13.1706 13.8694 13.449 12.8922C14.7066 13.0323 15.9642 13.1725 17.3581 13.1725C18.6729 13.1717 19.9839 13.0314 21.2691 12.7539C21.5475 13.7312 21.6877 14.8467 21.8259 15.9642H12.8902L12.8922 15.9622ZM14.4282 10.0986C15.127 8.42432 16.1024 6.74816 17.36 5.35232C18.6176 6.74816 19.593 8.42432 20.2918 10.0986C18.3597 10.5173 16.3603 10.5173 14.4282 10.0986ZM20.7104 5.21216C22.6826 5.76646 24.4997 6.76995 26.0192 8.144C25.0419 8.7008 24.0646 8.98112 23.0874 9.4016C22.5306 8.00576 21.6915 6.608 20.7123 5.21216H20.7104ZM11.6346 9.53984L8.70272 8.28416C10.2387 6.88832 11.9149 5.90912 14.0096 5.3504C13.0304 6.608 12.1933 8.00384 11.6346 9.53984ZM10.7974 12.1952C10.5171 13.4528 10.2387 14.7104 10.0986 15.9661H4.93376C5.22459 13.9971 5.88793 12.1015 6.88832 10.3808C8.144 11.2179 9.4016 11.7766 10.7974 12.1952ZM10.0986 18.7578C10.2387 20.0154 10.3789 21.273 10.6573 22.5286C9.26144 22.9472 8.00576 23.5059 6.74816 24.2029C5.63072 22.5286 4.93376 20.7123 4.7936 18.6176H10.0986V18.7578ZM11.6346 25.1821C12.1914 26.7181 13.0304 28.1139 14.0096 29.3715C12.0379 28.8164 10.2215 27.8122 8.70272 26.4378L11.6346 25.1821ZM23.0854 25.1821C24.1096 25.4815 25.0939 25.9031 26.0173 26.4378C24.4813 27.8336 22.8051 28.8128 20.7104 29.3715C21.6896 28.1139 22.5267 26.7181 23.0854 25.1821ZM23.9226 22.5286C24.2029 21.271 24.4813 20.0134 24.4813 18.7578H29.7882C29.4967 20.7269 28.8327 22.6225 27.8317 24.343C26.6286 23.5428 25.3103 22.931 23.9226 22.5286ZM24.6214 15.9661C24.4813 14.7085 24.3411 13.4509 24.0627 12.1952C25.4232 11.7821 26.7341 11.2206 27.9718 10.521C29.0893 12.1952 29.7862 14.0115 29.9264 16.1043H24.6214V15.9661Z"
    fill="currentColor" />
</svg>
  