<svg width="65" height="66" viewBox="0 0 65 66" fill="none" xmlns="http://www.w3.org/2000/svg">
  <circle cx="32.5" cy="33" r="32.5" fill="#F7F8FC" />
  <path d="M43.55 24.5504V20.6504H19.5V44.7004H43.55V41.4504" stroke="#1754F8" stroke-width="3.12" />
  <path d="M41.6 27.8008L46.15 33.0008L41.6 37.5508" stroke="#1754F8" stroke-width="3.12" />
  <path
    d="M36.3999 29.6658H30.8178C30.3832 29.6658 30.0476 29.6878 29.8111 29.7318C29.58 29.7703 29.3765 29.9381 29.2004 30.2352C29.2554 30.6093 29.404 30.8211 29.646 30.8706C29.8881 30.9146 30.2622 30.9366 30.7683 30.9366H33.8958C35.1501 31.0081 36.0275 31.3712 36.5281 32.0259C37.0288 32.6805 37.2213 33.5938 37.1058 34.7655C36.9187 35.9373 36.5061 36.8038 35.868 37.3649C35.2298 37.9205 34.1763 38.2093 32.7075 38.2313H26.6499V35.2689H32.658C33.2301 35.2689 33.6647 35.2496 33.9618 35.2111C34.2644 35.1671 34.4707 34.9443 34.5807 34.5427C34.5422 34.2236 34.3881 34.0339 34.1186 33.9733C33.8545 33.9073 33.4089 33.8743 32.7818 33.8743H29.7615C28.4302 33.8743 27.4868 33.5497 26.9311 32.9006C26.381 32.2514 26.1637 31.352 26.2792 30.2022C26.4938 28.9974 26.9284 28.1227 27.583 27.5781C28.2377 27.0334 29.2747 26.7281 30.694 26.6621H36.3999V29.6658Z"
    fill="#1754F8" />
  <rect x="30.4089" y="24.5137" width="2.99681" height="2.24961" fill="#1754F8" />
  <rect x="30.4089" y="38.1992" width="2.99681" height="2.23184" fill="#1754F8" />
</svg>
  