<svg width="131" height="90" viewBox="0 0 131 90" fill="none" xmlns="http://www.w3.org/2000/svg">
  <path
    d="M130.467 63.1722C130.467 76.4904 111.049 87.2869 87.0968 87.2869C63.1442 87.2869 43.7268 76.4904 43.7268 63.1722C43.7268 55.8723 43.7269 49.8638 43.7269 49.8638C51.3253 46.2182 76.2731 39.0576 87.0968 39.0576C100.693 39.0576 130.467 51.1721 130.467 51.1721C130.467 51.1721 130.467 57.4138 130.467 63.1722Z"
    fill="#1754F8" stroke="black" stroke-width="0.788982" />
  <ellipse cx="87.0971" cy="52.1234" rx="43.37" ry="24.1146" fill="#1754F8" stroke="black"
    stroke-width="0.394491" />
  <g filter="url(#filter0_d_10774_64016)">
    <ellipse cx="87.0974" cy="48.0884" rx="36.113" ry="20.0796" fill="#1754F8" />
    <ellipse cx="87.0974" cy="48.0884" rx="36.113" ry="20.0796" stroke="white"
      stroke-width="0.788982" />
  </g>
  <g filter="url(#filter1_i_10774_64016)">
    <path
      d="M103.738 62.5212L60.6599 39.6241C59.4787 38.9963 59.4812 37.3028 60.6642 36.6785L66.0837 33.818C66.5459 33.5741 67.0959 33.5611 67.5691 33.7829L112.249 54.728C113.332 55.2353 113.544 56.6833 112.652 57.4798L107.524 62.0633C106.482 62.9939 104.971 63.1767 103.738 62.5212Z"
      fill="black" />
  </g>
  <mask id="mask0_10774_64016" style="mask-type:alpha" maskUnits="userSpaceOnUse" x="61" y="0"
    width="52" height="60">
    <path d="M61.1211 39.6335V0.716797L112.402 12.3781V50.9576L99.7008 59.3756L61.1211 39.6335Z"
      fill="#D9D9D9" />
  </mask>
  <g mask="url(#mask0_10774_64016)">
    <path
      d="M107.094 47.9473C105.747 54.283 102.468 58.3684 98.2846 59.8909C94.1014 61.4135 88.9633 60.3918 83.8592 56.404C81.333 54.4303 79.2777 50.4972 77.6211 45.6672C75.9674 40.8457 74.7215 35.1629 73.7954 29.7252C72.8694 24.2883 72.264 19.1013 71.8901 15.2731C71.7032 13.3592 71.5741 11.7852 71.4918 10.6899C71.4506 10.1422 71.4212 9.71424 71.402 9.42328C71.3931 9.28779 71.3864 9.182 71.3818 9.10769L71.4468 9.08698C71.57 9.0479 71.7516 8.99074 71.9847 8.91855C72.451 8.77416 73.1233 8.56963 73.947 8.32925C75.5946 7.84844 77.8469 7.22439 80.267 6.65116C84.2054 5.71828 88.8498 6.89858 93.4659 10.5051C98.5706 14.4933 102.654 20.6799 105.123 27.4634C107.592 34.2469 108.441 41.6109 107.094 47.9473Z"
      fill="#1754F8" stroke="black" stroke-width="0.333333" />
    <path
      d="M100.508 49.1956C99.1616 55.5314 95.8823 59.6168 91.6991 61.1393C87.516 62.6618 82.3778 61.6402 77.2737 57.6524C72.169 53.6641 68.0855 47.4776 65.6165 40.694C63.1475 33.9105 62.299 26.5465 63.6458 20.2101C64.9925 13.8744 68.2718 9.78901 72.455 8.26647C76.6381 6.74392 81.7763 7.76561 86.8804 11.7534C91.9851 15.7416 96.0686 21.9282 98.5376 28.7117C101.007 35.4952 101.855 42.8593 100.508 49.1956Z"
      fill="white" stroke="black" stroke-width="0.333333" />
    <g filter="url(#filter2_i_10774_64016)">
      <path
        d="M95.7593 46.5335C93.6099 56.6456 85.2635 59.6834 77.117 53.3187C68.9706 46.954 64.109 33.597 66.2584 23.4849C68.4078 13.3728 76.7542 10.3349 84.9006 16.6996C93.0471 23.0643 97.9087 36.4214 95.7593 46.5335Z"
        fill="white" />
    </g>
    <path
      d="M95.5963 46.4989C94.5296 51.517 91.9341 54.7457 88.63 55.9483C85.326 57.1509 81.2623 56.3459 77.2196 53.1874C73.1764 50.0285 69.9403 45.1267 67.9834 39.7501C66.0264 34.3734 65.3546 28.5384 66.4214 23.5195C67.4881 18.5014 70.0836 15.2726 73.3876 14.0701C76.6917 12.8675 80.7553 13.6725 84.798 16.831C88.8413 19.9899 92.0774 24.8917 94.0343 30.2683C95.9912 35.6449 96.663 41.48 95.5963 46.4989Z"
      stroke="black" stroke-opacity="0.5" stroke-width="0.333333" />
    <g filter="url(#filter3_d_10774_64016)">
      <path
        d="M86.406 45.4094C85.588 46.1082 84.4781 46.302 83.0764 45.9908L83.1589 49.1784L79.4418 47.483L79.361 44.3618C77.8834 43.4254 76.6968 42.1952 75.8013 40.6711C74.8223 38.9996 74.2857 37.1143 74.1916 35.0151L78.2411 36.8621C78.3521 38.0721 78.645 39.0041 79.1198 39.6581C79.5532 40.2496 80.2031 40.7428 81.0694 41.1379C82.6005 41.8363 83.3466 41.4328 83.3077 39.9276C83.2905 39.2635 83.136 38.679 82.8442 38.174C82.5127 37.6728 82.0027 37.1996 81.3143 36.7544L79.8257 35.7802C78.0638 34.6266 76.7368 33.3541 75.8447 31.9629C74.9532 30.5938 74.4845 29.0238 74.4386 27.2529C74.3934 25.5042 74.7798 24.2804 75.5979 23.5817C76.416 22.8829 77.4856 22.6708 78.8067 22.9452L78.7371 20.2557L82.4542 21.951L82.5247 24.6738C83.8031 25.6068 84.8383 26.7571 85.6302 28.1245C86.486 29.6524 86.9886 31.38 87.1381 33.3075L82.9677 31.4054C82.8797 30.3153 82.6395 29.4948 82.2469 28.9439C81.8947 28.4114 81.3559 27.9797 80.6307 27.6489C79.9658 27.3457 79.467 27.3041 79.1343 27.5243C78.8015 27.7444 78.644 28.1975 78.6618 28.8837C78.6778 29.5035 78.8513 30.053 79.1822 30.532C79.5339 31.0424 80.1147 31.5589 80.9246 32.0814L82.6566 33.2323C84.2165 34.2719 85.4223 35.4781 86.2741 36.8509C87.1064 38.2368 87.5451 39.804 87.5904 41.5528C87.6391 43.4343 87.2443 44.7199 86.406 45.4094Z"
        fill="black" />
    </g>
  </g>
  <path
    d="M11.521 73.0675L11.5228 73.0924L11.536 73.1129L11.7056 73.0219L11.536 73.1129L11.5361 73.113L11.5364 73.1135L11.5377 73.1155L11.5427 73.1234L11.5627 73.1545L11.6393 73.2739L11.9211 73.7136C12.1591 74.0851 12.4876 74.5989 12.8501 75.1681C13.5753 76.3067 14.4358 77.6662 14.9788 78.5517C16.9328 81.7386 20.3216 84.0652 24.9593 84.9825C36.5433 87.2737 51.4812 79.9079 58.3415 68.575C62.6363 61.4803 62.7611 54.4956 59.4162 49.6977C59.1386 49.2996 58.8641 48.8847 58.5854 48.4636C57.8738 47.3883 57.1351 46.2719 56.2489 45.2879C55.0127 43.9153 53.4744 42.7808 51.2835 42.3475C45.4848 41.2006 38.4864 42.8606 32.0924 46.2131C25.6977 49.566 19.8888 54.6205 16.4565 60.2905C15.1767 62.4047 13.8759 64.6627 12.929 66.8573C11.9824 69.0512 11.3849 71.1915 11.521 73.0675Z"
    fill="#007646" stroke="black" stroke-width="0.333333" />
  <path
    d="M54.225 63.0898C47.4401 74.2981 32.7103 81.5253 21.3424 79.2768C9.9745 77.0283 6.20912 66.1429 12.994 54.9346C19.7788 43.7264 34.5086 36.4991 45.8765 38.7476C57.2444 40.9961 61.0098 51.8816 54.225 63.0898Z"
    fill="#00D57E" stroke="black" stroke-width="0.333333" />
  <g filter="url(#filter4_i_10774_64016)">
    <ellipse cx="16.5103" cy="18.5941" rx="16.5103" ry="18.5941"
      transform="matrix(0.980995 0.194034 -0.517854 0.855469 27.042 39.9023)" fill="#00D57E" />
  </g>
  <path
    d="M49.6424 62.1837C44.3622 70.9064 32.9038 76.5245 24.0668 74.7766C15.2297 73.0287 12.2963 64.564 17.5765 55.8413C22.8567 47.1187 34.3151 41.5006 43.1522 43.2485C51.9892 44.9964 54.9226 53.4611 49.6424 62.1837Z"
    stroke="black" stroke-width="0.333333" />
  <path
    d="M41.2924 46.3301L40.7545 46.8624L30.7352 63.414L30.8263 63.6196L42.3857 60.8208L41.2924 46.3301Z"
    fill="white" />
  <path d="M41.2875 46.3296L24.7601 57.335L30.8214 63.6191L35.6845 55.5854L41.2875 46.3296Z"
    fill="white" />
  <path
    d="M29.9419 65.0742L29.7635 65.1682L26.1944 71.0641L26.1357 71.3618L41.5052 62.2788L29.9419 65.0742Z"
    fill="white" />
  <path d="M26.1316 71.3603L29.9377 65.0727L23.875 58.791L26.1316 71.3603Z" fill="white" />
  <path d="M30.8153 63.6186L42.3747 60.8198L35.6785 55.585L30.8153 63.6186Z" fill="white" />
  <path d="M24.7678 57.335L30.8291 63.6191L35.6923 55.5854L24.7678 57.335Z" fill="white" />
  <defs>
    <filter id="filter0_d_10774_64016" x="50.5898" y="27.6143" width="73.0149" height="43.3152"
      filterUnits="userSpaceOnUse" color-interpolation-filters="sRGB">
      <feFlood flood-opacity="0" result="BackgroundImageFix" />
      <feColorMatrix in="SourceAlpha" type="matrix"
        values="0 0 0 0 0 0 0 0 0 0 0 0 0 0 0 0 0 0 127 0" result="hardAlpha" />
      <feOffset dy="2.36695" />
      <feComposite in2="hardAlpha" operator="out" />
      <feColorMatrix type="matrix" values="0 0 0 0 0 0 0 0 0 0 0 0 0 0 0 0 0 0 1 0" />
      <feBlend mode="normal" in2="BackgroundImageFix" result="effect1_dropShadow_10774_64016" />
      <feBlend mode="normal" in="SourceGraphic" in2="effect1_dropShadow_10774_64016" result="shape" />
    </filter>
    <filter id="filter1_i_10774_64016" x="59.7754" y="33.625" width="53.4333" height="29.2861"
      filterUnits="userSpaceOnUse" color-interpolation-filters="sRGB">
      <feFlood flood-opacity="0" result="BackgroundImageFix" />
      <feBlend mode="normal" in="SourceGraphic" in2="BackgroundImageFix" result="shape" />
      <feColorMatrix in="SourceAlpha" type="matrix"
        values="0 0 0 0 0 0 0 0 0 0 0 0 0 0 0 0 0 0 127 0" result="hardAlpha" />
      <feOffset dy="5" />
      <feComposite in2="hardAlpha" operator="arithmetic" k2="-1" k3="1" />
      <feColorMatrix type="matrix"
        values="0 0 0 0 0.0759301 0 0 0 0 0.235998 0 0 0 0 0.666345 0 0 0 1 0" />
      <feBlend mode="normal" in2="shape" result="effect1_innerShadow_10774_64016" />
    </filter>
    <filter id="filter2_i_10774_64016" x="65.7498" y="13.3721" width="30.5181" height="43.2744"
      filterUnits="userSpaceOnUse" color-interpolation-filters="sRGB">
      <feFlood flood-opacity="0" result="BackgroundImageFix" />
      <feBlend mode="normal" in="SourceGraphic" in2="BackgroundImageFix" result="shape" />
      <feColorMatrix in="SourceAlpha" type="matrix"
        values="0 0 0 0 0 0 0 0 0 0 0 0 0 0 0 0 0 0 127 0" result="hardAlpha" />
      <feOffset dx="1.85304" dy="1.69912" />
      <feComposite in2="hardAlpha" operator="arithmetic" k2="-1" k3="1" />
      <feColorMatrix type="matrix" values="0 0 0 0 0 0 0 0 0 0 0 0 0 0 0 0 0 0 0.9 0" />
      <feBlend mode="normal" in2="shape" result="effect1_innerShadow_10774_64016" />
    </filter>
    <filter id="filter3_d_10774_64016" x="74.1917" y="20.2559" width="15.2528" height="30.941"
      filterUnits="userSpaceOnUse" color-interpolation-filters="sRGB">
      <feFlood flood-opacity="0" result="BackgroundImageFix" />
      <feColorMatrix in="SourceAlpha" type="matrix"
        values="0 0 0 0 0 0 0 0 0 0 0 0 0 0 0 0 0 0 127 0" result="hardAlpha" />
      <feOffset dx="1.84995" dy="2.01813" />
      <feComposite in2="hardAlpha" operator="out" />
      <feColorMatrix type="matrix" values="0 0 0 0 0 0 0 0 0 0 0 0 0 0 0 0 0 0 0.3 0" />
      <feBlend mode="normal" in2="BackgroundImageFix" result="effect1_dropShadow_10774_64016" />
      <feBlend mode="normal" in="SourceGraphic" in2="effect1_dropShadow_10774_64016" result="shape" />
    </filter>
    <filter id="filter4_i_10774_64016" x="14.7639" y="42.7832" width="37.6912" height="32.459"
      filterUnits="userSpaceOnUse" color-interpolation-filters="sRGB">
      <feFlood flood-opacity="0" result="BackgroundImageFix" />
      <feBlend mode="normal" in="SourceGraphic" in2="BackgroundImageFix" result="shape" />
      <feColorMatrix in="SourceAlpha" type="matrix"
        values="0 0 0 0 0 0 0 0 0 0 0 0 0 0 0 0 0 0 127 0" result="hardAlpha" />
      <feOffset dx="1.85304" dy="1.69912" />
      <feComposite in2="hardAlpha" operator="arithmetic" k2="-1" k3="1" />
      <feColorMatrix type="matrix" values="0 0 0 0 0 0 0 0 0 0 0 0 0 0 0 0 0 0 0.9 0" />
      <feBlend mode="normal" in2="shape" result="effect1_innerShadow_10774_64016" />
    </filter>
  </defs>
</svg>
  