<svg width="229" height="263" viewBox="0 0 229 263" fill="none" xmlns="http://www.w3.org/2000/svg">
  <path
    d="M123.026 123.21C136.124 135.775 158.389 140.136 172.741 133.077C177.639 130.668 180.998 127.237 182.781 123.262C183.539 121.572 184.457 119.058 185.188 116.96C185.553 115.913 185.87 114.971 186.096 114.292C186.209 113.952 186.299 113.678 186.361 113.489L186.432 113.271L186.436 113.26C185.935 110.827 184.361 108.097 182.285 105.375C180.193 102.632 177.61 99.9218 175.159 97.5702C168.653 91.3288 158.101 87.4368 147.323 86.0026C136.604 84.5762 125.762 85.5941 118.58 89.0762C118.564 89.1138 118.544 89.1612 118.52 89.2176C118.451 89.3794 118.351 89.6162 118.226 89.9154C117.977 90.514 117.629 91.3625 117.233 92.3618C116.44 94.3613 115.459 96.9608 114.7 99.3684C112.378 106.728 115.08 115.587 123.026 123.21Z"
    fill="#28AD76" stroke="white" stroke-width="0.899941" />
  <path
    d="M126.161 114.552C139.259 127.117 161.524 131.478 175.876 124.419C190.229 117.361 191.392 101.478 178.294 88.9123C165.196 76.3466 142.932 71.986 128.579 79.0446C114.227 86.1032 113.063 101.986 126.161 114.552Z"
    fill="#1B1B1B" stroke="white" stroke-width="0.899941" />
  <path
    d="M132.111 85.1352C138.861 79.9858 150.778 79.6294 162.079 84.959C176.381 91.7039 184.283 105.002 179.728 114.661C178.829 116.568 177.511 118.191 175.865 119.515"
    stroke="white" stroke-width="0.899941" />
  <path
    d="M157.23 104.498L165.177 113.765L160.208 115.734L152.262 106.469L152.064 106.238L151.771 106.339C148.504 107.467 145.459 108.224 143.103 108.538C141.922 108.695 140.935 108.737 140.188 108.667C139.423 108.595 139.021 108.417 138.849 108.216C138.677 108.015 138.647 107.69 138.932 107.202C139.21 106.726 139.751 106.163 140.534 105.542C142.096 104.303 144.566 102.875 147.62 101.498L147.894 101.375L147.695 101.143L145.155 98.1807L144.946 97.9378L144.649 98.0557L137.136 101.033L133.664 96.9836L154.255 88.825L157.727 92.8739L150.214 95.8508L149.916 95.9686L150.124 96.2115L152.667 99.1761L152.865 99.4073L153.158 99.3066C156.414 98.1854 159.447 97.433 161.794 97.1229C162.97 96.9674 163.953 96.9259 164.696 96.9963C165.458 97.0686 165.858 97.2464 166.03 97.4465C166.202 97.6465 166.232 97.9708 165.949 98.4571C165.673 98.9312 165.135 99.4921 164.357 100.111C162.803 101.346 160.345 102.769 157.305 104.143L157.032 104.267L157.23 104.498ZM156.776 103.482L156.777 103.481C159.197 102.387 161.19 101.284 162.49 100.341C163.137 99.8705 163.626 99.4296 163.906 99.0401C164.045 98.8455 164.141 98.6518 164.17 98.4642C164.199 98.2744 164.161 98.0744 164.003 97.8906C163.846 97.7069 163.608 97.5856 163.351 97.5092C163.097 97.4337 162.802 97.3951 162.483 97.3818C161.847 97.3552 161.041 97.4273 160.12 97.5787C158.271 97.8825 155.877 98.5188 153.281 99.4121L152.958 99.5232L153.177 99.7783L155.329 102.288C154.56 102.638 153.732 102.989 152.863 103.333C152.011 103.671 151.171 103.981 150.361 104.259L148.2 101.739L147.981 101.484L147.68 101.62C145.247 102.719 143.241 103.826 141.933 104.774C141.281 105.246 140.789 105.689 140.507 106.08C140.366 106.276 140.27 106.47 140.24 106.658C140.211 106.849 140.249 107.05 140.408 107.234C140.566 107.419 140.804 107.54 141.062 107.617C141.318 107.692 141.614 107.731 141.934 107.744C142.573 107.77 143.383 107.697 144.309 107.545C146.167 107.238 148.572 106.598 151.177 105.699L151.178 105.699L151.519 105.58L151.526 105.578L151.531 105.576C151.873 105.456 152.217 105.332 152.565 105.203L152.565 105.203L152.572 105.2L152.6 105.189L152.89 105.081L152.89 105.081L152.897 105.078L152.978 105.046L153.22 104.954L153.22 104.954L153.225 104.952L154.771 104.34L154.771 104.34L154.775 104.338L155.014 104.239L155.1 104.206L155.1 104.206L155.106 104.203L155.408 104.076L155.419 104.072L155.419 104.072L155.426 104.069C155.652 103.973 155.874 103.877 156.093 103.782L156.12 103.771L156.12 103.771L156.132 103.766L156.42 103.639L156.45 103.627L156.457 103.624L156.463 103.621L156.776 103.482Z"
    fill="white" stroke="white" stroke-width="0.639853" />
  <path
    d="M82.8959 191.337C95.994 203.902 118.259 208.263 132.611 201.204C137.509 198.795 140.868 195.364 142.651 191.389C143.409 189.699 144.327 187.185 145.058 185.087C145.423 184.04 145.74 183.098 145.966 182.419C146.079 182.079 146.169 181.805 146.231 181.616L146.302 181.398L146.306 181.387C145.805 178.954 144.231 176.224 142.155 173.501C140.063 170.759 137.48 168.049 135.029 165.697C128.523 159.456 117.971 155.564 107.193 154.13C96.4742 152.703 85.6321 153.721 78.4498 157.203C78.4338 157.241 78.4136 157.288 78.3896 157.345C78.3209 157.506 78.221 157.743 78.0964 158.042C77.847 158.641 77.4985 159.489 77.1025 160.489C76.3102 162.488 75.3289 165.088 74.5695 167.495C72.2483 174.855 74.9502 183.714 82.8959 191.337Z"
    fill="#FFCE1F" stroke="white" stroke-width="0.899941" />
  <path
    d="M86.0313 182.682C99.1294 195.248 121.394 199.609 135.746 192.55C150.099 185.492 151.262 169.609 138.164 157.043C125.066 144.477 102.802 140.117 88.4493 147.175C74.0969 154.234 72.9332 170.117 86.0313 182.682Z"
    fill="#1B1B1B" stroke="white" stroke-width="0.899941" />
  <path
    d="M113.339 158.881L112.552 166.794C112.493 167.334 113.537 167.699 113.78 167.194L116.329 162.084C116.403 161.954 116.642 161.975 116.751 162.14L124.612 173.999C124.722 174.164 124.522 174.299 124.335 174.209L98.5306 162.39C97.6939 161.999 96.7945 161.901 96.0005 162.107L95.4529 162.249C94.0291 162.618 93.5238 163.938 94.3522 165.187L105.417 181.879C106.246 183.128 108.095 183.837 109.546 183.461C110.45 183.226 111.033 182.605 111.072 181.794L111.859 173.881C111.918 173.341 110.874 172.976 110.632 173.481L108.067 178.567C107.993 178.697 107.754 178.676 107.645 178.511L99.799 166.675C99.6896 166.51 99.8891 166.376 100.077 166.465L125.881 178.284C126.718 178.675 127.644 178.766 128.411 178.567L128.959 178.425C130.41 178.049 130.915 176.73 130.087 175.48L119.021 158.788C118.193 157.539 116.344 156.831 114.893 157.207C113.962 157.448 113.379 158.069 113.339 158.881Z"
    fill="white" />
  <path
    d="M106.521 148.847C101.712 148.776 97.0963 149.648 93.1954 151.566C85.3309 155.434 82.3929 162.563 84.5935 169.892M139.263 180.259C137.812 183.408 135.123 186.129 131.222 188.047C128.652 189.311 125.773 190.121 122.732 190.506"
    stroke="white" stroke-width="1.23537" />
  <path
    d="M24.6483 174.877L1.55537 99.4625L5.04818 98.0148L16.6363 109.965C28.8793 14.7453 115.316 -20.1067 164.437 13.251C107.383 6.26738 55.2794 71.6238 46.8343 131.75L28.3481 174.877L24.6483 174.877Z"
    fill="black" stroke="black" stroke-width="0.974351" />
  <path
    d="M27.8687 174.467L5.14346 98.3419L19.7591 108.841C31.6477 13.6187 126.058 -19.6892 165.235 13.6154C109.935 6.64473 57.2244 70.491 49.025 130.619L59.9529 138.501L27.8687 174.467Z"
    fill="white" stroke="white" stroke-width="0.974351" />
  <path
    d="M164.94 121.507L196.247 84.862L201.213 84.862L220.596 160.483L205.759 150.3C195.912 245.755 102.236 281.076 62.3547 248.617C117.792 254.403 169.123 189.443 176.034 129.153L164.94 121.507Z"
    fill="white" stroke="#111111" stroke-width="0.974351" />
  <path
    d="M172.386 120.083L201.412 85.6289L224.734 158.061L211.607 149.051L210.625 148.377L210.503 149.561C205.603 197.053 179.861 229.548 150.419 246.144C121.861 262.242 89.9642 263.326 70.1479 248.867C97.2704 250.778 122.982 237.183 142.909 215.192C163.431 192.544 177.887 160.926 181.523 127.903L181.565 127.519L181.265 127.276L172.386 120.083Z"
    fill="#1754F8" stroke="black" stroke-width="1.41515" />
  <path
    d="M50.2786 245.211C22.9925 230.152 14.6946 217.977 16.0272 187.63L19.5321 185.479L42.5017 206.989C42.0789 222.006 49.8123 237.931 53.9489 243.557L50.2786 245.211Z"
    stroke="white" stroke-width="0.899941" />
  <path
    d="M46.8062 227.015C47.9013 232.143 49.6527 236.551 52.1704 241.436C39.7415 234.383 31.6127 227.909 26.6652 219.798C21.6065 211.505 19.8163 201.403 20.322 186.998L45.4245 205.354C45.1796 214.587 45.5732 221.24 46.8062 227.015Z"
    fill="#1754F8" stroke="black" stroke-width="1.41515" />
  <path
    d="M95.6319 96.7423L95.6616 96.6492C95.2912 94.8611 94.1811 92.9738 92.6765 91.0714C91.1453 89.1353 89.2341 87.2184 87.3528 85.4136C82.4467 80.7068 75.3364 77.2332 68.1018 75.6069C60.8643 73.98 53.5891 74.2179 48.2708 76.8335C46.3604 77.773 45.1817 79.2169 44.3244 80.8989C43.7071 82.11 43.2773 83.3953 42.8492 84.6753C42.6768 85.1907 42.5048 85.7052 42.3209 86.2137C40.2967 91.8103 42.2512 98.679 48.3951 104.573C58.2325 114.011 74.8907 117.236 85.5797 111.98C89.8693 109.87 92.58 106.707 93.661 103.062C93.9748 102.003 94.4833 100.374 94.9126 99.0118C95.1274 98.3302 95.3226 97.7145 95.4642 97.2693L95.6319 96.7423Z"
    fill="#1754F8" stroke="black" stroke-width="1.41515" />
  <path
    d="M50.5464 98.1085C60.465 107.624 77.3063 110.911 88.148 105.579C98.9898 100.247 99.885 88.2369 89.9664 78.7214C80.0477 69.2059 63.2065 65.9184 52.3647 71.2505C41.523 76.5825 40.6277 88.593 50.5464 98.1085Z"
    fill="#1B1B1B" stroke="white" stroke-width="0.899941" />
  <path
    d="M85.0769 103.197C94.1629 98.7283 94.8578 88.7061 86.6289 80.8117C78.4 72.9173 64.3634 70.1401 55.2774 74.6086"
    stroke="white" stroke-width="0.899941" />
  <path
    d="M58.9205 77.5565L59.6161 77.9534L74.3908 92.1275L74.3539 92.3626L61.7719 92.6677L58.9205 77.5565Z"
    fill="white" />
  <path d="M58.9208 77.5556L78.8287 84.2783L74.3542 92.3617L67.183 85.482L58.9208 77.5556Z"
    fill="white" />
  <path
    d="M75.6525 93.6087L75.8606 93.6559L81.1236 98.7049L81.2651 98.9932L63.0674 93.9184L75.6525 93.6087Z"
    fill="white" />
  <path d="M81.2652 98.9913L75.6525 93.6068L80.1292 85.5254L81.2652 98.9913Z" fill="white" />
  <path d="M74.3542 92.3621L61.7721 92.6673L67.183 85.4824L74.3542 92.3621Z" fill="white" />
  <path d="M78.8286 84.2816L74.3541 92.3651L67.1829 85.4853L78.8286 84.2816Z" fill="white" />
</svg>
  