<svg width="25" height="24" viewBox="0 0 25 24" fill="none" xmlns="http://www.w3.org/2000/svg">
<path d="M12.4428 4.57858C12.5508 4.34854 12.878 4.34854 12.9859 4.57858L15.1185 9.12196C15.161 9.21253 15.2458 9.27594 15.3447 9.29105L20.1372 10.0233C20.3786 10.0602 20.4772 10.3546 20.3066 10.5293L16.8201 14.1028C16.7536 14.1709 16.7234 14.2666 16.7387 14.3606L17.5592 19.3903C17.5995 19.6374 17.3371 19.8223 17.1179 19.7011L12.8595 17.3471C12.7692 17.2972 12.6595 17.2972 12.5692 17.3471L8.31077 19.7011C8.0916 19.8223 7.82923 19.6374 7.86954 19.3903L8.68998 14.3606C8.70531 14.2666 8.67512 14.1709 8.60862 14.1028L5.12208 10.5293C4.95156 10.3546 5.05012 10.0602 5.2915 10.0233L10.084 9.29105C10.1829 9.27594 10.2677 9.21253 10.3102 9.12196L12.4428 4.57858Z" fill="#B9C3DF" stroke="#B9C3DF" stroke-width="2" stroke-linejoin="round"/>
</svg>
